<svg width="728" height="493" viewBox="0 0 728 493" fill="none" xmlns="http://www.w3.org/2000/svg">
<path d="M553.431 438.641C644.467 438.641 718.265 358.444 718.265 259.517C718.265 160.59 644.467 80.3938 553.431 80.3938C462.396 80.3938 388.597 160.59 388.597 259.517C388.597 358.444 462.396 438.641 553.431 438.641Z" fill="#F2F2F2"/>
<path d="M89.4294 136.811C124.195 136.811 152.378 106.185 152.378 68.4055C152.378 30.6262 124.195 0 89.4294 0C54.6639 0 26.4809 30.6262 26.4809 68.4055C26.4809 106.185 54.6639 136.811 89.4294 136.811Z" fill="#FF6584"/>
<path d="M202.347 367.414C293.383 367.414 367.181 287.218 367.181 188.291C367.181 89.3638 293.383 9.16748 202.347 9.16748C111.312 9.16748 37.5131 89.3638 37.5131 188.291C37.5131 287.218 111.312 367.414 202.347 367.414Z" fill="#F2F2F2"/>
<path d="M194.56 377.288C294.555 377.288 375.618 372.552 375.618 366.71C375.618 360.867 294.555 356.131 194.56 356.131C94.5643 356.131 13.5018 360.867 13.5018 366.71C13.5018 372.552 94.5643 377.288 194.56 377.288Z" fill="#3F3D56"/>
<path opacity="0.1" d="M158.219 374.37C233.126 374.37 293.85 371.103 293.85 367.074C293.85 363.045 233.126 359.779 158.219 359.779C83.3114 359.779 22.5872 363.045 22.5872 367.074C22.5872 371.103 83.3114 374.37 158.219 374.37Z" fill="black"/>
<path d="M546.942 452.04C646.937 452.04 728 446.83 728 440.404C728 433.978 646.937 428.768 546.942 428.768C446.946 428.768 365.884 433.978 365.884 440.404C365.884 446.83 446.946 452.04 546.942 452.04Z" fill="#3F3D56"/>
<path opacity="0.1" d="M510.6 448.83C585.507 448.83 646.232 445.237 646.232 440.805C646.232 436.373 585.507 432.781 510.6 432.781C435.693 432.781 374.969 436.373 374.969 440.805C374.969 445.237 435.693 448.83 510.6 448.83Z" fill="black"/>
<path d="M260.168 419.601C323.98 419.601 375.709 416.759 375.709 413.254C375.709 409.748 323.98 406.907 260.168 406.907C196.355 406.907 144.626 409.748 144.626 413.254C144.626 416.759 196.355 419.601 260.168 419.601Z" fill="#3F3D56"/>
<path d="M55.747 395.159C86.5353 395.159 111.494 393.788 111.494 392.097C111.494 390.406 86.5353 389.035 55.747 389.035C24.9588 389.035 0 390.406 0 392.097C0 393.788 24.9588 395.159 55.747 395.159Z" fill="#3F3D56"/>
<path d="M618.406 493C675.707 493 722.16 490.448 722.16 487.301C722.16 484.153 675.707 481.601 618.406 481.601C561.104 481.601 514.651 484.153 514.651 487.301C514.651 490.448 561.104 493 618.406 493Z" fill="#3F3D56"/>
<path d="M607.294 305.356H399.629V439.346H607.294V305.356Z" fill="#3F3D56"/>
<path d="M466.471 424.537C492.277 424.537 513.196 401.804 513.196 373.762C513.196 345.719 492.277 322.987 466.471 322.987C440.666 322.987 419.747 345.719 419.747 373.762C419.747 401.804 440.666 424.537 466.471 424.537Z" fill="#6C63FF"/>
<path d="M543.048 326.513H527.473V343.438H543.048V326.513Z" fill="#6C63FF"/>
<path opacity="0.5" d="M562.517 326.513H546.942V343.438H562.517V326.513Z" fill="#6C63FF"/>
<path opacity="0.2" d="M581.985 326.513H566.41V343.438H581.985V326.513Z" fill="#6C63FF"/>
<path d="M543.048 347.669H527.473V364.594H543.048V347.669Z" fill="#2F2E41"/>
<path opacity="0.5" d="M562.517 347.669H546.942V364.594H562.517V347.669Z" fill="#2F2E41"/>
<path opacity="0.2" d="M581.985 347.669H566.41V364.594H581.985V347.669Z" fill="#2F2E41"/>
<path d="M543.048 368.825H527.473V385.75H543.048V368.825Z" fill="#FF6584"/>
<path opacity="0.5" d="M562.517 368.825H546.942V385.75H562.517V368.825Z" fill="#FF6584"/>
<path opacity="0.2" d="M581.985 368.825H566.41V385.75H581.985V368.825Z" fill="#FF6584"/>
<path opacity="0.5" d="M466.471 322.987V424.537C492.277 424.537 514.494 401.804 514.494 373.762C514.494 345.719 492.277 322.987 466.471 322.987Z" fill="#3F3D56"/>
<path d="M651.748 314.877C651.748 314.877 679.004 328.276 669.27 343.79C659.535 359.305 630.332 388.924 629.683 395.271C629.034 401.618 625.141 407.259 625.141 407.259C625.141 407.259 612.162 392.45 613.46 391.039C614.757 389.629 627.737 376.23 628.385 372.704C629.034 369.178 648.503 341.675 648.503 341.675L630.981 324.75L651.748 314.877Z" fill="#FFB9B9"/>
<path opacity="0.1" d="M651.748 314.877C651.748 314.877 679.004 328.276 669.27 343.79C659.535 359.305 630.332 388.924 629.683 395.271C629.034 401.618 625.141 407.259 625.141 407.259C625.141 407.259 612.162 392.45 613.46 391.039C614.757 389.629 627.737 376.23 628.385 372.704C629.034 369.178 648.503 341.675 648.503 341.675L630.981 324.75L651.748 314.877Z" fill="black"/>
<path d="M617.353 344.495C617.353 344.495 636.173 352.958 634.875 366.357C633.577 379.756 657.588 417.837 657.588 417.837C657.588 417.837 660.184 427.005 659.535 429.826C658.886 432.647 676.408 431.942 676.408 431.942V425.595C676.408 425.595 662.78 400.207 661.482 393.155C660.184 386.103 652.397 358.6 652.397 358.6C652.397 358.6 649.801 333.917 636.822 333.917C633.044 333.917 629.318 334.873 625.939 336.709C622.559 338.545 619.62 341.211 617.353 344.495Z" fill="#FFB9B9"/>
<path d="M618.327 280.674C618.327 280.674 657.264 315.229 655.966 318.05C654.668 320.871 635.849 331.449 632.604 332.154C629.359 332.859 606.401 280.674 606.401 280.674H618.327Z" fill="#2F2E41"/>
<path opacity="0.1" d="M618.327 280.674C618.327 280.674 657.264 315.229 655.966 318.05C654.668 320.871 635.849 331.449 632.604 332.154C629.359 332.859 606.401 280.674 606.401 280.674H618.327Z" fill="black"/>
<path d="M576.145 287.726C576.145 287.726 572.251 306.767 582.635 314.524C593.018 322.281 610.54 352.605 612.487 352.605C614.433 352.605 642.338 336.386 641.04 333.565C639.743 330.744 625.466 306.062 625.466 306.062L620.923 279.969C620.923 279.969 581.337 278.558 576.145 287.726Z" fill="#2F2E41"/>
<path d="M618.327 225.667L624.167 266.57L634.55 295.483C634.55 295.483 650.125 313.114 641.04 314.524C631.955 315.934 626.763 295.483 626.763 295.483L618.327 278.558V225.667Z" fill="#FFB9B9"/>
<path opacity="0.1" d="M618.327 225.667L624.167 266.57L634.55 295.483C634.55 295.483 650.125 313.114 641.04 314.524C631.955 315.934 626.763 295.483 626.763 295.483L618.327 278.558V225.667Z" fill="black"/>
<path d="M596.587 180.181C596.587 180.181 596.587 194.991 592.044 196.401C587.501 197.812 610.215 216.852 610.215 216.852C610.215 216.852 607.619 192.17 616.704 185.823L596.587 180.181Z" fill="#FFB9B9"/>
<path opacity="0.1" d="M596.587 180.181C596.587 180.181 596.587 194.991 592.044 196.401C587.501 197.812 610.215 216.852 610.215 216.852C610.215 216.852 607.619 192.17 616.704 185.823L596.587 180.181Z" fill="black"/>
<path d="M606.97 192.17C615.213 192.17 621.896 184.908 621.896 175.95C621.896 166.992 615.213 159.73 606.97 159.73C598.727 159.73 592.044 166.992 592.044 175.95C592.044 184.908 598.727 192.17 606.97 192.17Z" fill="#FFB9B9"/>
<path d="M607.619 209.8C607.619 209.8 593.991 191.465 592.044 192.17C590.097 192.875 575.82 208.39 574.522 213.326C573.224 218.263 570.628 253.523 572.575 260.575C574.522 267.628 574.522 285.963 573.873 287.373C573.224 288.784 569.331 292.31 573.224 292.31C577.118 292.31 590.746 281.732 599.831 283.847C608.917 285.963 621.247 283.142 621.896 281.732C622.545 280.321 621.247 243.65 621.896 240.83C622.545 238.009 620.598 223.904 619.949 221.084C619.3 218.263 619.3 206.979 612.81 204.159L610.043 203.861L609.888 210.837L607.619 209.8Z" fill="#6C63FF"/>
<path d="M579.065 246.471C579.065 246.471 580.363 268.333 590.097 277.5C599.831 286.668 620.598 302.183 621.896 305.004C623.194 307.825 635.524 322.634 638.12 316.287C638.873 314.308 639.055 312.128 638.64 310.034C638.263 307.953 637.499 305.978 636.393 304.23C635.288 302.482 633.866 300.999 632.213 299.87L626.439 295.836L597.885 263.396L596.587 246.471H579.065Z" fill="#FFB9B9"/>
<path d="M616.38 388.571C616.38 388.571 608.917 386.808 606.321 391.745C603.725 396.681 608.917 410.08 608.917 410.08C608.917 410.08 623.843 443.93 626.439 439.699C629.035 435.468 624.492 419.953 624.492 419.953C624.492 419.953 630.982 404.438 628.386 403.733C625.79 403.028 616.38 397.034 616.38 388.571Z" fill="#2F2E41"/>
<path d="M662.131 429.121C662.131 429.121 658.237 427.005 657.588 429.121C656.939 431.236 653.046 441.814 657.588 443.225C662.131 444.635 706.909 446.046 705.611 443.225C704.313 440.404 697.175 436.878 692.632 435.468C688.089 434.057 676.408 423.479 676.408 423.479C676.408 423.479 669.918 432.647 662.131 429.121Z" fill="#2F2E41"/>
<path d="M622.006 163.077C621.726 162.054 621.109 161.178 620.272 160.618C620.315 159.522 620.192 158.425 619.906 157.373C618.953 154.309 616.693 154.485 614.562 153.13C613.637 152.542 613.694 152.023 613.213 151.058C612.582 149.792 611.637 148.745 610.485 148.034C609.118 147.087 607.674 146.112 606.057 145.992C602.657 145.74 600.05 149.215 596.801 150.33C595.368 150.822 593.829 150.842 592.389 151.307C590.949 151.772 589.513 152.881 589.298 154.497C589.199 155.243 589.374 156.008 589.274 156.753C589.074 158.235 587.877 159.273 587.076 160.492C585.305 163.188 585.508 166.995 586.924 169.928C587.223 170.535 587.564 171.116 587.946 171.665C588.064 173.051 588.43 174.399 589.024 175.632C590.44 178.565 592.878 180.757 595.424 182.577C595.215 181.605 595.089 180.613 595.046 179.616C595.01 179.283 595.05 178.946 595.162 178.635C595.445 177.991 596.195 177.819 596.766 177.466C597.949 176.736 598.413 175.119 598.447 173.64C598.481 172.162 598.193 170.681 598.336 169.211C598.341 168.872 598.412 168.539 598.543 168.233C598.675 167.926 598.864 167.652 599.098 167.43C599.535 167.159 600.034 167.03 600.536 167.058C602.96 166.95 605.493 166.902 607.631 165.656C608.321 165.158 609.062 164.751 609.84 164.442C611.657 163.927 613.514 165.311 614.561 167.005C615.609 168.699 616.131 170.715 617.097 172.465C618.063 174.215 619.733 175.775 621.601 175.568C621.706 175.568 621.81 175.544 621.906 175.498C622.003 175.451 622.089 175.383 622.159 175.298C622.239 175.141 622.275 174.961 622.262 174.782L622.366 167.021C622.453 165.694 622.331 164.36 622.006 163.077Z" fill="#2F2E41"/>
<path d="M584.906 210.505C584.906 210.505 599.183 217.557 598.534 232.367C597.885 247.176 602.428 248.587 591.396 249.997C580.363 251.408 577.768 249.997 577.119 251.408C576.47 252.818 572.576 218.968 575.172 215.442C577.768 211.916 584.906 210.505 584.906 210.505Z" fill="#6C63FF"/>
<path d="M297.744 90.9721C309.213 90.9721 318.51 80.8686 318.51 68.4054C318.51 55.9421 309.213 45.8386 297.744 45.8386C286.275 45.8386 276.977 55.9421 276.977 68.4054C276.977 80.8686 286.275 90.9721 297.744 90.9721Z" fill="#2F2E41"/>
<path d="M311.696 315.582L300.015 350.137C300.015 350.137 290.281 358.6 296.122 361.42C301.962 364.241 313.643 358.6 313.643 358.6L322.729 333.212L321.431 315.582H311.696Z" fill="#2F2E41"/>
<path opacity="0.1" d="M311.696 315.582L300.015 350.137C300.015 350.137 290.281 358.6 296.122 361.42C301.962 364.241 313.643 358.6 313.643 358.6L322.729 333.212L321.431 315.582H311.696Z" fill="black"/>
<path d="M312.67 110.718L322.404 112.128C322.404 112.128 326.947 150.915 325 153.736C323.053 156.557 313.319 167.84 309.425 165.019C305.531 162.198 312.67 110.718 312.67 110.718Z" fill="#575A89"/>
<path d="M219.545 181.592C219.545 181.592 205.917 187.939 203.321 188.644C200.725 189.349 196.831 196.401 201.374 197.812C205.917 199.222 223.439 185.118 223.439 185.118L219.545 181.592Z" fill="#A0616A"/>
<path d="M316.239 329.686L323.377 358.6C323.377 358.6 324.026 369.178 327.271 369.883C330.516 370.588 340.25 366.357 340.25 364.947C340.25 363.536 336.356 352.253 336.356 352.253C336.356 352.253 336.356 343.79 332.463 340.264C328.569 336.738 325.061 324.926 325.061 324.926L316.239 329.686Z" fill="#2F2E41"/>
<path d="M325.324 263.396C326.635 266.718 326.473 290.815 325.039 306.851C324.344 314.644 323.351 320.532 322.079 321.223L312.78 318.699L309.1 317.697L309.003 308.924L308.451 260.575L297.419 210.505V197.812L325.324 200.632L329.75 208.185L329.867 208.39C329.867 208.39 323.377 258.46 325.324 263.396Z" fill="#2F2E41"/>
<path opacity="0.1" d="M319.484 278.911C320.872 281.174 323.189 294.729 325.039 306.851C324.344 314.644 323.351 320.532 322.079 321.223L312.78 318.699C312.637 318.374 312.494 318.036 312.345 317.697C311.157 314.989 310.041 311.999 309.003 308.924L308.451 260.575L297.419 210.505V197.812L325.324 200.632L329.75 208.185L303.909 206.274L309.749 233.777L316.888 262.691C316.888 262.691 316.888 274.679 319.484 278.911Z" fill="black"/>
<path d="M273.408 169.603C273.408 169.603 264.322 191.465 277.301 221.789C285.333 240.66 292.48 259.96 298.717 279.616C298.717 279.616 303.26 302.888 309.749 317.698C316.239 332.507 314.941 333.212 314.941 333.212L325.324 326.865C325.324 326.865 319.483 283.142 316.888 278.911C314.292 274.68 314.292 262.691 314.292 262.691L307.153 233.777L301.313 206.274L329.867 208.39C329.867 208.39 329.867 168.193 316.888 160.436L273.408 169.603Z" fill="#2F2E41"/>
<path d="M284.116 78.9836C284.116 78.9836 284.116 90.267 280.871 90.9722C277.626 91.6774 271.137 91.6774 269.19 95.2035C267.243 98.7295 284.116 145.273 284.116 145.273L301.638 133.285L307.478 101.55C307.478 101.55 299.042 95.9087 299.042 93.0879V80.3941L284.116 78.9836Z" fill="#A0616A"/>
<path opacity="0.1" d="M284.116 78.9836C284.116 78.9836 284.116 90.267 280.871 90.9722C277.626 91.6774 271.137 91.6774 269.19 95.2035C267.243 98.7295 284.116 145.273 284.116 145.273L301.638 133.285L307.478 101.55C307.478 101.55 299.042 95.9087 299.042 93.0879V80.3941L284.116 78.9836Z" fill="black"/>
<path d="M294.174 91.3247C302.776 91.3247 309.749 83.7471 309.749 74.3997C309.749 65.0522 302.776 57.4746 294.174 57.4746C285.573 57.4746 278.599 65.0522 278.599 74.3997C278.599 83.7471 285.573 91.3247 294.174 91.3247Z" fill="#A0616A"/>
<path d="M286.062 131.169C286.062 131.169 280.222 90.9722 278.924 90.9722C277.626 90.9722 259.455 95.2034 258.157 95.9086C256.86 96.6139 252.317 102.961 252.317 102.961L261.402 131.169C261.402 131.169 265.296 150.915 267.892 154.441C270.488 157.967 275.679 167.84 273.083 169.251C270.488 170.661 267.892 172.777 270.488 172.777C273.083 172.777 294.499 168.545 295.797 170.661C297.095 172.777 318.51 162.904 318.51 162.198C318.51 161.493 315.914 128.348 315.914 128.348L322.404 112.128L302.935 97.3191L286.062 131.169Z" fill="#575A89"/>
<path d="M258.806 99.4348L252.317 102.961C252.317 102.961 234.146 148.094 232.848 148.8C231.55 149.505 225.061 162.904 224.412 165.725C223.763 168.545 222.465 177.713 220.518 179.124C219.474 179.894 218.39 180.601 217.273 181.239C217.273 181.239 221.167 188.291 223.114 188.291C225.061 188.291 231.55 178.418 231.55 178.418C231.55 178.418 245.827 188.291 249.721 180.534C253.615 172.777 263.349 123.412 263.349 123.412L258.806 99.4348Z" fill="#575A89"/>
<path d="M309.75 120.944C309.75 120.944 300.664 96.9665 295.473 99.7874C290.281 102.608 299.366 119.533 305.207 122.354L309.75 120.944Z" fill="#A0616A"/>
<path opacity="0.1" d="M300.664 121.649L309.769 119.412L311.696 130.111C311.696 130.111 320.133 146.331 318.186 153.383C316.239 160.435 304.558 171.719 300.664 165.372C296.77 159.025 293.525 149.152 296.121 143.51C298.717 137.869 302.611 124.47 300.664 121.649Z" fill="black"/>
<path d="M302.611 120.238L311.716 118.002L313.643 128.701C313.643 128.701 322.079 144.921 320.132 151.973C318.186 159.025 306.504 170.308 302.611 163.962C298.717 157.615 295.472 147.742 298.068 142.1C300.664 136.458 304.558 123.059 302.611 120.238Z" fill="#575A89"/>
<path d="M312.497 71.0015C314.245 66.9455 309.348 60.4429 301.559 56.4775C293.769 52.5121 286.037 52.5856 284.289 56.6416C282.54 60.6976 287.438 67.2002 295.227 71.1655C303.016 75.1309 310.748 75.0575 312.497 71.0015Z" fill="#2F2E41"/>
<path d="M310.074 59.2376C315.091 59.2376 319.159 54.8173 319.159 49.3647C319.159 43.912 315.091 39.4917 310.074 39.4917C305.056 39.4917 300.988 43.912 300.988 49.3647C300.988 54.8173 305.056 59.2376 310.074 59.2376Z" fill="#2F2E41"/>
<path d="M301.638 45.8388C301.638 43.4037 302.467 41.0547 303.964 39.243C305.461 37.4314 307.522 36.285 309.75 36.0242C308.481 35.8736 307.197 36.0152 305.982 36.4398C304.767 36.8644 303.648 37.5624 302.698 38.4883C301.748 39.4143 300.988 40.5474 300.467 41.8139C299.947 43.0804 299.678 44.4518 299.678 45.8388C299.678 47.2257 299.947 48.5971 300.467 49.8636C300.988 51.1301 301.748 52.2633 302.698 53.1892C303.648 54.1152 304.767 54.8132 305.982 55.2378C307.197 55.6623 308.481 55.8039 309.75 55.6534C307.522 55.3925 305.461 54.2461 303.964 52.4345C302.467 50.6229 301.638 48.2738 301.638 45.8388Z" fill="#2F2E41"/>
<path d="M269.19 195.343H42.0558V366.709H269.19V195.343Z" fill="#3F3D56"/>
<path d="M90.0784 212.269H60.2265V244.708H90.0784V212.269Z" fill="#F2F2F2"/>
<path d="M90.0784 265.159H60.2265V297.599H90.0784V265.159Z" fill="#6C63FF"/>
<path d="M90.0784 318.05H60.2265V350.49H90.0784V318.05Z" fill="#F2F2F2"/>
<path d="M246.476 222.494H104.355V225.315H246.476V222.494Z" fill="#F2F2F2"/>
<path d="M148.484 231.662H104.355V234.482H148.484V231.662Z" fill="#F2F2F2"/>
<path d="M246.476 275.385H104.355V278.206H246.476V275.385Z" fill="#F2F2F2"/>
<path d="M148.484 284.552H104.355V287.373H148.484V284.552Z" fill="#F2F2F2"/>
<path d="M246.476 328.276H104.355V331.096H246.476V328.276Z" fill="#F2F2F2"/>
<path d="M148.484 337.443H104.355V340.264H148.484V337.443Z" fill="#F2F2F2"/>
<path d="M642.338 471.738C642.338 486.094 634.486 491.106 624.798 491.106C624.573 491.106 624.349 491.103 624.126 491.097C623.677 491.087 623.232 491.064 622.793 491.031C614.049 490.359 607.258 485.089 607.258 471.738C607.258 457.925 623.502 440.492 624.725 439.2L624.727 439.198C624.774 439.147 624.798 439.122 624.798 439.122C624.798 439.122 642.338 457.385 642.338 471.738Z" fill="#6C63FF"/>
<path d="M624.159 488.91L630.574 479.17L624.142 489.98L624.126 491.097C623.678 491.087 623.232 491.064 622.793 491.031L623.484 476.67L623.479 476.558L623.49 476.538L623.556 475.18L617.109 464.344L623.576 474.163L623.592 474.451L624.113 463.6L618.594 452.402L624.181 461.697L624.725 439.199L624.727 439.122V439.198L624.636 456.937L630.132 449.904L624.614 458.465L624.469 468.181L629.601 458.857L624.448 469.61L624.367 475.012L631.814 462.034L624.338 476.896L624.159 488.91Z" fill="#3F3D56"/>
<path d="M73.2057 373.714C73.2057 388.07 65.3534 393.082 55.6656 393.082C55.4412 393.082 55.2168 393.078 54.994 393.073C54.5452 393.063 54.0997 393.04 53.6606 393.006C44.9172 392.335 38.1255 387.065 38.1255 373.714C38.1255 359.901 54.3693 342.468 55.593 341.175L55.5946 341.174C55.6414 341.123 55.6656 341.098 55.6656 341.098C55.6656 341.098 73.2057 359.361 73.2057 373.714Z" fill="#6C63FF"/>
<path d="M55.0263 390.885L61.4418 381.146L55.0101 391.956L54.994 393.073C54.5452 393.063 54.0996 393.04 53.6605 393.006L54.3515 378.646L54.3466 378.533L54.3579 378.514L54.4241 377.156L47.9764 366.32L54.4435 376.139L54.4597 376.426L54.9811 365.576L49.4616 354.378L55.0489 363.673L55.5929 341.175L55.5945 341.098V341.174L55.5041 358.913L60.9994 351.88L55.4815 360.441L55.3362 370.157L60.4683 360.832L55.3153 371.586L55.2345 376.988L62.6816 364.009L55.2055 378.872L55.0263 390.885Z" fill="#3F3D56"/>
</svg>
