<svg width="728" height="493" viewBox="0 0 728 493" fill="none" xmlns="http://www.w3.org/2000/svg">
<g clip-path="url(#clip0)">
<g opacity="0.5">
<path opacity="0.5" d="M445.368 0.00682386L61.7982 122.369L303.545 493.01L687.115 370.648L445.368 0.00682386Z" fill="url(#paint0_linear)"/>
</g>
<path d="M442.264 4.29422L68.4539 123.543L304.858 485.993L678.668 366.744L442.264 4.29422Z" fill="white"/>
<path d="M342.33 24.6071L156.888 83.7649L177.378 115.18L362.82 56.022L342.33 24.6071Z" fill="url(#paint1_linear)"/>
<path d="M229.579 23.4833C215.266 28.0511 209.08 40.0632 215.768 50.3148C222.455 60.5665 239.483 65.1745 253.796 60.6067C268.11 56.0389 274.296 44.0269 267.608 33.7753C260.92 23.5236 243.892 18.9155 229.579 23.4833ZM248.672 52.754C245.66 53.7759 242.281 54.1468 238.966 53.8193C235.652 53.4919 232.552 52.4809 230.063 50.9156C227.574 49.3503 225.808 47.3016 224.992 45.0313C224.175 42.7609 224.345 40.3719 225.479 38.1692C226.613 35.9666 228.66 34.0504 231.359 32.6652C234.057 31.2801 237.285 30.4889 240.63 30.3927C243.975 30.2965 247.284 30.8997 250.136 32.1252C252.989 33.3507 255.254 35.1429 256.643 37.273C257.573 38.6559 258.105 40.1535 258.209 41.6802C258.312 43.2069 257.984 44.7329 257.244 46.171C256.504 47.6091 255.366 48.9312 253.895 50.0617C252.424 51.1922 250.649 52.109 248.672 52.7598V52.754Z" fill="url(#paint2_linear)"/>
<path d="M340.386 25.2535L158.85 83.165L178.439 113.198L359.975 55.2866L340.386 25.2535Z" fill="#6C63FF"/>
<path d="M230.468 24.8525C225.448 26.4533 221.219 29.0592 218.317 32.3408C215.415 35.6223 213.969 39.432 214.163 43.2881C214.357 47.1442 216.182 50.8734 219.406 54.0043C222.631 57.1351 227.111 59.5269 232.279 60.8771C237.448 62.2273 243.072 62.4753 248.442 61.5898C253.812 60.7042 258.686 58.7249 262.447 55.9021C266.209 53.0793 268.689 49.5399 269.574 45.7313C270.458 41.9228 269.709 38.0163 267.419 34.5058C264.349 29.7992 258.731 26.1381 251.802 24.3278C244.872 22.5175 237.198 22.7062 230.468 24.8525ZM248.721 52.8403C245.826 53.7634 242.604 54.0654 239.463 53.7082C236.323 53.3509 233.404 52.3504 231.076 50.8331C228.749 49.3159 227.116 47.35 226.386 45.1841C225.656 43.0181 225.86 40.7494 226.973 38.6647C228.087 36.58 230.059 34.7729 232.64 33.472C235.222 32.171 238.297 31.4346 241.477 31.3559C244.657 31.2771 247.799 31.8595 250.506 33.0295C253.213 34.1994 255.362 35.9044 256.684 37.9288C258.454 40.644 258.609 43.7396 257.116 46.5349C255.623 49.3301 252.603 51.5962 248.721 52.8346V52.8403Z" fill="#6C63FF"/>
<path d="M204.349 151.109L124.313 176.641L160.821 232.614L240.857 207.082L204.349 151.109Z" fill="url(#paint3_linear)"/>
<path d="M276.968 261.944L196.933 287.476L233.441 343.449L313.476 317.917L276.968 261.944Z" fill="url(#paint4_linear)"/>
<path d="M202.75 154.092L128.575 177.754L162.41 229.629L236.585 205.967L202.75 154.092Z" fill="#69F0AE"/>
<path d="M274.429 263.983L200.253 287.645L234.088 339.52L308.263 315.858L274.429 263.983Z" fill="#6C63FF"/>
<path d="M363.667 122.105L261.995 154.539L265.231 159.501L366.904 127.066L363.667 122.105Z" fill="#E0E0E0"/>
<path d="M434.732 108.427L266.855 161.981L270.092 166.943L437.968 113.389L434.732 108.427Z" fill="#E0E0E0"/>
<path d="M427.753 119.64L271.701 169.422L274.938 174.384L430.989 124.602L427.753 119.64Z" fill="#E0E0E0"/>
<path d="M435.349 232.001L333.677 264.436L336.914 269.397L438.586 236.963L435.349 232.001Z" fill="#E0E0E0"/>
<path d="M506.411 218.318L338.534 271.872L341.77 276.834L509.647 223.28L506.411 218.318Z" fill="#E0E0E0"/>
<path d="M499.435 229.537L343.383 279.319L346.62 284.281L502.672 234.499L499.435 229.537Z" fill="#E0E0E0"/>
<path d="M163.73 194.137L182.831 198.475L189.115 172.765L198.411 174.543L187.955 206.328L159.148 197.497L163.73 194.137Z" fill="url(#paint5_linear)"/>
<path d="M166.165 193.798L182.773 197.566L188.235 175.21L196.313 176.758L187.223 204.395L162.175 196.72L166.165 193.798Z" fill="white"/>
<path d="M238.29 304.374L254.899 308.142L260.361 285.786L268.439 287.334L259.349 314.971L234.301 307.297L238.29 304.374Z" fill="white"/>
<path d="M557.153 306.967L319.98 382.628L356.041 437.915L593.213 362.255L557.153 306.967Z" fill="#E0E0E0"/>
<path d="M522.77 351.03C513.655 349.212 504.327 349.557 501.423 356.846C500.444 359.303 500.329 363.117 496.562 364.383C491.017 366.246 484.33 362.519 479.517 361C470.551 358.169 461.346 360.097 456.156 366.045C453.523 369.06 452.396 372.529 451.5 375.963C451.113 377.453 451.064 379.294 450.167 380.698C448.448 383.384 443.068 383.143 439.539 383.039C438.766 383.039 437.976 382.976 437.187 382.918C439.976 380.23 441.369 376.956 441.135 373.639C440.905 368.191 435.846 362.231 427.003 362.898C419.081 363.474 413.504 368.824 414.392 374.237C415.149 378.84 419.435 382.406 424.93 384.592C422.232 385.427 419.353 386.077 416.802 386.94C415.612 387.343 414.455 387.794 413.339 388.292C405.632 385.691 395.505 385.202 388.571 387.854C385.215 389.137 387.666 392.951 391.039 391.657C396.32 389.638 402.144 390.144 407.663 391.427L408.124 391.542C407.579 392.031 407.097 392.552 406.685 393.101C403.567 397.335 406.685 404.031 414.269 404.492C424.963 405.13 425.464 395.247 419.657 391.312C419.41 391.145 419.163 390.984 418.9 390.829C421.302 390.017 423.901 389.408 426.197 388.723C428.196 388.131 430.099 387.39 431.873 386.514L432.284 386.589C440.452 387.883 453.202 388.286 456.139 381.365C458.656 375.359 458.895 362.605 472.468 363.784C478.004 364.262 482.545 367.236 487.809 368.312C492.523 369.295 497.977 369.336 501.843 366.908C505.034 364.906 505.75 361.949 506.729 359.188C507.231 357.761 507.724 356.058 509.386 355.04C512.388 353.205 517.349 354.286 520.697 354.954C524.357 355.678 526.48 351.766 522.77 351.03ZM416.654 399.694C414.853 400.942 412.945 399.953 411.982 398.647C410.814 397.059 411.316 395.494 412.805 394.096C413.048 393.868 413.309 393.649 413.586 393.44C417.148 395.051 420.06 397.358 416.687 399.694H416.654ZM422.972 368.628C426.674 366.223 431.831 366.753 434.036 370.055C436.241 373.357 435.27 378.017 432.177 380.928C431.767 381.31 431.313 381.668 430.82 381.998C428.664 381.494 426.671 380.698 424.954 379.656C420.578 376.895 418.102 371.792 423.005 368.611L422.972 368.628Z" fill="#6C63FF"/>
<path d="M572.101 127.547L505.701 145.652C493.214 145.002 466.94 142.632 440.864 134.031C411.834 124.458 378.576 124.481 350.378 134.508C285.392 135.596 249.626 129.774 230.542 124.263L235.576 117.037L168.271 98.6852L0 45.9426V262.113L58.8899 280.465L90.4776 227.469L159.847 249.906L173.165 226.238L218.713 249.877L221.814 251.701L217.544 254.801C213.63 257.693 211.449 261.523 211.449 265.505C211.449 269.486 213.63 273.317 217.544 276.208C219.439 277.608 221.722 278.724 224.253 279.486C226.785 280.249 229.513 280.642 232.269 280.642C235.025 280.642 237.753 280.249 240.285 279.486C242.816 278.724 245.099 277.608 246.994 276.208L244.657 277.934C240.743 280.825 238.561 284.655 238.561 288.637C238.561 292.619 240.743 296.449 244.657 299.34C246.552 300.741 248.834 301.856 251.366 302.619C253.898 303.381 256.625 303.774 259.382 303.774C262.138 303.774 264.866 303.381 267.398 302.619C269.929 301.856 272.212 300.741 274.106 299.34L287.597 289.532L278.335 296.263C274.42 299.154 272.239 302.984 272.239 306.966C272.239 310.947 274.42 314.778 278.335 317.669C280.229 319.069 282.512 320.185 285.043 320.947C287.575 321.71 290.303 322.103 293.059 322.103C295.816 322.103 298.543 321.71 301.075 320.947C303.607 320.185 305.889 319.069 307.784 317.669L321.101 307.987L315.5 312.06C312.763 314.08 311.238 316.756 311.238 319.539C311.238 322.321 312.763 324.998 315.5 327.017C316.823 327.995 318.417 328.774 320.185 329.306C321.953 329.838 323.857 330.113 325.782 330.113C327.707 330.113 329.611 329.838 331.379 329.306C333.147 328.774 334.741 327.995 336.065 327.017L344.949 320.563C360.208 328.358 372.555 334.048 378.601 335.52C403.797 341.63 403.797 329.393 403.797 329.393C437.45 341.624 454.28 317.163 454.28 317.163C496.348 329.393 496.348 298.811 496.348 298.811C506.861 303.908 514.445 301.572 519.743 297.085C526.957 290.999 527.837 282.41 522.885 275.518L563.094 249.532L580.483 274.396L649.853 251.96L681.441 300.934L727.959 286.408V72.498L572.101 127.547Z" fill="url(#paint6_linear)"/>
<path d="M560.93 240.747L487.702 286.264L430.754 212.293L560.93 189.535V240.747Z" fill="#BE7C5E"/>
<path d="M211.079 121.254C211.079 121.254 234.581 144.012 373.797 138.323L455.16 223.673L509.682 266.572C518.245 273.314 518.731 283.537 510.324 290.372C505.216 294.519 497.87 296.7 487.702 291.954C487.702 291.954 487.702 320.402 447.025 309.022C447.025 309.022 430.754 331.781 398.212 320.402C398.212 320.402 398.212 331.781 373.805 326.091C349.399 320.402 219.214 246.437 219.214 246.437L162.266 217.989L211.079 121.254Z" fill="#FDA57D"/>
<path d="M503.974 149.708C503.974 149.708 468.816 149.708 434.053 138.668C402.44 128.64 365.629 129.918 336.459 143.08C312.686 153.809 292.088 171.574 292.475 200.914C292.475 200.914 324.112 223.673 357.559 178.156H381.966C381.966 178.156 405.467 235.057 471.464 229.356C537.462 223.655 552.828 217.977 552.828 217.977L503.974 149.708Z" fill="#BE7C5E"/>
<path d="M290.377 262.059L287.736 260.213C280.601 255.223 269.033 255.223 261.898 260.213L242.989 273.437C235.854 278.427 235.854 286.517 242.989 291.507L245.629 293.354C252.764 298.344 264.332 298.344 271.467 293.354L290.377 280.129C297.512 275.139 297.512 267.049 290.377 262.059Z" fill="#BE7C5E"/>
<path d="M264.154 240.565L261.513 238.718C254.378 233.728 242.81 233.728 235.675 238.718L216.766 251.943C209.631 256.933 209.631 265.023 216.766 270.013L219.406 271.859C226.541 276.849 238.109 276.849 245.244 271.859L264.154 258.635C271.289 253.645 271.289 245.555 264.154 240.565Z" fill="#BE7C5E"/>
<path d="M326.983 276.279L324.343 274.433C317.208 269.443 305.64 269.443 298.505 274.433L275.529 290.501C268.394 295.491 268.394 303.581 275.529 308.571L278.17 310.417C285.305 315.407 296.873 315.407 304.008 310.417L326.983 294.349C334.118 289.359 334.118 281.269 326.983 276.279Z" fill="#BE7C5E"/>
<path d="M346.25 296.077L344.406 294.787C339.424 291.302 331.346 291.302 326.363 294.787L311.862 304.928C306.88 308.413 306.88 314.062 311.862 317.547L313.706 318.836C318.689 322.321 326.767 322.321 331.749 318.836L346.25 308.695C351.233 305.211 351.233 299.561 346.25 296.077Z" fill="#BE7C5E"/>
<path d="M642.285 252.126L569.066 274.885L495.838 149.708L560.93 132.639L642.285 252.126Z" fill="white"/>
<path d="M89.0463 223.678L162.266 246.437L235.494 121.259L170.401 104.185L89.0463 223.678Z" fill="white"/>
<path d="M7.68311 52.9784L170.401 104.185L64.6399 274.885L7.68311 257.816V52.9784Z" fill="#333333"/>
<path d="M723.648 81.4264L560.93 132.639L666.7 303.333L723.648 286.264V81.4264Z" fill="#4D8AF0"/>
</g>
<defs>
<linearGradient id="paint0_linear" x1="495.334" y1="431.828" x2="365.687" y2="25.4257" gradientUnits="userSpaceOnUse">
<stop stop-color="#808080" stop-opacity="0.25"/>
<stop offset="0.54" stop-color="#808080" stop-opacity="0.12"/>
<stop offset="1" stop-color="#808080" stop-opacity="0.1"/>
</linearGradient>
<linearGradient id="paint1_linear" x1="117015" y1="-31394.2" x2="116356" y2="-33461.7" gradientUnits="userSpaceOnUse">
<stop stop-color="#808080" stop-opacity="0.25"/>
<stop offset="0.54" stop-color="#808080" stop-opacity="0.12"/>
<stop offset="1" stop-color="#808080" stop-opacity="0.1"/>
</linearGradient>
<linearGradient id="paint2_linear" x1="34580.3" y1="-6237.3" x2="33662.5" y2="-9114.22" gradientUnits="userSpaceOnUse">
<stop stop-color="#808080" stop-opacity="0.25"/>
<stop offset="0.54" stop-color="#808080" stop-opacity="0.12"/>
<stop offset="1" stop-color="#808080" stop-opacity="0.1"/>
</linearGradient>
<linearGradient id="paint3_linear" x1="47395.5" y1="7451.68" x2="45302" y2="888.978" gradientUnits="userSpaceOnUse">
<stop stop-color="#808080" stop-opacity="0.25"/>
<stop offset="0.54" stop-color="#808080" stop-opacity="0.12"/>
<stop offset="1" stop-color="#808080" stop-opacity="0.1"/>
</linearGradient>
<linearGradient id="paint4_linear" x1="55292.9" y1="19384.1" x2="53199.2" y2="12820.8" gradientUnits="userSpaceOnUse">
<stop stop-color="#808080" stop-opacity="0.25"/>
<stop offset="0.54" stop-color="#808080" stop-opacity="0.12"/>
<stop offset="1" stop-color="#808080" stop-opacity="0.1"/>
</linearGradient>
<linearGradient id="paint5_linear" x1="21752.6" y1="4466.46" x2="21192" y2="2708.99" gradientUnits="userSpaceOnUse">
<stop stop-color="#808080" stop-opacity="0.25"/>
<stop offset="0.54" stop-color="#808080" stop-opacity="0.12"/>
<stop offset="1" stop-color="#808080" stop-opacity="0.1"/>
</linearGradient>
<linearGradient id="paint6_linear" x1="436499" y1="176886" x2="436499" y2="29401.8" gradientUnits="userSpaceOnUse">
<stop stop-color="#808080" stop-opacity="0.25"/>
<stop offset="0.54" stop-color="#808080" stop-opacity="0.12"/>
<stop offset="1" stop-color="#808080" stop-opacity="0.1"/>
</linearGradient>
<clipPath id="clip0">
<rect width="728" height="493" fill="white"/>
</clipPath>
</defs>
</svg>
