<svg width="728" height="493" viewBox="0 0 728 493" fill="none" xmlns="http://www.w3.org/2000/svg">
<path d="M441.77 274.002H14.9454C10.983 273.997 7.1842 272.171 4.38235 268.925C1.5805 265.678 0.00446066 261.277 0 256.686V17.3161C0.00446066 12.7252 1.5805 8.32376 4.38235 5.07748C7.1842 1.8312 10.983 0.00516822 14.9454 0H441.77C445.732 0.00516822 449.531 1.8312 452.333 5.07748C455.135 8.32376 456.711 12.7252 456.715 17.3161V256.686C456.711 261.277 455.135 265.678 452.333 268.925C449.531 272.171 445.732 273.997 441.77 274.002ZM14.9454 2.03719C11.4492 2.04177 8.0973 3.65298 5.62508 6.51734C3.15287 9.3817 1.76224 13.2653 1.75829 17.3161V256.686C1.76224 260.737 3.15287 264.62 5.62508 267.485C8.0973 270.349 11.4492 271.96 14.9454 271.965H441.77C445.266 271.96 448.618 270.349 451.09 267.485C453.563 264.62 454.953 260.737 454.957 256.686V17.3161C454.953 13.2653 453.563 9.3817 451.09 6.51734C448.618 3.65298 445.266 2.04177 441.77 2.03719H14.9454Z" fill="#3F3D56"/>
<path d="M81.9802 59.5878C86.35 59.5878 89.8925 55.4834 89.8925 50.4205C89.8925 45.3575 86.35 41.2531 81.9802 41.2531C77.6103 41.2531 74.0679 45.3575 74.0679 50.4205C74.0679 55.4834 77.6103 59.5878 81.9802 59.5878Z" fill="#CCCCCC"/>
<path d="M81.9802 94.22C86.35 94.22 89.8925 90.1157 89.8925 85.0527C89.8925 79.9897 86.35 75.8853 81.9802 75.8853C77.6103 75.8853 74.0679 79.9897 74.0679 85.0527C74.0679 90.1157 77.6103 94.22 81.9802 94.22Z" fill="#CCCCCC"/>
<path d="M81.9802 128.852C86.35 128.852 89.8925 124.748 89.8925 119.685C89.8925 114.622 86.35 110.518 81.9802 110.518C77.6103 110.518 74.0679 114.622 74.0679 119.685C74.0679 124.748 77.6103 128.852 81.9802 128.852Z" fill="#CCCCCC"/>
<path d="M81.9802 163.484C86.35 163.484 89.8925 159.38 89.8925 154.317C89.8925 149.254 86.35 145.15 81.9802 145.15C77.6103 145.15 74.0679 149.254 74.0679 154.317C74.0679 159.38 77.6103 163.484 81.9802 163.484Z" fill="#CCCCCC"/>
<path d="M215.171 232.749C219.54 232.749 223.083 228.645 223.083 223.582C223.083 218.519 219.54 214.414 215.171 214.414C210.801 214.414 207.258 218.519 207.258 223.582C207.258 228.645 210.801 232.749 215.171 232.749Z" fill="#CCCCCC"/>
<path d="M158.026 232.749C162.396 232.749 165.938 228.645 165.938 223.582C165.938 218.519 162.396 214.414 158.026 214.414C153.656 214.414 150.114 218.519 150.114 223.582C150.114 228.645 153.656 232.749 158.026 232.749Z" fill="#CCCCCC"/>
<path d="M332.976 232.749C337.346 232.749 340.888 228.645 340.888 223.582C340.888 218.519 337.346 214.414 332.976 214.414C328.606 214.414 325.063 218.519 325.063 223.582C325.063 228.645 328.606 232.749 332.976 232.749Z" fill="#CCCCCC"/>
<path d="M273.194 232.749C277.564 232.749 281.106 228.645 281.106 223.582C281.106 218.519 277.564 214.414 273.194 214.414C268.824 214.414 265.282 218.519 265.282 223.582C265.282 228.645 268.824 232.749 273.194 232.749Z" fill="#CCCCCC"/>
<path d="M381.768 51.439H121.542C121.309 51.439 121.085 51.3317 120.92 51.1407C120.755 50.9497 120.663 50.6906 120.663 50.4205C120.663 50.1503 120.755 49.8912 120.92 49.7002C121.085 49.5092 121.309 49.4019 121.542 49.4019H381.768C382.002 49.4019 382.225 49.5092 382.39 49.7002C382.555 49.8912 382.648 50.1503 382.648 50.4205C382.648 50.6906 382.555 50.9497 382.39 51.1407C382.225 51.3317 382.002 51.439 381.768 51.439Z" fill="#CCCCCC"/>
<path d="M381.768 86.0713H121.542C121.309 86.0713 121.085 85.964 120.92 85.7729C120.755 85.5819 120.663 85.3228 120.663 85.0527C120.663 84.7825 120.755 84.5235 120.92 84.3324C121.085 84.1414 121.309 84.0341 121.542 84.0341H381.768C382.002 84.0341 382.225 84.1414 382.39 84.3324C382.555 84.5235 382.648 84.7825 382.648 85.0527C382.648 85.3228 382.555 85.5819 382.39 85.7729C382.225 85.964 382.002 86.0713 381.768 86.0713Z" fill="#CCCCCC"/>
<path d="M381.768 120.704H121.542C121.309 120.704 121.085 120.596 120.92 120.405C120.755 120.214 120.663 119.955 120.663 119.685C120.663 119.415 120.755 119.156 120.92 118.965C121.085 118.774 121.309 118.666 121.542 118.666H381.768C382.002 118.666 382.225 118.774 382.39 118.965C382.555 119.156 382.648 119.415 382.648 119.685C382.648 119.955 382.555 120.214 382.39 120.405C382.225 120.596 382.002 120.704 381.768 120.704Z" fill="#CCCCCC"/>
<path d="M381.768 155.336H121.542C121.309 155.336 121.085 155.228 120.92 155.037C120.755 154.846 120.663 154.587 120.663 154.317C120.663 154.047 120.755 153.788 120.92 153.597C121.085 153.406 121.309 153.299 121.542 153.299H381.768C382.002 153.299 382.225 153.406 382.39 153.597C382.555 153.788 382.648 154.047 382.648 154.317C382.648 154.587 382.555 154.846 382.39 155.037C382.225 155.228 382.002 155.336 381.768 155.336Z" fill="#CCCCCC"/>
<path d="M170.774 189.968H145.279C144.113 189.966 142.996 189.429 142.172 188.475C141.348 187.52 140.884 186.225 140.883 184.875V157.373C140.884 156.023 141.348 154.728 142.172 153.773C142.996 152.819 144.113 152.282 145.279 152.28H170.774C171.939 152.282 173.056 152.819 173.88 153.773C174.705 154.728 175.168 156.023 175.169 157.373V184.875C175.168 186.225 174.705 187.52 173.88 188.475C173.056 189.429 171.939 189.966 170.774 189.968Z" fill="#6C63FF"/>
<path d="M227.918 189.968H202.423C201.257 189.966 200.14 189.429 199.316 188.475C198.492 187.52 198.028 186.225 198.027 184.875V122.741C198.028 121.39 198.492 120.096 199.316 119.141C200.14 118.186 201.257 117.649 202.423 117.648H227.918C229.083 117.649 230.201 118.186 231.025 119.141C231.849 120.096 232.312 121.39 232.314 122.741V184.875C232.312 186.225 231.849 187.52 231.025 188.475C230.201 189.429 229.083 189.966 227.918 189.968Z" fill="#6C63FF"/>
<path d="M285.942 189.968H260.446C259.281 189.966 258.164 189.429 257.34 188.475C256.516 187.52 256.052 186.225 256.051 184.875V88.1085C256.052 86.7582 256.516 85.4637 257.34 84.5089C258.164 83.5541 259.281 83.017 260.446 83.0155H285.942C287.107 83.017 288.224 83.5541 289.048 84.5089C289.872 85.4637 290.336 86.7582 290.337 88.1085V184.875C290.336 186.225 289.872 187.52 289.048 188.475C288.224 189.429 287.107 189.966 285.942 189.968Z" fill="#6C63FF"/>
<path d="M345.723 189.968H320.228C319.063 189.966 317.946 189.429 317.122 188.475C316.297 187.52 315.834 186.225 315.833 184.875V54.4948C315.834 53.1446 316.297 51.8501 317.122 50.8953C317.946 49.9405 319.063 49.4034 320.228 49.4019H345.723C346.889 49.4034 348.006 49.9405 348.83 50.8953C349.654 51.8501 350.118 53.1446 350.119 54.4948V184.875C350.118 186.225 349.654 187.52 348.83 188.475C348.006 189.429 346.889 189.966 345.723 189.968Z" fill="#6C63FF"/>
<path d="M583.271 487.239C575.365 479.499 570.563 467.272 571.822 455.369C573.082 443.466 580.882 432.524 590.999 429.996C601.117 427.469 612.65 434.466 615.724 445.917C617.415 423.839 619.364 400.837 629.495 382.036C638.668 365.012 654.556 352.831 671.775 350.651C688.994 348.472 707.124 356.703 717.863 372.45C728.602 388.196 731.232 411.089 723.71 429.167C718.17 442.485 707.962 452.397 697.266 460.46C662.706 486.296 621.255 496.803 580.54 490.046L583.271 487.239Z" fill="#F2F2F2"/>
<path d="M700.835 357.159C686.627 370.567 673.593 385.563 661.921 401.93C643.654 427.457 628.872 456.077 618.09 486.794C617.301 489.034 620.442 490.01 621.222 487.794C638.863 437.873 667.025 393.874 703.132 359.82C704.753 358.29 702.443 355.642 700.835 357.159Z" fill="white"/>
<path d="M499.89 206.833C498.89 206.83 497.894 206.715 496.913 206.488H496.913C496.734 206.447 496.555 206.402 496.376 206.354L281.076 148.274C278.738 147.643 277.184 145.939 277.463 144.309C277.58 143.829 277.81 143.396 278.126 143.058C278.442 142.719 278.833 142.489 279.255 142.391C280.295 142.06 281.389 142.031 282.44 142.309L499.076 194.728C503.954 195.908 507.34 199.377 506.786 202.624C506.495 204.323 505.203 205.641 503.148 206.334C502.088 206.677 500.991 206.845 499.89 206.833Z" fill="#3F3D56"/>
<path d="M454.282 198.798C455.396 199.557 456.64 200.023 457.927 200.165C459.213 200.306 460.511 200.119 461.729 199.616C462.946 199.114 464.054 198.308 464.973 197.256C465.893 196.204 466.602 194.931 467.051 193.527L498.46 194.285L489.759 178.281L461.266 180.014C459.18 179.296 456.94 179.49 454.969 180.559C452.998 181.627 451.434 183.496 450.573 185.812C449.712 188.127 449.614 190.728 450.298 193.121C450.981 195.515 452.399 197.535 454.282 198.798V198.798Z" fill="#FFB8B8"/>
<path d="M467.924 192.985L467.761 181.83C467.749 180.679 468.109 179.564 468.771 178.706C469.433 177.847 470.348 177.306 471.337 177.19L527.779 170.879L574.805 153.015C576.224 152.476 577.722 152.269 579.211 152.406C580.7 152.544 582.15 153.023 583.478 153.815C584.806 154.608 585.984 155.699 586.945 157.024C587.906 158.349 588.63 159.882 589.074 161.534C589.519 163.187 589.676 164.925 589.536 166.648C589.396 168.371 588.961 170.044 588.258 171.571C587.554 173.098 586.596 174.447 585.438 175.541C584.281 176.635 582.947 177.451 581.515 177.942L529.464 195.798L471.979 197.49C471.111 197.514 470.259 197.207 469.555 196.616C468.852 196.024 468.336 195.181 468.086 194.217C467.984 193.816 467.93 193.402 467.924 192.985Z" fill="#3F3D56"/>
<path d="M551.45 480.555L540.672 480.554L535.545 432.386L551.452 432.387L551.45 480.555Z" fill="#FFB8B8"/>
<path d="M554.199 492.66L519.446 492.658V492.149C519.446 490.091 519.796 488.053 520.476 486.151C521.155 484.25 522.152 482.522 523.408 481.067C524.664 479.611 526.155 478.457 527.796 477.669C529.438 476.882 531.196 476.476 532.973 476.476H532.974L554.2 476.477L554.199 492.66Z" fill="#2F2E41"/>
<path d="M583.099 480.555L572.321 480.554L567.194 432.386L583.101 432.387L583.099 480.555Z" fill="#FFB8B8"/>
<path d="M585.848 492.66L551.095 492.658V492.149C551.095 490.091 551.445 488.053 552.125 486.151C552.805 484.25 553.801 482.522 555.057 481.067C556.313 479.611 557.804 478.457 559.446 477.669C561.087 476.882 562.846 476.476 564.622 476.476H564.623L585.849 476.477L585.848 492.66Z" fill="#2F2E41"/>
<path d="M590.333 285.893L587.759 462.817C587.751 463.377 587.643 463.93 587.443 464.439C587.242 464.949 586.952 465.406 586.593 465.78C586.233 466.154 585.81 466.439 585.351 466.615C584.892 466.792 584.406 466.857 583.925 466.806L571.312 465.477C570.485 465.39 569.711 464.967 569.128 464.282C568.544 463.597 568.189 462.694 568.125 461.735L560.741 351.375C560.724 351.115 560.621 350.874 560.455 350.699C560.289 350.524 560.071 350.43 559.847 350.435C559.623 350.44 559.409 350.545 559.248 350.727C559.088 350.909 558.994 351.155 558.986 351.415L555.295 464.301C555.261 465.355 554.876 466.351 554.22 467.082C553.565 467.813 552.691 468.222 551.781 468.222H538.255C537.36 468.222 536.498 467.826 535.846 467.115C535.193 466.404 534.8 465.431 534.745 464.396L525.276 284.874L581.541 268.577L590.333 285.893Z" fill="#2F2E41"/>
<path d="M549.522 119.764C561.447 119.764 571.115 108.563 571.115 94.7461C571.115 80.9292 561.447 69.7284 549.522 69.7284C537.597 69.7284 527.929 80.9292 527.929 94.7461C527.929 108.563 537.597 119.764 549.522 119.764Z" fill="#FFB8B8"/>
<path d="M523.35 291.156C522.975 290.738 522.677 290.237 522.471 289.684C522.265 289.13 522.156 288.535 522.15 287.932L520.693 167.287C520.606 161.15 522.199 155.139 525.245 150.117C528.291 145.095 532.632 141.32 537.645 139.336C539.668 128.702 550.435 127.37 556.711 127.529C558.278 127.568 559.813 128.045 561.187 128.918C562.561 129.79 563.733 131.034 564.604 132.544L569.103 140.363L579.02 147.099C583.61 150.202 587.23 154.915 589.358 160.556C591.487 166.198 592.013 172.477 590.863 178.488L589.336 186.534C583.96 215.014 584.471 244.562 590.828 272.769L593.901 286.341C594.061 287.048 594.073 287.788 593.935 288.502C593.798 289.215 593.515 289.88 593.111 290.441C592.707 291.002 592.193 291.443 591.612 291.727C591.031 292.011 590.399 292.13 589.771 292.073L586.202 291.755C585.276 291.674 584.404 291.217 583.74 290.465C583.075 289.712 582.661 288.713 582.569 287.642L581.979 280.8C581.968 280.674 581.917 280.558 581.836 280.473C581.756 280.388 581.65 280.342 581.541 280.342C581.432 280.342 581.327 280.388 581.246 280.473C581.166 280.558 581.115 280.674 581.104 280.8L580.532 287.424C580.436 288.543 579.988 289.582 579.273 290.343C578.558 291.104 577.627 291.534 576.657 291.551L526.167 292.451C526.146 292.451 526.125 292.452 526.104 292.452C525.075 292.455 524.086 291.989 523.35 291.156Z" fill="#3F3D56"/>
<path d="M551.211 109.167C551.299 112.703 553.419 114.749 556.02 116.602C558.622 118.454 561.663 119.257 564.643 120.032C565.043 120.278 565.491 120.401 565.944 120.388C566.397 120.375 566.84 120.227 567.229 119.959C567.618 119.69 567.941 119.31 568.166 118.854C568.392 118.399 568.512 117.884 568.516 117.359L571.248 105.316C572.215 101.469 572.919 97.5393 573.352 93.5642C574.01 85.9154 572.446 77.6873 567.838 72.157C563.23 66.6268 555.239 64.6622 549.718 68.9232C543.165 59.2264 513.212 80.6503 520.601 87.3932C521.915 88.5928 523.925 87.0749 525.593 86.9278C527.262 86.7807 529.131 87.1207 530.191 88.6209C531.576 90.5809 530.973 93.5005 531.543 95.9455C531.779 96.8058 532.16 97.6034 532.663 98.2924C533.167 98.9814 533.783 99.5481 534.476 99.9599C535.17 100.372 535.926 100.62 536.703 100.691C537.48 100.763 538.261 100.655 539.002 100.375C540.381 99.5872 541.679 98.6206 542.87 97.4935C544.149 96.5059 545.767 95.7761 547.207 96.399C549.106 97.2201 549.781 99.9136 549.952 102.253C550.242 104.587 550.662 106.897 551.211 109.167Z" fill="#2F2E41"/>
<path d="M711.167 493H376.213C375.98 493 375.756 492.893 375.591 492.702C375.427 492.511 375.334 492.252 375.334 491.981C375.334 491.711 375.427 491.452 375.591 491.261C375.756 491.07 375.98 490.963 376.213 490.963H711.167C711.4 490.963 711.624 491.07 711.789 491.261C711.954 491.452 712.046 491.711 712.046 491.981C712.046 492.252 711.954 492.511 711.789 492.702C711.624 492.893 711.4 493 711.167 493Z" fill="#3F3D56"/>
<path opacity="0.2" d="M546.168 176.217L542.652 226.128L524.19 278.076L551.443 227.147L546.168 176.217Z" fill="black"/>
<path d="M519.873 297.422C520.88 296.484 521.698 295.302 522.269 293.959C522.84 292.615 523.15 291.143 523.176 289.646C523.203 288.149 522.946 286.663 522.423 285.294C521.901 283.924 521.125 282.704 520.152 281.719L531.913 247.967L515.911 251.711L507.195 283.189C505.876 285.193 505.237 287.689 505.399 290.203C505.562 292.717 506.515 295.075 508.078 296.829C509.64 298.584 511.704 299.613 513.878 299.722C516.052 299.831 518.185 299.013 519.873 297.422V297.422Z" fill="#FFB8B8"/>
<path d="M519.016 282.536L509.958 278.753C509.025 278.358 508.253 277.572 507.795 276.55C507.337 275.528 507.226 274.345 507.483 273.233L522.426 209.857L524.704 152.579C524.773 150.85 525.137 149.154 525.777 147.59C526.416 146.026 527.318 144.624 528.429 143.467C529.54 142.311 530.838 141.421 532.248 140.851C533.659 140.28 535.153 140.041 536.644 140.145C538.135 140.25 539.593 140.697 540.934 141.461C542.274 142.224 543.47 143.289 544.453 144.593C545.435 145.897 546.183 147.414 546.655 149.056C547.127 150.698 547.312 152.433 547.2 154.159L543.131 216.877L524.091 279.743C523.802 280.693 523.252 281.506 522.525 282.058C521.798 282.61 520.935 282.87 520.068 282.798C519.708 282.766 519.355 282.678 519.016 282.536Z" fill="#3F3D56"/>
<path d="M381.768 189.968H121.542C121.309 189.968 121.085 189.861 120.92 189.67C120.755 189.479 120.663 189.22 120.663 188.949C120.663 188.679 120.755 188.42 120.92 188.229C121.085 188.038 121.309 187.931 121.542 187.931H381.768C382.002 187.931 382.225 188.038 382.39 188.229C382.555 188.42 382.648 188.679 382.648 188.949C382.648 189.22 382.555 189.479 382.39 189.67C382.225 189.861 382.002 189.968 381.768 189.968Z" fill="#3F3D56"/>
</svg>
