<svg width="728" height="493" viewBox="0 0 728 493" fill="none" xmlns="http://www.w3.org/2000/svg">
<g clip-path="url(#clip0)">
<path d="M557.332 439.548C602.659 439.548 639.404 431.571 639.404 421.73C639.404 411.89 602.659 403.913 557.332 403.913C512.005 403.913 475.26 411.89 475.26 421.73C475.26 431.571 512.005 439.548 557.332 439.548Z" stroke="#444053" stroke-miterlimit="10"/>
<path d="M247.616 279.8C247.857 280.461 248.13 281.108 248.433 281.738V281.819C248.433 281.819 252.321 297.343 254.141 300.602C254.67 301.545 255.267 302.569 255.858 303.571C255.741 304.308 255.741 305.062 255.858 305.799C256.407 309.258 257.073 314.017 256.771 315.064C256.469 316.11 257.135 318.716 256.084 319.622C255.034 320.528 253.955 322.102 257.176 324.188C257.176 324.188 257.781 325.947 257.238 326.341C257.176 326.385 257.238 326.482 257.389 326.608C256.503 329.444 255.205 334.032 256.016 334.358C256.462 334.544 257.671 333.861 258.996 332.94C259.031 333.126 259.058 333.326 259.092 333.527C259.303 335.055 259.629 336.562 260.068 338.033C260.658 339.451 261.249 341.842 260.933 342.629C260.617 343.416 261.798 345.168 261.524 345.858C261.249 346.549 262.437 348.791 262.437 348.791C262.437 348.791 263.618 353.141 263.57 354.611C263.522 356.081 264.848 365.561 264.848 365.561C264.848 365.561 263.474 370.454 264.161 371.871C264.848 373.289 265.294 378.182 264.161 379.993C263.028 381.805 261.606 385.806 262.066 386.883C262.526 387.959 261.428 401.263 264.202 406.742C264.558 408.78 264.817 410.837 264.978 412.904C264.978 414.388 267.162 418.33 267.162 418.33C267.162 418.33 265.844 424.27 269.078 425.272C269.302 425.347 269.532 425.394 269.765 425.413C269.864 426.062 269.783 426.729 269.532 427.328C268.979 428.155 268.586 429.095 268.378 430.09C268.33 430.277 268.353 430.477 268.44 430.647C268.804 431.085 269.813 436.957 269.813 436.957C269.813 436.957 271.269 443.557 279.284 441.946C279.284 441.946 284.703 441.604 284.25 439.548C284.101 438.869 283.903 438.204 283.659 437.558C283.468 437.14 283.299 436.712 283.151 436.274C283.062 435.784 281.921 434.411 281.832 433.483C281.743 432.555 281.015 430.743 281.145 430.157C281.276 429.57 279.916 425.368 279.82 424.433C279.709 423.782 279.536 423.145 279.305 422.532L279.593 422.384C279.593 422.384 280.321 417.981 279.689 416.37C279.057 414.759 276.544 412.658 276.544 412.658C276.544 412.658 276.908 401.849 276.455 400.379C276.001 398.909 276.681 393.341 276.681 393.341C276.681 393.341 278.226 385.465 278.137 383.69C278.086 382.592 278.24 381.493 278.59 380.461C278.59 380.461 279.552 368.872 280.184 367.402C280.816 365.932 281.557 351.56 281.557 351.56L281.983 352.881C282.582 354.864 283.293 356.806 284.112 358.694C284.463 359.288 285.486 361.188 286.365 362.777L287.663 365.153C287.663 365.153 288.254 367.454 287.842 368.865C287.429 370.275 292.079 377.907 292.079 377.907C291.78 378.544 291.624 379.249 291.626 379.964C291.756 380.706 290.211 383.044 290.211 383.044C290.211 383.044 289.62 385.145 289.984 385.88C290.348 386.615 289.394 390.966 289.394 390.966C289.394 390.966 287.842 400.55 287.478 401.679C287.114 402.807 287.663 410.528 287.663 410.528C287.663 410.528 284.806 418.434 286.131 421.062C286.186 422.035 286.193 423.52 285.843 424.121C285.369 424.923 285.506 427.885 285.555 428.702C285.555 428.843 285.555 428.917 285.555 428.917C285.555 428.917 284.002 431.144 285.96 432.05C287.917 432.955 294.572 433.609 294.572 433.609C294.572 433.609 300.898 435.569 303.947 436.103C306.996 436.638 313.377 436.445 313.83 434.44C313.991 433.818 314.047 433.169 313.995 432.525C313.954 432.118 313.817 431.73 313.596 431.397C313.376 431.064 313.081 430.798 312.738 430.624C310.863 429.818 308.946 429.132 306.996 428.568C306.996 428.568 303.988 427.826 303.713 426.415C303.439 425.004 299.16 421.085 299.16 421.085C299.16 421.085 299.112 420.81 299.023 420.439H299.16L298.954 420.216C298.741 419.474 298.398 418.494 297.979 418.679C297.913 418.546 297.873 418.401 297.861 418.251C297.85 418.101 297.866 417.95 297.91 417.807C297.953 417.664 298.023 417.532 298.115 417.419C298.208 417.306 298.32 417.215 298.446 417.15C300.087 416.177 301.09 413.096 300.63 409.771C300.17 406.445 300.087 407.031 301.042 405.123C301.634 403.681 301.871 402.098 301.729 400.528L304.249 390.372C304.644 389.124 304.889 387.827 304.977 386.511C305.02 385.477 305.268 384.464 305.705 383.542C305.705 383.542 306.845 376.497 307.848 374.886C308.851 373.275 307.161 367.595 307.161 367.595C307.161 367.595 305.616 358.798 305.705 354.782C305.794 350.765 301.694 336.838 301.694 336.838C301.168 335.934 300.945 334.862 301.062 333.802C301.145 332.97 300.664 331.619 300.121 330.409L299.95 330.03C300.159 329.739 300.412 329.488 300.698 329.288C301.825 328.546 302.354 326.593 302.36 325.22L286.832 285.658C286.832 285.539 294.023 269.659 294.002 269.54C293.576 266.934 289.51 260.023 289.51 260.023C289.471 259.936 289.412 259.862 289.339 259.807C288.425 259.355 285.335 257.461 285.335 257.461C282.91 254.225 280.637 253.557 279.154 253.579C278.687 253.573 278.223 253.65 277.78 253.809C277.622 253.862 277.468 253.929 277.32 254.009L277.251 254.655C277.125 253.161 277.234 251.655 277.574 250.201C277.608 250.075 277.643 249.941 277.67 249.815C277.897 249.815 278.123 249.815 278.357 249.815C279.811 249.82 281.251 249.515 282.596 248.918C283.941 248.321 285.164 247.444 286.195 246.336C287.227 245.228 288.046 243.912 288.607 242.462C289.167 241.011 289.458 239.456 289.462 237.885C289.462 236.767 289.319 235.656 289.037 234.581L288.982 234.41L289.325 234.247C290.699 233.698 292.422 234.633 293.535 233.638C293.938 233.206 294.227 232.665 294.373 232.072C294.681 231.277 294.887 230.44 294.984 229.585C294.984 229.436 294.984 229.288 294.984 229.139C294.988 229.095 294.988 229.05 294.984 229.006C294.987 228.951 294.987 228.897 294.984 228.842C294.984 228.775 294.984 228.709 294.984 228.642C294.984 228.575 294.984 228.642 294.984 228.642C294.922 228.096 294.717 227.581 294.394 227.157C293.666 226.237 292.45 226.014 291.53 225.338C290.777 224.708 290.153 223.917 289.696 223.015C289.238 222.117 288.635 221.315 287.917 220.646C287.552 220.315 287.11 220.098 286.64 220.018C286.169 219.938 285.687 219.999 285.245 220.193C284.977 220.392 284.68 220.543 284.366 220.639C284.026 220.644 283.69 220.546 283.398 220.357C280.239 218.761 276.53 219.043 273.096 219.518C271.701 219.638 270.331 219.994 269.037 220.572C268.391 220.86 267.81 221.296 267.335 221.851C266.861 222.407 266.504 223.067 266.29 223.787C266.008 224.937 266.221 226.185 265.885 227.32C265.651 228.063 265.198 228.746 264.91 229.496C264.769 229.889 264.682 230.301 264.649 230.721C264.649 230.721 264.649 230.802 264.649 230.839C264.532 232.525 265.143 234.299 265.438 236.036C265.844 238.404 265.638 240.98 266.578 243.222C266.672 243.497 266.792 243.761 266.936 244.009C266.606 244.752 266.249 245.539 265.905 246.274C265.397 246.118 263.845 245.747 263.79 247.216C263.779 248.411 263.521 249.588 263.035 250.661C262.962 250.723 262.887 250.78 262.808 250.832C262.724 250.873 262.655 250.942 262.609 251.029C262.563 251.116 262.544 251.215 262.554 251.314L262.375 251.463C262.297 251.468 262.221 251.497 262.156 251.545C262.059 251.366 261.743 251.352 260.741 252.643C259.406 254.144 257.871 255.42 256.187 256.43C256.187 256.43 249.443 261.515 249.079 263.853C248.715 266.192 246.462 276.407 247.616 279.8ZM277.231 254.989C277.231 254.989 277.231 254.937 277.231 254.908L277.313 254.952L277.231 254.989ZM295.554 421.285C295.372 421.369 295.176 421.412 294.977 421.411L295.554 421.285Z" fill="url(#paint0_linear)"/>
<path d="M280.026 441.968C272.107 443.572 270.665 437.009 270.665 437.009C270.665 437.009 269.676 431.174 269.291 430.736C269.204 430.566 269.182 430.366 269.23 430.179C269.436 429.19 269.824 428.256 270.37 427.432C270.864 426.801 270.459 424.173 270.459 424.173L279.634 421.649C280.027 422.585 280.328 423.563 280.534 424.566C280.63 425.487 281.976 429.674 281.839 430.253C281.702 430.832 282.43 432.636 282.526 433.564C282.622 434.492 283.742 435.851 283.831 436.333C283.969 436.773 284.134 437.202 284.325 437.618C284.57 438.257 284.765 438.918 284.909 439.592C285.376 441.627 280.026 441.968 280.026 441.968Z" fill="#444053"/>
<path opacity="0.1" d="M280.026 441.968C272.107 443.572 270.665 437.009 270.665 437.009C270.665 437.009 269.676 431.174 269.291 430.736C269.204 430.566 269.182 430.366 269.23 430.179L271.132 436.118C271.132 436.118 272.712 439.674 278.556 439.132C281.887 438.835 283.522 438.167 284.318 437.647C284.563 438.287 284.759 438.947 284.902 439.622C285.376 441.627 280.026 441.968 280.026 441.968Z" fill="black"/>
<path opacity="0.1" d="M273.858 432.725C273.858 432.725 275.843 432.777 275.974 431.025L273.858 432.725Z" fill="black"/>
<path d="M308.28 375.242C307.292 376.845 306.165 383.846 306.165 383.846C305.746 384.773 305.512 385.785 305.478 386.816C305.405 388.124 305.175 389.417 304.792 390.661L302.189 400.728C302.327 402.289 302.09 403.861 301.502 405.294C300.561 407.194 300.65 406.608 301.097 409.919C301.543 413.23 300.561 416.289 298.94 417.261C297.319 418.234 299.661 420.52 299.661 420.52C299.661 420.52 289.311 423.534 287.148 421.686C284.985 419.837 288.274 410.698 288.274 410.698C288.274 410.698 287.739 403.015 288.096 401.894C288.453 400.773 289.984 391.24 289.984 391.24C289.984 391.24 290.932 386.912 290.568 386.185C290.204 385.457 290.795 383.364 290.795 383.364C290.795 383.364 292.326 381.025 292.168 380.298C292.171 379.588 292.326 378.889 292.622 378.256C292.622 378.256 288.034 370.669 288.432 369.258C288.831 367.848 288.254 365.546 288.254 365.546C288.254 365.546 287.677 364.47 286.976 363.185C286.125 361.604 285.094 359.718 284.744 359.125C283.94 357.246 283.24 355.317 282.649 353.349L282.224 352.027C282.224 352.027 281.537 366.326 280.85 367.781C280.163 369.236 279.277 380.773 279.277 380.773C278.927 381.798 278.773 382.889 278.824 383.98C278.913 385.776 277.382 393.631 277.382 393.631C277.382 393.631 276.695 399.177 277.162 400.639C277.629 402.102 277.251 412.844 277.251 412.844C277.251 412.844 279.724 414.938 280.356 416.556C280.987 418.174 280.266 422.54 280.266 422.54C280.266 422.54 273.069 426.43 269.868 425.405C266.668 424.381 267.98 418.501 267.98 418.501C267.98 418.501 265.823 414.611 265.823 413.104C265.663 411.047 265.406 409 265.054 406.972C262.307 401.522 263.392 388.3 262.945 387.224C262.499 386.148 263.886 382.168 265.006 380.372C266.125 378.575 265.692 373.69 265.006 372.295C264.319 370.899 265.692 366.021 265.692 366.021C265.692 366.021 264.388 356.586 264.436 355.13C264.484 353.675 263.309 349.34 263.309 349.34C263.309 349.34 262.142 347.113 262.41 346.422C262.677 345.732 261.51 343.987 261.826 343.215C262.142 342.443 261.551 340.052 260.967 338.642C260.54 337.186 260.219 335.697 260.006 334.188C259.731 332.51 259.532 331.032 259.532 331.032L266.956 324.566L285.5 319.31L292.532 316.838L299.325 328.412C299.325 328.412 300.012 329.622 300.65 331.018C301.186 332.22 301.66 333.564 301.577 334.395C301.464 335.449 301.687 336.512 302.209 337.41C302.209 337.41 306.254 351.27 306.165 355.227C306.076 359.184 307.607 367.974 307.607 367.974C307.607 367.974 309.269 373.638 308.28 375.242Z" fill="#3F3D56"/>
<path opacity="0.1" d="M266.62 382.488C266.62 382.488 274.538 378.842 276.873 381.419C279.209 383.995 266.62 382.488 266.62 382.488Z" fill="black"/>
<path opacity="0.1" d="M271.07 383.943C271.07 383.943 263.042 388.85 265.789 389.637C268.536 390.424 271.07 383.943 271.07 383.943Z" fill="black"/>
<path opacity="0.1" d="M295.005 379.719C295.005 379.719 291.571 379.956 292.889 380.691C294.208 381.426 295.005 379.719 295.005 379.719Z" fill="black"/>
<path opacity="0.1" d="M299.284 380.832C299.235 381.077 289.339 384.544 291.276 386.088C293.212 387.632 299.284 380.832 299.284 380.832Z" fill="black"/>
<path opacity="0.1" d="M267.787 410.595C269.271 410.357 277.554 406.222 274.312 409.191C273.445 410.043 272.379 410.624 271.23 410.871C270.08 411.119 268.89 411.023 267.787 410.595Z" fill="black"/>
<path opacity="0.1" d="M271.88 413.854C271.88 413.854 272.602 416.875 275.349 416.482C278.096 416.088 271.88 413.854 271.88 413.854Z" fill="black"/>
<path opacity="0.1" d="M269.587 419.986C270.081 419.837 275.974 416.92 276.111 418.286C276.249 419.652 270.486 421.998 270.04 421.3C269.781 420.915 269.624 420.46 269.587 419.986Z" fill="black"/>
<path opacity="0.1" d="M288.666 416.482C289.353 416.437 296.131 414.099 297.484 416.192L288.666 416.482Z" fill="black"/>
<path opacity="0.1" d="M294.785 417.848C294.785 417.848 295.953 416.727 297.12 417.313C298.288 417.9 294.785 417.848 294.785 417.848Z" fill="black"/>
<path opacity="0.1" d="M279.847 429.904C279.92 430.318 280.104 430.7 280.374 431.003C280.645 431.307 280.992 431.518 281.372 431.612L279.847 429.904Z" fill="black"/>
<path d="M314.173 434.477C313.727 436.474 307.422 436.667 304.414 436.133C301.406 435.598 295.142 433.653 295.142 433.653C295.142 433.653 288.576 432.97 286.64 432.094C284.703 431.218 286.234 428.984 286.234 428.984C286.234 428.984 286.234 428.909 286.234 428.776C286.186 427.959 286.056 425.012 286.516 424.217C287.059 423.289 286.743 420.275 286.743 420.275C286.743 420.275 296.056 422.22 296.234 421.3C296.413 420.379 297.855 419.073 298.528 418.768C299.201 418.464 299.703 421.203 299.703 421.203C299.703 421.203 303.933 425.093 304.201 426.504C304.469 427.914 307.436 428.642 307.436 428.642C309.363 429.2 311.257 429.882 313.109 430.684C313.448 430.856 313.741 431.12 313.959 431.45C314.177 431.781 314.312 432.166 314.352 432.569C314.4 433.212 314.34 433.858 314.173 434.477Z" fill="#444053"/>
<path opacity="0.1" d="M314.173 434.477C313.727 436.474 307.422 436.667 304.414 436.133C301.406 435.598 295.142 433.653 295.142 433.653C295.142 433.653 288.576 432.97 286.64 432.094C284.703 431.218 286.234 428.984 286.234 428.984C286.234 428.984 286.234 428.909 286.234 428.776L295.65 431.003C295.65 431.003 300.286 433.141 303.253 433.141C305.849 433.141 311.653 434.292 314.352 432.547C314.403 433.197 314.342 433.851 314.173 434.477Z" fill="black"/>
<path opacity="0.1" d="M301.44 426.793C301.44 426.793 300.994 430.001 299.194 431.077L301.44 426.793Z" fill="black"/>
<path d="M330.279 308.575C327.6 309.674 321.419 309.793 318.672 309.793C317.834 309.793 317.298 309.793 317.298 309.793L315.533 305.902L317.298 302.658C317.298 302.658 318.919 302.176 321.076 301.752C324.255 301.136 328.63 300.654 330.691 302.042C334.152 304.366 333.781 307.187 330.279 308.575Z" fill="#A1616A"/>
<path d="M289.366 262.02L290.149 261.047C290.149 261.047 294.167 267.922 294.586 270.513C295.005 273.104 295.547 276.088 295.547 276.088C295.547 276.088 296.564 279.459 297.23 280.951C297.797 282.081 298.24 283.28 298.549 284.522C298.604 285.168 298.308 286.593 299.565 287.491C300.822 288.39 301.124 290.862 301.124 290.862C301.124 290.862 305.685 295.658 308.088 295.791C310.492 295.925 317.381 297.217 317.147 298.508C316.914 299.8 320.025 300.587 321.268 300.914C322.511 301.24 313.177 305.138 318.672 310.156C318.672 310.156 315.19 310.899 314.833 311.842C314.475 312.785 310.815 311.322 310.815 311.322C310.815 311.322 310.032 309.31 307.333 309.184C304.634 309.058 303.253 307.759 303.253 307.566C303.253 307.372 300.554 305.747 299.057 305.294C297.56 304.841 295.575 304.648 295.513 304.188C295.451 303.727 286.516 262.042 286.516 262.042L289.366 262.02Z" fill="#6C63FF"/>
<path opacity="0.05" d="M289.366 262.183L290.149 261.21C290.149 261.21 294.167 268.085 294.586 270.683C295.005 273.282 295.547 276.259 295.547 276.259C295.547 276.259 296.564 279.629 297.23 281.121C297.796 282.25 298.238 283.446 298.549 284.685C298.604 285.338 298.308 286.764 299.565 287.654C300.822 288.545 301.124 291.025 301.124 291.025C301.124 291.025 305.685 295.828 308.088 295.954C310.492 296.081 317.381 297.38 317.147 298.679C316.914 299.978 320.025 300.758 321.268 301.077C322.511 301.396 313.177 305.309 318.672 310.305C318.672 310.305 315.19 311.047 314.833 311.99C314.475 312.933 310.815 311.47 310.815 311.47C310.815 311.47 310.032 309.458 307.333 309.332C304.634 309.206 303.253 307.907 303.253 307.706C303.253 307.506 300.554 305.895 299.057 305.442C297.56 304.989 295.575 304.789 295.513 304.336C295.451 303.883 286.516 262.183 286.516 262.183H289.366Z" fill="black"/>
<path d="M381.17 438.427C426.498 438.427 463.242 446.408 463.242 456.244C463.242 466.081 426.498 474.062 381.17 474.062C335.842 474.062 299.098 466.088 299.098 456.244" stroke="#444053" stroke-miterlimit="10"/>
<path d="M364.304 71.238L352.732 69.1156L338.133 162.122L349.705 164.244L364.304 71.238Z" fill="#444053"/>
<path d="M377.969 444.507L380.538 464.329L382.736 443.72L377.969 444.507Z" fill="#D0D2D5"/>
<path d="M295.458 433.408V445.702L298.027 456.4H299.86L302.065 444.908L303.164 431.032L295.458 433.408Z" fill="#3F3D56"/>
<path d="M290.232 385.45L295.726 386.638C295.726 386.638 289.497 405.264 293.892 409.229H286.935C286.935 409.229 284.366 394.96 290.232 385.45Z" fill="#D0D2D5"/>
<path opacity="0.1" d="M290.232 385.45L295.726 386.638C295.726 386.638 289.497 405.264 293.892 409.229H286.935C286.935 409.229 284.366 394.96 290.232 385.45Z" fill="black"/>
<path d="M326.996 161.492L309.393 281.99C309.393 281.99 283.364 410.424 293.26 435.791H305.733L343.135 189.243L326.996 161.492Z" fill="#D0D2D5"/>
<path d="M371.637 146.526L385.133 267.64C385.133 267.64 394.96 421.931 384.198 446.883H373.567L354.57 173.616L371.637 146.526Z" fill="#D0D2D5"/>
<path d="M325.354 117.469C326.26 114.179 328.145 111.304 330.717 109.291C333.289 107.277 336.404 106.238 339.578 106.333C350.436 106.63 367.221 108.768 375.978 118.463C389.549 133.527 366.809 184.262 366.809 184.262C366.809 184.262 345.518 226.674 326.11 172.769C326.082 172.814 318.033 143.95 325.354 117.469Z" fill="#444053"/>
<path opacity="0.1" d="M325.354 117.469C326.26 114.179 328.145 111.304 330.717 109.291C333.289 107.277 336.404 106.238 339.578 106.333C350.436 106.63 367.221 108.768 375.978 118.463C389.549 133.527 366.809 184.262 366.809 184.262C366.809 184.262 345.518 226.674 326.11 172.769C326.082 172.814 318.033 143.95 325.354 117.469Z" fill="black"/>
<path d="M332.82 127.773C333.472 125.436 334.817 123.396 336.648 121.966C338.478 120.536 340.692 119.796 342.95 119.859C350.676 120.074 362.626 121.596 368.842 128.501C378.505 139.221 362.317 175.345 362.317 175.345C362.317 175.345 347.208 205.539 333.335 167.179C333.335 167.157 327.6 146.63 332.82 127.773Z" fill="#444053"/>
<path d="M370.408 436.452C370.525 438.367 370.799 440.379 371.919 441.879C373.773 444.359 377.145 444.552 380.03 445.331C382.244 446.016 384.393 446.931 386.444 448.063L392.687 451.255C391.086 451.355 389.508 451.711 388.003 452.31C387.2 452.629 386.321 453.156 386.204 454.062C386.189 454.439 386.28 454.813 386.465 455.134C386.65 455.454 386.921 455.707 387.241 455.858C387.894 456.148 388.596 456.283 389.301 456.252C393.02 456.365 396.74 456.154 400.427 455.621L400.867 455.554C402.763 456.568 404.649 457.605 406.526 458.664C407.309 459.11 408.25 458.664 408.909 458.041C409.714 457.271 410.425 456.392 411.025 455.428C411.135 455.635 411.244 455.836 411.334 456.036C411.938 457.291 412.508 458.932 411.643 460.001C410.956 460.832 409.658 460.973 409.266 461.983C409.16 462.348 409.164 462.74 409.279 463.103C409.394 463.465 409.614 463.777 409.905 463.995C410.503 464.421 411.19 464.676 411.904 464.737C413.602 464.99 415.326 464.975 417.02 464.693C417.939 464.623 418.809 464.223 419.493 463.557C420.077 462.697 420.386 461.654 420.372 460.587L421.546 446.163C421.653 445.478 421.606 444.775 421.409 444.114C420.942 442.889 419.589 442.376 418.366 442.161H418.236C419.252 442.161 420.296 442.109 421.395 442.109C422.353 442.176 423.313 442.045 424.225 441.723C425.969 440.981 426.91 438.998 427.659 437.172C429.032 433.965 430.612 430.491 430.406 426.927L429.87 426.667C429.822 422.874 428.352 419.333 427.81 415.628C428.406 414.633 428.723 413.473 428.723 412.287C428.652 410.984 428.39 409.701 427.947 408.486C425.77 401.493 423.593 394.477 420.681 387.796C418.797 383.346 416.495 379.117 413.813 375.175C413.113 374.185 412.384 373.195 411.629 372.205C411.08 371.522 409.85 370.557 409.624 369.689C409.397 368.82 409.878 367.974 409.624 367.083C409.559 366.851 409.476 366.625 409.376 366.407C410.983 364.106 410.53 360.78 409.967 357.914L409.28 354.344C409.133 353.359 408.846 352.405 408.429 351.515C407.986 350.752 407.432 350.073 406.787 349.503C403.408 346.207 399.232 344.017 395.434 341.285C391.417 338.397 387.825 334.885 384.226 331.418C383.127 330.364 381.747 329.228 380.325 329.674C378.903 330.119 378.313 331.782 378.265 333.297C378.252 334.347 378.444 335.388 378.828 336.353C379.213 337.317 379.782 338.183 380.497 338.894C382.983 341.352 386.74 341.552 389.7 343.289C390.717 343.928 391.684 344.655 392.591 345.465L401.19 352.762C401.842 353.184 402.321 353.858 402.529 354.648C402.563 355.124 402.492 355.602 402.323 356.044C402 357.113 401.451 358.456 401.046 359.815L400.359 359.28C398.935 358.131 397.41 357.136 395.805 356.311C393.677 355.371 391.428 354.788 389.137 354.581C384.061 353.965 379.522 354.811 376.417 359.392C375.774 360.438 374.956 361.347 374.007 362.072C373.303 362.426 372.645 362.878 372.049 363.416C370.456 365.323 371.362 368.486 372.86 370.097C374.127 371.37 375.688 372.249 377.379 372.643C378.311 374.891 379.975 376.69 382.054 377.698C384.134 378.705 386.483 378.851 388.656 378.108C388.762 379.063 388.783 380.028 388.718 380.988C388.685 381.482 388.755 381.978 388.922 382.439C389.09 382.9 389.351 383.315 389.686 383.653C390.047 383.919 390.446 384.119 390.867 384.247C392.387 384.842 393.826 385.653 395.146 386.66C393.595 388.476 392.316 390.542 391.355 392.785C390.764 394.273 390.518 395.895 390.638 397.509C390.757 399.123 391.239 400.682 392.042 402.05L392.083 402.109C391.967 402.572 391.753 402.999 391.458 403.356C391.039 403.71 390.51 403.874 389.982 403.816C389.453 403.758 388.966 403.482 388.621 403.044C388.032 402.291 387.534 401.461 387.138 400.572C386.459 399.372 385.56 398.335 384.497 397.523C383.435 396.711 382.23 396.142 380.957 395.851C380.016 395.59 379.025 395.634 378.107 395.977C377.655 396.152 377.259 396.463 376.966 396.874C376.673 397.284 376.494 397.777 376.452 398.293C376.452 399.414 377.207 400.342 377.949 401.136C380.224 403.688 382.759 405.954 385.503 407.892C386.252 408.393 387.024 408.848 387.818 409.258C386.444 408.946 385.089 408.642 383.752 408.345C381.879 407.84 379.943 407.657 378.017 407.803C377.057 407.884 376.126 408.199 375.293 408.723C374.461 409.248 373.749 409.969 373.21 410.832C372.453 412.386 372.293 414.2 372.763 415.88C373.24 417.547 373.951 419.125 374.872 420.557C376.317 423.183 378.09 425.581 380.14 427.684C378.423 428.241 376.706 428.85 375.03 429.518C373.354 430.186 371.596 431.003 370.827 432.666C370.376 433.865 370.231 435.172 370.408 436.452ZM395.689 411.211H395.75C396.115 411.032 396.427 410.747 396.65 410.387C397.694 408.877 398.434 407.147 398.82 405.309C399.22 405.251 399.611 405.144 399.988 404.989C399.731 405.254 399.527 405.572 399.388 405.924C399.248 406.276 399.177 406.655 399.177 407.038L403.051 409.088C403.331 409.201 403.571 409.406 403.738 409.674C403.844 409.951 403.871 410.256 403.813 410.55C403.703 411.508 403.532 412.465 403.422 413.416C402.261 413.044 401.121 412.747 400.098 412.451C398.642 412.02 397.165 411.619 395.689 411.218V411.211Z" fill="url(#paint1_linear)"/>
<path d="M396.41 371.775C397.384 372.038 398.398 372.085 399.389 371.913C400.381 371.741 401.33 371.353 402.179 370.773C402.518 370.515 402.897 370.324 403.298 370.208C403.654 370.175 404.012 370.231 404.344 370.375C404.675 370.518 404.971 370.743 405.208 371.032C406.856 372.807 407.048 375.732 406.197 378.07C405.345 380.409 403.635 382.25 401.842 383.846C400.394 385.135 398.864 386.311 397.261 387.365C396.82 386.247 396.177 385.235 395.371 384.387C394.564 383.54 393.61 382.874 392.564 382.428C390.682 381.641 389.308 379.533 388.23 377.692C387.426 376.326 386.712 376.385 387.433 374.975C388.247 373.62 389.206 372.374 390.29 371.263C390.881 370.587 391.397 369.839 391.829 369.035C392.31 368.1 392.2 367.491 392.941 368.234C393.429 368.724 393.628 369.785 394.191 370.357C394.816 371.013 395.577 371.499 396.41 371.775Z" fill="#FABDBD"/>
<path d="M402.309 357.298C402.47 356.862 402.538 356.393 402.509 355.925C402.303 355.148 401.835 354.483 401.197 354.061L392.797 346.86C391.916 346.061 390.974 345.344 389.981 344.715C387.083 343 383.423 342.799 380.991 340.379C380.292 339.671 379.737 338.814 379.361 337.862C378.985 336.91 378.796 335.884 378.807 334.848C378.807 333.364 379.494 331.686 380.792 331.27C382.09 330.854 383.539 331.953 384.611 333C388.12 336.415 391.623 339.882 395.544 342.732C399.253 345.435 403.34 347.588 406.643 350.847C407.245 351.401 407.762 352.055 408.175 352.784C408.578 353.668 408.858 354.611 409.006 355.583L409.692 359.102C410.269 362.072 410.736 365.524 408.889 367.803C408.62 368.168 408.28 368.465 407.893 368.671C407.506 368.878 407.081 368.989 406.65 368.998C406.04 368.918 405.453 368.7 404.926 368.36C403.552 367.617 401.066 366.875 400.647 365.019C400.112 362.695 401.657 359.451 402.309 357.298Z" fill="#FABDBD"/>
<path d="M388.91 403.698C388.337 402.953 387.85 402.135 387.461 401.263C386.803 400.082 385.929 399.06 384.892 398.258C383.855 397.456 382.677 396.892 381.431 396.6C380.524 396.353 379.569 396.394 378.684 396.719C378.24 396.896 377.853 397.205 377.567 397.612C377.281 398.018 377.109 398.504 377.07 399.013C377.07 400.112 377.804 401.033 378.526 401.812C380.747 404.334 383.226 406.576 385.915 408.494C388.609 410.403 391.697 411.561 394.906 411.864C395.229 411.907 395.557 411.874 395.867 411.768C396.223 411.59 396.527 411.31 396.746 410.958C398.449 408.598 399.04 405.531 399.493 402.584C399.328 403.646 393.8 401.166 393.175 401.485C392.255 401.953 392.344 403.349 391.678 404.017C391.27 404.367 390.751 404.529 390.233 404.47C389.716 404.41 389.24 404.133 388.91 403.698Z" fill="#FABDBD"/>
<path d="M429.19 427.024C429.222 427.395 429.155 427.768 428.998 428.1C428.62 428.739 427.769 428.746 427.075 428.635C425.473 428.343 423.892 427.931 422.343 427.402L408.243 423C408.019 422.953 407.81 422.843 407.639 422.681C407.49 422.49 407.392 422.259 407.357 422.013C406.867 419.826 406.762 417.559 407.048 415.331C407.065 415.01 407.163 414.699 407.33 414.433C407.647 414.116 408.066 413.946 408.497 413.958C410.706 413.715 412.925 413.606 415.145 413.631C416.586 413.697 418.029 413.662 419.465 413.527C421.32 413.289 423.456 412.139 425.317 412.317C426.931 412.465 426.862 413.802 427.027 415.286C427.487 419.229 429.156 423 429.19 427.024Z" fill="#FABDBD"/>
<path d="M384.171 408.932C382.342 408.427 380.45 408.244 378.567 408.39C377.628 408.47 376.719 408.779 375.906 409.293C375.094 409.807 374.4 410.514 373.876 411.359C373.128 412.895 372.97 414.687 373.436 416.348C373.907 417.987 374.602 419.541 375.497 420.958C377.081 423.92 379.117 426.571 381.52 428.798C382.722 429.83 384.047 430.684 385.201 431.768C387.66 434.091 389.185 437.335 390.647 440.491C392.021 443.46 393.395 446.489 393.985 449.756C393.99 449.882 394.019 450.005 394.07 450.119C394.121 450.233 394.192 450.334 394.281 450.416C394.471 450.516 394.69 450.532 394.892 450.461L401.657 449.11C401.848 449.119 402.038 449.071 402.206 448.972C402.375 448.873 402.515 448.727 402.612 448.548C402.71 448.37 402.76 448.166 402.759 447.959C402.758 447.752 402.704 447.549 402.605 447.373C401.137 440.554 398.39 434.134 394.535 428.508C396.326 430.338 398.496 431.68 400.863 432.421C403.231 433.162 405.728 433.282 408.147 432.77C409.093 432.625 409.985 432.207 410.729 431.56C412.24 430.075 412.172 427.543 411.835 425.383C411.532 423.458 411.115 421.556 410.585 419.689C409.314 415.234 403.834 414.032 400.118 412.948C394.844 411.438 389.528 410.1 384.171 408.932Z" fill="#3F3D56"/>
<path opacity="0.1" d="M389.178 424.715C390.143 425.128 391.018 425.755 391.746 426.556C390.531 425.071 387.056 424.329 385.352 423.638C383.244 422.792 380.943 421.923 379.171 420.416C382.599 421.585 385.943 423.022 389.178 424.715Z" fill="black"/>
<path d="M411.087 456.007C411.67 457.254 412.227 458.865 411.389 459.926C410.743 460.743 409.452 460.884 409.067 461.879C408.962 462.239 408.966 462.627 409.078 462.985C409.191 463.342 409.406 463.652 409.692 463.869C410.272 464.295 410.944 464.551 411.643 464.611C413.303 464.856 414.987 464.841 416.643 464.566C417.54 464.496 418.389 464.101 419.053 463.445C419.631 462.583 419.933 461.54 419.912 460.476L421.059 446.237C421.16 445.559 421.116 444.866 420.928 444.21C420.468 443 419.149 442.503 417.954 442.287C416.619 442.043 415.259 441.983 413.909 442.109C412.998 442.122 412.115 442.45 411.389 443.045C410.714 443.875 410.298 444.914 410.201 446.014C409.892 447.707 409.026 450.053 409.212 451.768C409.328 453.186 410.51 454.759 411.087 456.007Z" fill="#6C63FF"/>
<path d="M395.922 451.404C393.347 451.041 390.728 451.359 388.292 452.332C387.509 452.644 386.65 453.171 386.534 454.062C386.518 454.434 386.607 454.802 386.788 455.119C386.97 455.435 387.235 455.685 387.55 455.836C388.189 456.123 388.878 456.257 389.569 456.229C393.201 456.334 396.834 456.125 400.434 455.606C401.37 455.54 402.277 455.232 403.079 454.708C403.475 454.435 403.773 454.025 403.925 453.544C404.076 453.064 404.07 452.542 403.91 452.065C403.477 451.085 402.296 450.78 401.726 449.897C401.313 449.258 401.21 448.316 400.565 447.981C400.077 447.814 399.548 447.856 399.088 448.1C398.402 448.36 396.753 448.62 396.279 449.236C396.074 449.939 395.954 450.668 395.922 451.404Z" fill="#6C63FF"/>
<path d="M386.197 379.563C391.178 379.563 395.215 375.198 395.215 369.815C395.215 364.432 391.178 360.067 386.197 360.067C381.217 360.067 377.18 364.432 377.18 369.815C377.18 375.198 381.217 379.563 386.197 379.563Z" fill="#FABDBD"/>
<path d="M407.584 365.524C406.135 364.373 404.308 363.98 402.543 363.623C401.947 363.423 401.304 363.457 400.73 363.72C400.35 364.017 400.05 364.416 399.857 364.878C399.313 365.832 398.91 366.871 398.662 367.959C398.541 368.504 398.54 369.072 398.66 369.618C398.779 370.163 399.015 370.671 399.349 371.099C399.885 371.693 400.654 371.99 401.204 372.584C401.56 373.014 401.819 373.527 401.96 374.084C402.1 374.641 402.119 375.225 402.014 375.791C401.792 376.917 401.385 377.991 400.812 378.961C399.488 381.485 397.977 383.888 396.293 386.148C394.542 388.501 392.577 390.765 391.547 393.571C390.973 395.043 390.736 396.643 390.855 398.235C390.975 399.828 391.448 401.365 392.234 402.718C393.903 405.346 397.227 406.756 399.981 405.621C399.73 405.882 399.531 406.195 399.397 406.543C399.262 406.89 399.194 407.263 399.198 407.64L402.976 409.667C403.255 409.778 403.495 409.98 403.662 410.246C403.764 410.519 403.788 410.819 403.731 411.107C403.435 412.753 403.281 414.426 403.271 416.103C403.374 417.773 404.081 419.533 405.482 420.26C406.767 420.929 408.291 420.572 409.692 420.26C412.964 419.544 416.292 419.166 419.63 419.132C421.292 419.132 423.009 419.177 424.541 418.479C425.567 417.989 426.442 417.191 427.059 416.178C427.677 415.166 428.011 413.982 428.023 412.77C427.954 411.482 427.697 410.214 427.26 409.013C425.138 402.109 423.009 395.19 420.166 388.59C418.314 384.198 416.057 380.02 413.428 376.118C412.742 375.13 412.055 374.158 411.293 373.215C410.757 372.54 409.555 371.589 409.335 370.728C409.115 369.867 409.582 369.035 409.335 368.159C409.027 367.101 408.413 366.178 407.584 365.524Z" fill="#6C63FF"/>
<path d="M429.712 427.224C425.756 425.249 421.8 423.275 417.686 421.738C414.658 420.609 411.279 419.726 408.305 420.995C407.412 421.382 406.602 421.938 405.743 422.391C402.866 423.876 399.562 424.128 396.382 424.507C389.306 425.368 382.353 427.156 375.675 429.83C374.075 430.468 372.351 431.315 371.555 432.933C371.104 434.106 370.952 435.388 371.115 436.645C371.232 438.538 371.5 440.528 372.592 442.005C374.405 444.455 377.695 444.641 380.51 445.413C382.677 446.091 384.777 446.996 386.781 448.115C393.36 451.508 399.947 454.9 406.402 458.575C407.158 459.013 408.078 458.575 408.724 457.959C410.669 456.008 412.072 453.509 412.776 450.743C413.476 447.991 413.823 445.149 413.806 442.295C416.334 442.295 418.387 442.176 420.914 442.176C421.844 442.239 422.776 442.111 423.662 441.797C425.358 441.055 426.278 439.102 427.041 437.306C428.4 434.136 429.932 430.699 429.712 427.224Z" fill="#3F3D56"/>
<path opacity="0.1" d="M383.78 437.373C385.558 436.437 387.619 436.415 389.604 436.43C390.814 436.406 392.023 436.505 393.216 436.727C395.038 437.251 396.807 437.97 398.497 438.872C402.71 440.783 407.239 441.743 411.808 441.693" fill="black"/>
<path d="M373.519 371.196C374.878 372.551 376.564 373.464 378.381 373.831C380.167 374.277 382.008 374.447 383.807 374.878C386.019 375.405 388.436 376.667 388.937 379.058C389.053 380.015 389.076 380.983 389.006 381.946C388.973 382.427 389.04 382.91 389.2 383.361C389.36 383.811 389.611 384.218 389.933 384.551C390.287 384.81 390.677 385.008 391.087 385.138C394.69 386.627 397.795 389.252 400 392.673C402.204 396.094 403.406 400.152 403.449 404.321C404.581 403.608 405.55 402.63 406.284 401.458C407.019 400.286 407.501 398.951 407.694 397.551C407.694 400.134 409.754 402.747 408.587 405.056C409.86 404.156 410.947 402.981 411.778 401.603C412.61 400.226 413.167 398.676 413.416 397.054C413.664 395.431 413.599 393.77 413.222 392.177C412.846 390.583 412.168 389.091 411.231 387.796C410.324 386.548 409.17 385.509 408.223 384.314C406.877 382.635 405.866 380.674 405.254 378.553C404.642 376.433 404.441 374.198 404.665 371.99C404.864 370.112 405.352 368.211 404.988 366.363C404.459 363.802 402.378 362.02 400.4 360.498C399.009 359.367 397.519 358.387 395.95 357.573C393.872 356.643 391.673 356.064 389.432 355.858C384.48 355.257 380.078 356.088 377.008 360.609C376.386 361.642 375.589 362.539 374.659 363.252C373.97 363.604 373.326 364.051 372.743 364.581C371.17 366.467 372.063 369.585 373.519 371.196Z" fill="#3F3D56"/>
<path d="M280.898 262.502C280.617 262.376 261.043 253.638 263.728 251.901C265.329 250.869 267.3 246.504 268.646 243.081C269.587 240.698 270.225 238.768 270.225 238.768C270.225 238.768 285.939 235.754 280.314 246.192C279.428 247.79 278.759 249.518 278.33 251.322C276.709 258.375 280.74 262.369 280.898 262.502Z" fill="#A1616A"/>
<path opacity="0.1" d="M280.294 246.162C279.407 247.76 278.739 249.488 278.309 251.292C276.317 251.139 274.4 250.401 272.767 249.158C271.133 247.915 269.844 246.215 269.037 244.239C268.879 243.863 268.741 243.476 268.625 243.081C269.566 240.698 270.205 238.768 270.205 238.768C270.205 238.768 285.919 235.754 280.294 246.162Z" fill="black"/>
<path d="M290.06 239.065C290.048 241.781 289.176 244.41 287.589 246.515C286.002 248.62 283.795 250.074 281.337 250.634C278.879 251.194 276.317 250.826 274.079 249.593C271.841 248.359 270.061 246.333 269.037 243.853C268.418 242.346 268.099 240.714 268.103 239.065C268.117 236.213 269.079 233.462 270.814 231.314C272.55 229.166 274.942 227.764 277.554 227.365C280.166 226.966 282.824 227.597 285.042 229.141C287.26 230.685 288.89 233.04 289.634 235.776C289.916 236.846 290.059 237.953 290.06 239.065Z" fill="#A1616A"/>
<path opacity="0.1" d="M300.65 331.01C299.864 331.936 299.315 333.067 299.057 334.292C299.057 334.292 293.659 338.278 294.016 335.776C294.373 333.274 291.2 323.007 291.2 323.007L291.557 336.92C291.557 336.92 274.284 336.044 273.014 334.692C271.743 333.341 264.415 330.691 264.415 330.691C264.415 330.691 262.155 332.651 260.074 334.136C259.8 332.458 259.601 330.98 259.601 330.98L267.025 324.514L285.568 319.258L292.532 316.838L299.325 328.412C299.325 328.412 300.025 329.614 300.65 331.01Z" fill="black"/>
<path d="M301.213 329.911C299.778 330.884 299.236 333.512 299.236 333.512C299.236 333.512 293.837 337.499 294.194 334.997C294.552 332.495 291.406 322.257 291.406 322.257L291.77 336.17C291.77 336.17 274.49 335.294 273.227 333.943C271.963 332.591 264.587 329.956 264.587 329.956C264.587 329.956 258.2 335.502 257.032 335.012C255.865 334.522 259.092 325.093 259.092 325.093L262.417 269.844C262.417 269.844 261.517 253.408 262.87 252.821C263.078 252.732 263.269 252.601 263.433 252.435C264.326 251.574 264.594 249.822 264.669 248.345C264.759 246.6 266.915 247.469 266.915 247.469L265.658 249.221L276.812 256.548L276.908 256.615C277.354 256.367 277.813 256.147 278.281 255.954C279.27 255.546 280.582 255.16 281.441 255.546C281.92 255.812 282.328 256.209 282.622 256.697C283.26 257.729 283.77 258.847 284.14 260.023L288.192 267.409C288.192 267.409 290.252 277.239 290.252 277.625C290.252 278.011 290.884 286.964 291.626 287.937C292.368 288.909 293.068 293.772 292.8 295.234C292.532 296.697 293.247 302.139 293.247 302.139C296.22 304.767 297.745 313.712 297.745 313.712C297.745 313.712 302.429 323.735 302.786 324.9C303.143 326.066 302.656 328.939 301.213 329.911Z" fill="#444053"/>
<path opacity="0.1" d="M276.826 256.897C275.727 258.649 272.567 261.107 272.567 261.107L263.447 252.784C264.34 251.923 264.607 250.164 264.683 248.694C264.772 246.942 266.929 247.818 266.929 247.818L266.668 248.182C266.543 248.356 266.454 248.558 266.406 248.772C266.358 248.986 266.352 249.209 266.389 249.426C266.426 249.644 266.505 249.85 266.62 250.032C266.736 250.214 266.885 250.367 267.059 250.483L276.826 256.897Z" fill="black"/>
<path d="M276.826 256.504C275.727 258.256 272.567 260.72 272.567 260.72L263.447 252.391C264.34 251.53 264.607 249.778 264.683 248.3C264.772 246.556 266.929 247.424 266.929 247.424L266.668 247.788C266.543 247.963 266.454 248.164 266.406 248.378C266.358 248.593 266.352 248.816 266.389 249.033C266.426 249.25 266.505 249.456 266.62 249.638C266.736 249.82 266.885 249.974 267.059 250.089L276.826 256.504Z" fill="#444053"/>
<path opacity="0.1" d="M281.042 257.818C279.861 259.34 278.192 261.069 278.295 260.201C278.398 259.332 277.299 257.424 276.619 256.571C277.688 256.207 278.839 256.241 279.889 256.667C280.358 256.937 280.756 257.333 281.042 257.818Z" fill="black"/>
<path d="M281.221 257.231C280.04 258.761 278.371 260.483 278.474 259.622C278.577 258.761 277.588 257.35 276.901 256.496C277.89 256.088 279.202 255.702 280.06 256.088C280.533 256.352 280.934 256.746 281.221 257.231Z" fill="#444053"/>
<path opacity="0.1" d="M263.454 252.873C263.454 252.873 263.57 251.708 262.011 253.72C260.703 255.195 259.198 256.451 257.547 257.447C257.547 257.447 250.892 262.51 250.528 264.87C250.164 267.231 248.008 277.32 249.155 280.691C250.302 284.061 258.996 300.216 258.996 300.216C258.996 300.216 256.716 303.133 257.252 306.571C257.788 310.008 258.454 314.737 258.152 315.776C257.849 316.816 258.516 319.407 257.465 320.312C256.414 321.218 255.37 322.777 258.55 324.856C258.55 324.856 259.147 326.608 258.605 326.994C258.062 327.38 266.585 331.404 269.944 329.266C273.302 327.127 279.367 310.008 279.483 306.177C279.6 302.346 277.622 289.711 276.544 286.726C275.466 283.742 272.224 272.131 270.843 269.54C269.463 266.949 263.454 252.873 263.454 252.873Z" fill="black"/>
<path d="M263.09 252.873C263.09 252.873 263.213 251.708 261.654 253.72C260.337 255.208 258.821 256.475 257.156 257.476C257.156 257.476 250.494 262.539 250.137 264.9C249.779 267.261 247.616 277.35 248.763 280.721C249.91 284.091 258.598 300.245 258.598 300.245C258.598 300.245 256.318 303.163 256.86 306.6C257.403 310.038 258.062 314.767 257.76 315.806C257.458 316.845 258.117 319.436 257.073 320.342C256.029 321.248 254.972 322.807 258.151 324.885C258.151 324.885 258.756 326.637 258.213 327.023C257.671 327.41 266.194 331.433 269.552 329.295C272.911 327.157 278.968 310.038 279.092 306.207C279.215 302.376 277.231 289.741 276.152 286.756C275.074 283.772 271.832 272.161 270.452 269.57C269.072 266.979 263.09 252.873 263.09 252.873Z" fill="#6C63FF"/>
<path opacity="0.1" d="M260.693 263.898C260.693 263.898 265.85 270.06 265.672 274.143C265.672 274.143 265.734 267.528 260.693 263.898Z" fill="black"/>
<path opacity="0.1" d="M278.103 255.078C278.103 255.078 281.447 252.851 285.657 258.516C285.657 258.516 288.714 260.394 289.613 260.854C290.513 261.314 291.536 273.363 291.536 273.363C291.536 273.363 293.514 278.56 292.972 281.53C292.429 284.499 294.538 294.759 294.538 294.759C294.538 294.759 298.013 313.178 297.896 313.69C297.779 314.202 294.352 307.922 294.414 304.781C294.476 301.641 291.536 291.938 291.117 291.359C290.699 290.78 287.814 274.106 287.814 274.106C287.814 274.106 285.479 267.038 283.975 264.707C282.471 262.376 280.616 257.959 279.854 257.179C279.295 256.657 278.671 256.223 278 255.888L278.103 255.078Z" fill="black"/>
<path d="M278.062 255.078C278.062 255.078 281.811 252.851 286.008 258.516C286.008 258.516 289.071 260.394 289.971 260.854C290.87 261.314 291.887 273.363 291.887 273.363C291.887 273.363 293.865 278.56 293.329 281.53C292.793 284.499 294.888 294.759 294.888 294.759C294.888 294.759 298.37 313.178 298.246 313.69C298.123 314.202 294.709 307.922 294.764 304.781C294.819 301.641 291.887 291.938 291.468 291.359C291.049 290.78 288.171 274.106 288.171 274.106C288.171 274.106 285.829 267.098 284.332 264.744C282.835 262.391 280.967 257.996 280.211 257.216C279.544 256.654 278.794 256.217 277.993 255.925L278.062 255.078Z" fill="#6C63FF"/>
<path d="M294.531 295.605C294.531 295.605 301.667 290.55 305.114 293.044C308.562 295.539 314.208 299.08 308.658 301.641C303.109 304.202 295.431 303.712 295.431 303.712L294.531 295.605Z" fill="#A1616A"/>
<path opacity="0.1" d="M289.565 344.403C288.501 346.875 287.622 359.251 287.024 363.2C286.173 361.619 285.142 359.733 284.792 359.139C283.988 357.261 283.288 355.332 282.698 353.364C283.384 351.582 285.245 346.474 285.245 344.603C285.245 342.317 288.679 339.444 288.679 339.444C289.293 340.063 289.71 340.876 289.869 341.767C290.028 342.659 289.922 343.581 289.565 344.403Z" fill="black"/>
<path opacity="0.1" d="M289.634 235.776C289.462 235.872 289.283 235.952 289.098 236.014C288.254 236.259 287.429 235.643 286.681 235.153C285.932 234.663 284.895 234.299 284.243 234.937C283.398 235.769 284.009 237.543 283.137 238.345C282.588 238.857 281.715 238.679 281.077 239.087C280.438 239.496 280.28 240.424 280.122 241.21C279.964 241.997 279.662 242.903 278.941 243.133C278.22 243.363 277.567 242.859 276.88 242.881C276.736 242.881 276.564 242.881 276.468 242.792C276.404 242.689 276.38 242.564 276.4 242.443C276.485 241.497 276.406 240.543 276.166 239.629C276.04 239.173 275.805 238.761 275.484 238.435C275.163 238.109 274.768 237.881 274.339 237.773C273.075 237.565 272.011 238.761 271.269 239.889C270.49 241.077 269.781 242.316 269.147 243.601C269.113 243.668 269.078 243.757 269.037 243.861C268.418 242.353 268.099 240.722 268.103 239.072C268.117 236.221 269.079 233.469 270.814 231.321C272.55 229.173 274.942 227.772 277.554 227.373C280.166 226.974 282.824 227.604 285.042 229.148C287.26 230.692 288.89 233.048 289.634 235.784V235.776Z" fill="black"/>
<path d="M271.283 239.703C272.025 238.575 273.089 237.38 274.353 237.588C274.781 237.695 275.175 237.922 275.496 238.247C275.817 238.572 276.053 238.982 276.18 239.436C276.42 240.35 276.497 241.305 276.407 242.25C276.391 242.375 276.418 242.501 276.482 242.606C276.578 242.725 276.75 242.703 276.894 242.695C277.581 242.695 278.302 243.163 278.955 242.948C279.607 242.732 279.985 241.812 280.136 241.025C280.287 240.238 280.459 239.332 281.09 238.902C281.722 238.471 282.581 238.657 283.151 238.159C284.023 237.357 283.412 235.576 284.257 234.752C284.909 234.113 285.946 234.477 286.695 234.967C287.443 235.457 288.267 236.073 289.112 235.828C289.392 235.72 289.665 235.594 289.93 235.45C291.269 234.9 292.999 235.836 294.091 234.848C294.49 234.416 294.776 233.878 294.922 233.289C295.225 232.498 295.429 231.667 295.527 230.817C295.625 229.956 295.408 229.087 294.922 228.397C294.236 227.491 292.999 227.261 292.086 226.593C291.346 225.963 290.731 225.178 290.28 224.284C289.829 223.39 289.233 222.59 288.522 221.923C288.161 221.595 287.723 221.38 287.257 221.301C286.791 221.223 286.314 221.284 285.877 221.478C285.615 221.677 285.322 221.825 285.012 221.916C284.675 221.924 284.343 221.826 284.057 221.634C280.939 220.045 277.306 220.327 273.886 220.802C272.506 220.92 271.153 221.273 269.875 221.849C269.238 222.14 268.666 222.577 268.199 223.129C267.732 223.681 267.381 224.336 267.169 225.049C266.895 226.192 267.107 227.432 266.771 228.56C266.544 229.303 266.084 229.978 265.809 230.728C265.081 232.777 265.954 235.034 266.324 237.194C266.73 239.555 266.524 242.109 267.451 244.343C267.636 244.781 267.835 245.546 268.296 245.257C268.632 245.041 268.982 243.772 269.154 243.408C269.793 242.127 270.504 240.89 271.283 239.703Z" fill="#3F3D56"/>
<path opacity="0.1" d="M251.517 277.714L249.896 282.688C249.896 282.688 253.735 298.122 255.535 301.366C257.334 304.611 259.971 308.79 259.971 308.79C262.984 310.252 266.334 310.702 269.587 310.082C274.744 308.983 289.799 306.066 289.799 306.066C290.155 306.135 290.521 306.1 290.86 305.962C291.198 305.825 291.496 305.591 291.722 305.286C292.409 304.247 295.801 303.727 295.801 303.727C295.801 303.727 299.757 297.506 294.902 294.908C294.902 294.908 294.304 296.34 291.722 295.36C289.14 294.381 288.363 296.14 288.363 296.14C288.363 296.14 284.16 297.053 281.825 296.726C279.49 296.4 273.666 296.274 273.062 295.754C272.987 295.682 272.9 295.626 272.805 295.59C272.71 295.554 272.61 295.539 272.51 295.545C272.41 295.552 272.312 295.579 272.221 295.626C272.131 295.674 272.05 295.74 271.983 295.821C271.288 295.55 270.64 295.153 270.067 294.648C269.587 294.069 268.927 295.301 268.927 295.301C268.927 295.301 268.083 294.781 268.323 294.136C268.563 293.49 267.547 291.017 267.547 291.017C267.276 290.074 267.215 289.074 267.368 288.1C267.664 286.801 265.864 282.161 265.864 282.161C265.843 281.373 265.924 280.586 266.105 279.822C266.407 278.657 263.824 276.318 263.824 276.318C263.824 276.318 261.304 263.096 255.968 267.409C250.631 271.723 251.517 277.714 251.517 277.714Z" fill="black"/>
<path d="M251.153 277.714L249.532 282.688C249.532 282.688 253.371 298.122 255.171 301.366C256.97 304.611 259.614 308.79 259.614 308.79C262.627 310.255 265.977 310.705 269.229 310.082C274.394 308.983 289.449 306.066 289.449 306.066C289.804 306.135 290.171 306.1 290.509 305.962C290.848 305.825 291.146 305.592 291.372 305.286C292.058 304.247 295.451 303.727 295.451 303.727C295.451 303.727 299.407 297.506 294.551 294.908C294.551 294.908 293.947 296.34 291.372 295.361C288.796 294.381 288.006 296.14 288.006 296.14C288.006 296.14 283.81 297.053 281.468 296.726C279.126 296.4 273.309 296.274 272.711 295.754C272.637 295.682 272.549 295.626 272.455 295.59C272.36 295.554 272.26 295.539 272.16 295.545C272.059 295.552 271.961 295.579 271.871 295.626C271.781 295.674 271.7 295.74 271.633 295.821C270.935 295.55 270.285 295.154 269.71 294.648C269.229 294.069 268.57 295.301 268.57 295.301C268.57 295.301 267.732 294.781 267.973 294.136C268.213 293.49 267.19 291.018 267.19 291.018C266.922 290.073 266.861 289.074 267.011 288.1C267.313 286.801 265.514 282.161 265.514 282.161C265.488 281.373 265.569 280.585 265.754 279.822C266.05 278.657 263.474 276.318 263.474 276.318C263.474 276.318 260.954 263.096 255.617 267.409C250.281 271.723 251.153 277.714 251.153 277.714Z" fill="#6C63FF"/>
<path opacity="0.1" d="M265.974 292.755C265.974 292.755 260.095 294.054 262.073 295.153C264.051 296.251 265.974 292.755 265.974 292.755Z" fill="black"/>
<g opacity="0.1">
<path opacity="0.1" d="M276.166 238.337C276.041 237.882 275.806 237.47 275.485 237.145C275.164 236.82 274.768 236.594 274.339 236.489C273.076 236.281 272.011 237.476 271.269 238.597C270.49 239.787 269.779 241.026 269.14 242.309C268.948 242.695 268.618 243.943 268.282 244.158C267.822 244.447 267.595 243.675 267.437 243.237C266.51 241.01 266.75 238.449 266.311 236.088C265.986 234.715 265.727 233.325 265.535 231.923C265.397 233.616 266.015 235.398 266.311 237.12C266.716 239.481 266.51 242.035 267.437 244.269C267.622 244.707 267.822 245.472 268.282 245.182C268.618 244.967 268.968 243.698 269.14 243.341C269.778 242.057 270.489 240.818 271.269 239.629C272.011 238.501 273.076 237.306 274.339 237.521C274.768 237.625 275.164 237.852 275.485 238.177C275.806 238.502 276.041 238.913 276.166 239.369C276.314 239.849 276.395 240.349 276.406 240.854C276.475 240.006 276.394 239.152 276.166 238.337Z" fill="black"/>
<path opacity="0.1" d="M294.909 232.205C294.764 232.793 294.477 233.329 294.078 233.757C292.986 234.744 291.255 233.816 289.916 234.366C289.641 234.477 289.387 234.655 289.098 234.744C288.254 234.982 287.429 234.373 286.681 233.883C285.932 233.393 284.895 233.022 284.243 233.66C283.398 234.492 284.009 236.266 283.137 237.068C282.587 237.58 281.715 237.402 281.077 237.81C280.438 238.219 280.28 239.139 280.122 239.926C279.964 240.713 279.662 241.619 278.941 241.849C278.219 242.079 277.567 241.574 276.88 241.604C276.736 241.604 276.564 241.604 276.468 241.515C276.444 241.488 276.428 241.455 276.42 241.418C276.42 241.678 276.42 241.938 276.42 242.198C276.406 242.32 276.432 242.444 276.496 242.547C276.592 242.666 276.763 242.643 276.908 242.643C277.595 242.643 278.316 243.104 278.968 242.888C279.621 242.673 279.998 241.76 280.149 240.966C280.3 240.171 280.472 239.28 281.104 238.85C281.736 238.419 282.594 238.605 283.164 238.107C284.037 237.306 283.425 235.531 284.27 234.7C284.923 234.061 285.96 234.425 286.708 234.915C287.457 235.405 288.281 236.021 289.126 235.776C289.404 235.668 289.677 235.544 289.943 235.405C291.282 234.856 293.013 235.784 294.105 234.796C294.503 234.367 294.79 233.832 294.936 233.245C295.238 232.451 295.441 231.617 295.54 230.765C295.571 230.477 295.571 230.185 295.54 229.896C295.409 230.689 295.197 231.463 294.909 232.205Z" fill="black"/>
</g>
<path d="M175.132 425.717C190.653 425.717 203.236 423.101 203.236 419.874C203.236 416.648 190.653 414.032 175.132 414.032C159.611 414.032 147.029 416.648 147.029 419.874C147.029 423.101 159.611 425.717 175.132 425.717Z" fill="#6C63FF"/>
<path d="M174.665 422.027C176.471 422.027 177.934 419.953 177.934 417.395C177.934 414.836 176.471 412.762 174.665 412.762C172.86 412.762 171.396 414.836 171.396 417.395C171.396 419.953 172.86 422.027 174.665 422.027Z" fill="#3F3D56"/>
<path d="M174.665 416.37C176.471 416.37 177.934 414.296 177.934 411.738C177.934 409.179 176.471 407.105 174.665 407.105C172.86 407.105 171.396 409.179 171.396 411.738C171.396 414.296 172.86 416.37 174.665 416.37Z" fill="#3F3D56"/>
<path d="M174.665 410.713C176.471 410.713 177.934 408.639 177.934 406.081C177.934 403.522 176.471 401.448 174.665 401.448C172.86 401.448 171.396 403.522 171.396 406.081C171.396 408.639 172.86 410.713 174.665 410.713Z" fill="#3F3D56"/>
<path d="M174.665 405.049C176.471 405.049 177.934 402.975 177.934 400.416C177.934 397.858 176.471 395.784 174.665 395.784C172.86 395.784 171.396 397.858 171.396 400.416C171.396 402.975 172.86 405.049 174.665 405.049Z" fill="#3F3D56"/>
<path d="M174.665 399.392C176.471 399.392 177.934 397.318 177.934 394.759C177.934 392.201 176.471 390.127 174.665 390.127C172.86 390.127 171.396 392.201 171.396 394.759C171.396 397.318 172.86 399.392 174.665 399.392Z" fill="#3F3D56"/>
<path d="M174.665 393.735C176.471 393.735 177.934 391.661 177.934 389.102C177.934 386.544 176.471 384.47 174.665 384.47C172.86 384.47 171.396 386.544 171.396 389.102C171.396 391.661 172.86 393.735 174.665 393.735Z" fill="#3F3D56"/>
<path d="M174.665 388.078C176.471 388.078 177.934 386.004 177.934 383.445C177.934 380.887 176.471 378.813 174.665 378.813C172.86 378.813 171.396 380.887 171.396 383.445C171.396 386.004 172.86 388.078 174.665 388.078Z" fill="#3F3D56"/>
<path d="M186.911 344.722C187.358 344.106 187.764 343.456 188.126 342.777L179.535 341.255L188.827 341.329C189.719 339.232 190.206 336.96 190.257 334.652C190.309 332.344 189.925 330.049 189.129 327.907L176.657 334.9L188.181 325.747C187.102 323.736 185.652 321.987 183.921 320.608C182.19 319.229 180.214 318.25 178.118 317.731C176.022 317.213 173.849 317.167 171.735 317.595C169.622 318.024 167.612 318.918 165.832 320.222C164.052 321.526 162.539 323.212 161.387 325.175C160.236 327.138 159.471 329.337 159.139 331.633C158.807 333.93 158.916 336.276 159.459 338.525C160.003 340.775 160.968 342.879 162.296 344.707C161.599 345.663 161 346.699 160.51 347.796L171.664 354.061L159.769 349.741C158.93 352.41 158.722 355.264 159.163 358.042C159.604 360.821 160.681 363.436 162.296 365.65C160.477 368.149 159.346 371.151 159.031 374.312C158.716 377.473 159.231 380.666 160.516 383.526C161.801 386.386 163.804 388.798 166.297 390.485C168.79 392.172 171.672 393.067 174.614 393.067C177.555 393.067 180.437 392.172 182.93 390.485C185.423 388.798 187.427 386.386 188.712 383.526C189.997 380.666 190.511 377.473 190.196 374.312C189.881 371.151 188.75 368.149 186.931 365.65C189.103 362.665 190.284 358.977 190.284 355.179C190.284 351.381 189.103 347.693 186.931 344.707L186.911 344.722Z" fill="#6C63FF"/>
<path opacity="0.1" d="M158.917 355.19C158.912 358.991 160.096 362.682 162.275 365.665C160.457 368.164 159.325 371.165 159.01 374.327C158.696 377.488 159.21 380.681 160.495 383.541C161.78 386.401 163.784 388.812 166.277 390.5C168.77 392.187 171.652 393.081 174.593 393.081C177.534 393.081 180.416 392.187 182.909 390.5C185.403 388.812 187.406 386.401 188.691 383.541C189.976 380.681 190.49 377.488 190.176 374.327C189.861 371.165 188.729 368.164 186.911 365.665C189.012 362.785 158.917 353.289 158.917 355.19Z" fill="black"/>
<path d="M645.585 479.912C661.106 479.912 673.688 477.296 673.688 474.069C673.688 470.842 661.106 468.226 645.585 468.226C630.064 468.226 617.481 470.842 617.481 474.069C617.481 477.296 630.064 479.912 645.585 479.912Z" fill="#6C63FF"/>
<path d="M645.118 476.222C646.923 476.222 648.387 474.148 648.387 471.589C648.387 469.031 646.923 466.957 645.118 466.957C643.312 466.957 641.849 469.031 641.849 471.589C641.849 474.148 643.312 476.222 645.118 476.222Z" fill="#3F3D56"/>
<path d="M645.118 470.565C646.923 470.565 648.387 468.491 648.387 465.932C648.387 463.374 646.923 461.3 645.118 461.3C643.312 461.3 641.849 463.374 641.849 465.932C641.849 468.491 643.312 470.565 645.118 470.565Z" fill="#3F3D56"/>
<path d="M645.118 464.908C646.923 464.908 648.387 462.834 648.387 460.275C648.387 457.717 646.923 455.643 645.118 455.643C643.312 455.643 641.849 457.717 641.849 460.275C641.849 462.834 643.312 464.908 645.118 464.908Z" fill="#3F3D56"/>
<path d="M645.118 459.243C646.923 459.243 648.387 457.169 648.387 454.611C648.387 452.052 646.923 449.978 645.118 449.978C643.312 449.978 641.849 452.052 641.849 454.611C641.849 457.169 643.312 459.243 645.118 459.243Z" fill="#3F3D56"/>
<path d="M645.118 453.586C646.923 453.586 648.387 451.512 648.387 448.954C648.387 446.395 646.923 444.321 645.118 444.321C643.312 444.321 641.849 446.395 641.849 448.954C641.849 451.512 643.312 453.586 645.118 453.586Z" fill="#3F3D56"/>
<path d="M645.118 447.929C646.923 447.929 648.387 445.855 648.387 443.297C648.387 440.738 646.923 438.664 645.118 438.664C643.312 438.664 641.849 440.738 641.849 443.297C641.849 445.855 643.312 447.929 645.118 447.929Z" fill="#3F3D56"/>
<path d="M645.118 442.272C646.923 442.272 648.387 440.198 648.387 437.64C648.387 435.081 646.923 433.007 645.118 433.007C643.312 433.007 641.849 435.081 641.849 437.64C641.849 440.198 643.312 442.272 645.118 442.272Z" fill="#3F3D56"/>
<path d="M657.363 398.917C657.811 398.3 658.217 397.65 658.579 396.972L649.987 395.45L659.28 395.524C660.171 393.426 660.658 391.154 660.71 388.846C660.762 386.539 660.378 384.244 659.582 382.102L647.11 389.095L658.634 379.941C657.555 377.93 656.105 376.181 654.374 374.802C652.642 373.423 650.667 372.444 648.571 371.926C646.474 371.408 644.302 371.361 642.188 371.79C640.075 372.218 638.065 373.112 636.285 374.416C634.505 375.72 632.992 377.406 631.84 379.37C630.689 381.333 629.923 383.531 629.592 385.828C629.26 388.125 629.369 390.471 629.912 392.72C630.455 394.969 631.421 397.073 632.749 398.902C632.051 399.858 631.453 400.894 630.963 401.99L642.117 408.256L630.221 403.935C629.383 406.605 629.174 409.458 629.616 412.237C630.057 415.016 631.134 417.631 632.749 419.845C630.93 422.344 629.799 425.345 629.484 428.506C629.169 431.668 629.683 434.861 630.968 437.721C632.253 440.581 634.257 442.992 636.75 444.679C639.243 446.366 642.125 447.261 645.066 447.261C648.008 447.261 650.89 446.366 653.383 444.679C655.876 442.992 657.88 440.581 659.164 437.721C660.449 434.861 660.964 431.668 660.649 428.506C660.334 425.345 659.203 422.344 657.384 419.845C659.556 416.859 660.736 413.171 660.736 409.373C660.736 405.575 659.556 401.887 657.384 398.902L657.363 398.917Z" fill="#6C63FF"/>
<path opacity="0.1" d="M629.37 409.384C629.365 413.186 630.548 416.877 632.728 419.86C630.909 422.359 629.778 425.36 629.463 428.521C629.148 431.682 629.663 434.876 630.948 437.736C632.233 440.596 634.236 443.007 636.729 444.694C639.222 446.381 642.104 447.276 645.046 447.276C647.987 447.276 650.869 446.381 653.362 444.694C655.855 443.007 657.859 440.596 659.144 437.736C660.429 434.876 660.943 431.682 660.628 428.521C660.313 425.36 659.182 422.359 657.363 419.86C659.465 416.979 629.37 407.484 629.37 409.384Z" fill="black"/>
<path opacity="0.1" d="M277.76 80.891C283.552 80.891 288.247 75.8156 288.247 69.5547C288.247 63.2938 283.552 58.2184 277.76 58.2184C271.968 58.2184 267.272 63.2938 267.272 69.5547C267.272 75.8156 271.968 80.891 277.76 80.891Z" fill="#6C63FF"/>
<path opacity="0.1" d="M315.279 38.0105C324.989 38.0105 332.861 29.5015 332.861 19.0052C332.861 8.50893 324.989 0 315.279 0C305.569 0 297.697 8.50893 297.697 19.0052C297.697 29.5015 305.569 38.0105 315.279 38.0105Z" fill="#6C63FF"/>
<path opacity="0.1" d="M292.01 130.23C301.721 130.23 309.592 121.721 309.592 111.225C309.592 100.729 301.721 92.2198 292.01 92.2198C282.3 92.2198 274.428 100.729 274.428 111.225C274.428 121.721 282.3 130.23 292.01 130.23Z" fill="#6C63FF"/>
<path opacity="0.1" d="M662.02 217.491C667.812 217.491 672.507 212.416 672.507 206.155C672.507 199.894 667.812 194.818 662.02 194.818C656.228 194.818 651.532 199.894 651.532 206.155C651.532 212.416 656.228 217.491 662.02 217.491Z" fill="#6C63FF"/>
<path opacity="0.1" d="M647.769 266.83C657.479 266.83 665.351 258.321 665.351 247.825C665.351 237.329 657.479 228.82 647.769 228.82C638.059 228.82 630.187 237.329 630.187 247.825C630.187 258.321 638.059 266.83 647.769 266.83Z" fill="#6C63FF"/>
<path opacity="0.1" d="M69.2081 233.111C72.4891 233.111 75.1488 230.236 75.1488 226.689C75.1488 223.143 72.4891 220.268 69.2081 220.268C65.9271 220.268 63.2673 223.143 63.2673 226.689C63.2673 230.236 65.9271 233.111 69.2081 233.111Z" fill="#6C63FF"/>
<path opacity="0.1" d="M94.6743 213.148C100.174 213.148 104.633 208.329 104.633 202.383C104.633 196.438 100.174 191.619 94.6743 191.619C89.1744 191.619 84.7158 196.438 84.7158 202.383C84.7158 208.329 89.1744 213.148 94.6743 213.148Z" fill="#6C63FF"/>
<path opacity="0.1" d="M47.011 229.844C52.5109 229.844 56.9695 225.025 56.9695 219.08C56.9695 213.135 52.5109 208.315 47.011 208.315C41.5111 208.315 37.0525 213.135 37.0525 219.08C37.0525 225.025 41.5111 229.844 47.011 229.844Z" fill="#6C63FF"/>
<path opacity="0.1" d="M509.442 194.507C512.723 194.507 515.383 191.632 515.383 188.085C515.383 184.538 512.723 181.663 509.442 181.663C506.161 181.663 503.501 184.538 503.501 188.085C503.501 191.632 506.161 194.507 509.442 194.507Z" fill="#6C63FF"/>
<path opacity="0.1" d="M534.908 174.544C540.408 174.544 544.867 169.724 544.867 163.779C544.867 157.834 540.408 153.014 534.908 153.014C529.408 153.014 524.95 157.834 524.95 163.779C524.95 169.724 529.408 174.544 534.908 174.544Z" fill="#6C63FF"/>
<path opacity="0.1" d="M487.245 191.24C492.745 191.24 497.203 186.421 497.203 180.475C497.203 174.53 492.745 169.711 487.245 169.711C481.745 169.711 477.286 174.53 477.286 180.475C477.286 186.421 481.745 191.24 487.245 191.24Z" fill="#6C63FF"/>
<path opacity="0.1" d="M148.746 132.569C162.495 132.569 173.642 120.52 173.642 105.657C173.642 90.7943 162.495 78.7455 148.746 78.7455C134.996 78.7455 123.849 90.7943 123.849 105.657C123.849 120.52 134.996 132.569 148.746 132.569Z" fill="#6C63FF"/>
<path opacity="0.1" d="M290.912 210.275C298.847 210.275 305.279 203.322 305.279 194.744C305.279 186.167 298.847 179.213 290.912 179.213C282.977 179.213 276.544 186.167 276.544 194.744C276.544 203.322 282.977 210.275 290.912 210.275Z" fill="#6C63FF"/>
<path opacity="0.1" d="M433.078 311.24C441.013 311.24 447.445 304.287 447.445 295.709C447.445 287.132 441.013 280.179 433.078 280.179C425.143 280.179 418.71 287.132 418.71 295.709C418.71 304.287 425.143 311.24 433.078 311.24Z" fill="#6C63FF"/>
<path d="M175.132 439.919C220.459 439.919 257.204 431.942 257.204 422.102C257.204 412.261 220.459 404.284 175.132 404.284C129.805 404.284 93.0603 412.261 93.0603 422.102C93.0603 431.942 129.805 439.919 175.132 439.919Z" stroke="#444053" stroke-miterlimit="10"/>
<path d="M645.585 492.629C690.912 492.629 727.657 484.652 727.657 474.811C727.657 464.971 690.912 456.994 645.585 456.994C600.258 456.994 563.513 464.971 563.513 474.811C563.513 484.652 600.258 492.629 645.585 492.629Z" stroke="#444053" stroke-miterlimit="10"/>
<path d="M82.4152 492.629C127.742 492.629 164.487 484.652 164.487 474.811C164.487 464.971 127.742 456.994 82.4152 456.994C37.0883 456.994 0.343506 464.971 0.343506 474.811C0.343506 484.652 37.0883 492.629 82.4152 492.629Z" stroke="#444053" stroke-miterlimit="10"/>
</g>
<defs>
<linearGradient id="paint0_linear" x1="280.651" y1="442.221" x2="280.651" y2="219.199" gradientUnits="userSpaceOnUse">
<stop stop-color="#808080" stop-opacity="0.25"/>
<stop offset="0.54" stop-color="#808080" stop-opacity="0.12"/>
<stop offset="1" stop-color="#808080" stop-opacity="0.1"/>
</linearGradient>
<linearGradient id="paint1_linear" x1="-31324.8" y1="88748.2" x2="-36580.8" y2="88748.2" gradientUnits="userSpaceOnUse">
<stop stop-color="#808080" stop-opacity="0.25"/>
<stop offset="0.54" stop-color="#808080" stop-opacity="0.12"/>
<stop offset="1" stop-color="#808080" stop-opacity="0.1"/>
</linearGradient>
<clipPath id="clip0">
<rect width="728" height="493" fill="white"/>
</clipPath>
</defs>
</svg>
