<svg width="211" height="168" viewBox="0 0 211 168" fill="none" xmlns="http://www.w3.org/2000/svg">
<g clip-path="url(#clip0)">
<path d="M161.534 149.785C174.672 149.785 185.322 147.067 185.322 143.713C185.322 140.36 174.672 137.642 161.534 137.642C148.397 137.642 137.747 140.36 137.747 143.713C137.747 147.067 148.397 149.785 161.534 149.785Z" stroke="#444053" stroke-miterlimit="10"/>
<path d="M71.7678 95.3476C71.8376 95.5728 71.9167 95.7932 72.0047 96.0079V96.0357C72.0047 96.0357 73.1313 101.326 73.6588 102.436C73.8121 102.758 73.9853 103.107 74.1565 103.448C74.1226 103.699 74.1226 103.956 74.1565 104.207C74.3157 105.386 74.5088 107.008 74.4212 107.364C74.3336 107.721 74.5267 108.609 74.2222 108.918C73.9176 109.226 73.6051 109.763 74.5387 110.474C74.5387 110.474 74.7138 111.073 74.5566 111.207C74.5387 111.222 74.5566 111.255 74.6004 111.298C74.3436 112.265 73.9674 113.828 74.2022 113.939C74.3316 114.003 74.682 113.77 75.0662 113.456C75.0761 113.52 75.0841 113.588 75.094 113.656C75.1551 114.177 75.2497 114.691 75.3767 115.192C75.5479 115.675 75.7191 116.49 75.6275 116.758C75.5359 117.026 75.8783 117.623 75.7987 117.858C75.7191 118.094 76.0634 118.858 76.0634 118.858C76.0634 118.858 76.4058 120.34 76.3919 120.841C76.3779 121.342 76.7621 124.572 76.7621 124.572C76.7621 124.572 76.364 126.24 76.5631 126.723C76.7621 127.206 76.8915 128.873 76.5631 129.491C76.2346 130.108 75.8226 131.471 75.9559 131.838C76.0893 132.205 75.7708 136.739 76.575 138.606C76.678 139.3 76.7531 140.001 76.7999 140.705C76.7999 141.211 77.4329 142.555 77.4329 142.555C77.4329 142.555 77.0508 144.579 77.9883 144.92C78.053 144.946 78.1198 144.962 78.1874 144.968C78.216 145.189 78.1924 145.417 78.1197 145.621C77.9595 145.903 77.8457 146.223 77.7853 146.562C77.7715 146.626 77.7779 146.694 77.8032 146.752C77.9087 146.901 78.2013 148.902 78.2013 148.902C78.2013 148.902 78.6233 151.151 80.9463 150.602C80.9463 150.602 82.5168 150.486 82.3855 149.785C82.3423 149.554 82.2851 149.327 82.2143 149.107C82.159 148.965 82.1098 148.819 82.067 148.669C82.0411 148.502 81.7107 148.034 81.6848 147.718C81.6589 147.402 81.4479 146.785 81.4857 146.585C81.5235 146.385 81.1294 144.953 81.1016 144.634C81.0693 144.412 81.0193 144.195 80.9523 143.987L81.0359 143.936C81.0359 143.936 81.2469 142.436 81.0637 141.887C80.8806 141.338 80.1521 140.622 80.1521 140.622C80.1521 140.622 80.2576 136.938 80.1262 136.438C79.9948 135.937 80.1919 134.039 80.1919 134.039C80.1919 134.039 80.6397 131.355 80.6139 130.75C80.5989 130.376 80.6436 130.002 80.7452 129.65C80.7452 129.65 81.0239 125.701 81.2071 125.2C81.3902 124.699 81.6052 119.801 81.6052 119.801L81.7286 120.251C81.902 120.927 82.1081 121.589 82.3457 122.232C82.4472 122.435 82.7438 123.082 82.9986 123.624L83.3748 124.433C83.3748 124.433 83.546 125.218 83.4265 125.698C83.3071 126.179 84.6547 128.78 84.6547 128.78C84.568 128.997 84.5229 129.237 84.5233 129.48C84.5612 129.733 84.1133 130.53 84.1133 130.53C84.1133 130.53 83.9421 131.246 84.0476 131.497C84.1531 131.747 83.8764 133.23 83.8764 133.23C83.8764 133.23 83.4265 136.496 83.321 136.88C83.2155 137.265 83.3748 139.896 83.3748 139.896C83.3748 139.896 82.5467 142.59 82.9309 143.486C82.9468 143.817 82.9488 144.323 82.8473 144.528C82.7099 144.801 82.7497 145.811 82.7637 146.089C82.7637 146.137 82.7637 146.162 82.7637 146.162C82.7637 146.162 82.3138 146.921 82.8811 147.23C83.4484 147.538 85.3773 147.761 85.3773 147.761C85.3773 147.761 87.2106 148.429 88.0944 148.611C88.9782 148.793 90.8275 148.728 90.9588 148.044C91.0056 147.832 91.0218 147.611 91.0066 147.392C90.9947 147.253 90.955 147.121 90.8912 147.007C90.8274 146.894 90.7417 146.803 90.6423 146.744C90.0989 146.469 89.5432 146.235 88.9782 146.043C88.9782 146.043 88.1063 145.79 88.0267 145.31C87.9471 144.829 86.707 143.493 86.707 143.493C86.707 143.493 86.6931 143.4 86.6672 143.273H86.707L86.6473 143.197C86.5856 142.944 86.486 142.61 86.3646 142.674C86.3456 142.628 86.3341 142.579 86.3306 142.528C86.3272 142.476 86.3319 142.425 86.3446 142.376C86.3573 142.328 86.3775 142.283 86.4042 142.244C86.431 142.206 86.4635 142.174 86.5 142.152C86.9757 141.821 87.2663 140.771 87.133 139.638C86.9996 138.504 86.9757 138.704 87.2524 138.054C87.4241 137.563 87.4927 137.023 87.4515 136.488L88.182 133.027C88.2964 132.602 88.3674 132.16 88.393 131.712C88.4054 131.359 88.4773 131.014 88.604 130.7C88.604 130.7 88.9344 128.299 89.225 127.75C89.5157 127.201 89.026 125.266 89.026 125.266C89.026 125.266 88.5781 122.268 88.604 120.899C88.6299 119.53 87.4415 114.784 87.4415 114.784C87.289 114.476 87.2244 114.111 87.2584 113.75C87.2823 113.466 87.1429 113.006 86.9857 112.594L86.9359 112.465C86.9966 112.365 87.0699 112.28 87.1529 112.212C87.4793 111.959 87.6326 111.293 87.6346 110.825L83.1339 97.3437C83.1339 97.3032 85.218 91.8918 85.2121 91.8513C85.0887 90.9634 83.9102 88.6081 83.9102 88.6081C83.8989 88.5786 83.8818 88.5533 83.8605 88.5347C83.5957 88.3804 82.7 87.7353 82.7 87.7353C81.9973 86.6323 81.3384 86.4046 80.9085 86.4122C80.7733 86.41 80.6387 86.4365 80.5104 86.4906C80.4645 86.5087 80.4199 86.5315 80.377 86.5589L80.3571 86.779C80.3204 86.2699 80.352 85.7567 80.4506 85.2611C80.4606 85.2181 80.4705 85.1725 80.4785 85.1295C80.5442 85.1295 80.6099 85.1295 80.6776 85.1295C81.0989 85.1312 81.5165 85.0273 81.9063 84.8239C82.2961 84.6205 82.6506 84.3215 82.9494 83.944C83.2483 83.5665 83.4858 83.1179 83.6482 82.6237C83.8107 82.1296 83.895 81.5996 83.8963 81.064C83.8962 80.6833 83.8547 80.3045 83.7729 79.9383L83.757 79.8801L83.8565 79.8244C84.2546 79.6372 84.7542 79.956 85.0767 79.617C85.1936 79.4696 85.2774 79.2854 85.3196 79.0832C85.4089 78.8123 85.4685 78.5272 85.4967 78.2357C85.4967 78.1851 85.4967 78.1345 85.4967 78.0839C85.4977 78.0687 85.4977 78.0535 85.4967 78.0383C85.4977 78.0198 85.4977 78.0012 85.4967 77.9827C85.4967 77.9599 85.4967 77.9371 85.4967 77.9144C85.4967 77.8916 85.4967 77.9144 85.4967 77.9144C85.4787 77.7285 85.4193 77.5529 85.3255 77.4084C85.1145 77.0947 84.7622 77.0188 84.4955 76.7886C84.2774 76.5738 84.0965 76.3043 83.964 75.9967C83.8311 75.691 83.6566 75.4177 83.4484 75.1897C83.3427 75.0768 83.2146 75.0028 83.0782 74.9756C82.9417 74.9484 82.802 74.9691 82.6741 75.0354C82.5962 75.1032 82.5101 75.1544 82.4193 75.1872C82.3205 75.1889 82.2233 75.1556 82.1386 75.0911C81.223 74.5471 80.1481 74.6433 79.1528 74.8052C78.7483 74.8461 78.3513 74.9673 77.9764 75.1644C77.789 75.2624 77.6206 75.4112 77.4831 75.6004C77.3456 75.7896 77.2422 76.0147 77.1801 76.2599C77.0985 76.652 77.1602 77.077 77.0627 77.4641C76.995 77.7171 76.8636 77.9498 76.78 78.2053C76.7394 78.3392 76.714 78.4798 76.7044 78.6227C76.7044 78.6227 76.7044 78.6506 76.7044 78.6632C76.6706 79.2375 76.8477 79.8421 76.9333 80.4341C77.0507 81.2411 76.991 82.119 77.2637 82.883C77.291 82.9766 77.3256 83.0665 77.3673 83.1512C77.2717 83.4042 77.1682 83.6723 77.0687 83.9228C76.9214 83.8697 76.4715 83.7432 76.4556 84.2441C76.4524 84.6512 76.3776 85.0523 76.2366 85.4179C76.2157 85.439 76.1937 85.4584 76.1709 85.4761C76.1466 85.4902 76.1264 85.5137 76.1132 85.5432C76.1 85.5727 76.0944 85.6068 76.0973 85.6405L76.0455 85.6911C76.0227 85.693 76.0007 85.7026 75.9818 85.719C75.9539 85.6583 75.8624 85.6532 75.5718 86.0934C75.185 86.6047 74.7401 87.0396 74.252 87.3836C74.252 87.3836 72.2973 89.1166 72.1918 89.9135C72.0863 90.7104 71.4334 94.1915 71.7678 95.3476ZM80.3511 86.8928C80.3511 86.8928 80.3511 86.8751 80.3511 86.865L80.375 86.8802L80.3511 86.8928ZM85.6619 143.562C85.6091 143.59 85.5522 143.605 85.4947 143.605L85.6619 143.562Z" fill="url(#paint0_linear)"/>
<path d="M81.1614 150.61C78.8663 151.156 78.4483 148.92 78.4483 148.92C78.4483 148.92 78.1616 146.931 78.0502 146.782C78.0249 146.724 78.0185 146.656 78.0322 146.592C78.0922 146.255 78.2045 145.937 78.3627 145.656C78.506 145.441 78.3886 144.546 78.3886 144.546L81.048 143.686C81.1617 144.005 81.249 144.338 81.3087 144.68C81.3366 144.993 81.7267 146.42 81.6869 146.618C81.6471 146.815 81.8581 147.43 81.886 147.746C81.9139 148.062 82.2383 148.525 82.2642 148.69C82.3042 148.839 82.3521 148.986 82.4075 149.127C82.4785 149.345 82.5351 149.57 82.5767 149.8C82.7121 150.493 81.1614 150.61 81.1614 150.61Z" fill="#444053"/>
<path opacity="0.1" d="M81.1614 150.61C78.8663 151.156 78.4483 148.92 78.4483 148.92C78.4483 148.92 78.1616 146.931 78.0502 146.782C78.0249 146.724 78.0185 146.656 78.0322 146.592L78.5836 148.616C78.5836 148.616 79.0415 149.828 80.7354 149.643C81.7009 149.542 82.1746 149.314 82.4055 149.137C82.4765 149.355 82.5331 149.58 82.5747 149.81C82.7121 150.493 81.1614 150.61 81.1614 150.61Z" fill="black"/>
<path opacity="0.1" d="M79.3738 147.46C79.3738 147.46 79.949 147.478 79.9869 146.881L79.3738 147.46Z" fill="black"/>
<path d="M89.3505 127.871C89.0638 128.418 88.7374 130.803 88.7374 130.803C88.616 131.119 88.5482 131.464 88.5383 131.815C88.5172 132.261 88.4503 132.702 88.3393 133.126L87.5848 136.556C87.6249 137.088 87.5564 137.624 87.3858 138.112C87.1131 138.76 87.1389 138.56 87.2683 139.688C87.3977 140.817 87.1131 141.859 86.6433 142.19C86.1735 142.522 86.8523 143.301 86.8523 143.301C86.8523 143.301 83.8525 144.328 83.2255 143.698C82.5985 143.068 83.5519 139.954 83.5519 139.954C83.5519 139.954 83.3967 137.336 83.5002 136.954C83.6037 136.572 84.0476 133.323 84.0476 133.323C84.0476 133.323 84.3223 131.848 84.2168 131.6C84.1113 131.352 84.2825 130.639 84.2825 130.639C84.2825 130.639 84.7264 129.842 84.6806 129.594C84.6813 129.352 84.7263 129.114 84.812 128.898C84.812 128.898 83.4823 126.313 83.5977 125.832C83.7132 125.352 83.546 124.567 83.546 124.567C83.546 124.567 83.3788 124.201 83.1757 123.763C82.9289 123.224 82.6303 122.581 82.5288 122.379C82.2957 121.739 82.093 121.082 81.9217 120.411L81.7983 119.961C81.7983 119.961 81.5992 124.833 81.4001 125.329C81.2011 125.825 80.9443 129.756 80.9443 129.756C80.8428 130.105 80.7981 130.477 80.8129 130.849C80.8388 131.461 80.3949 134.138 80.3949 134.138C80.3949 134.138 80.1959 136.028 80.3312 136.526C80.4666 137.024 80.3571 140.685 80.3571 140.685C80.3571 140.685 81.0737 141.398 81.2568 141.95C81.44 142.502 81.2309 143.989 81.2309 143.989C81.2309 143.989 79.1448 145.315 78.2172 144.966C77.2896 144.616 77.6698 142.613 77.6698 142.613C77.6698 142.613 77.0448 141.287 77.0448 140.774C76.9983 140.073 76.9239 139.375 76.8218 138.684C76.0256 136.827 76.3401 132.321 76.2107 131.955C76.0814 131.588 76.4834 130.232 76.8079 129.619C77.1324 129.007 77.007 127.343 76.8079 126.867C76.6089 126.391 77.007 124.729 77.007 124.729C77.007 124.729 76.6288 121.514 76.6427 121.018C76.6566 120.522 76.3162 119.045 76.3162 119.045C76.3162 119.045 75.9778 118.286 76.0555 118.05C76.1331 117.815 75.7947 117.221 75.8863 116.958C75.9778 116.694 75.8067 115.88 75.6375 115.399C75.5136 114.903 75.4204 114.396 75.3588 113.881C75.2792 113.31 75.2214 112.806 75.2214 112.806L77.3732 110.603L82.7478 108.811L84.7861 107.969L86.7548 111.913C86.7548 111.913 86.9538 112.325 87.139 112.801C87.2942 113.211 87.4316 113.669 87.4077 113.952C87.3749 114.311 87.4395 114.673 87.5908 114.979C87.5908 114.979 88.7632 119.702 88.7374 121.051C88.7115 122.399 89.1554 125.395 89.1554 125.395C89.1554 125.395 89.6371 127.325 89.3505 127.871Z" fill="#3F3D56"/>
<path opacity="0.1" d="M77.2759 130.341C77.2759 130.341 79.571 129.098 80.2478 129.976C80.9246 130.854 77.2759 130.341 77.2759 130.341Z" fill="black"/>
<path opacity="0.1" d="M78.5656 130.836C78.5656 130.836 76.2387 132.509 77.0349 132.777C77.8311 133.045 78.5656 130.836 78.5656 130.836Z" fill="black"/>
<path opacity="0.1" d="M85.5027 129.397C85.5027 129.397 84.5074 129.478 84.8896 129.728C85.2718 129.979 85.5027 129.397 85.5027 129.397Z" fill="black"/>
<path opacity="0.1" d="M86.7429 129.776C86.729 129.86 83.8606 131.041 84.4219 131.568C84.9833 132.094 86.7429 129.776 86.7429 129.776Z" fill="black"/>
<path opacity="0.1" d="M77.6143 139.919C78.0442 139.838 80.4448 138.429 79.5053 139.441C79.2539 139.731 78.9451 139.929 78.612 140.013C78.2788 140.097 77.9339 140.065 77.6143 139.919Z" fill="black"/>
<path opacity="0.1" d="M78.8005 141.029C78.8005 141.029 79.0095 142.059 79.8058 141.925C80.602 141.791 78.8005 141.029 78.8005 141.029Z" fill="black"/>
<path opacity="0.1" d="M78.1357 143.119C78.2791 143.068 79.987 142.074 80.0268 142.54C80.0666 143.005 78.3965 143.804 78.2671 143.567C78.192 143.435 78.1466 143.281 78.1357 143.119Z" fill="black"/>
<path opacity="0.1" d="M83.6655 141.925C83.8646 141.91 85.8293 141.113 86.2214 141.826L83.6655 141.925Z" fill="black"/>
<path opacity="0.1" d="M85.439 142.39C85.439 142.39 85.7774 142.008 86.1158 142.208C86.4542 142.408 85.439 142.39 85.439 142.39Z" fill="black"/>
<path opacity="0.1" d="M81.1096 146.499C81.1308 146.64 81.1839 146.77 81.2624 146.873C81.3408 146.977 81.4413 147.049 81.5515 147.081L81.1096 146.499Z" fill="black"/>
<path d="M91.0584 148.057C90.929 148.738 89.1017 148.804 88.2298 148.621C87.358 148.439 85.5426 147.776 85.5426 147.776C85.5426 147.776 83.6396 147.544 83.0782 147.245C82.5169 146.947 82.9608 146.185 82.9608 146.185C82.9608 146.185 82.9608 146.16 82.9608 146.114C82.9469 145.836 82.909 144.832 83.0424 144.561C83.1997 144.245 83.1081 143.218 83.1081 143.218C83.1081 143.218 85.8073 143.88 85.8591 143.567C85.9108 143.253 86.3288 142.808 86.5239 142.704C86.719 142.6 86.8643 143.534 86.8643 143.534C86.8643 143.534 88.0905 144.86 88.1681 145.34C88.2458 145.821 89.1057 146.069 89.1057 146.069C89.6641 146.259 90.2132 146.491 90.7499 146.765C90.8483 146.823 90.9332 146.913 90.9963 147.026C91.0594 147.138 91.0986 147.27 91.1102 147.407C91.1242 147.626 91.1066 147.846 91.0584 148.057Z" fill="#444053"/>
<path opacity="0.1" d="M91.0584 148.057C90.929 148.738 89.1017 148.803 88.2298 148.621C87.358 148.439 85.5426 147.776 85.5426 147.776C85.5426 147.776 83.6396 147.544 83.0782 147.245C82.5169 146.947 82.9608 146.185 82.9608 146.185C82.9608 146.185 82.9608 146.16 82.9608 146.114L85.6899 146.873C85.6899 146.873 87.0335 147.602 87.8934 147.602C88.6459 147.602 90.3279 147.994 91.1102 147.399C91.1249 147.621 91.1074 147.844 91.0584 148.057Z" fill="black"/>
<path opacity="0.1" d="M87.3679 145.439C87.3679 145.439 87.2386 146.532 86.717 146.898L87.3679 145.439Z" fill="black"/>
<path d="M95.7264 105.153C94.9501 105.528 93.1586 105.568 92.3623 105.568C92.1195 105.568 91.9642 105.568 91.9642 105.568L91.4526 104.243L91.9642 103.137C91.9642 103.137 92.434 102.973 93.059 102.828C93.9807 102.619 95.2486 102.454 95.8458 102.927C96.8491 103.719 96.7416 104.68 95.7264 105.153Z" fill="#A1616A"/>
<path d="M83.8686 89.2887L84.0955 88.9573C84.0955 88.9573 85.26 91.2999 85.3814 92.1828C85.5028 93.0658 85.6601 94.0828 85.6601 94.0828C85.6601 94.0828 85.9547 95.2313 86.1478 95.7398C86.3122 96.125 86.4404 96.5335 86.53 96.9567C86.5459 97.1768 86.4603 97.6625 86.8246 97.9686C87.1888 98.2747 87.2764 99.1172 87.2764 99.1172C87.2764 99.1172 88.5982 100.751 89.2949 100.797C89.9916 100.843 91.9881 101.283 91.9204 101.723C91.8527 102.163 92.7545 102.431 93.1148 102.543C93.475 102.654 90.7699 103.982 92.3623 105.692C92.3623 105.692 91.3531 105.945 91.2496 106.267C91.1461 106.588 90.0851 106.089 90.0851 106.089C90.0851 106.089 89.8582 105.404 89.0759 105.361C88.2936 105.318 87.8935 104.875 87.8935 104.809C87.8935 104.744 87.1112 104.19 86.6773 104.035C86.2433 103.881 85.668 103.815 85.6501 103.658C85.6322 103.501 83.0425 89.2963 83.0425 89.2963L83.8686 89.2887Z" fill="#6C63FF"/>
<path opacity="0.05" d="M83.8686 89.3443L84.0955 89.0129C84.0955 89.0129 85.26 91.3556 85.3814 92.241C85.5028 93.1265 85.6601 94.1409 85.6601 94.1409C85.6601 94.1409 85.9547 95.2895 86.1478 95.798C86.3117 96.1826 86.44 96.5901 86.53 97.0123C86.5459 97.235 86.4603 97.7207 86.8246 98.0243C87.1888 98.3279 87.2764 99.1728 87.2764 99.1728C87.2764 99.1728 88.5982 100.81 89.2949 100.853C89.9916 100.896 91.9881 101.338 91.9204 101.781C91.8527 102.224 92.7545 102.489 93.1148 102.598C93.475 102.707 90.7699 104.04 92.3623 105.743C92.3623 105.743 91.3531 105.996 91.2496 106.317C91.1461 106.638 90.0851 106.14 90.0851 106.14C90.0851 106.14 89.8582 105.454 89.0759 105.411C88.2936 105.368 87.8935 104.926 87.8935 104.857C87.8935 104.789 87.1112 104.24 86.6773 104.086C86.2433 103.931 85.668 103.863 85.6501 103.709C85.6322 103.555 83.0425 89.3443 83.0425 89.3443H83.8686Z" fill="black"/>
<path d="M110.476 149.403C123.614 149.403 134.264 152.123 134.264 155.475C134.264 158.827 123.614 161.546 110.476 161.546C97.3387 161.546 86.6892 158.829 86.6892 155.475" stroke="#444053" stroke-miterlimit="10"/>
<path d="M105.588 24.2757L102.234 23.5525L98.003 55.2464L101.357 55.9696L105.588 24.2757Z" fill="#444053"/>
<path d="M109.549 151.475L110.293 158.23L110.93 151.207L109.549 151.475Z" fill="#D0D2D5"/>
<path d="M85.6343 147.693V151.882L86.3787 155.528H86.9102L87.5492 151.612L87.8677 146.883L85.6343 147.693Z" fill="#3F3D56"/>
<path d="M84.1192 131.35L85.7117 131.755C85.7117 131.755 83.9063 138.102 85.1802 139.453H83.1638C83.1638 139.453 82.4193 134.591 84.1192 131.35Z" fill="#D0D2D5"/>
<path opacity="0.1" d="M84.1192 131.35L85.7117 131.755C85.7117 131.755 83.9063 138.102 85.1802 139.453H83.1638C83.1638 139.453 82.4193 134.591 84.1192 131.35Z" fill="black"/>
<path d="M94.7748 55.032L89.673 96.094C89.673 96.094 82.1287 139.861 84.9971 148.505H88.612L99.4526 64.4886L94.7748 55.032Z" fill="#D0D2D5"/>
<path d="M107.714 49.9316L111.625 91.2037C111.625 91.2037 114.474 143.782 111.354 152.284H108.273L102.767 59.1631L107.714 49.9316Z" fill="#D0D2D5"/>
<path d="M94.299 40.0297C94.5616 38.9087 95.108 37.9291 95.8534 37.2429C96.5988 36.5568 97.5015 36.2025 98.4215 36.235C101.569 36.3362 106.434 37.0648 108.972 40.3687C112.905 45.5018 106.314 62.7908 106.314 62.7908C106.314 62.7908 100.143 77.2439 94.518 58.8746C94.51 58.8898 92.1771 49.0537 94.299 40.0297Z" fill="#444053"/>
<path opacity="0.1" d="M94.299 40.0297C94.5616 38.9087 95.108 37.9291 95.8534 37.2429C96.5988 36.5568 97.5015 36.2025 98.4215 36.235C101.569 36.3362 106.434 37.0648 108.972 40.3687C112.905 45.5018 106.314 62.7908 106.314 62.7908C106.314 62.7908 100.143 77.2439 94.518 58.8746C94.51 58.8898 92.1771 49.0537 94.299 40.0297Z" fill="black"/>
<path d="M96.4629 43.5414C96.652 42.745 97.0419 42.0497 97.5724 41.5624C98.1029 41.0751 98.7446 40.8229 99.399 40.8445C101.638 40.9179 105.102 41.4365 106.903 43.7893C109.704 47.4424 105.012 59.7527 105.012 59.7527C105.012 59.7527 100.633 70.0416 96.6122 56.9698C96.6122 56.9622 94.95 49.9672 96.4629 43.5414Z" fill="#444053"/>
<path d="M107.357 148.73C107.391 149.383 107.471 150.068 107.795 150.579C108.333 151.424 109.31 151.49 110.146 151.756C110.788 151.989 111.411 152.301 112.005 152.687L113.815 153.775C113.351 153.809 112.893 153.93 112.457 154.134C112.224 154.243 111.969 154.422 111.935 154.731C111.931 154.86 111.957 154.987 112.011 155.096C112.065 155.206 112.143 155.292 112.236 155.343C112.425 155.442 112.629 155.488 112.833 155.477C113.911 155.516 114.989 155.444 116.058 155.262L116.185 155.239C116.735 155.585 117.281 155.938 117.826 156.299C118.053 156.451 118.325 156.299 118.516 156.087C118.75 155.824 118.956 155.525 119.129 155.196C119.161 155.267 119.193 155.336 119.219 155.404C119.394 155.831 119.559 156.39 119.309 156.755C119.109 157.038 118.733 157.086 118.62 157.43C118.589 157.555 118.59 157.688 118.624 157.812C118.657 157.935 118.72 158.042 118.805 158.116C118.978 158.261 119.177 158.348 119.384 158.369C119.876 158.455 120.376 158.45 120.867 158.354C121.133 158.33 121.386 158.194 121.584 157.967C121.753 157.674 121.843 157.318 121.839 156.955L122.179 152.039C122.21 151.806 122.196 151.566 122.139 151.341C122.004 150.923 121.612 150.749 121.257 150.676H121.219C121.514 150.676 121.817 150.658 122.135 150.658C122.413 150.681 122.691 150.636 122.955 150.526C123.461 150.273 123.734 149.598 123.951 148.975C124.349 147.883 124.806 146.699 124.747 145.484L124.592 145.396C124.578 144.103 124.152 142.896 123.994 141.634C124.167 141.295 124.259 140.899 124.259 140.495C124.238 140.051 124.163 139.614 124.034 139.2C123.403 136.817 122.772 134.426 121.928 132.149C121.382 130.633 120.715 129.192 119.938 127.849C119.735 127.511 119.524 127.174 119.305 126.837C119.145 126.604 118.789 126.275 118.723 125.979C118.658 125.683 118.797 125.395 118.723 125.091C118.704 125.012 118.68 124.935 118.652 124.861C119.117 124.077 118.986 122.943 118.823 121.967L118.624 120.75C118.581 120.414 118.498 120.089 118.377 119.786C118.249 119.526 118.088 119.295 117.901 119.1C116.922 117.977 115.712 117.231 114.611 116.3C113.446 115.316 112.405 114.119 111.362 112.938C111.044 112.578 110.644 112.191 110.232 112.343C109.82 112.495 109.648 113.062 109.634 113.578C109.631 113.936 109.686 114.291 109.798 114.619C109.909 114.948 110.074 115.243 110.281 115.485C111.002 116.323 112.091 116.391 112.949 116.983C113.243 117.201 113.524 117.448 113.787 117.724L116.279 120.211C116.468 120.355 116.607 120.584 116.667 120.854C116.677 121.016 116.656 121.179 116.607 121.329C116.514 121.694 116.355 122.151 116.237 122.614L116.038 122.432C115.625 122.04 115.183 121.701 114.718 121.42C114.101 121.1 113.45 120.901 112.785 120.831C111.314 120.621 109.999 120.909 109.099 122.47C108.912 122.827 108.676 123.137 108.4 123.383C108.196 123.504 108.006 123.658 107.833 123.841C107.371 124.492 107.634 125.569 108.068 126.118C108.435 126.552 108.888 126.852 109.378 126.986C109.648 127.752 110.13 128.365 110.733 128.708C111.335 129.052 112.016 129.101 112.646 128.848C112.677 129.174 112.683 129.502 112.664 129.83C112.655 129.998 112.675 130.167 112.723 130.324C112.772 130.481 112.848 130.623 112.945 130.738C113.049 130.828 113.165 130.897 113.287 130.94C113.727 131.143 114.145 131.419 114.527 131.762C114.078 132.381 113.707 133.085 113.428 133.849C113.257 134.357 113.186 134.909 113.22 135.459C113.255 136.01 113.395 136.541 113.627 137.007L113.639 137.027C113.606 137.185 113.544 137.33 113.458 137.452C113.337 137.572 113.184 137.629 113.03 137.609C112.877 137.589 112.736 137.495 112.636 137.346C112.465 137.089 112.321 136.806 112.206 136.503C112.009 136.094 111.749 135.741 111.441 135.464C111.133 135.188 110.784 134.994 110.415 134.894C110.142 134.806 109.855 134.821 109.589 134.937C109.458 134.997 109.343 135.103 109.258 135.243C109.173 135.383 109.121 135.551 109.109 135.727C109.109 136.109 109.328 136.425 109.543 136.696C110.202 137.565 110.937 138.337 111.732 138.998C111.949 139.168 112.173 139.324 112.403 139.463C112.005 139.357 111.612 139.253 111.225 139.152C110.682 138.98 110.121 138.918 109.563 138.967C109.284 138.995 109.014 139.102 108.773 139.281C108.532 139.46 108.325 139.705 108.169 140C107.95 140.529 107.904 141.147 108.04 141.72C108.178 142.288 108.384 142.825 108.651 143.314C109.07 144.208 109.584 145.026 110.178 145.742C109.68 145.932 109.183 146.14 108.697 146.367C108.211 146.595 107.702 146.873 107.479 147.44C107.348 147.848 107.306 148.294 107.357 148.73ZM114.684 140.129H114.702C114.808 140.068 114.899 139.97 114.963 139.848C115.266 139.333 115.48 138.744 115.592 138.117C115.708 138.098 115.821 138.061 115.931 138.009C115.856 138.099 115.797 138.207 115.757 138.327C115.716 138.447 115.695 138.576 115.696 138.707L116.818 139.405C116.899 139.444 116.969 139.514 117.017 139.605C117.048 139.699 117.056 139.803 117.039 139.903C117.007 140.23 116.958 140.556 116.926 140.88C116.589 140.753 116.259 140.652 115.962 140.551C115.54 140.404 115.112 140.268 114.684 140.131V140.129Z" fill="url(#paint1_linear)"/>
<path d="M114.893 126.69C115.176 126.78 115.47 126.796 115.757 126.737C116.044 126.678 116.319 126.546 116.565 126.349C116.664 126.261 116.774 126.196 116.89 126.156C116.993 126.145 117.097 126.164 117.193 126.213C117.289 126.262 117.375 126.338 117.443 126.437C117.921 127.042 117.977 128.038 117.73 128.835C117.483 129.632 116.987 130.26 116.468 130.804C116.048 131.243 115.605 131.644 115.14 132.003C115.012 131.622 114.826 131.277 114.592 130.988C114.359 130.699 114.082 130.472 113.779 130.32C113.233 130.052 112.835 129.334 112.523 128.706C112.29 128.241 112.083 128.261 112.292 127.78C112.528 127.319 112.806 126.894 113.12 126.515C113.291 126.285 113.441 126.031 113.566 125.757C113.705 125.438 113.673 125.23 113.888 125.483C114.029 125.65 114.087 126.012 114.25 126.207C114.432 126.43 114.652 126.596 114.893 126.69Z" fill="#FABDBD"/>
<path d="M116.603 121.757C116.65 121.608 116.67 121.448 116.661 121.289C116.601 121.024 116.466 120.797 116.281 120.654L113.846 118.2C113.591 117.928 113.318 117.683 113.03 117.469C112.19 116.884 111.129 116.816 110.425 115.991C110.222 115.75 110.061 115.458 109.952 115.134C109.843 114.809 109.788 114.459 109.792 114.107C109.792 113.601 109.991 113.029 110.367 112.887C110.743 112.745 111.163 113.12 111.474 113.477C112.491 114.64 113.506 115.822 114.643 116.793C115.718 117.714 116.902 118.448 117.859 119.558C118.034 119.747 118.184 119.97 118.303 120.219C118.42 120.52 118.501 120.841 118.544 121.172L118.743 122.372C118.91 123.384 119.046 124.56 118.51 125.337C118.432 125.461 118.334 125.562 118.222 125.632C118.109 125.703 117.986 125.741 117.861 125.744C117.685 125.716 117.515 125.642 117.362 125.526C116.964 125.273 116.243 125.02 116.122 124.388C115.966 123.596 116.414 122.49 116.603 121.757Z" fill="#FABDBD"/>
<path d="M112.72 137.568C112.554 137.315 112.413 137.036 112.3 136.739C112.109 136.336 111.856 135.988 111.555 135.715C111.255 135.441 110.913 135.249 110.552 135.15C110.289 135.065 110.013 135.08 109.756 135.19C109.627 135.25 109.515 135.356 109.432 135.495C109.349 135.633 109.299 135.799 109.288 135.972C109.288 136.347 109.501 136.66 109.71 136.926C110.354 137.785 111.072 138.549 111.852 139.203C112.632 139.853 113.528 140.248 114.458 140.351C114.551 140.366 114.646 140.355 114.736 140.318C114.839 140.258 114.927 140.162 114.991 140.043C115.485 139.238 115.656 138.193 115.787 137.189C115.739 137.551 114.137 136.706 113.956 136.815C113.689 136.974 113.715 137.45 113.522 137.677C113.404 137.796 113.253 137.852 113.103 137.831C112.953 137.811 112.816 137.717 112.72 137.568Z" fill="#FABDBD"/>
<path d="M124.395 145.517C124.404 145.644 124.384 145.771 124.339 145.884C124.229 146.102 123.982 146.104 123.781 146.066C123.317 145.967 122.859 145.826 122.41 145.646L118.323 144.146C118.258 144.13 118.198 144.093 118.148 144.037C118.105 143.972 118.077 143.894 118.066 143.81C117.924 143.065 117.894 142.292 117.977 141.533C117.982 141.423 118.01 141.317 118.059 141.227C118.151 141.119 118.272 141.061 118.397 141.065C119.037 140.982 119.68 140.945 120.324 140.953C120.741 140.976 121.16 140.964 121.576 140.918C122.113 140.837 122.732 140.445 123.272 140.506C123.74 140.556 123.72 141.012 123.767 141.518C123.901 142.861 124.385 144.146 124.395 145.517Z" fill="#FABDBD"/>
<path d="M111.346 139.352C110.816 139.18 110.268 139.118 109.722 139.167C109.45 139.194 109.186 139.3 108.951 139.475C108.716 139.65 108.514 139.891 108.363 140.179C108.146 140.702 108.1 141.313 108.235 141.879C108.372 142.438 108.573 142.967 108.832 143.45C109.291 144.46 109.882 145.363 110.578 146.122C110.926 146.473 111.311 146.764 111.645 147.134C112.358 147.926 112.799 149.031 113.223 150.106C113.622 151.118 114.02 152.15 114.191 153.264C114.192 153.306 114.201 153.349 114.215 153.387C114.23 153.426 114.251 153.46 114.276 153.489C114.332 153.523 114.395 153.528 114.454 153.504L116.414 153.043C116.47 153.046 116.525 153.03 116.574 152.996C116.622 152.963 116.663 152.913 116.691 152.852C116.72 152.791 116.734 152.722 116.734 152.651C116.733 152.581 116.718 152.512 116.689 152.451C116.264 150.128 115.468 147.94 114.35 146.023C114.869 146.647 115.498 147.104 116.184 147.356C116.871 147.609 117.594 147.65 118.295 147.475C118.57 147.426 118.828 147.283 119.044 147.063C119.482 146.557 119.462 145.694 119.364 144.958C119.277 144.302 119.156 143.654 119.002 143.018C118.634 141.5 117.045 141.09 115.968 140.72C114.44 140.206 112.899 139.75 111.346 139.352Z" fill="#3F3D56"/>
<path opacity="0.1" d="M112.797 144.73C113.077 144.871 113.331 145.085 113.542 145.358C113.19 144.852 112.182 144.599 111.689 144.364C111.078 144.075 110.411 143.779 109.897 143.266C110.891 143.664 111.86 144.153 112.797 144.73Z" fill="black"/>
<path d="M119.147 155.394C119.317 155.819 119.478 156.368 119.235 156.73C119.048 157.008 118.674 157.056 118.562 157.395C118.532 157.518 118.533 157.65 118.565 157.772C118.598 157.894 118.66 157.999 118.743 158.073C118.911 158.218 119.106 158.305 119.309 158.326C119.79 158.409 120.278 158.404 120.758 158.311C121.018 158.287 121.264 158.152 121.456 157.929C121.624 157.635 121.711 157.28 121.705 156.917L122.038 152.065C122.067 151.834 122.054 151.597 122 151.374C121.867 150.962 121.484 150.792 121.138 150.719C120.751 150.635 120.357 150.615 119.966 150.658C119.702 150.662 119.446 150.774 119.235 150.977C119.039 151.26 118.919 151.614 118.891 151.989C118.801 152.565 118.55 153.365 118.604 153.949C118.638 154.432 118.98 154.969 119.147 155.394Z" fill="#6C63FF"/>
<path d="M114.752 153.825C114.006 153.701 113.247 153.81 112.541 154.141C112.314 154.248 112.065 154.427 112.031 154.731C112.027 154.858 112.052 154.983 112.105 155.091C112.157 155.199 112.234 155.284 112.326 155.335C112.511 155.433 112.71 155.479 112.911 155.47C113.963 155.505 115.016 155.434 116.06 155.257C116.331 155.235 116.594 155.13 116.826 154.951C116.941 154.858 117.028 154.718 117.072 154.555C117.115 154.391 117.114 154.213 117.067 154.05C116.942 153.716 116.599 153.613 116.434 153.312C116.315 153.094 116.285 152.773 116.098 152.659C115.956 152.602 115.803 152.616 115.67 152.699C115.471 152.788 114.993 152.876 114.856 153.086C114.796 153.326 114.761 153.574 114.752 153.825Z" fill="#6C63FF"/>
<path d="M111.933 129.344C113.377 129.344 114.547 127.857 114.547 126.022C114.547 124.188 113.377 122.7 111.933 122.7C110.49 122.7 109.32 124.188 109.32 126.022C109.32 127.857 110.49 129.344 111.933 129.344Z" fill="#FABDBD"/>
<path d="M118.132 124.56C117.712 124.168 117.183 124.034 116.671 123.912C116.498 123.844 116.312 123.855 116.146 123.945C116.036 124.046 115.949 124.182 115.893 124.34C115.735 124.665 115.618 125.019 115.546 125.39C115.511 125.575 115.511 125.769 115.546 125.955C115.58 126.141 115.649 126.314 115.746 126.46C115.901 126.662 116.124 126.763 116.283 126.966C116.386 127.112 116.461 127.287 116.502 127.477C116.543 127.667 116.548 127.866 116.518 128.059C116.454 128.442 116.336 128.808 116.17 129.139C115.786 129.999 115.348 130.818 114.86 131.588C114.352 132.39 113.783 133.161 113.484 134.118C113.318 134.619 113.249 135.164 113.284 135.707C113.318 136.25 113.455 136.773 113.683 137.234C114.167 138.13 115.13 138.611 115.929 138.224C115.856 138.313 115.798 138.419 115.759 138.538C115.72 138.656 115.701 138.783 115.702 138.912L116.797 139.602C116.877 139.64 116.947 139.709 116.996 139.8C117.025 139.893 117.032 139.995 117.016 140.093C116.93 140.654 116.885 141.224 116.882 141.796C116.912 142.365 117.117 142.964 117.523 143.212C117.895 143.44 118.337 143.319 118.743 143.212C119.692 142.968 120.656 142.84 121.624 142.828C122.105 142.828 122.603 142.843 123.047 142.605C123.344 142.439 123.598 142.166 123.777 141.821C123.956 141.476 124.053 141.073 124.056 140.66C124.036 140.221 123.962 139.789 123.835 139.38C123.22 137.027 122.603 134.669 121.779 132.42C121.242 130.923 120.588 129.5 119.826 128.17C119.627 127.833 119.428 127.502 119.207 127.181C119.052 126.951 118.704 126.627 118.64 126.333C118.576 126.04 118.711 125.756 118.64 125.458C118.55 125.097 118.373 124.783 118.132 124.56Z" fill="#6C63FF"/>
<path d="M124.546 145.586C123.399 144.913 122.253 144.24 121.06 143.716C120.182 143.331 119.203 143.03 118.341 143.463C118.082 143.595 117.847 143.784 117.599 143.939C116.765 144.445 115.807 144.531 114.885 144.66C112.834 144.953 110.819 145.562 108.884 146.474C108.42 146.691 107.92 146.979 107.69 147.531C107.559 147.931 107.515 148.367 107.562 148.796C107.596 149.441 107.674 150.119 107.99 150.622C108.516 151.457 109.469 151.521 110.285 151.784C110.913 152.015 111.522 152.323 112.103 152.705C114.01 153.861 115.919 155.017 117.79 156.269C118.009 156.418 118.275 156.269 118.462 156.059C119.026 155.394 119.433 154.543 119.637 153.6C119.84 152.662 119.94 151.694 119.936 150.721C120.668 150.721 121.263 150.681 121.996 150.681C122.265 150.702 122.535 150.658 122.792 150.552C123.284 150.299 123.55 149.633 123.771 149.021C124.165 147.941 124.609 146.77 124.546 145.586Z" fill="#3F3D56"/>
<path opacity="0.1" d="M111.233 149.044C111.748 148.725 112.346 148.718 112.921 148.723C113.272 148.714 113.622 148.748 113.968 148.824C114.496 149.003 115.009 149.248 115.499 149.555C116.72 150.206 118.032 150.533 119.356 150.516" fill="black"/>
<path d="M108.259 126.493C108.653 126.954 109.141 127.266 109.668 127.391C110.186 127.543 110.719 127.601 111.241 127.747C111.882 127.927 112.582 128.357 112.728 129.172C112.761 129.498 112.768 129.828 112.748 130.156C112.738 130.32 112.757 130.485 112.804 130.638C112.85 130.792 112.923 130.93 113.016 131.044C113.119 131.132 113.232 131.2 113.351 131.244C114.395 131.751 115.295 132.646 115.934 133.811C116.573 134.977 116.921 136.36 116.934 137.781C117.262 137.538 117.542 137.205 117.755 136.805C117.968 136.406 118.108 135.951 118.164 135.474C118.164 136.354 118.761 137.245 118.423 138.031C118.792 137.725 119.107 137.324 119.348 136.855C119.589 136.385 119.75 135.857 119.822 135.304C119.894 134.751 119.875 134.185 119.766 133.642C119.657 133.099 119.461 132.591 119.189 132.149C118.926 131.724 118.592 131.37 118.317 130.963C117.927 130.391 117.634 129.723 117.457 129C117.279 128.277 117.221 127.516 117.286 126.763C117.344 126.123 117.485 125.476 117.38 124.846C117.226 123.973 116.623 123.366 116.05 122.847C115.647 122.462 115.215 122.128 114.76 121.85C114.158 121.533 113.521 121.336 112.871 121.266C111.436 121.061 110.16 121.344 109.27 122.885C109.09 123.237 108.859 123.543 108.589 123.786C108.39 123.906 108.203 124.058 108.034 124.239C107.578 124.881 107.837 125.944 108.259 126.493Z" fill="#3F3D56"/>
<path d="M81.4142 89.4531C81.3326 89.4101 75.6595 86.4325 76.4378 85.8405C76.9016 85.4889 77.4729 84.0013 77.8631 82.835C78.1358 82.023 78.3209 81.3652 78.3209 81.3652C78.3209 81.3652 82.8753 80.3381 81.245 83.8951C80.9881 84.4396 80.7944 85.0283 80.6698 85.6432C80.2 88.0465 81.3685 89.4076 81.4142 89.4531Z" fill="#A1616A"/>
<path opacity="0.1" d="M81.2389 83.8849C80.982 84.4295 80.7882 85.0182 80.6636 85.6331C80.0861 85.5807 79.5308 85.3293 79.0573 84.9059C78.5838 84.4824 78.2101 83.9029 77.9764 83.2297C77.9304 83.1013 77.8905 82.9695 77.8569 82.8351C78.1296 82.023 78.3148 81.3652 78.3148 81.3652C78.3148 81.3652 82.8692 80.3381 81.2389 83.8849Z" fill="black"/>
<path d="M84.0697 81.4664C84.0664 82.3918 83.8136 83.2879 83.3536 84.0052C82.8936 84.7226 82.254 85.218 81.5415 85.4088C80.8289 85.5996 80.0865 85.4744 79.4378 85.0539C78.7891 84.6335 78.2734 83.9432 77.9765 83.0981C77.797 82.5845 77.7047 82.0284 77.7058 81.4664C77.7098 80.4946 77.9887 79.5571 78.4917 78.8251C78.9946 78.0931 79.688 77.6155 80.4451 77.4795C81.2022 77.3436 81.9725 77.5583 82.6153 78.0845C83.2581 78.6107 83.7306 79.4133 83.9462 80.3456C84.028 80.7102 84.0696 81.0873 84.0697 81.4664Z" fill="#A1616A"/>
<path opacity="0.1" d="M87.1391 112.798C86.9112 113.114 86.7521 113.499 86.6773 113.917C86.6773 113.917 85.1127 115.275 85.2162 114.423C85.3197 113.57 84.4001 110.071 84.4001 110.071L84.5036 114.812C84.5036 114.812 79.4973 114.514 79.129 114.053C78.7608 113.593 76.6368 112.69 76.6368 112.69C76.6368 112.69 75.9819 113.358 75.3788 113.864C75.2992 113.292 75.2415 112.788 75.2415 112.788L77.3933 110.585L82.7678 108.794L84.7862 107.969L86.7549 111.913C86.7549 111.913 86.9579 112.323 87.1391 112.798Z" fill="black"/>
<path d="M87.3022 112.424C86.8861 112.756 86.7289 113.651 86.7289 113.651C86.7289 113.651 85.1643 115.01 85.2678 114.157C85.3713 113.305 84.4596 109.816 84.4596 109.816L84.5651 114.557C84.5651 114.557 79.5569 114.258 79.1906 113.798C78.8244 113.338 76.6865 112.439 76.6865 112.439C76.6865 112.439 74.8353 114.329 74.4969 114.162C74.1585 113.995 75.094 110.782 75.094 110.782L76.0575 91.9553C76.0575 91.9553 75.7967 86.3542 76.1888 86.1543C76.2493 86.1239 76.3046 86.0792 76.3521 86.0227C76.6108 85.7293 76.6885 85.1322 76.7104 84.6288C76.7363 84.0343 77.3613 84.3303 77.3613 84.3303L76.997 84.9273L80.2297 87.4243L80.2576 87.4471C80.3868 87.3626 80.5198 87.2874 80.6557 87.2219C80.9423 87.0828 81.3225 86.9512 81.5713 87.0828C81.7104 87.1734 81.8284 87.3085 81.9137 87.4749C82.0986 87.8267 82.2465 88.2077 82.3536 88.6083L83.5281 91.1255C83.5281 91.1255 84.1252 94.475 84.1252 94.6065C84.1252 94.7381 84.3084 97.7891 84.5233 98.1205C84.7383 98.4519 84.9414 100.109 84.8637 100.607C84.7861 101.106 84.9931 102.96 84.9931 102.96C85.855 103.856 86.2969 106.904 86.2969 106.904C86.2969 106.904 87.6545 110.319 87.758 110.717C87.8615 111.114 87.7202 112.093 87.3022 112.424Z" fill="#444053"/>
<path opacity="0.1" d="M80.2338 87.5432C79.9153 88.1402 78.9997 88.9776 78.9997 88.9776L76.3562 86.1416C76.615 85.8482 76.6926 85.2486 76.7145 84.7477C76.7404 84.1506 77.3654 84.4491 77.3654 84.4491L77.2898 84.5731C77.2537 84.6327 77.2278 84.7012 77.2139 84.7743C77.2 84.8474 77.1984 84.9234 77.2091 84.9974C77.2198 85.0713 77.2426 85.1416 77.276 85.2036C77.3095 85.2656 77.3528 85.318 77.4032 85.3574L80.2338 87.5432Z" fill="black"/>
<path d="M80.2338 87.4089C79.9153 88.006 78.9997 88.8459 78.9997 88.8459L76.3562 86.0074C76.615 85.7139 76.6926 85.1169 76.7145 84.6134C76.7404 84.0189 77.3654 84.3149 77.3654 84.3149L77.2898 84.4389C77.2537 84.4984 77.2278 84.567 77.2139 84.6401C77.2 84.7132 77.1984 84.7892 77.2091 84.8631C77.2198 84.9371 77.2426 85.0073 77.276 85.0693C77.3095 85.1314 77.3528 85.1838 77.4032 85.2231L80.2338 87.4089Z" fill="#444053"/>
<path opacity="0.1" d="M81.456 87.8569C81.1136 88.3755 80.6299 88.965 80.6598 88.669C80.6896 88.373 80.3711 87.7228 80.1741 87.4319C80.4839 87.3079 80.8175 87.3195 81.1216 87.4648C81.2577 87.5568 81.3729 87.6918 81.456 87.8569Z" fill="black"/>
<path d="M81.5077 87.6568C81.1653 88.1779 80.6816 88.7649 80.7115 88.4714C80.7413 88.1779 80.4547 87.6973 80.2556 87.4063C80.5423 87.2672 80.9225 87.1356 81.1713 87.2672C81.3085 87.3571 81.4245 87.4915 81.5077 87.6568Z" fill="#444053"/>
<path opacity="0.1" d="M76.358 86.1718C76.358 86.1718 76.3918 85.7746 75.94 86.4602C75.5608 86.9629 75.1247 87.391 74.6461 87.7302C74.6461 87.7302 72.7173 89.4556 72.6118 90.26C72.5063 91.0645 71.8812 94.5026 72.2136 95.6512C72.5461 96.7997 75.0661 102.305 75.0661 102.305C75.0661 102.305 74.4053 103.299 74.5605 104.47C74.7158 105.642 74.9089 107.253 74.8213 107.607C74.7337 107.961 74.9268 108.844 74.6222 109.153C74.3177 109.462 74.0151 109.993 74.9367 110.701C74.9367 110.701 75.1099 111.298 74.9527 111.43C74.7954 111.561 77.2657 112.933 78.2391 112.204C79.2125 111.475 80.9701 105.642 81.004 104.336C81.0378 103.031 80.4645 98.7249 80.152 97.7079C79.8395 96.6909 78.9 92.7343 78.4998 91.8513C78.0997 90.9684 76.358 86.1718 76.358 86.1718Z" fill="black"/>
<path d="M76.2525 86.1718C76.2525 86.1718 76.2883 85.7746 75.8365 86.4602C75.4548 86.9675 75.0153 87.399 74.5326 87.7403C74.5326 87.7403 72.6018 89.4657 72.4983 90.2702C72.3948 91.0747 71.7677 94.5127 72.1002 95.6613C72.4326 96.8098 74.9507 102.315 74.9507 102.315C74.9507 102.315 74.2898 103.309 74.447 104.48C74.6043 105.652 74.7954 107.263 74.7078 107.617C74.6202 107.972 74.8113 108.854 74.5088 109.163C74.2062 109.472 73.8996 110.003 74.8213 110.711C74.8213 110.711 74.9964 111.308 74.8392 111.44C74.6819 111.572 77.1522 112.943 78.1256 112.214C79.099 111.486 80.8547 105.652 80.8905 104.346C80.9263 103.041 80.3511 98.7351 80.0386 97.7181C79.726 96.7011 78.7865 92.7444 78.3864 91.8614C77.9863 90.9785 76.2525 86.1718 76.2525 86.1718Z" fill="#6C63FF"/>
<path opacity="0.1" d="M75.5579 89.9287C75.5579 89.9287 77.0528 92.0285 77.001 93.4199C77.001 93.4199 77.0189 91.1658 75.5579 89.9287Z" fill="black"/>
<path opacity="0.1" d="M80.6041 86.9232C80.6041 86.9232 81.5735 86.1642 82.7937 88.0945C82.7937 88.0945 83.6795 88.7346 83.9403 88.8914C84.201 89.0483 84.4976 93.1542 84.4976 93.1542C84.4976 93.1542 85.0709 94.9251 84.9137 95.9371C84.7564 96.949 85.3675 100.445 85.3675 100.445C85.3675 100.445 86.3747 106.722 86.3409 106.896C86.3071 107.071 85.3138 104.931 85.3317 103.861C85.3496 102.79 84.4976 99.4839 84.3762 99.2866C84.2548 99.0893 83.4187 93.4072 83.4187 93.4072C83.4187 93.4072 82.7419 90.9988 82.306 90.2044C81.8701 89.41 81.3326 87.9048 81.1117 87.6391C80.9495 87.4613 80.7686 87.3131 80.5742 87.1989L80.6041 86.9232Z" fill="black"/>
<path d="M80.5919 86.9232C80.5919 86.9232 81.6788 86.1642 82.895 88.0945C82.895 88.0945 83.7828 88.7346 84.0436 88.8914C84.3043 89.0483 84.5989 93.1542 84.5989 93.1542C84.5989 93.1542 85.1722 94.9251 85.017 95.9371C84.8617 96.949 85.4688 100.445 85.4688 100.445C85.4688 100.445 86.478 106.722 86.4422 106.896C86.4064 107.071 85.4171 104.931 85.433 103.861C85.4489 102.79 84.5989 99.4839 84.4775 99.2866C84.3561 99.0893 83.522 93.4072 83.522 93.4072C83.522 93.4072 82.8433 91.019 82.4093 90.2171C81.9754 89.4151 81.4339 87.9174 81.215 87.6518C81.0217 87.4601 80.8043 87.3112 80.572 87.2116L80.5919 86.9232Z" fill="#6C63FF"/>
<path d="M85.3655 100.734C85.3655 100.734 87.4337 99.0109 88.4329 99.8609C89.4322 100.711 91.0685 101.918 89.4601 102.79C87.8517 103.663 85.6262 103.496 85.6262 103.496L85.3655 100.734Z" fill="#A1616A"/>
<path opacity="0.1" d="M83.9261 117.363C83.6176 118.205 83.3628 122.422 83.1896 123.768C82.9428 123.229 82.6442 122.587 82.5427 122.384C82.3096 121.744 82.1068 121.087 81.9355 120.416C82.1346 119.809 82.674 118.068 82.674 117.431C82.674 116.652 83.6693 115.673 83.6693 115.673C83.8472 115.884 83.9679 116.161 84.0141 116.464C84.0602 116.768 84.0294 117.083 83.9261 117.363Z" fill="black"/>
<path opacity="0.1" d="M83.9463 80.3456C83.8965 80.3784 83.8445 80.4054 83.791 80.4265C83.5461 80.51 83.3073 80.3 83.0903 80.1331C82.8733 79.9661 82.5728 79.8421 82.3837 80.0597C82.1388 80.343 82.316 80.9477 82.0632 81.2209C81.9039 81.3954 81.6511 81.3347 81.466 81.4739C81.2809 81.613 81.2351 81.9292 81.1893 82.1974C81.1435 82.4656 81.0559 82.7742 80.8469 82.8526C80.6379 82.9311 80.4488 82.759 80.2498 82.7666C80.208 82.7666 80.1582 82.7666 80.1303 82.7363C80.1118 82.7014 80.1047 82.6588 80.1104 82.6174C80.1352 82.2952 80.1122 81.97 80.0427 81.6586C80.0063 81.5031 79.9381 81.3627 79.8451 81.2516C79.7521 81.1405 79.6376 81.0627 79.5133 81.0261C79.147 80.9553 78.8385 81.3626 78.6235 81.7471C78.3976 82.1518 78.1922 82.5743 78.0084 83.012C77.9984 83.0348 77.9885 83.0652 77.9765 83.1006C77.797 82.5869 77.7047 82.0309 77.7058 81.4688C77.7098 80.497 77.9887 79.5595 78.4917 78.8275C78.9946 78.0955 79.688 77.6179 80.4451 77.482C81.2022 77.346 81.9725 77.5607 82.6153 78.087C83.2582 78.6132 83.7306 79.4158 83.9463 80.3481V80.3456Z" fill="black"/>
<path d="M78.6275 81.6839C78.8425 81.2994 79.151 80.892 79.5173 80.9629C79.6413 80.9995 79.7555 81.077 79.8485 81.1876C79.9414 81.2982 80.0098 81.4379 80.0468 81.5928C80.1164 81.9042 80.1387 82.2296 80.1124 82.5516C80.1079 82.5941 80.1157 82.6373 80.1343 82.6731C80.1622 82.7135 80.212 82.706 80.2538 82.7034C80.4528 82.7034 80.6618 82.8628 80.8509 82.7894C81.04 82.7161 81.1495 82.4024 81.1933 82.1342C81.2371 81.866 81.2869 81.5574 81.47 81.4107C81.6531 81.2639 81.902 81.3272 82.0672 81.1577C82.32 80.8845 82.1428 80.2773 82.3877 79.9965C82.5768 79.7789 82.8773 79.9029 83.0943 80.0698C83.3113 80.2368 83.5501 80.4468 83.795 80.3633C83.876 80.3266 83.9551 80.2835 84.0319 80.2343C84.42 80.0471 84.9216 80.3658 85.2381 80.0294C85.3535 79.882 85.4366 79.6989 85.479 79.4981C85.5668 79.2285 85.6257 78.9452 85.6542 78.6557C85.6827 78.3622 85.6198 78.0663 85.479 77.8309C85.28 77.5223 84.9217 77.4439 84.6569 77.2162C84.4423 77.0016 84.2642 76.7339 84.1334 76.4294C84.0027 76.1247 83.8301 75.8522 83.6238 75.6249C83.5192 75.513 83.3924 75.4397 83.2573 75.413C83.1222 75.3862 82.9839 75.407 82.8574 75.4731C82.7813 75.5411 82.6964 75.5916 82.6066 75.6224C82.509 75.6252 82.4128 75.5918 82.3299 75.5262C81.4262 74.9848 80.3732 75.081 79.3819 75.2429C78.982 75.2829 78.5896 75.4033 78.2194 75.5996C78.0346 75.6989 77.8689 75.8477 77.7335 76.0359C77.5982 76.2241 77.4964 76.4472 77.4351 76.69C77.3555 77.0796 77.4172 77.502 77.3197 77.8866C77.254 78.1396 77.1206 78.3698 77.041 78.6253C76.83 79.3235 77.0828 80.0926 77.1903 80.8288C77.3077 81.6333 77.248 82.5036 77.5167 83.265C77.5705 83.4143 77.6282 83.6749 77.7616 83.5762C77.8591 83.5029 77.9606 83.0702 78.0104 82.9463C78.1957 82.5099 78.4018 82.0883 78.6275 81.6839Z" fill="#3F3D56"/>
<path opacity="0.1" d="M72.8985 94.6367L72.4287 96.3317C72.4287 96.3317 73.5414 101.591 74.063 102.697C74.5845 103.802 75.3489 105.227 75.3489 105.227C76.2221 105.725 77.193 105.878 78.1357 105.667C79.6306 105.292 83.9939 104.298 83.9939 104.298C84.097 104.322 84.2033 104.31 84.3014 104.263C84.3995 104.216 84.4858 104.137 84.5513 104.033C84.7503 103.678 85.7337 103.501 85.7337 103.501C85.7337 103.501 86.8802 101.381 85.4729 100.496C85.4729 100.496 85.2997 100.984 84.5513 100.65C83.8028 100.316 83.5779 100.916 83.5779 100.916C83.5779 100.916 82.3596 101.227 81.6829 101.116C81.0061 101.004 79.3181 100.961 79.1429 100.784C79.1212 100.76 79.0959 100.741 79.0685 100.728C79.041 100.716 79.0119 100.711 78.9829 100.713C78.9539 100.715 78.9255 100.725 78.8993 100.741C78.8731 100.757 78.8497 100.779 78.8304 100.807C78.6288 100.715 78.441 100.579 78.275 100.407C78.1357 100.21 77.9446 100.63 77.9446 100.63C77.9446 100.63 77.6997 100.453 77.7694 100.233C77.8391 100.013 77.5445 99.1702 77.5445 99.1702C77.4659 98.8486 77.4482 98.508 77.4927 98.176C77.5783 97.7333 77.0568 96.1521 77.0568 96.1521C77.0505 95.8836 77.074 95.6154 77.1264 95.3552C77.214 94.958 76.4656 94.1611 76.4656 94.1611C76.4656 94.1611 75.735 89.6555 74.1884 91.1253C72.6417 92.5951 72.8985 94.6367 72.8985 94.6367Z" fill="black"/>
<path d="M72.793 94.6367L72.3232 96.3317C72.3232 96.3317 73.436 101.591 73.9575 102.697C74.479 103.802 75.2454 105.227 75.2454 105.227C76.1184 105.726 77.0896 105.879 78.0322 105.667C79.5291 105.292 83.8924 104.298 83.8924 104.298C83.9955 104.322 84.1018 104.31 84.1999 104.263C84.298 104.216 84.3843 104.137 84.4498 104.033C84.6488 103.678 85.6322 103.501 85.6322 103.501C85.6322 103.501 86.7787 101.381 85.3714 100.496C85.3714 100.496 85.1962 100.984 84.4498 100.65C83.7033 100.316 83.4744 100.916 83.4744 100.916C83.4744 100.916 82.2582 101.227 81.5794 101.116C80.9006 101.004 79.2146 100.961 79.0414 100.784C79.0197 100.76 78.9944 100.741 78.967 100.728C78.9395 100.716 78.9105 100.711 78.8814 100.713C78.8524 100.715 78.824 100.725 78.7978 100.741C78.7716 100.757 78.7482 100.779 78.7289 100.807C78.5266 100.715 78.3382 100.58 78.1715 100.407C78.0322 100.21 77.8411 100.63 77.8411 100.63C77.8411 100.63 77.5982 100.453 77.6679 100.233C77.7376 100.013 77.441 99.1702 77.441 99.1702C77.3635 98.8484 77.3458 98.508 77.3892 98.176C77.4768 97.7333 76.9553 96.1521 76.9553 96.1521C76.9479 95.8836 76.9713 95.6151 77.025 95.3552C77.1106 94.958 76.3641 94.1611 76.3641 94.1611C76.3641 94.1611 75.6336 89.6555 74.0869 91.1253C72.5402 92.5951 72.793 94.6367 72.793 94.6367Z" fill="#6C63FF"/>
<path opacity="0.1" d="M77.0886 99.7622C77.0886 99.7622 75.3847 100.205 75.958 100.579C76.5313 100.954 77.0886 99.7622 77.0886 99.7622Z" fill="black"/>
<g opacity="0.1">
<path opacity="0.1" d="M80.0427 81.2185C80.0065 81.0631 79.9383 80.9229 79.8452 80.8121C79.7522 80.7014 79.6375 80.6242 79.5132 80.5886C79.1469 80.5177 78.8384 80.925 78.6234 81.307C78.3976 81.7124 78.1916 82.1348 78.0063 82.572C77.9506 82.7035 77.855 83.1285 77.7575 83.2019C77.6241 83.3006 77.5584 83.0375 77.5126 82.8882C77.2439 82.1293 77.3136 81.2565 77.1862 80.452C77.0921 79.9841 77.0171 79.5104 76.9613 79.0327C76.9214 79.6095 77.1006 80.2167 77.1862 80.8036C77.3036 81.6081 77.2439 82.4784 77.5126 83.2399C77.5664 83.3891 77.6241 83.6497 77.7575 83.551C77.855 83.4777 77.9565 83.0451 78.0063 82.9236C78.1911 82.4861 78.3972 82.0636 78.6234 81.6587C78.8384 81.2742 79.1469 80.8669 79.5132 80.9402C79.6375 80.9759 79.7522 81.053 79.8452 81.1638C79.9383 81.2745 80.0065 81.4148 80.0427 81.5702C80.0856 81.7335 80.109 81.904 80.1123 82.0761C80.1323 81.7872 80.1086 81.4961 80.0427 81.2185Z" fill="black"/>
<path opacity="0.1" d="M85.4749 79.1288C85.433 79.3291 85.3498 79.5116 85.2341 79.6576C84.9176 79.994 84.416 79.6778 84.0278 79.865C83.9482 79.903 83.8745 79.9637 83.7909 79.994C83.5461 80.075 83.3072 79.8675 83.0903 79.7006C82.8733 79.5336 82.5727 79.4071 82.3836 79.6247C82.1388 79.908 82.3159 80.5126 82.0631 80.7859C81.9039 80.9604 81.6511 80.8997 81.466 81.0389C81.2808 81.178 81.235 81.4917 81.1893 81.7599C81.1435 82.028 81.0559 82.3367 80.8469 82.4151C80.6379 82.4935 80.4488 82.3215 80.2497 82.3316C80.2079 82.3316 80.1581 82.3316 80.1303 82.3013C80.1234 82.2921 80.1186 82.2807 80.1163 82.2684C80.1163 82.3569 80.1163 82.4455 80.1163 82.534C80.1121 82.5757 80.1199 82.6179 80.1382 82.6529C80.1661 82.6934 80.2159 82.6858 80.2577 82.6858C80.4567 82.6858 80.6657 82.8427 80.8548 82.7693C81.044 82.6959 81.1534 82.3847 81.1972 82.114C81.241 81.8434 81.2908 81.5398 81.4739 81.393C81.657 81.2463 81.9059 81.3096 82.0711 81.1401C82.3239 80.8668 82.1467 80.2622 82.3916 79.9788C82.5807 79.7613 82.8812 79.8852 83.0982 80.0522C83.3152 80.2192 83.5541 80.4292 83.7989 80.3457C83.8795 80.3088 83.9586 80.2665 84.0358 80.2192C84.4239 80.032 84.9256 80.3482 85.2421 80.0117C85.3574 79.8654 85.4405 79.683 85.4829 79.483C85.5704 79.2124 85.6293 78.9283 85.6581 78.638C85.667 78.5397 85.667 78.4404 85.6581 78.342C85.6199 78.612 85.5585 78.8759 85.4749 79.1288Z" fill="black"/>
</g>
<path d="M50.7594 145.072C55.258 145.072 58.9048 144.18 58.9048 143.081C58.9048 141.981 55.258 141.09 50.7594 141.09C46.2608 141.09 42.614 141.981 42.614 143.081C42.614 144.18 46.2608 145.072 50.7594 145.072Z" fill="#6C63FF"/>
<path d="M50.624 143.814C51.1473 143.814 51.5715 143.108 51.5715 142.236C51.5715 141.364 51.1473 140.657 50.624 140.657C50.1007 140.657 49.6765 141.364 49.6765 142.236C49.6765 143.108 50.1007 143.814 50.624 143.814Z" fill="#3F3D56"/>
<path d="M50.624 141.887C51.1473 141.887 51.5715 141.18 51.5715 140.308C51.5715 139.436 51.1473 138.729 50.624 138.729C50.1007 138.729 49.6765 139.436 49.6765 140.308C49.6765 141.18 50.1007 141.887 50.624 141.887Z" fill="#3F3D56"/>
<path d="M50.624 139.959C51.1473 139.959 51.5715 139.252 51.5715 138.38C51.5715 137.509 51.1473 136.802 50.624 136.802C50.1007 136.802 49.6765 137.509 49.6765 138.38C49.6765 139.252 50.1007 139.959 50.624 139.959Z" fill="#3F3D56"/>
<path d="M50.624 138.029C51.1473 138.029 51.5715 137.322 51.5715 136.45C51.5715 135.578 51.1473 134.872 50.624 134.872C50.1007 134.872 49.6765 135.578 49.6765 136.45C49.6765 137.322 50.1007 138.029 50.624 138.029Z" fill="#3F3D56"/>
<path d="M50.624 136.101C51.1473 136.101 51.5715 135.394 51.5715 134.522C51.5715 133.651 51.1473 132.944 50.624 132.944C50.1007 132.944 49.6765 133.651 49.6765 134.522C49.6765 135.394 50.1007 136.101 50.624 136.101Z" fill="#3F3D56"/>
<path d="M50.624 134.173C51.1473 134.173 51.5715 133.467 51.5715 132.595C51.5715 131.723 51.1473 131.016 50.624 131.016C50.1007 131.016 49.6765 131.723 49.6765 132.595C49.6765 133.467 50.1007 134.173 50.624 134.173Z" fill="#3F3D56"/>
<path d="M50.624 132.246C51.1473 132.246 51.5715 131.539 51.5715 130.667C51.5715 129.795 51.1473 129.088 50.624 129.088C50.1007 129.088 49.6765 129.795 49.6765 130.667C49.6765 131.539 50.1007 132.246 50.624 132.246Z" fill="#3F3D56"/>
<path d="M54.1734 117.471C54.303 117.261 54.4207 117.04 54.5257 116.808L52.0355 116.29L54.7287 116.315C54.9872 115.6 55.1283 114.826 55.1434 114.039C55.1584 113.253 55.0471 112.471 54.8163 111.741L51.2014 114.124L54.5416 111.005C54.2289 110.32 53.8086 109.723 53.3068 109.254C52.805 108.784 52.2325 108.45 51.6249 108.273C51.0173 108.097 50.3876 108.081 49.775 108.227C49.1624 108.373 48.58 108.678 48.064 109.122C47.5481 109.566 47.1096 110.141 46.7758 110.81C46.4421 111.479 46.2202 112.228 46.1241 113.011C46.028 113.794 46.0596 114.593 46.217 115.359C46.3745 116.126 46.6543 116.843 47.0392 117.466C46.837 117.792 46.6635 118.145 46.5216 118.518L49.7543 120.654L46.3066 119.181C46.0635 120.091 46.0032 121.063 46.1311 122.01C46.259 122.957 46.5712 123.848 47.0392 124.603C46.5121 125.454 46.1841 126.477 46.0929 127.554C46.0016 128.632 46.1507 129.72 46.5232 130.694C46.8956 131.669 47.4763 132.491 48.1989 133.066C48.9214 133.641 49.7567 133.945 50.6092 133.945C51.4617 133.945 52.297 133.641 53.0196 133.066C53.7422 132.491 54.3229 131.669 54.6953 130.694C55.0678 129.72 55.2169 128.632 55.1256 127.554C55.0344 126.477 54.7064 125.454 54.1793 124.603C54.8088 123.585 55.151 122.329 55.151 121.034C55.151 119.74 54.8088 118.483 54.1793 117.466L54.1734 117.471Z" fill="#6C63FF"/>
<path opacity="0.1" d="M46.0598 121.038C46.0584 122.334 46.4014 123.592 47.0332 124.608C46.5061 125.46 46.1782 126.482 46.0869 127.56C45.9957 128.637 46.1448 129.725 46.5172 130.7C46.8896 131.674 47.4703 132.496 48.1929 133.071C48.9155 133.646 49.7508 133.951 50.6033 133.951C51.4558 133.951 52.2911 133.646 53.0137 133.071C53.7362 132.496 54.3169 131.674 54.6894 130.7C55.0618 129.725 55.2109 128.637 55.1197 127.56C55.0284 126.482 54.7005 125.46 54.1734 124.608C54.7825 123.626 46.0598 120.391 46.0598 121.038Z" fill="black"/>
<path d="M187.113 163.54C191.612 163.54 195.259 162.648 195.259 161.549C195.259 160.449 191.612 159.558 187.113 159.558C182.615 159.558 178.968 160.449 178.968 161.549C178.968 162.648 182.615 163.54 187.113 163.54Z" fill="#6C63FF"/>
<path d="M186.978 162.283C187.501 162.283 187.925 161.576 187.925 160.704C187.925 159.832 187.501 159.125 186.978 159.125C186.454 159.125 186.03 159.832 186.03 160.704C186.03 161.576 186.454 162.283 186.978 162.283Z" fill="#3F3D56"/>
<path d="M186.978 160.355C187.501 160.355 187.925 159.648 187.925 158.776C187.925 157.904 187.501 157.198 186.978 157.198C186.454 157.198 186.03 157.904 186.03 158.776C186.03 159.648 186.454 160.355 186.978 160.355Z" fill="#3F3D56"/>
<path d="M186.978 158.427C187.501 158.427 187.925 157.72 187.925 156.848C187.925 155.977 187.501 155.27 186.978 155.27C186.454 155.27 186.03 155.977 186.03 156.848C186.03 157.72 186.454 158.427 186.978 158.427Z" fill="#3F3D56"/>
<path d="M186.978 156.497C187.501 156.497 187.925 155.79 187.925 154.918C187.925 154.046 187.501 153.339 186.978 153.339C186.454 153.339 186.03 154.046 186.03 154.918C186.03 155.79 186.454 156.497 186.978 156.497Z" fill="#3F3D56"/>
<path d="M186.978 154.569C187.501 154.569 187.925 153.862 187.925 152.99C187.925 152.119 187.501 151.412 186.978 151.412C186.454 151.412 186.03 152.119 186.03 152.99C186.03 153.862 186.454 154.569 186.978 154.569Z" fill="#3F3D56"/>
<path d="M186.978 152.641C187.501 152.641 187.925 151.934 187.925 151.063C187.925 150.191 187.501 149.484 186.978 149.484C186.454 149.484 186.03 150.191 186.03 151.063C186.03 151.934 186.454 152.641 186.978 152.641Z" fill="#3F3D56"/>
<path d="M186.978 150.713C187.501 150.713 187.925 150.007 187.925 149.135C187.925 148.263 187.501 147.556 186.978 147.556C186.454 147.556 186.03 148.263 186.03 149.135C186.03 150.007 186.454 150.713 186.978 150.713Z" fill="#3F3D56"/>
<path d="M190.527 135.939C190.657 135.729 190.775 135.508 190.879 135.276L188.389 134.758L191.082 134.783C191.341 134.068 191.482 133.294 191.497 132.507C191.512 131.721 191.401 130.939 191.17 130.209L187.555 132.592L190.895 129.473C190.583 128.788 190.162 128.191 189.661 127.722C189.159 127.252 188.586 126.918 187.979 126.741C187.371 126.565 186.741 126.549 186.129 126.695C185.516 126.841 184.934 127.146 184.418 127.59C183.902 128.034 183.463 128.609 183.13 129.278C182.796 129.947 182.574 130.696 182.478 131.479C182.382 132.262 182.413 133.061 182.571 133.827C182.728 134.594 183.008 135.311 183.393 135.934C183.191 136.26 183.017 136.613 182.875 136.986L186.108 139.122L182.66 137.649C182.417 138.559 182.357 139.531 182.485 140.478C182.613 141.425 182.925 142.316 183.393 143.071C182.866 143.922 182.538 144.945 182.447 146.022C182.355 147.1 182.504 148.188 182.877 149.162C183.249 150.137 183.83 150.959 184.553 151.534C185.275 152.109 186.111 152.413 186.963 152.413C187.816 152.413 188.651 152.109 189.373 151.534C190.096 150.959 190.677 150.137 191.049 149.162C191.422 148.188 191.571 147.1 191.479 146.022C191.388 144.945 191.06 143.922 190.533 143.071C191.163 142.053 191.505 140.797 191.505 139.502C191.505 138.208 191.163 136.951 190.533 135.934L190.527 135.939Z" fill="#6C63FF"/>
<path opacity="0.1" d="M182.414 139.506C182.412 140.802 182.755 142.06 183.387 143.076C182.86 143.928 182.532 144.95 182.441 146.028C182.349 147.105 182.499 148.193 182.871 149.168C183.243 150.142 183.824 150.964 184.547 151.539C185.269 152.114 186.105 152.419 186.957 152.419C187.81 152.419 188.645 152.114 189.367 151.539C190.09 150.964 190.671 150.142 191.043 149.168C191.416 148.193 191.565 147.105 191.473 146.028C191.382 144.95 191.054 143.928 190.527 143.076C191.136 142.094 182.414 138.859 182.414 139.506Z" fill="black"/>
<path opacity="0.1" d="M80.5044 27.5653C82.1832 27.5653 83.544 25.8357 83.544 23.7022C83.544 21.5687 82.1832 19.8391 80.5044 19.8391C78.8257 19.8391 77.4648 21.5687 77.4648 23.7022C77.4648 25.8357 78.8257 27.5653 80.5044 27.5653Z" fill="#6C63FF"/>
<path opacity="0.1" d="M91.3788 12.9529C94.1932 12.9529 96.4747 10.0533 96.4747 6.47643C96.4747 2.89959 94.1932 0 91.3788 0C88.5645 0 86.283 2.89959 86.283 6.47643C86.283 10.0533 88.5645 12.9529 91.3788 12.9529Z" fill="#6C63FF"/>
<path opacity="0.1" d="M84.6349 44.3786C87.4493 44.3786 89.7308 41.479 89.7308 37.9022C89.7308 34.3254 87.4493 31.4258 84.6349 31.4258C81.8206 31.4258 79.5391 34.3254 79.5391 37.9022C79.5391 41.479 81.8206 44.3786 84.6349 44.3786Z" fill="#6C63FF"/>
<path opacity="0.1" d="M191.877 74.1146C193.555 74.1146 194.916 72.385 194.916 70.2515C194.916 68.118 193.555 66.3884 191.877 66.3884C190.198 66.3884 188.837 68.118 188.837 70.2515C188.837 72.385 190.198 74.1146 191.877 74.1146Z" fill="#6C63FF"/>
<path opacity="0.1" d="M187.746 90.928C190.561 90.928 192.842 88.0284 192.842 84.4515C192.842 80.8747 190.561 77.9751 187.746 77.9751C184.932 77.9751 182.65 80.8747 182.65 84.4515C182.65 88.0284 184.932 90.928 187.746 90.928Z" fill="#6C63FF"/>
<path opacity="0.1" d="M20.059 79.4374C21.0099 79.4374 21.7808 78.4577 21.7808 77.2491C21.7808 76.0405 21.0099 75.0608 20.059 75.0608C19.1081 75.0608 18.3372 76.0405 18.3372 77.2491C18.3372 78.4577 19.1081 79.4374 20.059 79.4374Z" fill="#6C63FF"/>
<path opacity="0.1" d="M27.44 72.6347C29.0341 72.6347 30.3264 70.9923 30.3264 68.9664C30.3264 66.9404 29.0341 65.2981 27.44 65.2981C25.846 65.2981 24.5537 66.9404 24.5537 68.9664C24.5537 70.9923 25.846 72.6347 27.44 72.6347Z" fill="#6C63FF"/>
<path opacity="0.1" d="M13.6253 78.3244C15.2194 78.3244 16.5117 76.682 16.5117 74.6561C16.5117 72.6301 15.2194 70.9878 13.6253 70.9878C12.0313 70.9878 10.739 72.6301 10.739 74.6561C10.739 76.682 12.0313 78.3244 13.6253 78.3244Z" fill="#6C63FF"/>
<path opacity="0.1" d="M147.654 66.2822C148.605 66.2822 149.376 65.3024 149.376 64.0938C149.376 62.8853 148.605 61.9055 147.654 61.9055C146.703 61.9055 145.932 62.8853 145.932 64.0938C145.932 65.3024 146.703 66.2822 147.654 66.2822Z" fill="#6C63FF"/>
<path opacity="0.1" d="M155.035 59.4794C156.629 59.4794 157.922 57.8371 157.922 55.8111C157.922 53.7852 156.629 52.1428 155.035 52.1428C153.441 52.1428 152.149 53.7852 152.149 55.8111C152.149 57.8371 153.441 59.4794 155.035 59.4794Z" fill="#6C63FF"/>
<path opacity="0.1" d="M141.221 65.1691C142.815 65.1691 144.107 63.5267 144.107 61.5008C144.107 59.4749 142.815 57.8325 141.221 57.8325C139.627 57.8325 138.334 59.4749 138.334 61.5008C138.334 63.5267 139.627 65.1691 141.221 65.1691Z" fill="#6C63FF"/>
<path opacity="0.1" d="M43.1116 45.1757C47.0967 45.1757 50.3274 41.0698 50.3274 36.005C50.3274 30.9401 47.0967 26.8342 43.1116 26.8342C39.1264 26.8342 35.8958 30.9401 35.8958 36.005C35.8958 41.0698 39.1264 45.1757 43.1116 45.1757Z" fill="#6C63FF"/>
<path opacity="0.1" d="M84.3164 71.6555C86.6162 71.6555 88.4806 69.286 88.4806 66.363C88.4806 63.4401 86.6162 61.0706 84.3164 61.0706C82.0165 61.0706 80.1521 63.4401 80.1521 66.363C80.1521 69.286 82.0165 71.6555 84.3164 71.6555Z" fill="#6C63FF"/>
<path opacity="0.1" d="M125.521 106.062C127.821 106.062 129.686 103.692 129.686 100.769C129.686 97.8463 127.821 95.4768 125.521 95.4768C123.221 95.4768 121.357 97.8463 121.357 100.769C121.357 103.692 123.221 106.062 125.521 106.062Z" fill="#6C63FF"/>
<path d="M50.7594 149.912C63.8968 149.912 74.5467 147.193 74.5467 143.84C74.5467 140.487 63.8968 137.768 50.7594 137.768C37.6221 137.768 26.9722 140.487 26.9722 143.84C26.9722 147.193 37.6221 149.912 50.7594 149.912Z" stroke="#444053" stroke-miterlimit="10"/>
<path d="M187.113 167.874C200.251 167.874 210.9 165.155 210.9 161.802C210.9 158.449 200.251 155.73 187.113 155.73C173.976 155.73 163.326 158.449 163.326 161.802C163.326 165.155 173.976 167.874 187.113 167.874Z" stroke="#444053" stroke-miterlimit="10"/>
<path d="M23.8869 167.874C37.0242 167.874 47.6741 165.155 47.6741 161.802C47.6741 158.449 37.0242 155.73 23.8869 155.73C10.7495 155.73 0.0996094 158.449 0.0996094 161.802C0.0996094 165.155 10.7495 167.874 23.8869 167.874Z" stroke="#444053" stroke-miterlimit="10"/>
</g>
<defs>
<linearGradient id="paint0_linear" x1="81.3424" y1="150.696" x2="81.3424" y2="74.6964" gradientUnits="userSpaceOnUse">
<stop stop-color="#808080" stop-opacity="0.25"/>
<stop offset="0.54" stop-color="#808080" stop-opacity="0.12"/>
<stop offset="1" stop-color="#808080" stop-opacity="0.1"/>
</linearGradient>
<linearGradient id="paint1_linear" x1="-9079.04" y1="30242.8" x2="-10602.4" y2="30242.8" gradientUnits="userSpaceOnUse">
<stop stop-color="#808080" stop-opacity="0.25"/>
<stop offset="0.54" stop-color="#808080" stop-opacity="0.12"/>
<stop offset="1" stop-color="#808080" stop-opacity="0.1"/>
</linearGradient>
<clipPath id="clip0">
<rect width="211" height="168" fill="white"/>
</clipPath>
</defs>
</svg>
