<svg width="728" height="493" viewBox="0 0 728 493" fill="none" xmlns="http://www.w3.org/2000/svg">
<g clip-path="url(#clip0)">
<path d="M158.033 308.086L170.464 313.876C171.722 314.462 173.122 314.818 174.567 314.921C176.012 315.023 177.468 314.868 178.832 314.467C180.196 314.067 181.435 313.43 182.464 312.601C183.493 311.772 184.287 310.771 184.79 309.668C185.331 308.481 185.521 307.208 185.344 305.951C185.167 304.693 184.628 303.487 183.772 302.429C182.915 301.371 181.763 300.491 180.41 299.86C179.057 299.228 177.54 298.863 175.981 298.794L160.927 298.123L115.581 286.997L108.27 264.81L89.1526 273.514L102.297 298.739L158.033 308.086Z" fill="#FFB8B8"/>
<path d="M98.7628 192.93C95.8871 195.572 96.4061 198.751 98.5006 201.331C100.595 203.911 104.08 206.058 107.13 208.335C109.09 209.798 110.902 211.35 111.78 213.11C112.264 214.009 112.422 215.002 112.236 215.972C112.051 216.941 111.529 217.848 110.732 218.587C108.735 220.502 105.014 221.799 101.384 222.911C91.0038 226.068 80.2929 228.458 69.382 230.054C78.5738 221.348 83.1751 211.544 82.501 202.101C82.3596 200.119 81.9963 198.118 82.8502 196.132C83.4367 194.94 84.364 193.877 85.5558 193.032C86.7476 192.187 88.1699 191.583 89.7058 191.27C93.3593 190.42 98.1718 191.261 98.732 193.201" fill="#2F2E41"/>
<path d="M20.0144 472.294L33.1676 472.757L59.1284 375.56L36.5989 376.345L20.0144 472.294Z" fill="#FFB8B8"/>
<path d="M151.543 451.435L140.677 456.07L72.7115 374.336L94.3565 366.611L151.543 451.435Z" fill="#FFB8B8"/>
<path d="M75.7863 223.525C87.2767 223.525 96.5915 215.975 96.5915 206.662C96.5915 197.348 87.2767 189.798 75.7863 189.798C64.2959 189.798 54.9811 197.348 54.9811 206.662C54.9811 215.975 64.2959 223.525 75.7863 223.525Z" fill="#FFB8B8"/>
<path d="M65.1905 215.503C65.1905 215.503 57.7563 228.018 47.4627 227.555C47.4627 227.555 28.0194 221.066 21.7288 238.679L14.8665 252.585L105.793 265.1C105.793 265.1 100.646 239.607 88.6369 239.143C88.6369 239.143 74.9122 238.216 76.6278 234.044C78.3434 229.873 84.6339 220.139 84.6339 220.139L65.1905 215.503Z" fill="#FFB8B8"/>
<path d="M95.5028 279.469L81.7781 303.572L93.0891 342.531L148.177 426.328C148.177 426.328 122.807 444.777 116.483 447.736C110.997 450.303 65.3263 380.726 63.6585 366.385C63.1081 361.652 53.0937 457.523 53.0937 457.523C53.0937 457.523 15.3399 452.473 4.79733 450.794C4.79733 450.794 12.3928 407.189 16.8714 366.385C20.3236 334.933 17.1846 306.429 36.6008 292.911L34.8853 266.027L80.6344 264.636L95.5028 279.469Z" fill="#2F2E41"/>
<path d="M24.4437 490.172L45.4419 492.643C47.0691 493.134 48.8637 493.117 50.4761 492.595C52.0885 492.072 53.4032 491.082 54.164 489.817C54.7821 488.789 55.002 487.634 54.7948 486.503C54.5877 485.372 53.9631 484.318 53.0033 483.481L44.0907 475.701L37.6761 464.482C33.8397 461.306 31.2173 462.429 29.7512 467.647L19.4969 465.037L16.8083 479.686C16.4059 481.878 16.9448 484.116 18.3348 486.025C19.7247 487.934 21.8814 489.398 24.4437 490.172Z" fill="#2F2E41"/>
<path d="M144.13 474.843L165.348 474.783C167.047 475.075 168.819 474.844 170.319 474.135C171.819 473.426 172.939 472.29 173.462 470.948C173.887 469.857 173.895 468.688 173.484 467.595C173.074 466.501 172.265 465.533 171.164 464.819L160.936 458.187L152.554 447.855C148.183 445.171 145.793 446.595 145.29 451.931L134.674 450.572V465.382C134.674 467.599 135.613 469.748 137.334 471.47C139.056 473.192 141.455 474.383 144.13 474.843Z" fill="#2F2E41"/>
<path d="M65.2754 180.739C61.7415 179.487 57.5361 179.978 54.1242 181.435C50.7123 182.893 47.9863 185.217 45.6004 187.673C37.3851 196.172 32.5946 206.513 31.8789 217.294C31.692 220.241 31.8674 223.356 33.7602 225.877C35.8404 228.647 39.6478 230.237 43.4192 231.319C56.0631 234.891 69.935 234.272 82.0194 229.598C75.6653 225.422 69.7859 220.793 64.452 215.766C63.4525 214.823 62.4074 213.614 62.9157 212.441C63.2358 211.871 63.732 211.377 64.3565 211.008L76.6057 202.386L76.2973 205.874C78.7334 205.758 81.0743 205.067 83.0308 203.885C84.9873 202.703 86.4736 201.082 87.3059 199.223C86.7153 200.189 87.8429 201.376 89.1459 201.593C90.449 201.81 91.7682 201.375 92.9902 200.949C95.954 199.915 99.1733 198.684 100.488 196.296C100.902 195.454 101.1 194.552 101.07 193.646C101.04 192.74 100.783 191.849 100.315 191.026C99.3634 189.384 98.0066 187.918 96.3279 186.718C92.208 183.635 87.1956 181.444 81.7541 180.348C76.3127 179.251 70.6179 179.284 65.1966 180.445" fill="#2F2E41"/>
<path d="M61.1186 305.674L70.2537 314.63C71.178 315.537 72.3352 316.269 73.6444 316.775C74.9535 317.282 76.3833 317.551 77.8339 317.563C79.2846 317.576 80.7212 317.332 82.0435 316.848C83.3659 316.365 84.5421 315.653 85.4904 314.763C86.5109 313.806 87.2397 312.667 87.6183 311.439C87.9969 310.211 88.0146 308.929 87.67 307.695C87.3254 306.46 86.6281 305.309 85.6343 304.333C84.6404 303.357 83.3778 302.583 81.948 302.075L68.1413 297.166L30.4911 273.854L33.2471 250.999L11.5779 253.714L12.9705 281.073L61.1186 305.674Z" fill="#FFB8B8"/>
<path d="M117.804 285.495C117.804 285.495 108.9 259.061 104.202 259.068C99.5044 259.074 93.2139 258.61 93.2139 258.61C93.2139 258.61 85.7797 240.997 47.4648 246.559C9.14986 252.121 25.7339 241.46 14.8685 245.632C4.00305 249.804 0 279.005 0 279.005C0 279.005 58.902 263.246 71.483 272.053C78.708 277.174 86.565 281.679 94.9295 285.495C94.9295 285.495 89.2108 297.083 117.804 285.495Z" fill="#2F2E41"/>
<path d="M322.004 473.393H91.0867V474.617H322.004V473.393Z" fill="#3F3D56"/>
<path d="M499.341 262.371C576.443 262.371 638.947 211.708 638.947 149.213C638.947 86.7183 576.443 36.0562 499.341 36.0562C422.238 36.0562 359.734 86.7183 359.734 149.213C359.734 211.708 422.238 262.371 499.341 262.371Z" fill="#E6E6E6"/>
<path d="M472.926 86.2124H242.009V87.4357H472.926V86.2124Z" fill="#3F3D56"/>
<path d="M695.542 119.854H242.009V121.077H695.542V119.854Z" fill="#3F3D56"/>
<path d="M555.939 240.351C478.544 240.351 415.578 189.314 415.578 126.582C415.578 63.8496 478.544 12.813 555.939 12.813C633.334 12.813 696.3 63.8496 696.3 126.582C696.3 189.314 633.334 240.351 555.939 240.351ZM555.939 14.0363C479.376 14.0363 417.087 64.524 417.087 126.582C417.087 188.64 479.376 239.127 555.939 239.127C632.502 239.127 694.791 188.64 694.791 126.582C694.791 64.524 632.502 14.0363 555.939 14.0363Z" fill="#3F3D56"/>
<path d="M542.986 29.874C553.164 29.874 561.415 23.1865 561.415 14.937C561.415 6.68753 553.164 0 542.986 0C532.808 0 524.558 6.68753 524.558 14.937C524.558 23.1865 532.808 29.874 542.986 29.874Z" fill="#6C63FF"/>
<path d="M416.101 128.24C422.687 128.24 428.025 123.913 428.025 118.575C428.025 113.237 422.687 108.91 416.101 108.91C409.516 108.91 404.177 113.237 404.177 118.575C404.177 123.913 409.516 128.24 416.101 128.24Z" fill="#FF6584"/>
<path d="M700.769 140.808C715.809 140.808 728.002 130.926 728.002 118.735C728.002 106.544 715.809 96.6616 700.769 96.6616C685.729 96.6616 673.537 106.544 673.537 118.735C673.537 130.926 685.729 140.808 700.769 140.808Z" fill="#6C63FF"/>
<path d="M317.974 205.829H235.343V207.052H317.974C322.042 207.052 325.944 208.362 328.82 210.693C331.697 213.025 333.313 216.188 333.313 219.485C333.313 222.782 331.697 225.945 328.82 228.276C325.944 230.608 322.042 231.918 317.974 231.918H192.939C188.87 231.918 184.969 230.608 182.092 228.276C179.216 225.945 177.599 222.782 177.599 219.485C177.599 216.188 179.216 213.025 182.092 210.693C184.969 208.362 188.87 207.052 192.939 207.052H197.611V205.829H192.939C188.47 205.829 184.185 207.267 181.025 209.828C177.865 212.39 176.09 215.863 176.09 219.485C176.09 223.107 177.865 226.58 181.025 229.141C184.185 231.702 188.47 233.141 192.939 233.141H317.974C322.443 233.141 326.728 231.702 329.888 229.141C333.047 226.58 334.822 223.107 334.822 219.485C334.822 215.863 333.047 212.39 329.888 209.828C326.728 207.267 322.443 205.829 317.974 205.829Z" fill="#3F3D56"/>
<path d="M317.974 248.033H235.343V249.257H317.974C322.042 249.257 325.944 250.566 328.82 252.898C331.697 255.23 333.313 258.392 333.313 261.69C333.313 264.987 331.697 268.149 328.82 270.481C325.944 272.813 322.042 274.123 317.974 274.123H192.939C188.87 274.123 184.969 272.813 182.092 270.481C179.216 268.149 177.599 264.987 177.599 261.69C177.599 258.392 179.216 255.23 182.092 252.898C184.969 250.566 188.87 249.257 192.939 249.257H197.611V248.033H192.939C188.47 248.033 184.185 249.472 181.025 252.033C177.865 254.594 176.09 258.068 176.09 261.69C176.09 265.311 177.865 268.785 181.025 271.346C184.185 273.907 188.47 275.346 192.939 275.346H317.974C322.443 275.346 326.728 273.907 329.888 271.346C333.047 268.785 334.822 265.311 334.822 261.69C334.822 258.068 333.047 254.594 329.888 252.033C326.728 249.472 322.443 248.033 317.974 248.033Z" fill="#3F3D56"/>
<path d="M317.974 290.238H235.343V291.461H317.974C322.042 291.461 325.944 292.771 328.82 295.103C331.697 297.434 333.313 300.597 333.313 303.894C333.313 307.192 331.697 310.354 328.82 312.686C325.944 315.017 322.042 316.327 317.974 316.327H192.939C188.87 316.327 184.969 315.017 182.092 312.686C179.216 310.354 177.599 307.192 177.599 303.894C177.599 300.597 179.216 297.434 182.092 295.103C184.969 292.771 188.87 291.461 192.939 291.461H197.611V290.238H192.939C188.47 290.238 184.185 291.677 181.025 294.238C177.865 296.799 176.09 300.272 176.09 303.894C176.09 307.516 177.865 310.99 181.025 313.551C184.185 316.112 188.47 317.55 192.939 317.55H317.974C322.443 317.55 326.728 316.112 329.888 313.551C333.047 310.99 334.822 307.516 334.822 303.894C334.822 300.272 333.047 296.799 329.888 294.238C326.728 291.677 322.443 290.238 317.974 290.238Z" fill="#3F3D56"/>
<path d="M206.939 202.597C205.762 202.613 204.639 203.003 203.814 203.683C202.989 204.364 202.526 205.28 202.526 206.234C202.526 207.188 202.989 208.104 203.814 208.784C204.639 209.465 205.762 209.855 206.939 209.871H226.624C227.811 209.884 228.957 209.514 229.809 208.844C230.662 208.173 231.151 207.256 231.171 206.293C231.19 205.331 230.738 204.401 229.913 203.708C229.089 203.015 227.959 202.616 226.771 202.597C226.722 202.596 226.673 202.596 226.624 202.597H206.939Z" fill="#6C63FF"/>
<path d="M206.939 245.413C205.762 245.429 204.639 245.819 203.814 246.5C202.989 247.18 202.526 248.096 202.526 249.05C202.526 250.004 202.989 250.92 203.814 251.601C204.639 252.281 205.762 252.671 206.939 252.687H226.624C227.811 252.7 228.957 252.331 229.809 251.66C230.662 250.99 231.151 250.072 231.171 249.11C231.19 248.147 230.738 247.218 229.913 246.525C229.089 245.832 227.959 245.432 226.771 245.413C226.722 245.413 226.673 245.413 226.624 245.413H206.939Z" fill="#FF6584"/>
<path d="M206.94 287.006C205.762 287.022 204.64 287.412 203.814 288.092C202.988 288.772 202.526 289.689 202.526 290.643C202.526 291.597 202.988 292.513 203.814 293.194C204.64 293.874 205.762 294.264 206.94 294.28H226.625C227.814 294.295 228.962 293.926 229.816 293.255C230.67 292.585 231.161 291.666 231.18 290.703C231.2 289.739 230.747 288.808 229.92 288.115C229.093 287.422 227.961 287.023 226.772 287.006C226.723 287.005 226.674 287.005 226.625 287.006H206.94Z" fill="#3F3D56"/>
<path d="M199.13 215.848C197.952 215.864 196.83 216.254 196.005 216.934C195.179 217.614 194.716 218.53 194.716 219.485C194.716 220.439 195.179 221.355 196.005 222.035C196.83 222.716 197.952 223.106 199.13 223.122H311.634C312.224 223.131 312.811 223.045 313.36 222.87C313.91 222.695 314.411 222.434 314.836 222.102C315.26 221.77 315.6 221.373 315.835 220.934C316.07 220.495 316.196 220.023 316.206 219.544C316.216 219.066 316.109 218.591 315.892 218.146C315.674 217.701 315.351 217.295 314.94 216.952C314.529 216.609 314.039 216.334 313.497 216.145C312.955 215.955 312.372 215.854 311.782 215.848C311.732 215.847 311.683 215.847 311.634 215.848H199.13Z" fill="#E6E6E6"/>
<path d="M199.13 258.052C197.952 258.068 196.83 258.458 196.005 259.139C195.179 259.819 194.716 260.735 194.716 261.689C194.716 262.643 195.179 263.56 196.005 264.24C196.83 264.92 197.952 265.31 199.13 265.326H311.634C312.224 265.335 312.811 265.25 313.36 265.075C313.91 264.9 314.411 264.639 314.836 264.306C315.26 263.974 315.6 263.577 315.835 263.138C316.07 262.7 316.196 262.227 316.206 261.749C316.216 261.271 316.109 260.795 315.892 260.351C315.674 259.906 315.351 259.5 314.94 259.157C314.529 258.813 314.039 258.539 313.497 258.349C312.955 258.16 312.372 258.059 311.782 258.052C311.732 258.052 311.683 258.052 311.634 258.052H199.13Z" fill="#E6E6E6"/>
<path d="M199.13 300.257C197.952 300.273 196.83 300.663 196.005 301.343C195.179 302.024 194.716 302.94 194.716 303.894C194.716 304.848 195.179 305.764 196.005 306.444C196.83 307.125 197.952 307.515 199.13 307.531H311.634C312.224 307.54 312.811 307.454 313.36 307.279C313.91 307.104 314.411 306.843 314.836 306.511C315.26 306.179 315.6 305.782 315.835 305.343C316.07 304.904 316.196 304.432 316.206 303.954C316.216 303.475 316.109 303 315.892 302.555C315.674 302.11 315.351 301.705 314.94 301.361C314.529 301.018 314.039 300.743 313.497 300.554C312.955 300.364 312.372 300.264 311.782 300.257C311.732 300.256 311.683 300.256 311.634 300.257H199.13Z" fill="#E6E6E6"/>
<path d="M313.434 436.881C312.261 430.751 309.973 424.797 306.644 419.212L306.158 418.398L302.554 421.638L305.225 416.813L305.05 416.533C302.693 412.751 300.082 409.078 297.226 405.53L296.697 404.872L295.991 405.507L296.485 404.614L296.237 404.312C292.701 400.013 289.984 397.294 289.958 397.267L289.189 396.501L288.695 397.414C288.605 397.582 279.625 414.353 278.436 430.925L278.417 431.183L284.46 437.104L278.297 433.968L278.308 435.106C278.327 437.054 278.49 438.999 278.798 440.931C279.069 442.592 279.388 444.215 279.756 445.798C280.339 445.812 280.905 445.956 281.395 446.212C280.969 444.443 280.602 442.625 280.293 440.758C280.055 439.268 279.905 437.754 279.846 436.244L291.766 442.31L279.961 430.744C281.036 416.733 287.707 402.616 289.58 398.891C290.585 399.947 292.481 401.998 294.75 404.739L290.626 412.19L296.505 406.906C299.054 410.122 301.402 413.44 303.54 416.847L297.19 428.32L305.775 420.604C308.774 425.831 310.85 431.374 311.941 437.07C313.444 446.27 313.151 455.108 311.115 461.956C309.166 468.516 305.73 472.548 301.688 473.019C300.856 473.112 300.01 473.071 299.197 472.899C298.546 473.274 297.762 473.468 296.963 473.452H296.743C297.996 474.016 299.402 474.322 300.836 474.343C301.19 474.343 301.544 474.322 301.894 474.281C306.646 473.728 310.441 469.461 312.579 462.266C314.66 455.263 314.965 446.253 313.434 436.881Z" fill="#3F3D56"/>
<path d="M300.137 473.859C293.921 473.859 284.959 471.087 276.07 466.042C274.762 465.294 273.513 464.48 272.33 463.605L271.334 462.868L275.098 461.989L270.086 461.84L269.875 461.66C260.479 453.685 254.633 442.419 254.575 442.307L254.118 441.417L255.306 441.461C255.424 441.465 258.248 441.573 262.493 442.061L262.758 442.091V442.09L263.688 442.204C267.155 442.631 270.588 443.216 273.973 443.956L274.335 444.036L275.464 446.291L275.293 444.268L276.329 444.511C281.24 445.66 285.905 447.412 290.16 449.708C303.678 457.381 311.158 466.97 307.204 471.547C305.852 473.111 303.364 473.858 300.137 473.859ZM274.372 463.431C275.198 463.998 276.057 464.538 276.938 465.041C289.319 472.069 302.613 474.726 305.967 470.845C309.321 466.964 301.692 457.747 289.309 450.719C285.489 448.659 281.326 447.049 276.947 445.939L277.617 453.84L273.219 445.059C270.322 444.436 267.359 443.923 264.392 443.532L264.878 449.266L261.851 443.223C259.506 442.962 257.615 442.821 256.465 442.748C258.033 445.539 263.214 454.157 270.756 460.636L284.588 461.046L274.372 463.431Z" fill="#3F3D56"/>
</g>
<defs>
<clipPath id="clip0">
<rect width="728" height="493" fill="white"/>
</clipPath>
</defs>
</svg>
