<svg width="211" height="168" viewBox="0 0 211 168" fill="none" xmlns="http://www.w3.org/2000/svg">
<g clip-path="url(#clip0)">
<path d="M45.8028 104.987L49.4057 106.96C49.7703 107.159 50.1761 107.281 50.595 107.316C51.0139 107.351 51.4357 107.298 51.831 107.161C52.2263 107.025 52.5856 106.808 52.8839 106.525C53.1821 106.243 53.4121 105.902 53.5579 105.526C53.7147 105.121 53.7697 104.687 53.7185 104.259C53.6672 103.831 53.5111 103.419 53.2628 103.059C53.0144 102.698 52.6807 102.399 52.2885 102.183C51.8964 101.968 51.4567 101.844 51.0048 101.82L46.6417 101.591L33.4986 97.8002L31.3797 90.2395L25.8389 93.2055L29.6487 101.801L45.8028 104.987Z" fill="#FFB8B8"/>
<path d="M28.625 65.7447C27.7915 66.6452 27.9419 67.7283 28.549 68.6076C29.156 69.4869 30.1661 70.2185 31.0502 70.9944C31.6181 71.4928 32.1435 72.0217 32.3978 72.6214C32.538 72.928 32.5838 73.2662 32.53 73.5967C32.4763 73.9272 32.3251 74.2363 32.0941 74.4881C31.5152 75.1407 30.4369 75.5826 29.3848 75.9614C26.3761 77.0371 23.2717 77.8518 20.1094 78.3955C22.7735 75.429 24.1071 72.0881 23.9117 68.8699C23.8707 68.1945 23.7655 67.5129 24.013 66.836C24.1829 66.4297 24.4517 66.0676 24.7971 65.7796C25.1426 65.4915 25.5548 65.2857 25.9999 65.1791C27.0589 64.8893 28.4537 65.1759 28.616 65.8372" fill="#2F2E41"/>
<path d="M5.80127 160.944L9.61353 161.102L17.1379 127.98L10.608 128.247L5.80127 160.944Z" fill="#FFB8B8"/>
<path d="M43.9229 153.836L40.7736 155.415L21.0747 127.563L27.3482 124.93L43.9229 153.836Z" fill="#FFB8B8"/>
<path d="M21.9651 76.1709C25.2955 76.1709 27.9952 73.5981 27.9952 70.4243C27.9952 67.2506 25.2955 64.6777 21.9651 64.6777C18.6348 64.6777 15.9351 67.2506 15.9351 70.4243C15.9351 73.5981 18.6348 76.1709 21.9651 76.1709Z" fill="#FFB8B8"/>
<path d="M18.8952 73.4373C18.8952 73.4373 16.7405 77.702 13.7571 77.5441C13.7571 77.5441 8.12173 75.3327 6.29852 81.335L4.30957 86.0736L30.6632 90.3384C30.6632 90.3384 29.1715 81.6509 25.6908 81.4929C25.6908 81.4929 21.7129 81.177 22.2102 79.7554C22.7074 78.3339 24.5306 75.0168 24.5306 75.0168L18.8952 73.4373Z" fill="#FFB8B8"/>
<path d="M27.6798 95.235L23.7019 103.449L26.9802 116.725L42.9466 145.28C42.9466 145.28 35.5934 151.567 33.7605 152.576C32.1705 153.45 18.9335 129.74 18.4502 124.854C18.2907 123.241 15.3881 155.911 15.3881 155.911C15.3881 155.911 4.44573 154.19 1.39014 153.618C1.39014 153.618 3.59158 138.758 4.88963 124.854C5.8902 114.136 4.98039 104.422 10.6079 99.8156L10.1107 90.6543L23.3704 90.1804L27.6798 95.235Z" fill="#2F2E41"/>
<path d="M7.08465 167.036L13.1707 167.878C13.6423 168.046 14.1624 168.04 14.6297 167.862C15.0971 167.684 15.4781 167.347 15.6986 166.915C15.8778 166.565 15.9415 166.171 15.8815 165.786C15.8214 165.401 15.6404 165.042 15.3622 164.756L12.779 162.105L10.9198 158.282C9.80794 157.2 9.04787 157.582 8.62295 159.361L5.6509 158.471L4.87163 163.463C4.75501 164.21 4.9112 164.973 5.31405 165.623C5.71691 166.274 6.34198 166.772 7.08465 167.036Z" fill="#2F2E41"/>
<path d="M41.7738 161.813L47.9236 161.792C48.416 161.892 48.9295 161.813 49.3643 161.571C49.7991 161.33 50.1239 160.943 50.2754 160.485C50.3985 160.114 50.4008 159.715 50.2819 159.343C50.163 158.97 49.9285 158.64 49.6093 158.397L46.6448 156.137L44.2156 152.616C42.9487 151.701 42.256 152.186 42.1102 154.005L39.0332 153.542V158.589C39.0332 159.344 39.3054 160.076 39.8043 160.663C40.3032 161.25 40.9985 161.656 41.7738 161.813Z" fill="#2F2E41"/>
<path d="M18.9194 61.5905C17.8952 61.1639 16.6763 61.3312 15.6874 61.8279C14.6985 62.3245 13.9084 63.1166 13.2169 63.9535C10.8358 66.8496 9.44738 70.3737 9.23996 74.0475C9.18579 75.0518 9.23661 76.1132 9.78524 76.9722C10.3881 77.9161 11.4917 78.458 12.5847 78.8269C16.2494 80.0438 20.27 79.8331 23.7724 78.2404C21.9308 76.8173 20.2268 75.2397 18.6808 73.5266C18.3911 73.2055 18.0882 72.7933 18.2355 72.3938C18.3283 72.1994 18.4721 72.0312 18.6531 71.9053L22.2034 68.9671L22.114 70.1557C22.82 70.1164 23.4985 69.8808 24.0656 69.478C24.6327 69.0752 25.0634 68.5228 25.3047 67.8892C25.1335 68.2185 25.4603 68.6229 25.838 68.6969C26.2156 68.771 26.598 68.6226 26.9522 68.4774C27.8112 68.1251 28.7442 67.7056 29.1254 66.8918C29.2453 66.6049 29.3027 66.2977 29.294 65.989C29.2854 65.6803 29.2109 65.3765 29.075 65.0961C28.7994 64.5365 28.4061 64.0368 27.9195 63.628C26.7255 62.5775 25.2727 61.8308 23.6955 61.4572C22.1184 61.0835 20.4679 61.0949 18.8966 61.4902" fill="#2F2E41"/>
<path d="M17.7146 104.165L20.3623 107.217C20.6302 107.526 20.9656 107.775 21.345 107.948C21.7245 108.12 22.1389 108.212 22.5593 108.216C22.9797 108.221 23.3961 108.137 23.7794 107.973C24.1626 107.808 24.5036 107.565 24.7784 107.262C25.0742 106.936 25.2854 106.548 25.3951 106.129C25.5049 105.711 25.51 105.274 25.4101 104.853C25.3102 104.433 25.1082 104.04 24.8201 103.708C24.5321 103.375 24.1661 103.112 23.7517 102.938L19.75 101.266L8.83766 93.3216L9.63646 85.533L3.35596 86.4582L3.75959 95.7814L17.7146 104.165Z" fill="#FFB8B8"/>
<path d="M34.1437 97.2881C34.1437 97.2881 31.563 88.2804 30.2014 88.2826C28.8399 88.2847 27.0167 88.1267 27.0167 88.1267C27.0167 88.1267 24.862 82.1245 13.757 84.0199C2.65195 85.9154 7.4586 82.2824 4.30941 83.704C1.16022 85.1256 0 95.0767 0 95.0767C0 95.0767 17.0719 89.7063 20.7183 92.7074C22.8124 94.4527 25.0896 95.9877 27.5139 97.2881C27.5139 97.2881 25.8564 101.237 34.1437 97.2881Z" fill="#2F2E41"/>
<path d="M93.3273 161.319H26.3994V161.735H93.3273V161.319Z" fill="#3F3D56"/>
<path d="M144.726 89.4082C167.073 89.4082 185.189 72.144 185.189 50.8475C185.189 29.5511 167.073 12.2869 144.726 12.2869C122.379 12.2869 104.263 29.5511 104.263 50.8475C104.263 72.144 122.379 89.4082 144.726 89.4082Z" fill="#E6E6E6"/>
<path d="M137.071 29.3787H70.1431V29.7955H137.071V29.3787Z" fill="#3F3D56"/>
<path d="M201.593 40.8428H70.1431V41.2596H201.593V40.8428Z" fill="#3F3D56"/>
<path d="M161.13 81.9044C138.698 81.9044 120.448 64.5126 120.448 43.1353C120.448 21.758 138.698 4.36621 161.13 4.36621C183.562 4.36621 201.812 21.758 201.812 43.1353C201.812 64.5126 183.562 81.9044 161.13 81.9044ZM161.13 4.78308C138.939 4.78308 120.886 21.9878 120.886 43.1353C120.886 64.2828 138.939 81.4875 161.13 81.4875C183.321 81.4875 201.374 64.2828 201.374 43.1353C201.374 21.9878 183.321 4.78308 161.13 4.78308Z" fill="#3F3D56"/>
<path d="M157.377 10.1802C160.327 10.1802 162.718 7.90128 162.718 5.0901C162.718 2.27891 160.327 0 157.377 0C154.427 0 152.036 2.27891 152.036 5.0901C152.036 7.90128 154.427 10.1802 157.377 10.1802Z" fill="#6C63FF"/>
<path d="M120.601 43.7005C122.51 43.7005 124.057 42.2259 124.057 40.4069C124.057 38.5879 122.51 37.1133 120.601 37.1133C118.692 37.1133 117.145 38.5879 117.145 40.4069C117.145 42.2259 118.692 43.7005 120.601 43.7005Z" fill="#FF6584"/>
<path d="M203.107 47.9833C207.466 47.9833 211 44.6156 211 40.4614C211 36.3071 207.466 32.9395 203.107 32.9395C198.748 32.9395 195.214 36.3071 195.214 40.4614C195.214 44.6156 198.748 47.9833 203.107 47.9833Z" fill="#6C63FF"/>
<path d="M92.16 70.1404H68.2106V70.5573H92.16C93.3391 70.5573 94.47 71.0036 95.3037 71.7982C96.1375 72.5927 96.6058 73.6704 96.6058 74.7941C96.6058 75.9177 96.1375 76.9954 95.3037 77.7899C94.47 78.5845 93.3391 79.0309 92.16 79.0309H55.9204C54.7413 79.0309 53.6105 78.5845 52.7767 77.7899C51.9429 76.9954 51.4745 75.9177 51.4745 74.7941C51.4745 73.6704 51.9429 72.5927 52.7767 71.7982C53.6105 71.0036 54.7413 70.5573 55.9204 70.5573H57.2746V70.1404H55.9204C54.6252 70.1404 53.3832 70.6307 52.4674 71.5034C51.5516 72.3761 51.0371 73.5598 51.0371 74.7941C51.0371 76.0283 51.5516 77.212 52.4674 78.0847C53.3832 78.9574 54.6252 79.4477 55.9204 79.4477H92.16C93.4551 79.4477 94.6972 78.9574 95.613 78.0847C96.5288 77.212 97.0433 76.0283 97.0433 74.7941C97.0433 73.5598 96.5288 72.3761 95.613 71.5034C94.6972 70.6307 93.4551 70.1404 92.16 70.1404Z" fill="#3F3D56"/>
<path d="M92.16 84.5225H68.2106V84.9393H92.16C93.3391 84.9393 94.47 85.3857 95.3037 86.1803C96.1375 86.9748 96.6058 88.0525 96.6058 89.1761C96.6058 90.2998 96.1375 91.3774 95.3037 92.172C94.47 92.9666 93.3391 93.4129 92.16 93.4129H55.9204C54.7413 93.4129 53.6105 92.9666 52.7767 92.172C51.9429 91.3774 51.4745 90.2998 51.4745 89.1761C51.4745 88.0525 51.9429 86.9748 52.7767 86.1803C53.6105 85.3857 54.7413 84.9393 55.9204 84.9393H57.2746V84.5225H55.9204C54.6252 84.5225 53.3832 85.0128 52.4674 85.8855C51.5516 86.7582 51.0371 87.9419 51.0371 89.1761C51.0371 90.4104 51.5516 91.594 52.4674 92.4668C53.3832 93.3395 54.6252 93.8298 55.9204 93.8298H92.16C93.4551 93.8298 94.6972 93.3395 95.613 92.4668C96.5288 91.594 97.0433 90.4104 97.0433 89.1761C97.0433 87.9419 96.5288 86.7582 95.613 85.8855C94.6972 85.0128 93.4551 84.5225 92.16 84.5225Z" fill="#3F3D56"/>
<path d="M92.16 98.9045H68.2106V99.3214H92.16C93.3391 99.3214 94.47 99.7678 95.3037 100.562C96.1375 101.357 96.6058 102.435 96.6058 103.558C96.6058 104.682 96.1375 105.76 95.3037 106.554C94.47 107.349 93.3391 107.795 92.16 107.795H55.9204C54.7413 107.795 53.6105 107.349 52.7767 106.554C51.9429 105.76 51.4745 104.682 51.4745 103.558C51.4745 102.435 51.9429 101.357 52.7767 100.562C53.6105 99.7678 54.7413 99.3214 55.9204 99.3214H57.2746V98.9045H55.9204C54.6252 98.9045 53.3832 99.3948 52.4674 100.268C51.5516 101.14 51.0371 102.324 51.0371 103.558C51.0371 104.792 51.5516 105.976 52.4674 106.849C53.3832 107.722 54.6252 108.212 55.9204 108.212H92.16C93.4551 108.212 94.6972 107.722 95.613 106.849C96.5288 105.976 97.0433 104.792 97.0433 103.558C97.0433 102.324 96.5288 101.14 95.613 100.268C94.6972 99.3948 93.4551 98.9045 92.16 98.9045Z" fill="#3F3D56"/>
<path d="M59.9782 69.0392C59.637 69.0447 59.3118 69.1776 59.0725 69.4095C58.8333 69.6413 58.6992 69.9534 58.6992 70.2786C58.6992 70.6038 58.8333 70.9159 59.0725 71.1477C59.3118 71.3796 59.637 71.5125 59.9782 71.518H65.6836C66.0278 71.5223 66.3598 71.3965 66.6069 71.168C66.8539 70.9394 66.9958 70.6269 67.0014 70.2989C67.0071 69.9708 66.876 69.6541 66.637 69.4179C66.398 69.1818 66.0705 69.0456 65.7263 69.0392C65.7121 69.039 65.6978 69.039 65.6836 69.0392H59.9782Z" fill="#6C63FF"/>
<path d="M59.9782 83.6296C59.637 83.635 59.3118 83.768 59.0725 83.9998C58.8333 84.2316 58.6992 84.5438 58.6992 84.8689C58.6992 85.1941 58.8333 85.5062 59.0725 85.7381C59.3118 85.9699 59.637 86.1029 59.9782 86.1083H65.6836C66.0278 86.1127 66.3598 85.9868 66.6069 85.7583C66.8539 85.5298 66.9958 85.2172 67.0014 84.8892C67.0071 84.5612 66.876 84.2444 66.637 84.0083C66.398 83.7721 66.0705 83.636 65.7263 83.6296C65.7121 83.6293 65.6978 83.6293 65.6836 83.6296H59.9782Z" fill="#FF6584"/>
<path d="M59.978 97.8032C59.6368 97.8085 59.3115 97.9414 59.0722 98.1733C58.8328 98.4051 58.6987 98.7173 58.6987 99.0425C58.6987 99.3677 58.8328 99.6799 59.0722 99.9118C59.3115 100.144 59.6368 100.277 59.978 100.282H65.6834C66.0281 100.287 66.3608 100.161 66.6084 99.9328C66.856 99.7042 66.9982 99.3913 67.0039 99.0629C67.0095 98.7344 66.8782 98.4172 66.6386 98.181C66.399 97.9448 66.0708 97.8089 65.7262 97.8032C65.7119 97.8029 65.6977 97.8029 65.6834 97.8032H59.978Z" fill="#3F3D56"/>
<path d="M57.7151 73.5546C57.3739 73.56 57.0487 73.693 56.8094 73.9248C56.5701 74.1566 56.436 74.4688 56.436 74.794C56.436 75.1192 56.5701 75.4313 56.8094 75.6632C57.0487 75.895 57.3739 76.0279 57.7151 76.0333H90.3229C90.494 76.0364 90.664 76.0073 90.8232 75.9477C90.9824 75.8881 91.1278 75.7991 91.2509 75.6859C91.3739 75.5726 91.4724 75.4374 91.5405 75.2878C91.6087 75.1383 91.6452 74.9774 91.648 74.8144C91.6508 74.6514 91.6199 74.4894 91.5569 74.3378C91.4939 74.1862 91.4002 74.048 91.2811 73.9309C91.162 73.8139 91.0198 73.7204 90.8627 73.6559C90.7056 73.5913 90.5367 73.5569 90.3656 73.5546C90.3514 73.5544 90.3371 73.5544 90.3229 73.5546H57.7151Z" fill="#E6E6E6"/>
<path d="M57.7151 87.9367C57.3739 87.9421 57.0487 88.0751 56.8094 88.3069C56.5701 88.5387 56.436 88.8509 56.436 89.1761C56.436 89.5012 56.5701 89.8134 56.8094 90.0453C57.0487 90.2771 57.3739 90.41 57.7151 90.4154H90.3229C90.494 90.4185 90.664 90.3894 90.8232 90.3298C90.9824 90.2702 91.1278 90.1812 91.2509 90.068C91.3739 89.9547 91.4724 89.8195 91.5405 89.6699C91.6087 89.5204 91.6452 89.3595 91.648 89.1965C91.6508 89.0334 91.6199 88.8715 91.5569 88.7199C91.4939 88.5683 91.4002 88.43 91.2811 88.313C91.162 88.196 91.0198 88.1025 90.8627 88.038C90.7056 87.9734 90.5367 87.939 90.3656 87.9367C90.3514 87.9365 90.3371 87.9365 90.3229 87.9367H57.7151Z" fill="#E6E6E6"/>
<path d="M57.7151 102.319C57.3739 102.324 57.0487 102.457 56.8094 102.689C56.5701 102.921 56.436 103.233 56.436 103.558C56.436 103.883 56.5701 104.195 56.8094 104.427C57.0487 104.659 57.3739 104.792 57.7151 104.797H90.3229C90.494 104.801 90.664 104.771 90.8232 104.712C90.9824 104.652 91.1278 104.563 91.2509 104.45C91.3739 104.337 91.4724 104.202 91.5405 104.052C91.6087 103.902 91.6452 103.742 91.648 103.579C91.6508 103.416 91.6199 103.254 91.5569 103.102C91.4939 102.95 91.4002 102.812 91.2811 102.695C91.162 102.578 91.0198 102.485 90.8627 102.42C90.7056 102.355 90.5367 102.321 90.3656 102.319C90.3514 102.319 90.3371 102.319 90.3229 102.319H57.7151Z" fill="#E6E6E6"/>
<path d="M90.8445 148.876C90.5045 146.788 89.8413 144.758 88.8765 142.855L88.7358 142.578L87.6911 143.682L88.4652 142.038L88.4146 141.942C87.7315 140.654 86.9745 139.402 86.147 138.193L85.9935 137.969L85.7888 138.185L85.9321 137.881L85.8603 137.778C84.8354 136.313 84.048 135.386 84.0402 135.377L83.8175 135.116L83.6743 135.427C83.6481 135.484 81.0456 141.199 80.7008 146.847L80.6954 146.935L82.4469 148.952L80.6606 147.884L80.6637 148.272C80.6692 148.935 80.7166 149.598 80.8057 150.256C80.8843 150.823 80.9769 151.376 81.0835 151.915C81.2523 151.92 81.4165 151.969 81.5584 152.056C81.435 151.453 81.3286 150.834 81.2392 150.198C81.1702 149.69 81.1267 149.174 81.1094 148.659L84.5645 150.727L81.1429 146.785C81.4544 142.011 83.388 137.2 83.9308 135.93C84.2222 136.29 84.7717 136.989 85.4292 137.923L84.234 140.462L85.938 138.662C86.6767 139.758 87.3572 140.888 87.9768 142.049L86.1364 145.959L88.6248 143.33C89.4939 145.111 90.0955 147 90.4119 148.941C90.8474 152.076 90.7624 155.087 90.1724 157.421C89.6074 159.657 88.6115 161.031 87.4401 161.191C87.199 161.223 86.9537 161.209 86.7182 161.15C86.5294 161.278 86.3022 161.344 86.0706 161.339H86.0068C86.3702 161.531 86.7775 161.635 87.193 161.642C87.2957 161.642 87.3983 161.635 87.4999 161.621C88.8771 161.433 89.977 159.979 90.5967 157.527C91.1999 155.141 91.2882 152.07 90.8445 148.876Z" fill="#3F3D56"/>
<path d="M86.9899 161.477C85.1884 161.477 82.5909 160.533 80.0146 158.814C79.6353 158.559 79.2732 158.281 78.9304 157.983L78.6418 157.732L79.7328 157.432L78.2801 157.382L78.2188 157.32C75.4957 154.603 73.8012 150.764 73.7843 150.725L73.6519 150.422L73.9962 150.437C74.0304 150.438 74.849 150.475 76.0793 150.642L76.156 150.652V150.651L76.4258 150.69C77.4304 150.836 78.4257 151.035 79.4068 151.287L79.5115 151.314L79.8389 152.083L79.7892 151.394L80.0895 151.476C81.5129 151.868 82.8648 152.465 84.0981 153.247C88.0161 155.862 90.1841 159.13 89.0381 160.689C88.6464 161.223 87.9253 161.477 86.9899 161.477ZM79.5222 157.924C79.7616 158.117 80.0106 158.301 80.2661 158.473C83.8545 160.867 87.7075 161.773 88.6797 160.45C89.6516 159.128 87.4405 155.987 83.8515 153.592C82.7443 152.89 81.5379 152.341 80.2687 151.963L80.4628 154.655L79.1881 151.663C78.3485 151.451 77.4897 151.276 76.6299 151.143L76.7707 153.097L75.8934 151.038C75.2136 150.949 74.6657 150.9 74.3323 150.876C74.7868 151.827 76.2883 154.763 78.4741 156.971L82.4832 157.111L79.5222 157.924Z" fill="#3F3D56"/>
</g>
<defs>
<clipPath id="clip0">
<rect width="211" height="168" fill="white"/>
</clipPath>
</defs>
</svg>
