<svg width="211" height="168" viewBox="0 0 211 168" fill="none" xmlns="http://www.w3.org/2000/svg">
<path d="M128.04 93.3719H4.33172C3.18327 93.3701 2.08223 92.7479 1.27016 91.6416C0.458084 90.5354 0.00129286 89.0355 0 87.4711V5.90083C0.00129286 4.33637 0.458084 2.83649 1.27016 1.73026C2.08223 0.624019 3.18327 0.00176118 4.33172 0H128.04C129.189 0.00176118 130.29 0.624019 131.102 1.73026C131.914 2.83649 132.371 4.33637 132.372 5.90083V87.4711C132.371 89.0355 131.914 90.5354 131.102 91.6416C130.29 92.7479 129.189 93.3701 128.04 93.3719ZM4.33172 0.694215C3.31838 0.695777 2.34688 1.24483 1.63035 2.22092C0.913811 3.19701 0.51076 4.52043 0.509614 5.90083V87.4711C0.51076 88.8515 0.913811 90.1749 1.63035 91.151C2.34688 92.1271 3.31838 92.6761 4.33172 92.6777H128.04C129.054 92.6761 130.025 92.1271 130.742 91.151C131.458 90.1749 131.861 88.8515 131.863 87.4711V5.90083C131.861 4.52043 131.458 3.19701 130.742 2.22092C130.025 1.24483 129.054 0.695777 128.04 0.694215H4.33172Z" fill="#3F3D56"/>
<path d="M23.7605 20.3058C25.0271 20.3058 26.0538 18.9071 26.0538 17.1818C26.0538 15.4565 25.0271 14.0579 23.7605 14.0579C22.494 14.0579 21.4673 15.4565 21.4673 17.1818C21.4673 18.9071 22.494 20.3058 23.7605 20.3058Z" fill="#CCCCCC"/>
<path d="M23.7605 32.1073C25.0271 32.1073 26.0538 30.7087 26.0538 28.9833C26.0538 27.258 25.0271 25.8594 23.7605 25.8594C22.494 25.8594 21.4673 27.258 21.4673 28.9833C21.4673 30.7087 22.494 32.1073 23.7605 32.1073Z" fill="#CCCCCC"/>
<path d="M23.7605 43.9091C25.0271 43.9091 26.0538 42.5104 26.0538 40.7851C26.0538 39.0598 25.0271 37.6611 23.7605 37.6611C22.494 37.6611 21.4673 39.0598 21.4673 40.7851C21.4673 42.5104 22.494 43.9091 23.7605 43.9091Z" fill="#CCCCCC"/>
<path d="M23.7605 55.7108C25.0271 55.7108 26.0538 54.3122 26.0538 52.5869C26.0538 50.8615 25.0271 49.4629 23.7605 49.4629C22.494 49.4629 21.4673 50.8615 21.4673 52.5869C21.4673 54.3122 22.494 55.7108 23.7605 55.7108Z" fill="#CCCCCC"/>
<path d="M62.3641 79.3141C63.6306 79.3141 64.6573 77.9154 64.6573 76.1901C64.6573 74.4648 63.6306 73.0662 62.3641 73.0662C61.0975 73.0662 60.0708 74.4648 60.0708 76.1901C60.0708 77.9154 61.0975 79.3141 62.3641 79.3141Z" fill="#CCCCCC"/>
<path d="M45.8016 79.3141C47.0681 79.3141 48.0948 77.9154 48.0948 76.1901C48.0948 74.4648 47.0681 73.0662 45.8016 73.0662C44.535 73.0662 43.5083 74.4648 43.5083 76.1901C43.5083 77.9154 44.535 79.3141 45.8016 79.3141Z" fill="#CCCCCC"/>
<path d="M96.5081 79.3141C97.7746 79.3141 98.8014 77.9154 98.8014 76.1901C98.8014 74.4648 97.7746 73.0662 96.5081 73.0662C95.2416 73.0662 94.2148 74.4648 94.2148 76.1901C94.2148 77.9154 95.2416 79.3141 96.5081 79.3141Z" fill="#CCCCCC"/>
<path d="M79.1814 79.3141C80.448 79.3141 81.4747 77.9154 81.4747 76.1901C81.4747 74.4648 80.448 73.0662 79.1814 73.0662C77.9149 73.0662 76.8882 74.4648 76.8882 76.1901C76.8882 77.9154 77.9149 79.3141 79.1814 79.3141Z" fill="#CCCCCC"/>
<path d="M110.65 17.5289H35.227C35.1594 17.5289 35.0946 17.4924 35.0468 17.4273C34.999 17.3622 34.9722 17.2739 34.9722 17.1818C34.9722 17.0898 34.999 17.0015 35.0468 16.9364C35.0946 16.8713 35.1594 16.8347 35.227 16.8347H110.65C110.717 16.8347 110.782 16.8713 110.83 16.9364C110.878 17.0015 110.905 17.0898 110.905 17.1818C110.905 17.2739 110.878 17.3622 110.83 17.4273C110.782 17.4924 110.717 17.5289 110.65 17.5289Z" fill="#CCCCCC"/>
<path d="M110.65 29.3307H35.227C35.1594 29.3307 35.0946 29.2941 35.0468 29.229C34.999 29.1639 34.9722 29.0756 34.9722 28.9836C34.9722 28.8915 34.999 28.8032 35.0468 28.7381C35.0946 28.673 35.1594 28.6365 35.227 28.6365H110.65C110.717 28.6365 110.782 28.673 110.83 28.7381C110.878 28.8032 110.905 28.8915 110.905 28.9836C110.905 29.0756 110.878 29.1639 110.83 29.229C110.782 29.2941 110.717 29.3307 110.65 29.3307Z" fill="#CCCCCC"/>
<path d="M110.65 41.1322H35.227C35.1594 41.1322 35.0946 41.0956 35.0468 41.0305C34.999 40.9654 34.9722 40.8772 34.9722 40.7851C34.9722 40.693 34.999 40.6048 35.0468 40.5397C35.0946 40.4746 35.1594 40.438 35.227 40.438H110.65C110.717 40.438 110.782 40.4746 110.83 40.5397C110.878 40.6048 110.905 40.693 110.905 40.7851C110.905 40.8772 110.878 40.9654 110.83 41.0305C110.782 41.0956 110.717 41.1322 110.65 41.1322Z" fill="#CCCCCC"/>
<path d="M110.65 52.934H35.227C35.1594 52.934 35.0946 52.8974 35.0468 52.8323C34.999 52.7672 34.9722 52.6789 34.9722 52.5869C34.9722 52.4948 34.999 52.4065 35.0468 52.3414C35.0946 52.2763 35.1594 52.2397 35.227 52.2397H110.65C110.717 52.2397 110.782 52.2763 110.83 52.3414C110.878 52.4065 110.905 52.4948 110.905 52.5869C110.905 52.6789 110.878 52.7672 110.83 52.8323C110.782 52.8974 110.717 52.934 110.65 52.934Z" fill="#CCCCCC"/>
<path d="M49.4964 64.7356H42.107C41.7693 64.735 41.4454 64.552 41.2066 64.2266C40.9678 63.9013 40.8334 63.4601 40.833 63V53.6281C40.8334 53.168 40.9678 52.7269 41.2066 52.4015C41.4454 52.0761 41.7693 51.8931 42.107 51.8926H49.4964C49.8342 51.8931 50.158 52.0761 50.3969 52.4015C50.6357 52.7269 50.7701 53.168 50.7705 53.6281V63C50.7701 63.4601 50.6357 63.9013 50.3969 64.2266C50.158 64.552 49.8342 64.735 49.4964 64.7356Z" fill="#6C63FF"/>
<path d="M66.0585 64.7354H58.6691C58.3313 64.7349 58.0074 64.5519 57.7686 64.2265C57.5298 63.9012 57.3954 63.46 57.395 62.9999V41.8264C57.3954 41.3662 57.5298 40.9251 57.7686 40.5997C58.0074 40.2744 58.3313 40.0913 58.6691 40.0908H66.0585C66.3962 40.0913 66.7201 40.2744 66.9589 40.5997C67.1977 40.9251 67.3321 41.3662 67.3325 41.8264V62.9999C67.3321 63.46 67.1977 63.9012 66.9589 64.2265C66.7201 64.5519 66.3962 64.7349 66.0585 64.7354Z" fill="#6C63FF"/>
<path d="M82.8758 64.7356H75.4864C75.1487 64.7351 74.8248 64.552 74.586 64.2267C74.3471 63.9013 74.2128 63.4602 74.2124 63.0001V30.0248C74.2128 29.5647 74.3471 29.1236 74.586 28.7982C74.8248 28.4729 75.1487 28.2898 75.4864 28.2893H82.8758C83.2136 28.2898 83.5374 28.4729 83.7763 28.7982C84.0151 29.1236 84.1495 29.5647 84.1499 30.0248V63.0001C84.1495 63.4602 84.0151 63.9013 83.7763 64.2267C83.5374 64.552 83.2136 64.7351 82.8758 64.7356Z" fill="#6C63FF"/>
<path d="M100.203 64.7355H92.8133C92.4756 64.735 92.1517 64.552 91.9129 64.2266C91.6741 63.9013 91.5397 63.4601 91.5393 63V18.5703C91.5397 18.1101 91.6741 17.669 91.9129 17.3436C92.1517 17.0183 92.4756 16.8352 92.8133 16.8347H100.203C100.541 16.8352 100.864 17.0183 101.103 17.3436C101.342 17.669 101.476 18.1101 101.477 18.5703V63C101.476 63.4601 101.342 63.9013 101.103 64.2266C100.864 64.552 100.541 64.735 100.203 64.7355Z" fill="#6C63FF"/>
<path d="M169.052 166.037C166.761 163.399 165.369 159.233 165.734 155.177C166.099 151.12 168.36 147.392 171.292 146.53C174.225 145.669 177.568 148.053 178.458 151.956C178.948 144.432 179.513 136.594 182.45 130.187C185.108 124.385 189.713 120.234 194.704 119.492C199.695 118.749 204.949 121.554 208.062 126.92C211.174 132.286 211.937 140.087 209.757 146.248C208.151 150.786 205.192 154.164 202.092 156.911C192.075 165.716 180.061 169.296 168.261 166.993L169.052 166.037Z" fill="#F2F2F2"/>
<path d="M203.127 121.709C199.009 126.278 195.231 131.389 191.848 136.966C186.553 145.665 182.269 155.418 179.144 165.885C178.915 166.649 179.826 166.981 180.052 166.226C185.165 149.214 193.327 134.221 203.792 122.616C204.262 122.095 203.593 121.192 203.127 121.709Z" fill="white"/>
<path d="M144.886 70.4827C144.596 70.4817 144.307 70.4422 144.023 70.3649H144.023C143.971 70.3508 143.919 70.3356 143.867 70.3193L81.4658 50.5274C80.7881 50.3123 80.3378 49.7315 80.4185 49.1761C80.4526 49.0126 80.5191 48.8651 80.6108 48.7498C80.7025 48.6345 80.8157 48.5559 80.9381 48.5227C81.2393 48.4096 81.5564 48.4 81.861 48.4948L144.65 66.3576C146.064 66.7596 147.045 67.9416 146.884 69.0482C146.8 69.6273 146.426 70.0763 145.83 70.3125C145.523 70.4293 145.205 70.4866 144.886 70.4827Z" fill="#3F3D56"/>
<path d="M131.667 67.7445C131.99 68.0031 132.35 68.1621 132.723 68.2102C133.096 68.2584 133.472 68.1946 133.825 68.0234C134.178 67.8521 134.499 67.5775 134.766 67.219C135.032 66.8604 135.238 66.4266 135.368 65.9481L144.471 66.2067L141.949 60.7529L133.691 61.3435C133.087 61.0989 132.437 61.165 131.866 61.5291C131.295 61.8932 130.841 62.5301 130.592 63.3191C130.342 64.1081 130.314 64.9944 130.512 65.81C130.71 66.6257 131.121 67.314 131.667 67.7445V67.7445Z" fill="#FFB8B8"/>
<path d="M135.621 65.7637L135.574 61.9626C135.57 61.5703 135.675 61.1904 135.866 60.8977C136.058 60.6051 136.323 60.4209 136.61 60.3813L152.969 58.2307L166.599 52.1431C167.01 51.9594 167.444 51.8889 167.876 51.9357C168.307 51.9825 168.728 52.1457 169.112 52.4159C169.497 52.686 169.839 53.0577 170.117 53.5093C170.396 53.9608 170.606 54.4833 170.734 55.0463C170.863 55.6093 170.909 56.2016 170.868 56.7888C170.828 57.3759 170.702 57.9462 170.498 58.4665C170.294 58.9868 170.016 59.4466 169.681 59.8194C169.345 60.1921 168.959 60.4702 168.543 60.6377L153.457 66.7223L136.796 67.2989C136.544 67.3072 136.298 67.2025 136.094 67.001C135.89 66.7994 135.74 66.5122 135.668 66.1835C135.638 66.0471 135.623 65.9059 135.621 65.7637Z" fill="#3F3D56"/>
<path d="M159.83 163.759L156.706 163.759L155.22 147.345L159.83 147.345L159.83 163.759Z" fill="#FFB8B8"/>
<path d="M160.626 167.884L150.554 167.883V167.71C150.554 167.008 150.655 166.314 150.852 165.666C151.049 165.018 151.338 164.429 151.702 163.933C152.066 163.437 152.498 163.044 152.974 162.776C153.45 162.507 153.959 162.369 154.474 162.369H154.475L160.627 162.369L160.626 167.884Z" fill="#2F2E41"/>
<path d="M169.003 163.759L165.879 163.759L164.393 147.345L169.003 147.345L169.003 163.759Z" fill="#FFB8B8"/>
<path d="M169.799 167.884L159.727 167.883V167.71C159.727 167.008 159.828 166.314 160.025 165.666C160.222 165.018 160.511 164.429 160.875 163.933C161.239 163.437 161.671 163.044 162.147 162.776C162.623 162.507 163.133 162.369 163.647 162.369H163.648L169.8 162.369L169.799 167.884Z" fill="#2F2E41"/>
<path d="M171.099 97.424L170.353 157.714C170.351 157.905 170.32 158.094 170.262 158.267C170.203 158.441 170.12 158.597 170.015 158.724C169.911 158.852 169.788 158.949 169.655 159.009C169.522 159.069 169.382 159.091 169.242 159.074L165.587 158.621C165.347 158.591 165.122 158.447 164.953 158.214C164.784 157.98 164.681 157.673 164.663 157.346L162.523 119.738C162.518 119.65 162.488 119.568 162.44 119.508C162.392 119.448 162.329 119.416 162.263 119.418C162.198 119.42 162.136 119.455 162.09 119.517C162.044 119.579 162.016 119.663 162.014 119.752L160.944 158.22C160.934 158.579 160.823 158.919 160.633 159.168C160.443 159.417 160.189 159.556 159.926 159.556H156.005C155.746 159.556 155.496 159.421 155.307 159.179C155.118 158.937 155.004 158.605 154.988 158.253L152.244 97.0769L168.551 91.5232L171.099 97.424Z" fill="#2F2E41"/>
<path d="M159.271 40.8121C162.727 40.8121 165.529 36.9952 165.529 32.2868C165.529 27.5784 162.727 23.7615 159.271 23.7615C155.814 23.7615 153.012 27.5784 153.012 32.2868C153.012 36.9952 155.814 40.8121 159.271 40.8121Z" fill="#FFB8B8"/>
<path d="M151.685 99.2176C151.577 99.0749 151.49 98.9044 151.43 98.7158C151.371 98.5272 151.339 98.3243 151.337 98.119L150.915 57.0067C150.89 54.9154 151.352 52.8669 152.235 51.1555C153.117 49.4441 154.376 48.1579 155.828 47.4816C156.415 43.858 159.535 43.4041 161.355 43.4583C161.809 43.4717 162.254 43.6339 162.652 43.9314C163.05 44.2288 163.39 44.6527 163.642 45.1671L164.946 47.8318L167.82 50.1269C169.151 51.1846 170.2 52.7905 170.817 54.713C171.434 56.6355 171.586 58.7752 171.253 60.8236L170.81 63.5655C169.252 73.2704 169.4 83.3397 171.243 92.9517L172.133 97.5766C172.18 97.8175 172.183 98.07 172.143 98.313C172.104 98.5561 172.022 98.7826 171.905 98.9738C171.787 99.165 171.638 99.3152 171.47 99.412C171.302 99.5087 171.119 99.5493 170.936 99.5301L169.902 99.4216C169.634 99.3939 169.381 99.2382 169.188 98.9819C168.996 98.7256 168.876 98.385 168.849 98.02L168.678 95.6885C168.675 95.6457 168.66 95.606 168.637 95.5771C168.613 95.5483 168.583 95.5323 168.551 95.5323C168.52 95.5323 168.489 95.5483 168.466 95.5771C168.442 95.606 168.428 95.6457 168.424 95.6885L168.259 97.9458C168.231 98.3271 168.101 98.6811 167.894 98.9404C167.687 99.1998 167.417 99.3463 167.135 99.3522L152.502 99.6589C152.496 99.6589 152.489 99.6593 152.483 99.6593C152.185 99.6601 151.899 99.5015 151.685 99.2176Z" fill="#3F3D56"/>
<path d="M159.76 37.2008C159.786 38.4059 160.4 39.1031 161.154 39.7344C161.908 40.3656 162.79 40.6393 163.653 40.9034C163.769 40.9873 163.899 41.0291 164.031 41.0247C164.162 41.0203 164.29 40.9699 164.403 40.8783C164.516 40.7868 164.609 40.6571 164.675 40.5019C164.74 40.3467 164.775 40.1712 164.776 39.9924L165.568 35.8884C165.848 34.5775 166.052 33.2385 166.178 31.8838C166.368 29.2774 165.915 26.4735 164.58 24.5889C163.244 22.7044 160.928 22.0349 159.328 23.4869C157.428 20.1825 148.747 27.4832 150.889 29.781C151.27 30.1897 151.852 29.6725 152.335 29.6224C152.819 29.5722 153.361 29.6881 153.668 30.1993C154.069 30.8672 153.895 31.8621 154.06 32.6953C154.128 32.9885 154.239 33.2603 154.385 33.4951C154.531 33.7299 154.709 33.923 154.91 34.0633C155.111 34.2036 155.33 34.2883 155.556 34.3126C155.781 34.3369 156.007 34.3002 156.222 34.2047C156.622 33.9363 156.998 33.6069 157.343 33.2228C157.714 32.8863 158.182 32.6376 158.6 32.8499C159.15 33.1297 159.346 34.0475 159.396 34.8449C159.479 35.6402 159.601 36.4271 159.76 37.2008Z" fill="#2F2E41"/>
<path d="M206.121 168H109.04C108.972 168 108.907 167.963 108.86 167.898C108.812 167.833 108.785 167.745 108.785 167.653C108.785 167.561 108.812 167.472 108.86 167.407C108.907 167.342 108.972 167.306 109.04 167.306H206.121C206.189 167.306 206.254 167.342 206.301 167.407C206.349 167.472 206.376 167.561 206.376 167.653C206.376 167.745 206.349 167.833 206.301 167.898C206.254 167.963 206.189 168 206.121 168Z" fill="#3F3D56"/>
<path opacity="0.2" d="M158.299 60.0496L157.28 77.0578L151.929 94.7603L159.828 77.4049L158.299 60.0496Z" fill="black"/>
<path d="M150.677 101.353C150.969 101.033 151.207 100.63 151.372 100.173C151.537 99.7148 151.627 99.2131 151.635 98.703C151.643 98.1928 151.568 97.6865 151.417 97.2198C151.265 96.7531 151.04 96.3373 150.758 96.0017L154.167 84.5L149.529 85.7759L147.003 96.5025C146.621 97.1856 146.435 98.0361 146.483 98.8928C146.53 99.7496 146.806 100.553 147.259 101.151C147.712 101.749 148.31 102.099 148.94 102.137C149.57 102.174 150.188 101.895 150.677 101.353V101.353Z" fill="#FFB8B8"/>
<path d="M150.429 96.2799L147.804 94.9909C147.533 94.8561 147.31 94.5883 147.177 94.2401C147.044 93.892 147.012 93.4887 147.086 93.1098L151.417 71.513L152.078 51.9943C152.098 51.4051 152.203 50.8272 152.389 50.2942C152.574 49.7612 152.835 49.2837 153.157 48.8895C153.479 48.4952 153.856 48.1921 154.264 47.9978C154.673 47.8034 155.106 47.7217 155.538 47.7574C155.97 47.7931 156.393 47.9455 156.782 48.2057C157.17 48.4658 157.517 48.8287 157.802 49.273C158.086 49.7173 158.303 50.2343 158.44 50.794C158.577 51.3536 158.63 51.9446 158.598 52.5327L157.418 73.9053L151.9 95.3281C151.816 95.6518 151.657 95.929 151.446 96.1172C151.235 96.3053 150.985 96.3938 150.734 96.3693C150.63 96.3584 150.527 96.3284 150.429 96.2799Z" fill="#3F3D56"/>
<path d="M110.65 64.7355H35.227C35.1594 64.7355 35.0946 64.6989 35.0468 64.6338C34.999 64.5687 34.9722 64.4804 34.9722 64.3884C34.9722 64.2963 34.999 64.208 35.0468 64.1429C35.0946 64.0778 35.1594 64.0413 35.227 64.0413H110.65C110.717 64.0413 110.782 64.0778 110.83 64.1429C110.878 64.208 110.905 64.2963 110.905 64.3884C110.905 64.4804 110.878 64.5687 110.83 64.6338C110.782 64.6989 110.717 64.7355 110.65 64.7355Z" fill="#3F3D56"/>
</svg>
