<svg width="728" height="493" viewBox="0 0 728 493" fill="none" xmlns="http://www.w3.org/2000/svg">
<g clip-path="url(#clip0)">
<path d="M718.199 168.683C719.054 171.359 719.855 174.049 720.601 176.753H466.435V168.683H718.199Z" fill="#E6E6E6"/>
<path d="M710.098 147.41C706.006 138.145 701.234 129.083 695.808 120.27C694.139 117.552 692.406 114.862 690.608 112.199C690.313 111.742 689.997 111.285 689.682 110.828V170.886H711.645V150.984L710.098 147.41Z" fill="#E6E6E6"/>
<path d="M695.808 120.27H689.681V112.199H690.608C692.409 114.859 694.143 117.55 695.808 120.27Z" fill="#CCCCCC"/>
<path d="M710.098 147.41H689.681V155.48H711.645V150.984L710.098 147.41Z" fill="#CCCCCC"/>
<path d="M677.788 101.197H655.829V170.887H677.788V101.197Z" fill="#E6E6E6"/>
<path d="M677.788 112.201H655.829V120.27H677.788V112.201Z" fill="#CCCCCC"/>
<path d="M677.788 147.412H655.829V155.482H677.788V147.412Z" fill="#CCCCCC"/>
<path d="M577.646 100.792H498.872C497.658 100.793 496.494 101.181 495.635 101.869C494.777 102.557 494.294 103.49 494.292 104.464V167.622C494.293 167.981 494.358 168.338 494.485 168.683C494.771 169.437 495.351 170.098 496.141 170.568C496.931 171.039 497.888 171.293 498.872 171.294H577.646C578.63 171.293 579.587 171.039 580.377 170.568C581.167 170.098 581.747 169.437 582.033 168.683C582.16 168.338 582.225 167.981 582.226 167.622V104.464C582.224 103.49 581.741 102.557 580.883 101.869C580.024 101.181 578.86 100.793 577.646 100.792Z" fill="#E6E6E6"/>
<path d="M572.049 105.28H504.469C503.255 105.281 502.091 105.669 501.233 106.357C500.374 107.045 499.891 107.978 499.889 108.952V163.134C499.891 164.107 500.374 165.04 501.233 165.729C502.091 166.417 503.255 166.804 504.469 166.806H572.049C573.263 166.804 574.427 166.417 575.285 165.729C576.144 165.04 576.627 164.107 576.629 163.134V108.952C576.627 107.978 576.144 107.045 575.285 106.357C574.427 105.669 573.263 105.281 572.049 105.28Z" fill="white"/>
<path d="M560.263 114.729H516.255C515.041 114.73 513.877 115.118 513.019 115.806C512.16 116.494 511.677 117.428 511.675 118.401V153.685C511.677 154.658 512.16 155.591 513.019 156.279C513.877 156.968 515.041 157.355 516.255 157.357H560.263C561.476 157.352 562.637 156.963 563.495 156.276C564.352 155.588 564.837 154.657 564.843 153.685V118.401C564.841 117.428 564.358 116.494 563.5 115.806C562.641 115.118 561.477 114.73 560.263 114.729Z" fill="#CCCCCC"/>
<path d="M557.55 147.461L548.255 134.553C548.076 134.305 547.819 134.099 547.51 133.956C547.2 133.812 546.849 133.737 546.492 133.737C546.135 133.737 545.784 133.812 545.474 133.956C545.165 134.099 544.908 134.305 544.729 134.553L537.942 143.979L529.04 131.618C528.862 131.37 528.605 131.164 528.295 131.021C527.986 130.878 527.635 130.802 527.277 130.802C526.92 130.802 526.569 130.878 526.26 131.021C525.95 131.164 525.693 131.37 525.515 131.618L516.219 144.527L505.162 159.883H526.489L524.376 162.817H568.609L557.55 147.461Z" fill="white"/>
<path d="M554.269 127.606C557.806 127.606 560.674 125.307 560.674 122.471C560.674 119.635 557.806 117.336 554.269 117.336C550.732 117.336 547.864 119.635 547.864 122.471C547.864 125.307 550.732 127.606 554.269 127.606Z" fill="white"/>
<path d="M727.919 225.704C727.847 222.538 727.691 219.388 727.45 216.255C727.349 214.754 727.227 213.26 727.074 211.767H684.104C682.89 211.769 681.726 212.156 680.868 212.844C680.009 213.533 679.526 214.466 679.524 215.439V278.597C679.522 278.886 679.566 279.174 679.656 279.454C679.897 280.255 680.466 280.968 681.273 281.478C682.079 281.989 683.077 282.267 684.104 282.269H723.715C723.919 281.339 724.112 280.392 724.285 279.454C724.397 278.899 724.509 278.336 724.611 277.781C724.855 276.451 725.089 275.121 725.303 273.791C725.609 271.979 725.884 270.16 726.128 268.332C727.023 261.779 727.6 255.156 727.858 248.462V248.454C727.949 245.933 727.997 243.4 728 240.857V231.065C728 229.27 727.98 227.483 727.919 225.704Z" fill="#E6E6E6"/>
<path d="M727.919 225.704C727.847 222.538 727.691 219.389 727.45 216.255H689.702C688.488 216.257 687.324 216.644 686.465 217.332C685.607 218.021 685.124 218.954 685.122 219.927V274.109C685.124 275.083 685.607 276.016 686.465 276.704C687.324 277.392 688.488 277.78 689.702 277.781H724.611C724.855 276.451 725.089 275.121 725.303 273.791C725.609 271.979 725.883 270.16 726.127 268.332C727.023 261.78 727.6 255.156 727.858 248.462V248.454C727.949 245.933 727.997 243.401 728 240.857V231.065C728 229.27 727.98 227.483 727.919 225.704Z" fill="white"/>
<path d="M727.919 225.704H701.488C700.273 225.706 699.11 226.093 698.251 226.781C697.393 227.47 696.909 228.403 696.908 229.376V264.66C696.909 265.633 697.393 266.567 698.251 267.255C699.11 267.943 700.273 268.33 701.488 268.332H726.127C727.023 261.78 727.6 255.156 727.858 248.462V248.454C727.949 245.933 727.997 243.401 728 240.857V231.065C728 229.27 727.98 227.483 727.919 225.704Z" fill="#CCCCCC"/>
<path d="M727.858 248.463C727.604 255.154 727.027 261.777 726.128 268.332C725.884 270.16 725.609 271.98 725.303 273.791H709.609L711.726 270.862H690.394L696.908 261.812L701.447 255.505L710.749 242.596C710.926 242.346 711.183 242.139 711.492 241.995C711.801 241.851 712.152 241.775 712.51 241.775C712.868 241.775 713.219 241.851 713.528 241.995C713.837 242.139 714.094 242.346 714.271 242.596L723.176 254.958L727.858 248.463Z" fill="white"/>
<path d="M650.742 65.9895H466.435V57.9193H641.603C644.717 60.555 647.764 63.245 650.742 65.9895Z" fill="#E6E6E6"/>
<path d="M564.334 10.0205C571.845 13.3334 579.166 16.883 586.297 20.6692V60.1145H564.334V10.0205Z" fill="#E6E6E6"/>
<path d="M586.293 36.6431H564.334V44.7124H586.293V36.6431Z" fill="#CCCCCC"/>
<path d="M620.148 41.3955V60.1144H598.185V27.3032C603.304 30.298 608.308 33.4123 613.197 36.6464C615.537 38.1968 617.855 39.7798 620.148 41.3955Z" fill="#E6E6E6"/>
<path d="M620.148 41.3953V44.7083H598.185V36.6462H613.197C615.537 38.1966 617.855 39.7797 620.148 41.3953Z" fill="#CCCCCC"/>
<path d="M541.913 1.02816C547.724 3.12522 553.437 5.36105 559.052 7.73565L554.533 15.047L539.521 39.3718L535.053 46.6015L528.061 57.9194L526.524 60.4082L520.265 57.9194L506.851 52.5909L515.369 38.7843H515.38L519.838 31.5546L534.86 7.22972L539.277 0.0816045L539.328 0L541.913 1.02816Z" fill="#E6E6E6"/>
<path d="M559.001 7.80908L554.533 15.047L534.86 7.22972L539.277 0.0815996L539.328 0L541.913 1.02815L559.001 7.80908Z" fill="#CCCCCC"/>
<path d="M519.838 31.5568L515.372 38.7883L535.052 46.5998L539.517 39.3683L519.838 31.5568Z" fill="#CCCCCC"/>
<path d="M724.285 279.454C724.112 280.392 723.919 281.339 723.715 282.269C723.359 284.032 722.972 285.778 722.555 287.524H466.435V279.454H724.285Z" fill="#E6E6E6"/>
<path d="M586.293 211.967H564.334V281.656H586.293V211.967Z" fill="#E6E6E6"/>
<path d="M586.293 222.97H564.334V231.04H586.293V222.97Z" fill="#CCCCCC"/>
<path d="M586.293 258.182H564.334V266.251H586.293V258.182Z" fill="#CCCCCC"/>
<path d="M620.146 211.967H598.187V281.656H620.146V211.967Z" fill="#E6E6E6"/>
<path d="M620.146 222.97H598.187V231.04H620.146V222.97Z" fill="#CCCCCC"/>
<path d="M620.146 258.182H598.187V266.251H620.146V258.182Z" fill="#CCCCCC"/>
<path d="M545.413 211.679L506.847 274.133L526.527 281.944L565.093 219.49L545.413 211.679Z" fill="#E6E6E6"/>
<path d="M539.324 221.54L534.859 228.771L554.538 236.583L559.003 229.351L539.324 221.54Z" fill="#CCCCCC"/>
<path d="M519.838 253.096L515.372 260.327L535.052 268.139L539.517 260.907L519.838 253.096Z" fill="#CCCCCC"/>
<path d="M297.998 310.553C298.916 310.977 299.791 311.457 300.614 311.991L391.224 289.383L396.334 271.359L431.268 273.986L426.091 306.599C425.672 309.233 424.199 311.688 421.893 313.595C419.586 315.501 416.571 316.756 413.299 317.171L306.665 330.707C305.109 333.73 302.443 336.302 299.019 338.08C295.596 339.858 291.579 340.759 287.502 340.662C283.425 340.565 279.481 339.475 276.195 337.537C272.91 335.6 270.438 332.906 269.108 329.814C267.779 326.722 267.655 323.379 268.753 320.23C269.851 317.08 272.119 314.273 275.255 312.182C278.391 310.091 282.247 308.816 286.31 308.525C290.372 308.234 294.449 308.941 297.998 310.553Z" fill="#FFB8B8"/>
<path d="M447.414 284.799L446.813 276.574V276.565L446.65 274.313L444.88 250.094C445.409 245.046 443.422 240.034 439.354 236.157C435.285 232.28 429.466 229.854 423.171 229.409C421.36 229.279 419.536 229.317 417.736 229.523C412.389 230.129 407.453 232.166 403.731 235.303C400.008 238.44 397.717 242.494 397.228 246.806L393.554 259.062L387.132 280.498C386.677 281.998 386.865 283.577 387.667 284.981C388.468 286.384 389.836 287.53 391.549 288.234C392.538 288.651 393.621 288.907 394.734 288.985L405.441 289.752L415.751 290.486L427.649 291.335L428.504 291.392L430.702 291.555L438.06 292.077H438.081C439.31 292.157 440.546 292.026 441.707 291.694C442.869 291.362 443.929 290.837 444.818 290.152C445.466 289.646 446.012 289.062 446.437 288.422C447.179 287.311 447.517 286.056 447.414 284.799V284.799Z" fill="#6C63FF"/>
<path d="M546.844 185.062C546.844 212.989 514.636 208.765 474.904 208.765C435.172 208.765 402.964 212.989 402.964 185.062C402.964 157.134 418.697 107.63 474.904 107.63C533.048 107.63 546.844 157.134 546.844 185.062Z" fill="#2F2E41"/>
<path d="M508.894 197.351C527.799 182.194 527.799 157.619 508.894 142.462C489.989 127.305 459.338 127.305 440.433 142.462C421.528 157.619 421.528 182.194 440.433 197.351C459.338 212.508 489.989 212.508 508.894 197.351Z" fill="#FFB8B8"/>
<path d="M542.808 225.035C541.876 224.315 540.887 223.645 539.847 223.028C533.265 219.041 524.994 217.286 516.815 218.14L427.608 227.189C419.437 228.003 411.982 231.336 406.824 236.481C401.665 241.627 399.209 248.181 399.976 254.754C400.23 257.038 400.516 259.446 400.831 261.951C401.238 265.092 401.696 268.389 402.225 271.8C403.1 277.536 404.169 283.591 405.441 289.752C406.551 295.056 407.813 300.433 409.258 305.745C409.675 307.279 410.11 308.808 410.561 310.331C410.56 310.336 410.56 310.34 410.562 310.344C410.564 310.349 410.567 310.352 410.571 310.356C410.622 310.543 410.672 310.731 410.734 310.911C410.731 310.925 410.734 310.939 410.744 310.951C411.375 313.073 412.037 315.17 412.729 317.243C412.993 318.01 413.248 318.769 413.512 319.519C414.225 321.559 414.978 323.558 415.751 325.525C421.563 340.156 429.247 352.616 439.394 359.242C439.526 359.34 439.659 359.421 439.801 359.511L440.208 359.764L440.798 359.617L443.302 359.022L445.439 358.499L473.286 351.784L480.216 350.111L502.485 344.733H502.495L522.861 339.821L525.344 339.217L542.839 334.999L543.399 329.76L544.152 322.808L544.6 318.63L548.142 285.68L550.208 266.455L552.447 245.582C552.863 241.797 552.213 237.985 550.544 234.429C548.876 230.873 546.232 227.662 542.808 225.035Z" fill="#2F2E41"/>
<path d="M592.689 384.473C592.455 383.926 592.231 383.379 591.997 382.841C581.534 358.361 566.105 339.846 543.399 329.76C543.389 329.76 543.389 329.752 543.378 329.752L542.992 329.581L523.206 335.072L520.764 335.749L518.22 336.459L518.189 336.468L499.666 341.608L499.635 341.617L485.102 345.648H485.091L471.646 349.377H471.637L468.512 350.25L445.012 356.77L442.284 357.528L439.841 358.206L439.465 358.312L439.394 359.242L437.715 382.841L437.603 384.473L435.506 413.922L365.881 493H413.512C429.472 493.003 445.409 492.029 461.184 490.087L505.874 451.474C506.248 451.163 506.722 450.94 507.243 450.829C507.764 450.718 508.313 450.724 508.83 450.844C509.348 450.965 509.814 451.197 510.179 451.515C510.544 451.834 510.794 452.225 510.902 452.649L517.466 478.761C549.807 469.592 580.06 456.246 607.029 439.25C603.894 418.973 599.314 400.491 592.689 384.473Z" fill="#2F2E41"/>
<path d="M418.731 166.099H437.878L446.325 147.136L448.014 166.099H457.165L462.093 155.037L463.078 166.099H531.077C531.077 160.703 529.751 155.361 527.176 150.376C524.601 145.391 520.826 140.862 516.067 137.047C511.309 133.231 505.659 130.205 499.442 128.14C493.225 126.075 486.561 125.013 479.831 125.013H469.976C456.385 125.013 443.351 129.341 433.741 137.047C424.13 144.752 418.731 155.202 418.731 166.099Z" fill="#2F2E41"/>
<path d="M300.961 371.733C297.835 372.786 294.46 373.276 291.072 373.17C287.684 373.064 284.366 372.364 281.352 371.118C278.338 369.873 275.702 368.113 273.628 365.962C271.554 363.811 270.094 361.322 269.35 358.67L187.456 351.234L214.908 324.877L288.468 335.979C294.108 335.272 299.875 336.249 304.677 338.724C309.479 341.199 312.982 345 314.522 349.407C316.062 353.814 315.532 358.521 313.033 362.636C310.533 366.75 306.238 369.987 300.961 371.733L300.961 371.733Z" fill="#A0616A"/>
<path d="M256.808 322.947L222.193 317.985L219.68 317.626C217.671 317.339 215.761 316.713 214.075 315.792C212.389 314.87 210.965 313.673 209.897 312.279C208.829 310.885 208.141 309.325 207.878 307.703C207.616 306.08 207.784 304.431 208.373 302.865L225.369 257.585L225.878 256.239C228 250.484 227.622 244.321 224.806 238.761C221.99 233.2 216.903 228.571 210.377 225.631C205.96 223.664 201.037 222.541 195.99 222.349C190.943 222.156 185.909 222.9 181.279 224.521C176.649 226.143 172.548 228.599 169.295 231.698C166.042 234.798 163.724 238.457 162.522 242.391L140.844 313.326L140.04 315.953C138.526 320.903 138.361 326.056 139.556 331.062C140.751 336.067 143.278 340.807 146.966 344.958C150.653 349.109 155.413 352.574 160.922 355.117C166.431 357.659 172.559 359.219 178.888 359.691C178.959 359.699 179.02 359.699 179.092 359.707L192.068 360.629L208.901 361.829L230.071 363.338L249.826 364.75C252.413 364.938 254.995 364.339 257.057 363.073C259.12 361.806 260.513 359.964 260.96 357.912C260.991 357.798 261.011 357.683 261.031 357.569L265.225 332.469L265.265 332.241C265.627 330.116 264.948 327.961 263.371 326.228C261.795 324.495 259.442 323.319 256.808 322.947Z" fill="#CCCCCC"/>
<path d="M203.479 132.764C189.661 154.545 178.771 177.01 148.292 177.01C133.655 177.01 119.618 172.349 109.268 164.051C98.9187 155.753 93.1044 144.499 93.1044 132.764C93.1044 108.327 117.815 88.823 148.292 88.5171C179.267 88.2061 229.198 92.2222 203.479 132.764Z" fill="#2F2E41"/>
<path d="M238.142 417.708L236.89 407.688L235.953 407.728L71.3918 414.085L71.8192 424.228L72.5422 441.6C98.0057 457.152 126.283 469.493 156.395 478.198L157.464 471.556C157.557 471.014 157.881 470.516 158.381 470.144C158.88 469.772 159.525 469.55 160.205 469.515C160.885 469.481 161.559 469.636 162.113 469.954C162.667 470.272 163.067 470.734 163.245 471.262L166.491 480.964C192.723 487.746 219.963 491.701 247.495 492.723L238.142 417.708Z" fill="#2F2E41"/>
<path d="M185.238 166.504C204.143 151.347 204.143 126.773 185.238 111.615C166.333 96.4583 135.682 96.4583 116.777 111.615C97.8721 126.773 97.8721 151.347 116.777 166.504C135.682 181.661 166.333 181.661 185.238 166.504Z" fill="#A0616A"/>
<path d="M247.597 408.365L237.999 384.473L237.836 384.065L237.348 382.841L234.61 376.035C233.725 373.824 232.88 371.604 232.096 369.377C231.374 367.369 230.698 365.357 230.071 363.338C229.175 360.531 228.361 357.713 227.628 354.885C225.145 345.379 223.489 335.746 222.672 326.055C222.448 323.371 222.288 320.681 222.193 317.985C221.597 301.463 223.452 284.943 227.72 268.773C231.435 254.789 229.451 240.218 222.059 227.207C214.668 214.196 202.26 203.432 186.664 196.5C176.429 191.965 165.102 189.241 153.444 188.511C152.64 188.462 151.836 188.422 151.022 188.381C138.707 187.757 126.374 189.358 114.935 193.067C103.495 196.776 93.2408 202.497 84.9282 209.809C80.4759 213.697 76.609 217.992 73.4068 222.604C64.5223 235.438 61.187 250.269 63.9215 264.782L75.3609 326.366L72.7558 352.29L69.6822 382.841L69.5192 384.473L66.2418 417.047C66.0866 418.566 66.5451 420.084 67.5496 421.377C68.554 422.67 70.051 423.67 71.8191 424.228C72.8547 424.56 73.9606 424.73 75.0762 424.726C75.2392 424.726 75.3917 424.726 75.5547 424.718L238.142 417.708L239.628 417.643C240.984 417.586 242.306 417.281 243.491 416.749C244.677 416.218 245.694 415.475 246.464 414.578C247.234 413.682 247.737 412.655 247.933 411.577C248.13 410.5 248.015 409.401 247.597 408.365L247.597 408.365Z" fill="#CCCCCC"/>
<path d="M202.377 117.125C191.315 123.238 178.185 126.491 164.75 126.448C169.542 129.113 174.998 130.912 180.742 131.723C162.879 134.795 144.417 134.878 126.512 131.968C122.532 131.456 118.692 130.398 115.16 128.841C111.722 127.168 108.846 124.504 108.153 121.328C106.963 115.878 112.259 110.927 117.763 107.591C126.19 102.56 135.907 99.094 146.209 97.4433C156.512 95.7927 167.144 95.9988 177.335 98.0466C183.989 99.4257 190.656 101.756 194.978 106.041C199.3 110.325 200.581 116.931 196.463 121.343L202.377 117.125Z" fill="#2F2E41"/>
<path d="M204.852 363.659C201.755 364.766 198.394 365.315 195.003 365.267C191.613 365.22 188.277 364.577 185.231 363.385C182.184 362.192 179.501 360.478 177.369 358.364C175.238 356.249 173.711 353.786 172.896 351.147L90.8193 345.135L117.553 318.307L191.396 328.13C197.015 327.326 202.808 328.202 207.675 330.593C212.543 332.984 216.148 336.723 217.807 341.102C219.465 345.482 219.063 350.197 216.675 354.354C214.287 358.511 210.081 361.822 204.852 363.659L204.852 363.659Z" fill="#A0616A"/>
<path d="M159.398 315.651L140.844 313.326L122.127 310.976C120.111 310.723 118.185 310.132 116.475 309.24C114.764 308.348 113.309 307.176 112.203 305.802C111.098 304.427 110.368 302.88 110.061 301.263C109.754 299.646 109.878 297.995 110.423 296.418L126.666 249.499C128.632 243.708 128.087 237.554 125.122 232.044C122.156 226.534 116.945 221.994 110.342 219.168C105.881 217.26 100.927 216.211 95.8727 216.105C90.8185 215.999 85.803 216.838 81.2236 218.556C76.6301 220.247 72.5891 222.77 69.4189 225.926C66.2487 229.083 64.0358 232.786 62.9546 236.745L42.4672 310.682C41.087 315.669 41.0671 320.837 42.4087 325.831C43.7502 330.826 46.4217 335.528 50.2402 339.618C54.0587 343.708 58.9342 347.088 64.533 349.527C70.1317 351.966 76.3216 353.407 82.6791 353.75L153.546 357.561C156.137 357.703 158.7 357.059 160.728 355.758C162.756 354.457 164.101 352.593 164.496 350.535C164.527 350.421 164.537 350.307 164.558 350.193L168.069 325.027L168.099 324.799C168.402 322.668 167.665 320.527 166.044 318.822C164.422 317.117 162.04 315.981 159.398 315.651Z" fill="#CCCCCC"/>
<path d="M473.353 276.647L469.106 278.505L416.782 301.394L412.534 303.252C410.474 304.156 408.944 305.679 408.282 307.485C407.619 309.292 407.878 311.236 409 312.89L447.965 370.147C449.093 371.799 450.992 373.026 453.245 373.557C455.499 374.088 457.924 373.881 459.987 372.981L459.998 372.976L520.795 346.38L520.806 346.375C522.867 345.471 524.396 343.949 525.059 342.142C525.721 340.335 525.463 338.391 524.34 336.737L485.375 279.48C484.247 277.828 482.349 276.602 480.095 276.07C477.841 275.539 475.417 275.746 473.353 276.647Z" fill="#E6E6E6"/>
<path d="M474.575 278.442L469.545 280.642L418.786 302.847L413.756 305.047C412.289 305.691 411.199 306.775 410.728 308.062C410.256 309.349 410.44 310.733 411.24 311.911L450.204 369.168C451.007 370.344 452.36 371.217 453.964 371.596C455.569 371.974 457.296 371.826 458.765 371.185L458.776 371.181L519.573 344.585L519.584 344.58C521.052 343.936 522.141 342.852 522.613 341.565C523.084 340.278 522.9 338.894 522.101 337.716L483.136 280.46C482.333 279.283 480.981 278.41 479.376 278.031C477.771 277.653 476.044 277.801 474.575 278.442Z" fill="white"/>
<path d="M476.003 294.607C475.814 294.332 475.497 294.128 475.122 294.04C474.746 293.951 474.342 293.985 473.998 294.134L471.973 295.023L451.322 304.056C450.98 304.208 450.727 304.461 450.618 304.762C450.509 305.062 450.552 305.385 450.739 305.66C450.926 305.935 451.241 306.14 451.615 306.229C451.989 306.318 452.393 306.285 452.736 306.137L475.412 296.214C475.755 296.063 476.009 295.809 476.12 295.508C476.23 295.207 476.188 294.883 476.003 294.607Z" fill="#E6E6E6"/>
<path d="M483.728 295.774C483.635 295.638 483.511 295.518 483.36 295.42C483.21 295.323 483.037 295.251 482.851 295.207C482.666 295.164 482.471 295.151 482.279 295.168C482.087 295.186 481.902 295.233 481.733 295.309L453.713 307.565C453.544 307.639 453.394 307.74 453.273 307.861C453.151 307.982 453.061 308.121 453.007 308.27C452.952 308.418 452.935 308.574 452.956 308.729C452.977 308.883 453.035 309.032 453.128 309.168C453.221 309.305 453.347 309.425 453.497 309.522C453.648 309.619 453.821 309.692 454.007 309.735C454.193 309.779 454.387 309.792 454.58 309.776C454.772 309.759 454.959 309.712 455.128 309.638L456.431 309.066L464.583 305.501H464.594L483.137 297.381C483.309 297.308 483.46 297.208 483.583 297.087C483.706 296.966 483.798 296.827 483.853 296.677C483.908 296.527 483.925 296.37 483.903 296.215C483.882 296.06 483.822 295.91 483.728 295.774Z" fill="#E6E6E6"/>
<path d="M453.276 315.309L444.381 302.228C444.288 302.097 444.135 302 443.954 301.959C443.773 301.918 443.579 301.935 443.414 302.008L439.099 303.893L436.86 304.872L424.84 310.127L422.509 311.147C422.345 311.221 422.225 311.344 422.173 311.49C422.122 311.635 422.144 311.79 422.235 311.922L422.804 312.763L431.129 325.003C431.22 325.134 431.372 325.23 431.551 325.271C431.73 325.313 431.923 325.295 432.086 325.223L446.437 318.948L448.676 317.969L452.991 316.084C453.073 316.048 453.146 316 453.206 315.942C453.265 315.883 453.309 315.816 453.335 315.744C453.362 315.672 453.37 315.596 453.36 315.522C453.35 315.447 453.321 315.375 453.276 315.309Z" fill="#E6E6E6"/>
<path d="M487.249 311.204C487.062 310.93 486.747 310.726 486.373 310.637C486 310.548 485.597 310.582 485.254 310.731L454.497 324.187C454.226 324.306 454.008 324.491 453.874 324.715C453.741 324.939 453.699 325.191 453.754 325.435C453.776 325.562 453.828 325.684 453.907 325.794C453.985 325.907 454.085 326.009 454.202 326.096L454.212 326.104C454.44 326.269 454.726 326.372 455.03 326.402C455.334 326.431 455.642 326.384 455.912 326.268L486.669 312.812C486.839 312.737 486.989 312.636 487.11 312.515C487.231 312.393 487.321 312.254 487.375 312.105C487.429 311.955 487.446 311.799 487.424 311.644C487.402 311.49 487.343 311.34 487.249 311.204Z" fill="#E6E6E6"/>
<path d="M494.984 312.371C494.89 312.235 494.764 312.115 494.613 312.018C494.462 311.921 494.288 311.849 494.102 311.806C493.915 311.762 493.72 311.749 493.528 311.766C493.335 311.784 493.149 311.831 492.979 311.906L456.879 327.696C456.608 327.811 456.389 327.992 456.255 328.214C456.122 328.436 456.08 328.686 456.136 328.928V328.936C456.158 329.062 456.209 329.184 456.289 329.295C456.367 329.412 456.47 329.517 456.594 329.605C456.819 329.773 457.105 329.879 457.41 329.908C457.716 329.938 458.025 329.889 458.293 329.768L494.394 313.979C494.737 313.828 494.992 313.574 495.102 313.273C495.213 312.972 495.17 312.647 494.984 312.371Z" fill="#E6E6E6"/>
<path d="M444.196 337.284C447.653 337.284 450.455 335.037 450.455 332.266C450.455 329.494 447.653 327.247 444.196 327.247C440.738 327.247 437.936 329.494 437.936 332.266C437.936 335.037 440.738 337.284 444.196 337.284Z" fill="#E6E6E6"/>
<path d="M491.673 254.615L487.426 256.473L435.101 279.362L430.854 281.22C428.793 282.124 427.264 283.647 426.601 285.454C425.939 287.26 426.197 289.204 427.32 290.859L466.285 348.115C467.413 349.767 469.311 350.994 471.565 351.525C473.819 352.056 476.243 351.849 478.307 350.949L478.318 350.944L539.114 324.348L539.125 324.343C541.186 323.439 542.716 321.917 543.378 320.11C544.041 318.303 543.782 316.359 542.66 314.705L503.695 257.448C502.567 255.796 500.668 254.57 498.415 254.039C496.161 253.507 493.736 253.715 491.673 254.615Z" fill="#CCCCCC"/>
<path d="M492.895 256.41L487.864 258.61L437.106 280.815L432.076 283.016C430.608 283.659 429.519 284.743 429.047 286.03C428.576 287.317 428.76 288.701 429.559 289.879L468.524 347.136C469.327 348.312 470.679 349.186 472.284 349.564C473.889 349.942 475.616 349.795 477.085 349.154L477.096 349.149L537.893 322.553L537.904 322.548C539.371 321.904 540.461 320.82 540.932 319.533C541.404 318.247 541.22 316.862 540.421 315.684L501.455 258.428C500.653 257.251 499.3 256.378 497.696 256C496.091 255.621 494.364 255.769 492.895 256.41Z" fill="white"/>
<path d="M494.323 272.575C494.133 272.3 493.817 272.096 493.441 272.008C493.066 271.919 492.662 271.953 492.317 272.102L481.875 276.671L478.964 277.944L469.642 282.024C469.3 282.176 469.047 282.429 468.938 282.73C468.828 283.031 468.872 283.354 469.059 283.628C469.246 283.903 469.561 284.108 469.935 284.197C470.309 284.286 470.712 284.253 471.056 284.105L482.048 279.299L484.348 278.287L493.732 274.183C494.075 274.031 494.329 273.777 494.44 273.476C494.55 273.175 494.508 272.851 494.323 272.575Z" fill="#CCCCCC"/>
<path d="M502.047 273.742C501.955 273.606 501.83 273.486 501.68 273.388C501.529 273.291 501.356 273.219 501.171 273.176C500.985 273.132 500.791 273.119 500.599 273.136C500.407 273.154 500.221 273.202 500.052 273.277L485.488 279.65L483.249 280.629L472.033 285.533C471.863 285.608 471.714 285.708 471.592 285.829C471.471 285.95 471.381 286.089 471.326 286.238C471.272 286.387 471.255 286.543 471.276 286.697C471.297 286.851 471.355 287.001 471.448 287.137C471.541 287.273 471.666 287.393 471.817 287.49C471.968 287.587 472.141 287.66 472.327 287.703C472.513 287.747 472.707 287.761 472.899 287.744C473.092 287.727 473.278 287.68 473.448 287.606L484.664 282.702L486.903 281.722L501.457 275.35C501.628 275.276 501.78 275.176 501.903 275.055C502.026 274.934 502.117 274.795 502.172 274.645C502.227 274.495 502.245 274.338 502.223 274.183C502.202 274.028 502.142 273.878 502.047 273.742Z" fill="#CCCCCC"/>
<path d="M471.596 293.277L464.502 282.849L463.281 281.053L462.7 280.197C462.608 280.065 462.455 279.968 462.274 279.927C462.093 279.886 461.899 279.904 461.734 279.976L447.333 286.276L440.829 289.115C440.665 289.19 440.544 289.313 440.493 289.458C440.441 289.603 440.463 289.758 440.554 289.891L441.134 290.739L441.765 291.678L442.356 292.534V292.543L449.449 302.971C449.54 303.102 449.691 303.198 449.871 303.24C450.05 303.281 450.242 303.263 450.406 303.191L471.311 294.052C471.393 294.017 471.466 293.968 471.525 293.91C471.584 293.852 471.628 293.784 471.655 293.712C471.681 293.64 471.69 293.565 471.68 293.49C471.67 293.415 471.641 293.343 471.596 293.277Z" fill="#6C63FF"/>
<path d="M505.569 289.173C505.382 288.898 505.067 288.694 504.693 288.605C504.319 288.517 503.917 288.55 503.574 288.699L494.383 292.722L492.144 293.701L483.269 297.577L472.817 302.155C472.646 302.23 472.496 302.33 472.374 302.451C472.252 302.572 472.161 302.712 472.106 302.861C472.052 303.01 472.034 303.167 472.055 303.321C472.075 303.476 472.134 303.626 472.227 303.763C472.319 303.899 472.445 304.02 472.596 304.118C472.747 304.215 472.921 304.288 473.107 304.332C473.293 304.376 473.488 304.39 473.681 304.374C473.874 304.357 474.061 304.31 474.232 304.236L493.559 295.782L495.798 294.803L504.989 290.78C505.159 290.705 505.308 290.604 505.43 290.483C505.551 290.362 505.641 290.222 505.695 290.073C505.749 289.923 505.765 289.767 505.744 289.613C505.722 289.458 505.663 289.309 505.569 289.173Z" fill="#CCCCCC"/>
<path d="M513.304 290.339C513.21 290.203 513.084 290.083 512.933 289.986C512.781 289.889 512.608 289.817 512.421 289.774C512.235 289.73 512.04 289.717 511.847 289.734C511.655 289.752 511.468 289.799 511.299 289.874L496.775 296.231L494.536 297.21L475.199 305.664C475.028 305.738 474.877 305.838 474.755 305.959C474.633 306.08 474.542 306.219 474.487 306.368C474.432 306.517 474.414 306.674 474.435 306.829C474.456 306.983 474.514 307.133 474.607 307.27C474.701 307.406 474.826 307.527 474.978 307.624C475.129 307.721 475.303 307.794 475.489 307.837C475.676 307.881 475.871 307.894 476.064 307.877C476.257 307.859 476.443 307.812 476.613 307.736L495.941 299.283L498.18 298.303L512.713 291.947C513.057 291.796 513.311 291.542 513.422 291.241C513.533 290.94 513.49 290.615 513.304 290.339Z" fill="#CCCCCC"/>
<path d="M462.515 315.252C465.972 315.252 468.775 313.006 468.775 310.234C468.775 307.462 465.972 305.215 462.515 305.215C459.058 305.215 456.256 307.462 456.256 310.234C456.256 313.006 459.058 315.252 462.515 315.252Z" fill="#CCCCCC"/>
<path d="M466.72 338.449C467.774 338.532 468.818 338.682 469.842 338.897L540.831 288.406L536.241 270.293L569.431 261.166L581.444 292.598C582.415 295.138 582.331 297.861 581.207 300.359C580.083 302.858 577.978 304.996 575.209 306.454L484.96 353.96C485.093 357.229 483.982 360.452 481.774 363.202C479.567 365.952 476.367 368.098 472.601 369.354C468.835 370.611 464.682 370.918 460.692 370.235C456.703 369.553 453.068 367.913 450.27 365.533C447.472 363.154 445.644 360.148 445.028 356.915C444.413 353.682 445.04 350.375 446.826 347.435C448.612 344.495 451.472 342.06 455.026 340.455C458.579 338.85 462.658 338.15 466.72 338.449Z" fill="#FFB8B8"/>
<path d="M589.697 265.688L569.586 234.892C567.516 230.209 563.257 226.353 557.708 224.139C552.16 221.925 545.755 221.527 539.847 223.028C539.623 223.077 539.409 223.134 539.186 223.199C533.198 224.877 528.286 228.391 525.527 232.97C522.767 237.549 522.387 242.818 524.468 247.622L532.539 281.657C532.77 282.631 533.261 283.554 533.978 284.363C534.694 285.171 535.62 285.846 536.692 286.341C537.863 286.89 539.183 287.204 540.539 287.255C541.654 287.312 542.772 287.187 543.826 286.888L548.142 285.68L575.845 277.944L584.903 275.415C586.071 275.087 587.138 274.562 588.03 273.874C588.923 273.187 589.62 272.353 590.075 271.43C590.529 270.508 590.731 269.517 590.666 268.526C590.601 267.535 590.27 266.567 589.697 265.688Z" fill="#6C63FF"/>
<path d="M665.615 384.473H1.01776C0.747834 384.473 0.488962 384.387 0.298094 384.234C0.107227 384.081 0 383.873 0 383.657C0 383.44 0.107227 383.233 0.298094 383.08C0.488962 382.927 0.747834 382.841 1.01776 382.841H665.615C665.885 382.841 666.144 382.927 666.335 383.08C666.526 383.233 666.633 383.44 666.633 383.657C666.633 383.873 666.526 384.081 666.335 384.234C666.144 384.387 665.885 384.473 665.615 384.473Z" fill="#3F3D56"/>
<path d="M115.512 369.377V369.785C115.515 372.551 116.52 375.257 118.405 377.575C120.289 379.892 122.972 381.722 126.127 382.841C128.391 383.652 130.843 384.069 133.323 384.065H297.691V369.377H115.512Z" fill="#3F3D56"/>
<path d="M412.453 272.575C409.845 268.258 405.829 264.587 400.831 261.951C398.565 260.748 396.12 259.778 393.554 259.062C390.057 258.083 386.378 257.584 382.674 257.585H224.921C216.152 257.593 207.744 260.39 201.543 265.362C195.342 270.333 191.854 277.074 191.844 284.105V357.545C191.841 358.576 191.916 359.606 192.068 360.629C192.291 362.16 192.68 363.673 193.228 365.15C193.772 366.605 194.473 368.019 195.325 369.377C198.064 373.791 202.286 377.504 207.515 380.099C212.744 382.694 218.772 384.067 224.921 384.065H382.674C387.018 384.066 391.32 383.381 395.334 382.049C399.348 380.716 402.995 378.763 406.067 376.3C409.139 373.837 411.575 370.913 413.237 367.695C414.898 364.477 415.753 361.028 415.751 357.545V284.105C415.759 280.111 414.631 276.168 412.453 272.575Z" fill="#3F3D56"/>
<path d="M312.448 327.353C316.945 327.353 320.591 324.43 320.591 320.825C320.591 317.22 316.945 314.297 312.448 314.297C307.952 314.297 304.306 317.22 304.306 320.825C304.306 324.43 307.952 327.353 312.448 327.353Z" fill="white"/>
</g>
<defs>
<clipPath id="clip0">
<rect width="728" height="493" fill="white"/>
</clipPath>
</defs>
</svg>
