<svg width="728" height="680" viewBox="0 0 728 680" fill="none" xmlns="http://www.w3.org/2000/svg">
<g clip-path="url(#clip0)">
<path d="M554.743 161.594H551.007V59.24C551.007 43.5286 544.767 28.4607 533.658 17.351C522.55 6.24134 507.484 0 491.774 0H274.952C259.243 0 244.176 6.24134 233.068 17.351C221.96 28.4607 215.719 43.5286 215.719 59.24V620.761C215.719 636.472 221.96 651.54 233.068 662.65C244.176 673.76 259.243 680.001 274.952 680.001H491.778C507.488 680.001 522.554 673.76 533.662 662.65C544.771 651.54 551.011 636.472 551.011 620.761V234.451H554.743V161.594Z" fill="#3F3D56"/>
<path d="M538.935 55.2761V624.728C538.933 636.64 534.201 648.064 525.78 656.488C517.359 664.912 505.937 669.647 494.027 669.651H272.746C260.83 669.652 249.402 664.919 240.975 656.494C232.548 648.068 227.812 636.64 227.81 624.723V55.2761C227.813 43.3599 232.55 31.9331 240.976 23.5088C249.403 15.0846 260.831 10.3528 272.746 10.3541H299.588C298.27 13.5957 297.768 17.1114 298.127 20.5923C298.486 24.0732 299.694 27.4126 301.646 30.317C303.597 33.2215 306.232 35.602 309.319 37.2495C312.406 38.8969 315.85 39.7607 319.349 39.7651H445.503C449.002 39.7604 452.447 38.896 455.533 37.2481C458.62 35.6002 461.255 33.2192 463.206 30.3143C465.158 27.4094 466.365 24.0696 466.724 20.5885C467.082 17.1074 466.58 13.5916 465.261 10.3501H494.014C505.924 10.3522 517.346 15.0845 525.769 23.5066C534.192 31.9287 538.926 43.3513 538.931 55.2631L538.935 55.2761Z" fill="#E6E6E6"/>
<path d="M515.357 639.926H251.387C249.134 639.923 246.973 639.027 245.38 637.433C243.787 635.84 242.89 633.679 242.888 631.426V76.4258C242.89 74.1722 243.787 72.0117 245.38 70.4182C246.973 68.8246 249.134 67.9283 251.387 67.9258H515.357C517.611 67.9283 519.771 68.8246 521.364 70.4182C522.958 72.0117 523.854 74.1722 523.856 76.4258V631.426C523.854 633.679 522.958 635.84 521.364 637.433C519.771 639.027 517.611 639.923 515.357 639.926Z" fill="white"/>
<path d="M382.372 255.307C422.539 255.307 455.1 222.742 455.1 182.571C455.1 142.4 422.539 109.835 382.372 109.835C342.206 109.835 309.644 142.4 309.644 182.571C309.644 222.742 342.206 255.307 382.372 255.307Z" fill="#E6E6E6"/>
<path d="M381.372 245.46C416.101 245.46 444.254 217.303 444.254 182.571C444.254 147.838 416.101 119.682 381.372 119.682C346.644 119.682 318.49 147.838 318.49 182.571C318.49 217.303 346.644 245.46 381.372 245.46Z" fill="white"/>
<path d="M382.772 146.901C375.681 146.901 368.75 149.004 362.854 152.943C356.958 156.883 352.363 162.483 349.649 169.035C346.936 175.587 346.226 182.796 347.609 189.752C348.993 196.707 352.407 203.096 357.421 208.111C362.435 213.125 368.823 216.54 375.778 217.924C382.732 219.307 389.941 218.597 396.492 215.883C403.043 213.169 408.643 208.574 412.582 202.677C416.522 196.781 418.624 189.848 418.624 182.757C418.624 173.247 414.847 164.127 408.123 157.403C401.4 150.678 392.281 146.901 382.772 146.901ZM382.772 157.658C384.9 157.658 386.979 158.289 388.748 159.471C390.517 160.653 391.895 162.333 392.709 164.298C393.523 166.264 393.736 168.427 393.321 170.513C392.906 172.6 391.882 174.517 390.378 176.021C388.874 177.525 386.957 178.55 384.871 178.965C382.784 179.38 380.622 179.167 378.656 178.353C376.691 177.539 375.011 176.16 373.829 174.391C372.647 172.622 372.016 170.542 372.016 168.415C372.016 167.002 372.295 165.603 372.835 164.298C373.376 162.993 374.168 161.807 375.167 160.808C376.166 159.809 377.351 159.017 378.656 158.476C379.961 157.936 381.36 157.658 382.772 157.658ZM382.772 209.442C378.523 209.422 374.343 208.366 370.595 206.366C366.846 204.365 363.642 201.48 361.261 197.961C361.433 190.79 375.601 186.842 382.772 186.842C389.943 186.842 404.111 190.79 404.284 197.961C401.9 201.478 398.696 204.362 394.948 206.363C391.2 208.363 387.021 209.421 382.772 209.445V209.442Z" fill="#6C63FF"/>
<path d="M442.394 279.75H316.57V289.208H442.394V279.75Z" fill="#E6E6E6"/>
<path d="M458.085 304.327H299.735V313.785H458.085V304.327Z" fill="#E6E6E6"/>
<path d="M494.907 374.923H271.838V598.017H494.907V374.923Z" fill="#E6E6E6"/>
<path d="M489.015 379.643H275.384V593.298H489.015V379.643Z" fill="white"/>
<path d="M402.538 400.267H319.379V406.518H402.538V400.267Z" fill="#E6E6E6"/>
<path d="M447.794 418.619H319.379V424.87H447.794V418.619Z" fill="#6C63FF"/>
<path d="M425.37 436.096H320.714V442.347H425.37V436.096Z" fill="#E6E6E6"/>
<path d="M380.475 455.272H319.379V461.523H380.475V455.272Z" fill="#E6E6E6"/>
<path d="M411.589 474.003H319.379V480.254H411.589V474.003Z" fill="#6C63FF"/>
<path d="M402.538 492.851H319.379V499.102H402.538V492.851Z" fill="#E6E6E6"/>
<path d="M447.794 511.202H319.379V517.453H447.794V511.202Z" fill="#6C63FF"/>
<path d="M425.37 528.679H320.714V534.93H425.37V528.679Z" fill="#E6E6E6"/>
<path d="M380.475 547.856H319.379V554.107H380.475V547.856Z" fill="#E6E6E6"/>
<path d="M411.589 566.587H319.379V572.838H411.589V566.587Z" fill="#E6E6E6"/>
<path d="M692.69 485.026C692.095 486.067 691.301 486.98 690.353 487.714C689.405 488.448 688.322 488.988 687.165 489.303C686.008 489.618 684.801 489.703 683.612 489.551C682.423 489.4 681.275 489.015 680.234 488.42C679.193 487.825 678.28 487.031 677.546 486.083C676.812 485.134 676.273 484.051 675.957 482.894C675.642 481.737 675.558 480.53 675.71 479.341C675.861 478.151 676.245 477.003 676.84 475.962C676.861 475.927 676.881 475.891 676.902 475.856C677.157 475.428 677.445 475.02 677.762 474.636L670.083 419.896L669.853 418.256L668.293 407.086L668.063 405.476L668.913 405.516L683.791 406.196L687.781 406.376L688.281 416.566L691.111 473.856C692.589 475.271 693.549 477.141 693.835 479.167C694.122 481.193 693.718 483.257 692.69 485.026Z" fill="#FFB8B8"/>
<path d="M669.897 418.752L688.79 417.019C689.77 416.926 690.673 416.45 691.303 415.694C691.933 414.937 692.239 413.963 692.153 412.982L688.654 373.69C688.486 371.816 687.952 369.994 687.08 368.326C686.209 366.659 685.017 365.18 683.574 363.973C682.131 362.767 680.464 361.856 678.669 361.293C676.874 360.731 674.986 360.527 673.112 360.695C671.239 360.862 669.416 361.397 667.749 362.268C666.082 363.14 664.603 364.332 663.397 365.775C662.19 367.218 661.28 368.885 660.717 370.68C660.155 372.476 659.951 374.364 660.119 376.238C660.143 376.508 660.175 376.778 660.214 377.047L665.879 415.587C666.01 416.47 666.452 417.277 667.127 417.861C667.802 418.445 668.665 418.767 669.557 418.768C669.67 418.77 669.784 418.765 669.897 418.752Z" fill="#6C63FF"/>
<path d="M684.217 387.009C686.128 381.596 686.217 375.706 684.469 370.238C682.722 364.77 679.235 360.023 674.539 356.721C667.415 351.846 657.666 350.096 647.167 362.596C626.17 387.596 620.67 415.096 620.67 415.096L663.666 422.096C663.666 422.096 678.287 404.221 684.217 387.009Z" fill="#6C63FF"/>
<path d="M614.678 668.615H602.419L596.588 621.327H614.68L614.678 668.615Z" fill="#FFB8B8"/>
<path d="M578.781 679.998H617.308V665.111H593.667C589.719 665.111 585.933 666.679 583.141 669.471C580.35 672.263 578.781 676.05 578.781 679.998Z" fill="#2F2E41"/>
<path d="M715.461 657.922L703.822 661.77L683.444 618.702L700.623 613.023L715.461 657.922Z" fill="#FFB8B8"/>
<path d="M684.947 679.998L721.528 667.906L716.856 653.771L694.409 661.191C692.553 661.805 690.836 662.778 689.356 664.055C687.876 665.332 686.662 666.888 685.784 668.635C684.905 670.381 684.379 672.283 684.235 674.233C684.092 676.183 684.334 678.142 684.947 679.998Z" fill="#2F2E41"/>
<path d="M657.227 344.322C670.791 344.322 681.786 333.326 681.786 319.761C681.786 306.196 670.791 295.2 657.227 295.2C643.664 295.2 632.669 306.196 632.669 319.761C632.669 333.326 643.664 344.322 657.227 344.322Z" fill="#FFB8B8"/>
<path d="M635.726 655.452L647.109 580.307C647.231 579.505 647.627 578.77 648.23 578.228C648.833 577.686 649.606 577.37 650.416 577.335C651.227 577.299 652.024 577.546 652.672 578.034C653.321 578.521 653.779 579.219 653.97 580.007L671.306 651.619C671.58 652.716 672.253 653.671 673.194 654.298C674.135 654.924 675.277 655.176 676.394 655.004L724.214 647.318C724.848 647.216 725.453 646.98 725.988 646.625C726.523 646.27 726.976 645.804 727.316 645.259C727.657 644.715 727.876 644.103 727.961 643.467C728.045 642.83 727.993 642.183 727.806 641.568L665.452 435.968C665.275 435.384 665.254 434.763 665.391 434.168L667.467 425.168C667.695 424.192 667.59 423.168 667.168 422.26C666.746 421.351 666.032 420.61 665.14 420.154C656.649 415.821 635.144 406.813 618.914 416.68C618.388 417.001 617.932 417.427 617.574 417.93C617.217 418.433 616.966 419.004 616.836 419.607L568.125 648.577C567.993 649.2 567.994 649.843 568.128 650.465C568.263 651.088 568.528 651.674 568.906 652.186C569.284 652.698 569.766 653.125 570.321 653.437C570.876 653.748 571.491 653.939 572.125 653.996L630.875 659.258C631.008 659.27 631.142 659.276 631.275 659.276C632.351 659.274 633.39 658.887 634.206 658.186C635.022 657.484 635.56 656.514 635.723 655.451L635.726 655.452Z" fill="#2F2E41"/>
<path d="M673.512 302.408C671.66 301.294 670.018 299.866 668.657 298.188C667.985 297.34 667.543 296.333 667.373 295.265C667.203 294.197 667.312 293.103 667.687 292.088C668.928 289.35 672.615 288.488 675.472 289.417C678.33 290.346 680.537 292.589 682.624 294.75C684.463 296.65 686.355 298.642 687.224 301.141C688.093 303.64 687.648 306.809 685.478 308.326C683.348 309.814 680.287 309.205 678.239 307.607C676.191 306.009 674.923 303.637 673.714 301.337L673.512 302.408Z" fill="#2F2E41"/>
<path d="M681.83 295.41C681.966 288.49 689.853 283.527 696.665 284.754C703.477 285.981 708.713 291.789 711.333 298.195C716.871 311.73 712.714 327.174 707.379 340.795C702.043 354.416 695.44 368.234 696.219 382.838C696.746 390.731 699.394 398.336 703.885 404.849C708.375 411.361 714.541 416.54 721.731 419.838C714.044 423.323 704.855 419.723 698.395 414.29C684.048 402.225 678.511 380.744 685.235 363.246C688.552 354.615 694.397 347.231 698.961 339.19C703.524 331.149 706.873 321.672 704.516 312.731C702.159 303.79 692.132 296.552 683.56 300.011L681.83 295.41Z" fill="#2F2E41"/>
<path d="M655.755 330.66C657.895 327.042 660.054 322.292 656.143 319.129C655.292 318.473 654.318 317.993 653.279 317.718C652.241 317.443 651.157 317.379 650.093 317.529C645.682 318.061 640.877 318.28 636.607 316.677C635.005 316.126 633.531 315.258 632.271 314.126C631.011 312.994 629.991 311.62 629.273 310.086C627.073 304.862 629.829 298.514 634.437 295.212C637.257 293.265 640.588 292.194 644.013 292.134C647.439 292.073 650.806 293.025 653.693 294.871C659.662 292.234 666.904 293.407 672.328 297.037C677.751 300.667 681.462 306.48 683.477 312.687C685.334 318.03 685.654 323.787 684.4 329.302C683.391 333.139 681.473 336.676 678.807 339.614C676.141 342.553 672.807 344.805 669.086 346.181C667.637 346.753 666.063 346.934 664.522 346.705C662.981 346.477 661.527 345.848 660.305 344.881C660.305 344.881 656.921 341.926 655.862 338.367C655.047 335.63 654.612 332.593 655.755 330.66Z" fill="#2F2E41"/>
<path d="M582.901 352.576C583.023 353.116 583.103 353.664 583.14 354.216L626.092 378.998L636.532 372.987L647.661 387.559L630.213 399.997C628.804 401.002 627.106 401.523 625.375 401.481C623.644 401.438 621.974 400.836 620.615 399.763L576.32 364.817C574.32 365.558 572.142 365.672 570.076 365.145C568.01 364.617 566.154 363.473 564.754 361.865C563.354 360.257 562.477 358.26 562.239 356.141C562.002 354.022 562.415 351.88 563.424 350.002C564.433 348.123 565.99 346.596 567.888 345.625C569.786 344.653 571.935 344.282 574.049 344.561C576.162 344.841 578.141 345.757 579.721 347.189C581.302 348.621 582.408 350.5 582.895 352.576H582.901Z" fill="#FFB8B8"/>
<path d="M627.529 380.172L641.411 398.166C641.806 398.677 642.307 399.098 642.878 399.398C643.45 399.699 644.08 399.873 644.725 399.908C645.371 399.944 646.016 399.84 646.617 399.603C647.218 399.367 647.762 399.004 648.21 398.539L663.926 382.218C666.585 380.239 668.349 377.284 668.83 374.004C669.311 370.724 668.469 367.387 666.49 364.727C664.511 362.068 661.557 360.304 658.277 359.823C654.997 359.341 651.661 360.183 649.002 362.162C648.866 362.264 648.732 362.367 648.6 362.474L628.891 373.496C628.326 373.812 627.837 374.246 627.455 374.768C627.074 375.29 626.809 375.888 626.68 376.521C626.55 377.155 626.559 377.809 626.705 378.439C626.851 379.069 627.131 379.66 627.526 380.172L627.529 380.172Z" fill="#6C63FF"/>
<path d="M123.687 423.057C123.197 423.281 122.725 423.544 122.277 423.844L77.4296 404.701L75.8298 392.886L57.9098 392.776L58.9687 419.876L118.162 435.534C118.287 435.945 118.436 436.349 118.61 436.742C119.466 438.569 120.842 440.101 122.566 441.148C124.29 442.195 126.285 442.708 128.3 442.625C130.315 442.541 132.261 441.864 133.892 440.679C135.524 439.493 136.769 437.852 137.471 435.961C138.173 434.07 138.3 432.013 137.837 430.05C137.375 428.087 136.342 426.304 134.87 424.926C133.397 423.548 131.55 422.635 129.561 422.303C127.572 421.971 125.529 422.235 123.688 423.06L123.687 423.057Z" fill="#A0616A"/>
<path d="M51.3926 668.616H63.6512L69.4826 621.328H51.3906L51.3926 668.616Z" fill="#A0616A"/>
<path d="M72.4072 665.113H48.7659V679.995H87.2925C87.2925 676.047 85.7243 672.26 82.9327 669.468C80.1412 666.676 76.3551 665.108 72.4072 665.108H72.4072L72.4072 665.113Z" fill="#2F2E41"/>
<path d="M3.71826 665.152L15.9169 666.352L26.3567 619.864L8.35174 618.095L3.71826 665.152Z" fill="#A0616A"/>
<path d="M24.9819 663.729L1.45876 661.412L0 676.224L38.333 680C38.5246 678.055 38.3312 676.091 37.7639 674.221C37.1965 672.35 36.2664 670.61 35.0265 669.099C33.7867 667.588 32.2614 666.336 30.5377 665.414C28.8141 664.493 26.9259 663.92 24.9809 663.729L24.9819 663.729Z" fill="#2F2E41"/>
<path d="M47.98 342.73C61.5431 342.73 72.5382 331.734 72.5382 318.169C72.5382 304.604 61.5431 293.608 47.98 293.608C34.4169 293.608 23.4218 304.604 23.4218 318.169C23.4218 331.734 34.4169 342.73 47.98 342.73Z" fill="#A0616A"/>
<path d="M66.391 659.053C67.4449 659.056 68.4657 658.686 69.2734 658.009C70.0812 657.332 70.6238 656.391 70.8055 655.353C77.1458 620.134 97.8905 504.953 98.3864 501.76C98.3975 501.687 98.4029 501.612 98.4024 501.538V492.95C98.4033 492.637 98.3057 492.332 98.1234 492.078L95.3838 488.24C95.2535 488.055 95.0827 487.903 94.8844 487.795C94.6861 487.686 94.4656 487.625 94.2399 487.615C78.6196 486.883 27.4634 484.736 24.9917 487.824C22.5099 490.924 23.3918 500.331 23.5918 502.184L23.5818 502.377L0.599414 649.377C0.419385 650.55 0.708223 651.746 1.40342 652.707C2.09861 653.668 3.14423 654.316 4.31399 654.512L18.6684 656.877C19.7374 657.049 20.8326 656.831 21.7547 656.263C22.6768 655.696 23.3645 654.816 23.6928 653.784C28.1323 639.596 43.0196 591.866 48.179 573.397C48.212 573.281 48.286 573.18 48.3874 573.114C48.4887 573.049 48.6105 573.022 48.7301 573.039C48.8498 573.056 48.9593 573.115 49.0383 573.207C49.1173 573.298 49.1606 573.415 49.16 573.536C48.902 591.142 48.279 636.059 48.0601 651.573L48.0371 653.244C48.0275 654.375 48.4427 655.469 49.2005 656.309C49.9582 657.149 51.0035 657.674 52.1296 657.78L65.971 659.034C66.1106 659.047 66.2508 659.054 66.391 659.053Z" fill="#2F2E41"/>
<path d="M63.5662 352.388C67.8518 354.936 70.4165 359.618 71.8883 364.388C74.6127 373.209 76.2526 382.329 76.7718 391.547L78.3276 419.147L97.5804 492.317C80.8933 506.438 71.2684 503.228 48.8049 491.678C26.3414 480.128 23.7757 495.529 23.7757 495.529L19.2842 433.271L12.8669 365.239C14.3077 363.504 15.9383 361.937 17.7284 360.565C23.66 355.951 30.5613 352.744 37.9123 351.185C45.2633 349.626 52.8722 349.756 60.1656 351.565L63.5662 352.388Z" fill="#E6E6E6"/>
<path d="M69.8199 437.834C69.3023 438.028 68.8008 438.262 68.32 438.534L23.975 416.334L23.2391 404.308L4.94717 403.047L3.96729 430.46L63.2266 450.06C63.7101 452.137 64.8144 454.017 66.3926 455.451C67.9708 456.885 69.9482 457.804 72.0615 458.086C74.1749 458.369 76.3241 458.001 78.2233 457.032C80.1225 456.063 81.6816 454.538 82.6933 452.661C83.7049 450.784 84.1211 448.643 83.8864 446.524C83.6518 444.404 82.7775 442.407 81.3798 440.796C79.9821 439.186 78.1273 438.039 76.0621 437.509C73.9969 436.979 71.8193 437.09 69.8189 437.828L69.8199 437.834Z" fill="#A0616A"/>
<path d="M13.1869 365.545C2.27715 369.396 0.35437 411.119 0.35437 411.119C13.1899 404.059 28.5922 415.612 28.5922 415.612C28.5922 415.612 31.8008 404.7 35.6514 390.58C36.8141 386.608 36.9532 382.407 36.0556 378.367C35.1581 374.327 33.2531 370.58 30.518 367.474C30.518 367.474 24.0977 361.692 13.1869 365.545Z" fill="#E6E6E6"/>
<path d="M25.9645 324.665C29.0241 322.217 33.1987 326.665 33.1987 326.665L35.6464 304.634C35.6464 304.634 50.9447 306.467 60.7375 304.022C70.5304 301.577 72.0593 312.897 72.0593 312.897C72.5641 308.325 72.6665 303.717 72.3652 299.126C71.7533 293.618 63.7982 288.109 49.7228 284.437C35.6474 280.765 28.3042 296.678 28.3042 296.678C18.5074 301.573 22.9009 327.113 25.9645 324.665Z" fill="#2F2E41"/>
</g>
<defs>
<clipPath id="clip0">
<rect width="728" height="680.001" fill="white"/>
</clipPath>
</defs>
</svg>
