<svg width="211" height="168" viewBox="0 0 211 168" fill="none" xmlns="http://www.w3.org/2000/svg">
<g clip-path="url(#clip0)">
<path opacity="0.1" d="M208.316 48.4608C208.279 48.6413 208.244 48.8217 208.204 49.0002C206.936 55.1336 204.864 61.0439 201.783 66.4717C201.681 66.6522 201.578 66.8326 201.474 67.0131C199.443 70.5053 197.012 73.7239 194.236 76.5974C192.702 78.187 191.028 79.6975 189.038 80.7863C186.249 82.3151 182.989 82.9355 179.784 83.4424C176.456 83.9716 173.082 84.4136 169.717 84.8901C168.522 85.0564 167.333 85.2328 166.152 85.4193C162.901 85.9242 159.673 86.5081 156.523 87.2826C152.629 88.2376 148.855 89.4886 145.289 91.2485C145.004 91.3837 144.723 91.527 144.444 91.6784C144.166 91.8244 143.886 91.9724 143.611 92.1224C143.337 92.2725 143.066 92.4225 142.798 92.5766C142.659 92.6557 142.519 92.7347 142.382 92.8179C142.245 92.901 142.11 92.974 141.976 93.0551C141.574 93.2903 141.18 93.5316 140.786 93.7749L140.77 93.785C140.509 93.9452 140.252 94.1094 139.997 94.2737C138.54 95.2023 137.114 96.1715 135.688 97.1467L134.791 97.755L133.401 98.6978C133.131 98.8823 132.854 99.0668 132.582 99.2493C132.389 99.3831 132.195 99.517 131.985 99.6548C130.972 100.324 129.946 100.981 128.892 101.607C128.643 101.757 128.392 101.907 128.139 102.053C126.011 103.299 123.785 104.352 121.487 105.2L121.456 105.212C120.299 105.636 119.12 105.985 117.923 106.259C117.233 106.417 116.541 106.547 115.841 106.646C113.971 106.924 112.075 106.952 110.198 106.729C106.513 106.281 103.059 104.797 99.3755 104.296C91.7919 103.282 84.4267 106.549 77.2953 109.107C75.5418 109.736 73.7753 110.325 71.996 110.873C70.8133 111.24 69.6266 111.587 68.4304 111.922C61.101 113.953 53.6208 115.329 46.0699 116.036C42.9134 116.36 39.7381 116.434 36.571 116.257C35.367 116.179 34.1765 116.054 33.0073 115.851C29.0068 115.202 25.2768 113.842 22.2658 111.35C19.7997 109.304 18.0352 106.638 16.6921 103.848C15.3171 101.001 14.3463 97.9586 13.8105 94.8171C13.7371 94.3892 13.6714 93.9594 13.6173 93.5296C13.5206 92.7942 13.4485 92.0548 13.4008 91.3114C13.1408 87.3487 13.5918 83.3701 14.7305 79.5819C16.006 75.3403 18.1319 71.2689 19.0673 66.9948C19.1059 66.8137 19.1426 66.6332 19.1774 66.4534C19.3052 65.8043 19.4 65.1485 19.4615 64.4887C19.9389 59.2373 18.1087 54.1177 16.6727 48.9819C16.6225 48.8035 16.5722 48.623 16.5239 48.4426C16.3693 47.8722 16.2212 47.3024 16.0794 46.7334C14.7498 41.3035 14.3807 35.4905 15.5654 30.0708C15.6021 29.8904 15.6465 29.7099 15.689 29.5315C16.4822 26.1056 17.9736 22.9008 20.0606 20.1378C22.2793 17.2181 25.1918 14.787 28.3033 12.652C29.8197 11.6112 31.3877 10.6386 33.0073 9.73434C34.1669 9.08552 35.3548 8.47117 36.571 7.89128C46.3211 3.22789 57.4434 0.95093 68.4419 1.45377C69.0217 1.48012 69.6015 1.51257 70.1813 1.55717C70.7611 1.60178 71.395 1.65449 72.0018 1.71329C79.0868 2.43511 85.9805 4.17679 92.8259 6.08067C95.1199 6.71935 97.41 7.37426 99.6983 8.01699C100.717 8.30085 101.733 8.58471 102.752 8.86046C107.74 10.2128 112.801 11.4375 117.927 12.3519C119.113 12.5668 120.301 12.7628 121.491 12.9399C125.62 13.5766 129.782 13.9469 133.954 14.049C135.576 14.0828 137.199 14.0679 138.822 14.0044C139.642 13.9733 140.462 13.9267 141.283 13.8645C149.757 13.238 157.948 11.1415 166.152 9.18284C167.338 8.89899 168.527 8.61918 169.717 8.34343C171.279 7.98253 172.84 7.63378 174.41 7.3114C184.175 5.29803 192.88 6.45577 201.959 10.6103C204.023 11.5531 206.085 12.6926 207.349 14.4626C208.613 16.2327 208.93 18.4062 209.166 20.5048C209.5 23.4934 209.719 26.5206 209.802 29.5639C209.802 29.7424 209.802 29.9228 209.813 30.1033C209.945 36.2508 209.508 42.4572 208.316 48.4608Z" fill="#6C63FF"/>
<path opacity="0.1" d="M143.538 66.4718H142.9V66.7111V67.0132H143.623L143.538 66.4718ZM136.304 66.4718C136.303 66.4765 136.303 66.4814 136.304 66.486C136.287 66.6341 136.267 66.7821 136.248 66.9321V66.9727V67.0132H141.775V66.9808L142.162 66.4718H136.304ZM121.491 66.4718V49.0003H127.849C127.781 48.9537 127.712 48.905 127.64 48.8604L127.547 48.7976L127.428 48.7205C127.358 48.6779 127.288 48.6354 127.215 48.5948C127.142 48.5543 127.097 48.5259 127.035 48.4914L126.993 48.4671H126.983H121.491V47.504L121.342 47.5648L121.185 47.6418H121.174L121.141 47.6601L121.042 47.7148L120.944 47.7696C120.847 47.8243 120.75 47.8852 120.654 47.948L120.561 48.0129L120.368 48.1427C120.118 48.317 119.873 48.4995 119.62 48.6698C119.556 48.7124 119.492 48.755 119.427 48.7935C119.289 48.8787 119.148 48.9598 119.003 49.0328C118.941 49.0652 118.882 49.0936 118.81 49.1199L118.706 49.1625L118.609 49.197C118.382 49.2798 118.15 49.3435 117.913 49.3876V66.4678H108.38C108.38 66.4881 108.393 66.5043 108.399 66.5246C108.451 66.6868 108.503 66.847 108.554 67.0092H117.927V85.7357C117.976 85.7357 118.024 85.7357 118.072 85.7357L118.24 85.7459L118.543 85.7641L119.028 85.825L119.251 85.8473L119.492 85.8736H119.529L119.956 85.9284L120.047 85.9405L120.254 85.9709L120.549 86.0155L121.259 85.9831L121.355 86.0014C121.394 86.0014 121.435 86.0135 121.475 86.0216V67.0132H136.229V66.9727V66.9321C136.248 66.7821 136.267 66.6341 136.285 66.486C136.284 66.4814 136.284 66.4765 136.285 66.4718H121.491ZM143.538 66.4718H142.9V66.7111V67.0132H143.623L143.538 66.4718ZM135.906 66.4718C135.883 66.6523 135.862 66.8328 135.838 67.0132H142.002L142.421 66.4718H135.906ZM121.491 66.4718V49.0003H127.849C127.781 48.9537 127.712 48.905 127.64 48.8604L127.547 48.7976L127.428 48.7205C127.358 48.6779 127.288 48.6354 127.215 48.5948C127.142 48.5543 127.097 48.5259 127.035 48.4914L126.993 48.4671H126.979H121.491V47.504L121.342 47.5648L121.185 47.6418H121.174L121.141 47.6601L121.042 47.7148L120.944 47.7696C120.847 47.8243 120.75 47.8852 120.654 47.948L120.561 48.0129L120.368 48.1427C120.118 48.317 119.873 48.4995 119.62 48.6698C119.556 48.7124 119.492 48.755 119.427 48.7935C119.289 48.8787 119.148 48.9598 119.003 49.0328C118.941 49.0652 118.882 49.0936 118.81 49.1199L118.706 49.1625L118.609 49.197C118.382 49.2798 118.15 49.3435 117.913 49.3876V66.4678H108.38C108.38 66.4881 108.393 66.5043 108.399 66.5246C108.451 66.6847 108.505 66.847 108.556 67.0092H117.927V85.7337H118.072L118.24 85.7439L118.543 85.7621L119.028 85.825L119.251 85.8473L119.492 85.8736H119.529L119.956 85.9284L120.047 85.9405L120.254 85.9709L120.549 86.0155L121.259 85.9831L121.355 86.0014C121.394 86.0014 121.435 86.0135 121.475 86.0216V67.0132H135.842C135.865 66.8328 135.887 66.6523 135.91 66.4718H121.491ZM169.717 30.0892H209.813C209.813 29.9088 209.813 29.7283 209.802 29.5499H169.717V8.3375C168.527 8.60785 167.338 8.88765 166.152 9.17692V29.5499H122.544L122.434 29.4465L122.6 29.2924L138.82 14.0005C137.197 14.0654 135.574 14.0802 133.952 14.0451L121.489 25.7928V12.9401C120.298 12.763 119.11 12.567 117.925 12.3521V25.2008L99.7022 8.01715C97.414 7.37441 95.1238 6.71951 92.8298 6.08082L117.612 29.4465L117.502 29.5499H72.0077V1.7317C71.4009 1.67222 70.794 1.62018 70.1872 1.57557C69.6074 1.53097 69.0276 1.49853 68.4478 1.47217V29.5499H36.5711V7.90969C35.3677 8.48822 34.1798 9.10257 33.0074 9.75274V29.5499H15.6891C15.6466 29.7283 15.6021 29.9088 15.5654 30.0892H33.0074V48.461H16.524C16.5723 48.6414 16.6226 48.8219 16.6728 49.0003H33.0074V66.4718H19.1775C19.1427 66.6516 19.106 66.8321 19.0673 67.0132H33.0074V115.863C34.1669 116.052 35.3671 116.184 36.5711 116.269V67.0132H68.442V111.93C69.6383 111.595 70.825 111.249 72.0077 110.882V67.0132H117.927V106.257C119.124 105.983 120.303 105.634 121.46 105.211L121.491 105.198V67.0132H166.152V85.4194C167.337 85.237 168.526 85.0619 169.717 84.8943V67.0132H201.474C201.579 66.8328 201.681 66.6523 201.783 66.4718H169.717V49.0003H208.204C208.244 48.8219 208.279 48.6414 208.316 48.461H169.717V30.0892ZM36.5711 30.0892H68.442V48.461H36.5711V30.0892ZM36.5711 66.4718V49.0003H68.442V66.4718H36.5711ZM72.0077 30.0892H117.927V48.461H72.0077V30.0892ZM72.0077 66.4718V49.0003H117.927V66.4718H72.0077ZM166.152 66.4718H121.491V49.0003H166.152V66.4718ZM166.152 48.461H121.491V30.5819L122.117 30.0892H166.152V48.461ZM136.304 66.4718C136.303 66.4765 136.303 66.4814 136.304 66.486C136.287 66.6341 136.267 66.7821 136.248 66.9321V66.9727V67.0132H141.775V66.9808L142.162 66.4718H136.304ZM143.538 66.4718H142.9V66.7111V67.0132H143.623L143.538 66.4718ZM121.491 66.4718V49.0003H127.849C127.781 48.9537 127.712 48.905 127.64 48.8604L127.547 48.7976L127.428 48.7205C127.358 48.6779 127.288 48.6354 127.215 48.5948C127.142 48.5543 127.097 48.5259 127.035 48.4914L126.993 48.4671H126.983H121.491V47.504L121.342 47.5648L121.185 47.6418H121.174L121.141 47.6601L121.042 47.7148L120.944 47.7696C120.847 47.8243 120.75 47.8852 120.654 47.948L120.561 48.0129L120.368 48.1427C120.118 48.317 119.873 48.4995 119.62 48.6698C119.556 48.7124 119.492 48.755 119.427 48.7935C119.289 48.8787 119.148 48.9598 119.003 49.0328C118.941 49.0652 118.882 49.0936 118.81 49.1199L118.706 49.1625L118.609 49.197C118.382 49.2798 118.15 49.3435 117.913 49.3876V66.4678H108.38C108.38 66.4881 108.393 66.5043 108.399 66.5246C108.451 66.6868 108.503 66.847 108.554 67.0092H117.927V85.7357C117.976 85.7357 118.024 85.7357 118.072 85.7357L118.24 85.7459L118.543 85.7641L119.028 85.825L119.251 85.8473L119.492 85.8736H119.529L119.956 85.9284L120.047 85.9405L120.254 85.9709L120.549 86.0155L121.259 85.9831L121.355 86.0014C121.394 86.0014 121.435 86.0135 121.475 86.0216V67.0132H136.229V66.9727V66.9321C136.248 66.7821 136.267 66.6341 136.285 66.486C136.284 66.4814 136.284 66.4765 136.285 66.4718H121.491Z" fill="#6C63FF"/>
<path opacity="0.1" d="M51.8947 17.4411H52.1711C52.08 17.4007 52.0007 17.3357 51.9413 17.2527C51.8819 17.1698 51.8445 17.0718 51.8329 16.9687C51.8329 16.5956 52.3644 16.2915 53.0137 16.2915H61.2776C61.927 16.2915 62.4565 16.5956 62.4565 16.9687C62.4565 17.3398 61.927 17.6459 61.2776 17.6459H61.0012C61.0924 17.6856 61.1718 17.7502 61.2313 17.8329C61.2907 17.9156 61.3281 18.0134 61.3395 18.1163C61.3395 18.4346 60.9529 18.7023 60.4369 18.7732H62.816C63.4634 18.7732 63.9949 19.0774 63.9949 19.4505C63.9949 19.8235 63.4634 20.1277 62.816 20.1277H54.5501C53.9027 20.1277 53.3712 19.8215 53.3712 19.4505C53.3712 19.1321 53.7578 18.8665 54.2738 18.7935H51.8947C51.2454 18.7935 50.7158 18.4894 50.7158 18.1163C50.7158 17.7432 51.2454 17.4411 51.8947 17.4411Z" fill="#6C63FF"/>
<path opacity="0.1" d="M141.46 23.8825H141.737C141.646 23.8418 141.567 23.7767 141.508 23.6937C141.449 23.6108 141.412 23.513 141.4 23.4101C141.4 23.037 141.93 22.7329 142.579 22.7329H150.843C151.493 22.7329 152.024 23.037 152.024 23.4101C152.024 23.7812 151.493 24.0853 150.843 24.0853H150.569C150.66 24.126 150.738 24.1911 150.798 24.2741C150.857 24.357 150.894 24.4549 150.905 24.5577C150.905 24.876 150.519 25.1437 150.003 25.2147H152.382C153.031 25.2147 153.561 25.5188 153.561 25.8919C153.561 26.2649 153.031 26.5691 152.382 26.5691H144.118C143.468 26.5691 142.937 26.2629 142.937 25.8919C142.937 25.5735 143.323 25.3059 143.839 25.2349H141.46C140.813 25.2349 140.281 24.9308 140.281 24.5577C140.281 24.1846 140.813 23.8825 141.46 23.8825Z" fill="#6C63FF"/>
<path opacity="0.1" d="M39.2111 51.4494H39.4855C39.3947 51.4089 39.3157 51.3438 39.2566 51.2608C39.1976 51.1778 39.1605 51.0799 39.1493 50.977C39.1493 50.606 39.6807 50.2998 40.3282 50.2998H48.594C49.2414 50.2998 49.7729 50.606 49.7729 50.977C49.7729 51.3501 49.2414 51.6542 48.594 51.6542H48.3176C48.4086 51.6941 48.4877 51.7587 48.5468 51.8414C48.6059 51.9241 48.6429 52.0219 48.6539 52.1246C48.6539 52.4429 48.2674 52.7106 47.7514 52.7815H50.1304C50.7798 52.7815 51.3113 53.0877 51.3113 53.4587C51.3113 53.8298 50.7798 54.136 50.1304 54.136H41.8743C41.2249 54.136 40.6954 53.8318 40.6954 53.4587C40.6954 53.1424 41.0819 52.8748 41.5979 52.8018H39.2111C38.5617 52.8018 38.0303 52.4977 38.0303 52.1246C38.0303 51.7515 38.5695 51.4494 39.2111 51.4494Z" fill="#6C63FF"/>
<path opacity="0.1" d="M194.817 123.703C196.205 116.576 179.208 106.913 156.853 102.12C134.498 97.327 115.251 99.219 113.862 106.346C112.474 113.473 129.471 123.136 151.826 127.929C174.181 132.721 193.428 130.829 194.817 123.703Z" fill="#6C63FF"/>
<path d="M149.672 78.0369C149.672 78.0369 151.87 66.721 160.259 67.7693C160.259 67.7693 166.057 68.1869 167.249 72.1691V80.9707L149.672 78.0369Z" fill="#3A3768"/>
<path d="M195.616 82.23L120.907 75.7317L111.319 77.8282L111.918 91.8691L112.571 91.9522L113.315 113.037L186.626 126.867L194.418 119.951V97.0941L195.415 96.4798L195.616 82.23Z" fill="#D48A9B"/>
<path opacity="0.05" d="M195.717 82.23L195.516 96.4797L187.426 100.462L187.325 85.5815L195.717 82.23Z" fill="black"/>
<path opacity="0.05" d="M194.418 97.1082L194.517 119.533L186.726 126.449L187.227 100.462L194.418 97.1082Z" fill="black"/>
<path opacity="0.05" d="M112.672 92.7916L187.287 102.343L187.325 100.531L112.616 92.0779L112.672 92.7916Z" fill="black"/>
<path opacity="0.05" d="M194.418 97.9313V97.1082L187.026 100.531V102.347L194.418 97.9313Z" fill="black"/>
<path d="M111.219 77.8282L120.806 75.7317L195.516 82.23L187.126 85.5816L111.219 77.8282Z" fill="#EFC6CD"/>
<path opacity="0.1" d="M187.557 82.6335L191.224 82.885L185.147 84.7929L182.053 84.5597L187.557 82.6335Z" fill="black"/>
<path d="M187.557 82.4651L191.224 82.7165L185.147 84.6265L182.053 84.3913L187.557 82.4651Z" fill="white"/>
<path d="M187.119 82.897C187.264 82.8321 187.416 82.9558 187.571 82.9862C187.66 83.0044 187.751 82.9862 187.84 83.0044C188.019 83.0288 188.197 83.1545 188.369 83.0916" fill="#D3DAE1"/>
<path d="M186.929 83.0127C187.072 82.9478 187.227 83.0694 187.381 83.1019C187.47 83.1181 187.561 83.1019 187.65 83.1181C187.83 83.1444 188.008 83.2702 188.18 83.2073" fill="#D3DAE1"/>
<path d="M186.492 83.2436C186.637 83.1787 186.792 83.3004 186.947 83.3308C187.034 83.3491 187.126 83.3308 187.213 83.3491C187.395 83.3754 187.573 83.5011 187.743 83.4363" fill="#D3DAE1"/>
<path opacity="0.1" d="M171.71 80.7397L175.376 80.9932L169.3 82.9011L166.206 82.6659L171.71 80.7397Z" fill="black"/>
<path d="M171.71 80.5735L175.376 80.8249L169.3 82.7328L166.206 82.4997L171.71 80.5735Z" fill="white"/>
<path d="M171.271 81.0053C171.416 80.9405 171.569 81.0621 171.723 81.0945C171.812 81.1108 171.903 81.0945 171.992 81.1108C172.172 81.1371 172.349 81.2628 172.521 81.2" fill="#D3DAE1"/>
<path d="M171.082 81.1208C171.225 81.0559 171.379 81.1776 171.534 81.208C171.623 81.2263 171.714 81.208 171.802 81.2263C171.982 81.2526 172.16 81.3783 172.332 81.3134" fill="#D3DAE1"/>
<path d="M170.645 81.3501C170.79 81.2852 170.945 81.4089 171.099 81.4393C171.186 81.4576 171.279 81.4393 171.366 81.4576C171.548 81.4819 171.725 81.6096 171.895 81.5448" fill="#D3DAE1"/>
<path opacity="0.1" d="M179.311 81.6865L182.979 81.9379L176.903 83.8479L173.807 83.6127L179.311 81.6865Z" fill="black"/>
<path d="M179.311 81.5203L182.979 81.7717L176.903 83.6796L173.807 83.4444L179.311 81.5203Z" fill="white"/>
<path d="M178.872 81.9521C179.017 81.8872 179.172 82.0089 179.326 82.0393C179.413 82.0576 179.504 82.0393 179.593 82.0576C179.773 82.0819 179.952 82.2096 180.122 82.1447" fill="#D3DAE1"/>
<path d="M178.683 82.0657C178.828 82.0008 178.982 82.1245 179.137 82.1549C179.224 82.1731 179.315 82.1549 179.404 82.1731C179.583 82.1975 179.763 82.3252 179.933 82.2603" fill="#D3DAE1"/>
<path d="M178.248 82.2968C178.391 82.232 178.545 82.3536 178.7 82.386C178.789 82.4023 178.88 82.386 178.969 82.4023C179.148 82.4286 179.326 82.5543 179.498 82.4915" fill="#D3DAE1"/>
<path opacity="0.1" d="M96.3066 160.457C117.918 160.457 135.438 156.674 135.438 152.007C135.438 147.339 117.918 143.556 96.3066 143.556C74.6947 143.556 57.1748 147.339 57.1748 152.007C57.1748 156.674 74.6947 160.457 96.3066 160.457Z" fill="#6C63FF"/>
<path d="M139.159 82.8018C138.741 78.9534 137.089 75.2815 137.089 75.2815L137.214 73.9839C137.214 73.9839 137.241 73.3351 137.201 72.3618C137.205 71.7542 137.281 71.1495 137.427 70.5613C137.765 69.4361 137.004 68.0533 136.919 67.9255C136.834 67.7978 136.961 65.3302 136.2 64.1198C135.438 62.9093 130.367 60.6587 130.367 60.6587C130.367 60.6587 130.095 60.0606 129.71 59.3611L129.745 59.2901C129.43 58.6913 129.04 58.1395 128.585 57.6498C128.274 57.3011 127.974 57.1024 127.733 57.1997C127.635 56.8632 127.56 56.5196 127.509 56.1717C127.559 56.1859 127.611 56.2001 127.661 56.2102C127.871 56.2612 128.088 56.2667 128.299 56.2265C128.771 56.1149 129.084 55.6709 129.347 55.2532C130.657 53.1648 131.786 50.8737 132.016 48.4021C132.077 47.8976 132.055 47.3857 131.948 46.8895C131.839 46.5038 131.687 46.1329 131.496 45.7845C131.157 45.0697 130.728 44.4062 130.22 43.8117C129.318 42.8141 128.073 42.2038 126.794 41.8429C125.352 41.4363 123.851 41.3186 122.368 41.4962C121.981 41.5428 121.595 41.6097 121.208 41.6361C120.718 41.6588 120.227 41.65 119.738 41.6097L117.208 41.4556L117.196 41.4151L116.775 41.3887C116.609 41.7355 116.775 42.147 116.982 42.4715C117.189 42.7959 117.426 43.1345 117.409 43.5177C117.391 43.9009 117.127 44.2091 116.92 44.5315C116.713 44.8538 116.557 45.2756 116.763 45.5919C116.792 45.6356 116.827 45.6752 116.866 45.7095C117.084 45.9467 117.465 45.9731 117.795 45.969H117.853C117.021 47.119 116.571 48.5235 116.572 49.9674C116.578 51.2013 116.907 52.4098 117.523 53.4605C118.14 54.5112 119.02 55.3636 120.068 55.9244C120.105 56.0561 120.142 56.192 120.176 56.3299C120.559 57.754 120.697 59.2386 120.582 60.7135L120.538 60.8148L120.511 60.7074C120.511 60.7074 117.531 62.8282 116.645 63.3899C115.76 63.9515 114.871 65.8554 114.829 66.3744C114.786 66.8935 113.391 74.7219 113.391 74.7219C113.107 75.5105 112.874 76.3179 112.691 77.1388L110.911 78.7791C110.911 78.7791 107.239 79.1258 106.176 78.8663L106.207 79.0812C105.27 78.8567 104.315 78.721 103.355 78.6757C102.83 78.6049 102.297 78.6797 101.809 78.8926L101.772 78.9109L101.743 78.9251C101.183 79.0053 100.637 79.1663 100.12 79.4036C100.058 79.4299 100.002 79.4563 99.9476 79.4826L99.9592 79.217L95.9857 79.0021L93.9564 78.5702C93.9564 78.5702 93.2375 77.962 92.8143 78.0512C92.391 78.1404 91.5039 77.5321 91.5039 77.5321C91.3016 77.3657 91.0825 77.223 90.8507 77.1063C90.7831 76.6157 90.7406 76.3176 90.7406 76.3176C90.7406 76.3176 89.1616 69.7442 87.9788 65.8797C87.1865 63.2986 86.0462 62.0273 85.3737 61.4738C85.0741 60.9264 84.877 60.5736 84.877 60.5736C84.7475 60.0991 84.0363 59.0306 83.8546 59.0042C83.8256 58.9556 83.8044 58.9312 83.7928 58.9312C83.7539 58.9269 83.7146 58.9332 83.6787 58.9495C83.3463 57.2139 83.1531 55.0383 83.6614 53.1425C84.3571 52.5426 84.9179 51.7887 85.3035 50.9349C85.689 50.081 85.8899 49.1482 85.8916 48.2034C85.8916 48.175 85.8916 48.1466 85.8916 48.1182C85.8916 48.0898 85.8916 48.0594 85.8916 48.031C85.8912 46.5242 85.3825 45.0662 84.4557 43.9151L84.39 43.838C84.4075 43.825 84.4243 43.8107 84.4402 43.7955C84.5854 43.6719 84.696 43.5094 84.7604 43.3252C84.8247 43.141 84.8403 42.942 84.8055 42.7492C84.7185 42.3599 84.4286 42.0538 84.2798 41.6848C84.1904 41.4007 84.1188 41.1108 84.0653 40.817C83.9514 40.3996 83.7425 40.0176 83.4565 39.7038L83.4855 39.7849C82.7279 38.8908 81.4253 38.4467 80.2522 38.6454C79.3806 38.7914 78.5689 39.2172 77.6934 39.349C77.0653 39.4423 76.4256 39.3814 75.7936 39.4484C75.2073 39.5116 74.6365 39.6847 74.1084 39.9593C73.9704 40.0209 73.848 40.1153 73.7509 40.2351C73.661 40.3955 73.6007 40.5723 73.5731 40.7561C73.3585 41.5773 72.6782 42.1633 72.1854 42.8486C71.6225 43.6316 71.2966 44.5738 71.25 45.5534C71.2308 45.8023 71.2537 46.0528 71.3177 46.2934C71.3602 46.4374 71.4259 46.5732 71.4568 46.7192C71.5535 47.1653 71.3312 47.6093 71.223 48.0513C71.0867 48.6152 71.135 49.2107 71.3602 49.7423C72.1236 51.5347 74.6302 52.1328 75.152 54.0144C75.5513 54.2069 75.973 54.3433 76.4063 54.4199C76.4411 54.6064 76.472 54.795 76.4971 54.9856C76.4854 54.9908 76.4743 54.9976 76.4643 55.0059C75.7878 55.6973 75.6197 57.0334 75.6197 57.0334L75.5385 57.1024C75.2622 57.3416 74.3171 58.1445 73.4629 58.7629C72.4483 59.499 70.7572 61.9645 69.5745 62.7005C68.3917 63.4365 67.4176 67.9721 67.6728 69.6206C67.9279 71.269 68.9831 75.8918 68.5598 77.5788C68.1366 79.2657 69.1937 86.9644 69.1937 86.9644C69.9031 87.1061 70.5972 87.3221 71.2655 87.6091L71.2442 87.9457L71.1805 88.9595C71.1805 88.9595 69.2652 96.2263 69.9977 101.82C70.7302 107.414 69.6595 107.99 69.6595 107.99C69.6595 107.99 69.8837 110.47 69.3213 111.336C68.7589 112.201 68.6449 114.103 68.6449 114.103C68.6449 114.103 68.5888 118.371 68.7009 119.578C68.813 120.784 68.8691 122.982 68.4748 123.501C68.0805 124.02 67.3481 127.42 67.4041 128.458C67.4602 129.497 65.9952 131.863 66.7837 134.918C67.5723 137.974 64.4646 138.033 64.4646 138.033C64.4646 138.033 64.8608 142.696 65.7053 144.03L65.829 144.221C65.8078 144.298 65.7865 144.379 65.7633 144.466C65.4444 145.683 65.0077 147.603 65.3111 148.067C65.7614 148.76 65.9875 148.643 65.9875 148.643L66.1556 151.757C66.1556 151.757 69.5377 154.756 72.1313 154.642C74.7249 154.529 74.2166 151.757 74.2166 151.757L72.0076 145.748L71.9323 145.545L74.3867 140.679C74.3867 140.679 75.0631 138.546 75.2312 137.795C75.3994 137.045 76.3174 134.387 76.3174 134.387C76.3174 134.387 78.6365 128.621 78.6848 127.927C78.7332 127.234 78.911 123.489 79.3613 122.737C79.8116 121.984 81.0523 117.668 81.0523 117.668L81.0832 117.696C81.2937 117.913 81.4441 118.186 81.5183 118.486C81.5925 118.785 81.5877 119.1 81.5045 119.397C81.2204 120.492 81.3905 122.741 81.3905 122.741C81.3905 122.741 81.2784 124.645 81.0523 125.626C80.8262 126.607 80.7721 134.622 81.1663 136.524C81.4814 138.047 81.4717 140.898 81.4562 141.976C81.1915 143.122 80.9595 144.545 81.3905 144.713C82.1249 145.003 85.8452 144.945 85.8452 144.945C85.8452 144.945 87.4222 144.367 89.5655 146.386C91.7088 148.406 98.301 145.81 98.301 145.81C98.301 145.81 100.33 145.233 96.3278 143.562C93.5351 142.396 91.732 141.619 90.5531 140.788C90.5801 140.733 90.6091 140.679 90.6343 140.62C90.6343 140.62 88.9993 138.998 90.3521 136.123C91.7049 133.248 91.6489 130.817 91.6489 130.817L91.875 121.127L91.1986 108.264L90.6748 94.7644L90.7676 94.732C90.8565 97.2137 91.3184 103.122 93.7361 101.976C96.78 100.535 94.1864 96.7859 94.1864 96.7859L92.8201 93.9919L93.2278 93.8459L91.6991 88.6635C91.5524 87.652 91.5329 86.6247 91.6412 85.6079C91.6714 85.0131 91.6598 84.4167 91.6064 83.8237C93.6086 83.4567 95.5257 83.0674 95.8697 83.1566C96.2756 83.26 98.5464 83.2803 99.4393 83.2843C99.1475 83.5236 98.9136 83.7608 98.9136 83.7608L102.549 86.3277C102.549 86.3277 103.782 85.6201 104.039 84.8699C104.292 84.8028 104.525 84.6719 104.719 84.4887C104.758 85.3747 104.982 86.3338 105.763 86.3561C105.958 86.3604 106.152 86.3203 106.331 86.2385L112.276 85.0037L111.766 88.3472L112.121 89.0102C111.941 91.8305 111.735 94.8252 111.553 97.459L111.47 98.0349L111.512 98.045C111.23 102.1 111.004 105.172 111.004 105.172C111.337 104.506 111.854 103.961 112.486 103.609L112.525 109.626C112.525 109.626 112.823 119.142 112.823 120.439C112.823 121.737 112.863 124.634 112.863 124.634C112.863 124.634 113.499 128.181 113.878 129.349C114.257 130.516 114.554 135.837 114.554 135.837C114.554 135.837 115.443 137.307 115.063 137.864C114.682 138.422 116.543 139.636 116.543 139.636C116.543 139.636 115.358 141.323 115.273 142.449C115.264 142.578 115.385 142.716 115.606 142.854C115.536 142.913 115.465 142.972 115.385 143.029C114.837 143.414 114.033 143.681 112.823 143.572C109.524 143.268 107.199 146.469 109.228 147.118C111.257 147.767 117.345 147.897 117.345 147.897C117.345 147.897 119.189 146.69 120.631 147.234C120.609 148.503 120.669 149.667 120.679 149.821L120.661 149.835C119.799 150.646 118.149 152.041 116.537 152.611C114.218 153.432 113.704 156.763 116.705 157.195C119.707 157.627 124.103 156.676 124.103 156.676C124.103 156.676 126.386 154.904 128.119 154.515C129.853 154.125 131.333 153.26 131.038 152.222C130.844 151.559 130.348 149.821 130.011 148.653C129.992 148.583 129.973 148.515 129.954 148.45C130.006 148.329 130.058 148.203 130.106 148.073C130.106 148.073 129.219 143.229 129.938 142.019C130.657 140.808 130.276 128.696 130.276 128.696C130.276 128.696 129.049 125.626 129.685 123.767C130.321 121.907 128.67 119.268 128.67 119.268C128.67 119.268 128.85 113.978 129.333 111.03C129.355 110.904 129.376 110.782 129.397 110.665C130.206 110.413 130.994 110.093 131.755 109.71C131.755 109.71 132.178 103.047 132.431 101.534C132.456 101.393 132.491 101.163 132.534 100.865L132.727 99.7968L132.955 98.5803L133.728 94.4339L135.123 92.5402L138.718 88.6878C138.718 88.6878 139.582 86.6521 139.159 82.8018ZM83.7232 59.0123L83.6961 59.0326C83.692 59.018 83.6888 59.0031 83.6865 58.988C83.6977 58.9977 83.71 59.0059 83.7232 59.0123ZM119.239 63.7345L119.1 64.0529L119.608 63.5216L118.918 64.3327L119.15 63.8217L119.239 63.7345ZM115.807 71.1757C115.673 71.5467 115.53 71.9482 115.382 72.3659L115.654 71.5123L115.807 71.1757Z" fill="url(#paint0_linear)"/>
<path d="M104.715 83.3066C104.715 83.3066 104.242 86.6135 105.662 86.6561C107.083 86.6987 108.032 84.1054 108.032 84.1054L107.452 82.0312L104.715 83.3066Z" fill="#585B8A"/>
<path opacity="0.2" d="M104.715 83.3066C104.715 83.3066 104.242 86.6135 105.662 86.6561C107.083 86.6987 108.032 84.1054 108.032 84.1054L107.452 82.0312L104.715 83.3066Z" fill="black"/>
<path d="M72.8985 154.888C70.3706 155.003 67.0736 152.007 67.0736 152.007L66.9093 148.894C66.9093 148.894 66.6909 149.01 66.2503 148.319C65.9546 147.854 66.3798 145.93 66.6909 144.72C66.8417 144.128 66.9653 143.706 66.9653 143.706L72.512 145.263L72.7767 145.999L74.9297 152.005C74.9297 152.005 75.4244 154.772 72.8985 154.888Z" fill="#636992"/>
<path d="M98.3842 146.072C98.3842 146.072 91.9582 148.665 89.8806 146.648C87.8031 144.63 86.255 145.206 86.255 145.206C86.255 145.206 82.6294 145.265 81.9144 144.975C81.4931 144.807 81.7211 143.365 81.9839 142.217C82.1617 141.425 82.355 140.77 82.355 140.77C82.355 140.77 88.6708 138.521 89.6603 139.904C89.9575 140.31 90.3128 140.666 90.7136 140.958C91.8577 141.826 93.6454 142.613 96.4728 143.823C100.361 145.494 98.3842 146.072 98.3842 146.072Z" fill="#636992"/>
<path d="M92.6172 93.3977L94.374 97.0858C94.374 97.0858 96.9018 100.833 93.9353 102.272C90.9687 103.712 91.0247 93.9756 91.0247 93.9756L92.6172 93.3977Z" fill="#FFD6D6"/>
<path d="M85.2559 61.415C85.2559 61.415 87.1788 62.3376 88.3326 66.1981C89.4864 70.0586 91.0247 76.6299 91.0247 76.6299C91.0247 76.6299 92.0684 84.0629 91.9022 85.908C91.7964 86.9242 91.8152 87.9504 91.9582 88.9615L93.4405 94.148L90.4739 95.2429L85.9149 76.9178L85.2559 61.415Z" fill="#DCE6F2"/>
<path opacity="0.05" d="M85.2559 61.415C85.2559 61.415 87.1788 62.3376 88.3326 66.1981C89.4864 70.0586 91.0247 76.6299 91.0247 76.6299C91.0247 76.6299 92.0684 84.0629 91.9022 85.908C91.7964 86.9242 91.8152 87.9504 91.9582 88.9615L93.4405 94.148L90.4739 95.2429L85.9149 76.9178L85.2559 61.415Z" fill="black"/>
<path opacity="0.1" d="M72.5119 145.265L72.7767 146.001L72.452 146.652C71.1881 147.228 68.0572 146.767 68.0572 146.767C68.0572 146.767 67.4774 145.995 66.6851 144.724C66.8358 144.131 66.9595 143.71 66.9595 143.71L72.5119 145.265Z" fill="black"/>
<path opacity="0.1" d="M90.9144 141.23C89.3122 145.038 83.8661 143.624 82.3528 143.148C82.1035 143.069 81.9663 143.016 81.9663 143.016C81.9663 143.016 81.976 142.706 81.9798 142.217C82.1576 141.425 82.3509 140.77 82.3509 140.77C82.3509 140.77 88.6667 138.521 89.6562 139.904C89.9534 140.31 90.3087 140.666 90.7095 140.958C90.77 141.055 90.8385 141.146 90.9144 141.23Z" fill="black"/>
<path d="M90.638 136.39C89.32 139.269 90.9144 140.885 90.9144 140.885C89.3122 144.691 83.8661 143.28 82.3529 142.801C82.1036 142.724 81.9663 142.672 81.9663 142.672C81.9663 142.672 82.0765 138.694 81.6919 136.792C81.3073 134.89 81.3614 126.881 81.5817 125.902C81.8021 124.922 81.9103 123.018 81.9103 123.018C81.9103 123.018 81.746 120.772 82.0205 119.677C82.103 119.381 82.1086 119.068 82.0365 118.769C81.9645 118.47 81.8175 118.197 81.6107 117.978L81.5817 117.947C81.5817 117.947 80.3739 122.27 79.9332 123.016C79.4926 123.763 79.3302 127.511 79.2742 128.203C79.2181 128.894 76.9666 134.659 76.9666 134.659C76.9666 134.659 76.0892 137.309 75.925 138.057C75.7607 138.805 75.0997 140.94 75.0997 140.94L72.452 146.301C71.1881 146.877 68.0572 146.417 68.0572 146.417C68.0572 146.417 67.4543 145.605 66.629 144.284C65.8038 142.962 65.4211 138.292 65.4211 138.292C65.4211 138.292 68.4418 138.233 67.6726 135.18C66.9035 132.126 68.3317 129.762 68.2776 128.724C68.2234 127.686 68.9366 124.288 69.3212 123.769C69.7058 123.25 69.6497 121.06 69.5396 119.849C69.4294 118.639 69.4854 114.375 69.4854 114.375C69.4854 114.375 69.5956 112.473 70.1445 111.609C70.6933 110.746 70.475 108.266 70.475 108.266C70.475 108.266 71.5166 107.69 70.8035 102.1C70.0904 96.51 71.9631 89.2493 71.9631 89.2493L72.0268 88.2355L72.1273 86.5932C72.1273 86.5932 87.8377 85.5551 89.1016 86.8223C89.432 87.174 89.7031 87.5819 89.9036 88.0287C90.336 89.004 90.6416 90.0358 90.812 91.0964L91.471 108.558L92.13 121.409L91.9097 131.09C91.9097 131.09 91.958 133.507 90.638 136.39Z" fill="#565988"/>
<path opacity="0.1" d="M85.9806 101.928L84.332 139.385L82.353 142.799C82.1037 142.722 81.9665 142.67 81.9665 142.67C81.9665 142.67 82.0767 138.692 81.6921 136.79C81.3075 134.888 81.3616 126.879 81.5819 125.9C81.8022 124.92 81.9105 123.016 81.9105 123.016C81.9105 123.016 81.7462 120.77 82.0206 119.675C82.1032 119.379 82.1088 119.066 82.0367 118.767C81.9647 118.468 81.8176 118.195 81.6109 117.976L81.638 117.773L85.9806 101.928Z" fill="black"/>
<path opacity="0.1" d="M68.2274 142.153C68.2274 142.153 72.512 140.366 73.171 140.936C73.83 141.506 68.1191 142.376 68.1191 142.376L68.2274 142.153Z" fill="black"/>
<path opacity="0.1" d="M89.3761 137.426C89.2119 137.485 85.0374 139.048 85.422 140.711C85.8066 142.374 89.3761 137.426 89.3761 137.426Z" fill="black"/>
<path d="M76.3308 52.1673C76.3308 52.1673 77.73 55.7115 76.9898 57.5282C76.2496 59.3449 84.9812 62.4551 84.9812 62.4551C84.9812 62.4551 82.4282 55.5391 84.9001 51.6482C87.3719 47.7573 76.3308 52.1673 76.3308 52.1673Z" fill="#FFD6D6"/>
<path d="M127.456 154.772C125.767 155.161 123.543 156.933 123.543 156.933C123.543 156.933 119.258 157.884 116.332 157.453C113.406 157.021 113.903 153.691 116.168 152.87C117.739 152.302 119.349 150.901 120.19 150.099C120.561 149.74 120.781 149.49 120.781 149.49L128.981 147.761C128.981 147.761 129.115 148.241 129.3 148.904C129.629 150.074 130.114 151.81 130.299 152.471C130.587 153.519 129.146 154.383 127.456 154.772Z" fill="#505484"/>
<path d="M125.356 148.116C125.356 148.116 121.894 148.505 120.453 147.641C119.011 146.777 116.951 148.16 116.951 148.16C116.951 148.16 111.018 148.03 109.04 147.382C107.063 146.733 109.328 143.529 112.542 143.837C113.714 143.949 114.506 143.679 115.041 143.294C115.601 142.892 115.99 142.279 116.129 141.583L123.087 142.015L124.053 144.602L125.356 148.116Z" fill="#505484"/>
<path opacity="0.1" d="M124.159 145.782C124.159 145.782 116.073 144.395 115.041 143.294C115.6 142.892 115.99 142.279 116.129 141.583L123.087 142.015L124.053 144.602L124.159 145.782Z" fill="black"/>
<path d="M112.171 97.2462L112.254 109.908C112.254 109.908 112.542 119.418 112.542 120.715C112.542 122.013 112.583 124.906 112.583 124.906C112.583 124.906 113.201 128.45 113.573 129.618C113.944 130.786 114.232 136.107 114.232 136.107C114.232 136.107 115.097 137.577 114.726 138.134C114.355 138.692 116.168 139.906 116.168 139.906C116.168 139.906 115.008 141.593 114.933 142.716C114.858 143.84 124.159 145.435 124.159 145.435L120.536 106.451L117.65 96.6846L112.171 97.2462Z" fill="#575988"/>
<path opacity="0.1" d="M112.171 97.2462L112.254 109.908C112.254 109.908 112.542 119.418 112.542 120.715C112.542 122.013 112.583 124.906 112.583 124.906C112.583 124.906 113.201 128.45 113.573 129.618C113.944 130.786 114.232 136.107 114.232 136.107C114.232 136.107 115.097 137.577 114.726 138.134C114.355 138.692 116.168 139.906 116.168 139.906C116.168 139.906 115.008 141.593 114.933 142.716C114.858 143.84 124.159 145.435 124.159 145.435L120.536 106.451L117.65 96.6846L112.171 97.2462Z" fill="black"/>
<path opacity="0.1" d="M129.3 148.914C126.608 155.648 120.205 150.451 120.205 150.451C120.205 150.451 120.205 150.322 120.19 150.099C120.561 149.74 120.781 149.49 120.781 149.49L128.981 147.761C128.981 147.761 129.115 148.251 129.3 148.914Z" fill="black"/>
<path d="M129.393 148.333C126.755 155.429 120.205 150.105 120.205 150.105C120.205 150.105 119.999 146.431 120.412 144.746C120.826 143.061 119.958 138.002 119.958 138.002C119.958 138.002 119.463 133.507 119.011 132.471C118.559 131.435 118.599 129.359 118.599 129.186C118.599 129.014 118.764 127.629 118.393 126.678C118.021 125.727 117.813 123.394 117.813 123.394C117.813 123.394 117.813 120.109 117.442 118.164L116.164 111.473L113.857 97.7712L114.578 97.6414L127.493 95.2651C127.493 95.2651 129.924 108.242 129.099 109.572C128.921 109.864 128.765 110.502 128.635 111.325C128.164 114.27 127.988 119.555 127.988 119.555C127.988 119.555 129.594 122.191 128.978 124.05C128.361 125.91 129.557 128.977 129.557 128.977C129.557 128.977 129.928 141.08 129.227 142.29C128.525 143.501 129.393 148.333 129.393 148.333Z" fill="#575988"/>
<path d="M128.156 59.8597C128.156 59.8597 116.456 68.5032 119.092 64.1805C120.513 61.8528 120.252 58.8885 119.695 56.6501C119.414 55.5116 119.025 54.4052 118.536 53.3472C118.536 53.3472 128.477 48.9109 127.159 52.8869C126.85 53.8132 126.719 54.7944 126.772 55.7742C126.851 57.2469 127.332 58.6649 128.156 59.8597Z" fill="#D28690"/>
<path d="M107.091 79.6549C107.091 79.6549 102.147 78.1565 101.324 79.6265C100.5 81.0965 101.571 84.3224 103.063 84.8414C104.555 85.3605 107.98 83.0835 107.98 83.0835L107.091 79.6549Z" fill="#D28690"/>
<path d="M112.749 77.1062L110.689 79.0952C110.689 79.0952 107.104 79.4399 106.074 79.1804C106.074 79.1804 107.023 85.8369 105.662 86.6581L113.984 84.886L112.749 77.1062Z" fill="#585B8A"/>
<path opacity="0.1" d="M112.749 77.1062L110.689 79.0952C110.689 79.0952 107.104 79.4399 106.074 79.1804C106.074 79.1804 107.023 85.8369 105.662 86.6581L113.984 84.886L112.749 77.1062Z" fill="black"/>
<path opacity="0.1" d="M86.2994 48.5359C86.2994 50.2567 85.6478 51.907 84.488 53.1238C83.3282 54.3405 81.7552 55.0241 80.115 55.0241C76.9416 53.4244 73.9306 52.1227 73.9306 48.5359C73.8977 47.6629 74.0332 46.792 74.3289 45.9753C74.6246 45.1586 75.0745 44.413 75.6516 43.7832C76.2286 43.1533 76.921 42.6523 77.6872 42.31C78.4533 41.9677 79.2775 41.7913 80.1102 41.7913C80.9429 41.7913 81.767 41.9677 82.5332 42.31C83.2993 42.6523 83.9917 43.1533 84.5688 43.7832C85.1459 44.413 85.5957 45.1586 85.8915 45.9753C86.1872 46.792 86.3227 47.6629 86.2897 48.5359H86.2994Z" fill="black"/>
<path d="M86.2995 48.3616C86.3004 49.8875 85.7877 51.3647 84.8518 52.5327C83.916 53.7008 82.617 54.4846 81.1841 54.746C79.7512 55.0074 78.2763 54.7296 77.0195 53.9615C75.7628 53.1935 74.8049 51.9845 74.3148 50.5478C73.8248 49.1112 73.834 47.5391 74.3408 46.1089C74.8477 44.6787 75.8196 43.4821 77.0852 42.7303C78.3509 41.9785 79.8289 41.7197 81.2587 41.9995C82.6884 42.2793 83.9781 43.0798 84.9002 44.2598C85.8033 45.417 86.2976 46.866 86.2995 48.3616Z" fill="#FFD6D6"/>
<path opacity="0.1" d="M89.9037 88.0348C89.2918 88.4334 88.6515 88.7819 87.9884 89.077C87.9884 89.077 84.8576 88.6005 84.4054 89.1621C83.9531 89.7238 79.9603 89.9407 79.9603 89.9407C79.9603 89.9407 73.8629 89.6386 72.9565 88.8174C72.6762 88.5793 72.3644 88.3853 72.0308 88.2416L72.1313 86.5993C72.1313 86.5993 87.8416 85.5612 89.1055 86.8284C89.4345 87.1804 89.7044 87.5883 89.9037 88.0348Z" fill="black"/>
<path d="M90.667 86.8729C90.5433 87.6069 87.9884 88.7301 87.9884 88.7301C87.9884 88.7301 84.8576 88.2557 84.4053 88.8173C83.9531 89.379 79.9603 89.5959 79.9603 89.5959C79.9603 89.5959 73.8629 89.2918 72.9565 88.4706C72.0501 87.6495 70.0305 87.2541 70.0305 87.2541C70.0305 87.2541 69.0004 79.5615 69.414 77.8766C69.8275 76.1917 68.7955 71.5648 68.5481 69.9225C68.3008 68.2801 69.2478 63.7425 70.4015 63.0085C71.5553 62.2745 73.2038 59.809 74.1914 59.075C75.0244 58.4566 75.9443 57.6557 76.2129 57.4144L76.2922 57.3455C76.2922 57.3455 76.4584 56.0053 77.1174 55.3179C77.7764 54.6306 83.8313 59.6833 83.8313 59.6833C83.8313 59.6833 83.8739 60.0726 84.2855 59.3386C84.3783 59.1744 85.1764 60.3828 85.3156 60.8937C85.3156 60.8937 88.6107 66.946 88.8175 68.193C89.0243 69.4399 89.8882 73.5092 90.0525 74.5027C90.095 74.7582 90.1645 75.6544 90.2457 76.8547C90.2612 77.0899 90.2747 77.3393 90.2921 77.5988C90.4139 79.5899 90.5453 82.1325 90.6245 84.0546C90.6245 84.2736 90.6419 84.4844 90.6477 84.6872C90.6894 85.4149 90.6959 86.1445 90.667 86.8729Z" fill="#DCE6F2"/>
<path opacity="0.1" d="M69.7463 71.2688C69.7463 71.2688 72.0114 74.1642 72.7535 74.1642C73.4956 74.1642 69.7463 71.2688 69.7463 71.2688Z" fill="black"/>
<path opacity="0.1" d="M74.5182 77.4934C74.5182 77.4934 70.8095 81.729 71.3042 82.5076C71.799 83.2862 74.5182 77.4934 74.5182 77.4934Z" fill="black"/>
<path opacity="0.1" d="M71.7988 85.9221C71.7988 85.9221 76.0506 81.0377 76.2439 79.3528L71.7988 85.9221Z" fill="black"/>
<path opacity="0.1" d="M77.1543 86.2669C77.1543 86.2669 82.0574 83.5439 82.469 81.3825C82.8807 79.2211 77.1543 86.2669 77.1543 86.2669Z" fill="black"/>
<path opacity="0.1" d="M83.3754 59.9897L82.6951 61.7172L83.8276 62.2788L84.9408 65.5432C84.9408 65.5432 88.0098 71.9827 87.8861 75.3323C87.7624 78.6818 88.4427 83.7163 88.4427 83.7163L90.213 83.3716L89.3781 73.5196C89.2481 71.9943 88.8839 70.501 88.2997 69.0975C86.885 65.6993 84.2528 59.426 84.0866 59.426C83.8604 59.426 84.0189 59.5132 84.0189 59.5132L83.3754 59.9897Z" fill="black"/>
<path d="M83.5397 59.8153L82.8594 61.5448L83.9938 62.1064L85.1051 65.3708C85.1051 65.3708 88.1741 71.8104 88.0504 75.1599C87.9267 78.5094 88.607 83.5439 88.607 83.5439L90.3792 83.1992L89.5424 73.3473C89.4139 71.8218 89.0504 70.3284 88.4659 68.9251C87.0512 65.5249 84.419 59.2537 84.2547 59.2537C84.0267 59.2537 84.1852 59.3408 84.1852 59.3408L83.5397 59.8153Z" fill="#575989"/>
<path d="M103.602 85.2166C102.74 85.1477 100.672 84.0508 99.8511 83.5946L99.5032 83.3918L99.5457 80.0443C99.7488 79.919 99.9592 79.8072 100.176 79.7097C101.273 79.2069 103.525 78.5236 104.654 80.7235C106.177 83.6736 104.694 85.2937 103.602 85.2166Z" fill="#FFD6D6"/>
<path opacity="0.1" d="M84.9002 44.2597C84.8116 44.3179 84.7143 44.3597 84.6122 44.3834C83.8952 44.5476 83.0797 43.9008 82.4651 44.3165C82.0902 44.5719 82.0032 45.1011 81.9529 45.5675C81.8653 46.3785 81.7777 47.1841 81.6901 47.9843C81.6717 48.2692 81.6144 48.5499 81.52 48.8177C81.2166 49.5456 80.3836 49.8882 79.6241 49.8761C79.3266 49.8983 79.0328 49.7962 78.8066 49.5922C78.6733 49.4503 78.6018 49.2516 78.4549 49.1218C77.4886 48.2722 77.1948 50.3546 77.4499 50.9466C77.8596 51.9138 79.3149 52.8464 78.7042 54.0751C78.6015 54.2748 78.4457 54.4389 78.2558 54.5476C77.3355 54.2452 76.4953 53.7212 75.8025 53.0174C75.1096 52.3137 74.5832 51.4497 74.2653 50.4945C73.9474 49.5392 73.8469 48.5193 73.9717 47.516C74.0966 46.5127 74.4433 45.554 74.9843 44.7164C75.5252 43.8788 76.2454 43.1856 77.0873 42.692C77.9291 42.1985 78.8694 41.9183 79.8328 41.8739C80.7963 41.8295 81.7563 42.0222 82.6362 42.4364C83.516 42.8507 84.2913 43.4751 84.9002 44.2597Z" fill="black"/>
<path d="M78.2907 49.1137C78.4356 49.2414 78.5091 49.4401 78.6424 49.582C78.8687 49.7859 79.1624 49.8879 79.4599 49.8659C80.2195 49.878 81.0524 49.5374 81.3539 48.8055C81.45 48.5388 81.508 48.2587 81.5259 47.9742L81.7887 45.5573C81.839 45.091 81.924 44.5618 82.3009 44.3063C82.9155 43.9008 83.731 44.5374 84.448 44.3732C84.7065 44.3043 84.9302 44.1347 85.0738 43.899C85.2174 43.6632 85.2701 43.379 85.2211 43.104C85.138 42.7167 84.8558 42.4105 84.7109 42.0415C84.623 41.758 84.5526 41.4688 84.5002 41.1757C84.1002 39.6023 82.3395 38.7183 80.8089 38.9819C79.9585 39.1299 79.1681 39.5557 78.3158 39.6855C77.7051 39.7787 77.0809 39.7179 76.4644 39.7869C75.8916 39.8489 75.3347 40.0214 74.8216 40.2958C74.687 40.3583 74.5679 40.4527 74.4738 40.5715C74.3862 40.732 74.3273 40.9079 74.2998 41.0906C74.093 41.9016 73.4282 42.4997 72.947 43.183C72.3966 43.9692 72.0781 44.9075 72.0309 45.8817C72.012 46.1305 72.0342 46.3809 72.0966 46.6218C72.1372 46.7637 72.201 46.9016 72.2319 47.0476C72.3266 47.4916 72.1102 47.9356 72.0039 48.3776C71.8718 48.9417 71.9193 49.5356 72.1392 50.0686C72.8813 51.859 75.3261 52.4571 75.8343 54.3367C76.2857 54.5637 76.7732 54.7012 77.2722 54.7422C77.7708 54.7523 78.3081 54.5272 78.54 54.0629C79.1488 52.8464 77.6955 51.9016 77.2857 50.9364C77.0287 50.3424 77.3167 48.2621 78.2907 49.1137Z" fill="#353045"/>
<path opacity="0.1" d="M127.169 52.8869C126.86 53.8132 126.728 54.7944 126.782 55.7742C126.484 56.0398 126.16 55.245 125.816 55.4498C124.873 56.0215 123.783 57.382 122.615 57.382C121.603 57.3827 120.605 57.1319 119.703 56.6501C119.421 55.5116 119.033 54.4052 118.543 53.3472C118.543 53.3472 128.487 48.9109 127.169 52.8869Z" fill="black"/>
<path d="M129.036 50.2937C129.036 51.6275 128.659 52.9313 127.952 54.0403C127.246 55.1493 126.242 56.0137 125.067 56.5241C123.893 57.0345 122.6 57.168 121.354 56.9078C120.107 56.6476 118.961 56.0054 118.062 55.0622C117.163 54.1191 116.551 52.9175 116.303 51.6094C116.055 50.3012 116.182 48.9453 116.669 47.713C117.155 46.4808 117.979 45.4276 119.036 44.6866C120.094 43.9456 121.336 43.55 122.608 43.55C123.452 43.5498 124.288 43.724 125.068 44.0628C125.848 44.4016 126.556 44.8984 127.153 45.5246C127.75 46.1509 128.224 46.8944 128.547 47.7127C128.87 48.531 129.036 49.4081 129.036 50.2937Z" fill="#D28690"/>
<path d="M128.761 61.3582C128.761 61.3582 127.551 62.741 127.387 62.8545C127.223 62.968 123.715 78.4667 123.653 78.6472C123.591 78.8277 119.477 92.8219 119.477 92.8219L112.885 96.2221L113.435 79.1054L118.267 64.9895C118.267 64.9895 119.861 63.0877 120.354 62.3963C120.847 61.7049 127 57.5544 127 57.5544L128.052 59.8273L128.761 61.3582Z" fill="#F0F3F7"/>
<path opacity="0.1" d="M127.889 60.174L120.31 65.8674L120.188 62.7409C120.683 62.0495 126.834 57.9011 126.834 57.9011L127.889 60.174Z" fill="black"/>
<path d="M128.054 59.8273L120.474 65.5207L120.356 62.3963C120.851 61.7028 127.002 57.5544 127.002 57.5544L128.054 59.8273Z" fill="#F0F3F7"/>
<path d="M120.103 61.0054L120.356 62.3963L118.661 64.2028L120.014 61.0256C120.014 61.0256 117.115 63.1445 116.245 63.7061C115.376 64.2677 114.506 66.1696 114.473 66.6886C114.44 67.2077 113.072 75.03 113.072 75.03C113.072 75.03 112.042 77.9254 112.332 78.7466C112.622 79.5677 110.766 105.458 110.766 105.458C111.014 104.955 111.365 104.516 111.793 104.171C112.221 103.827 112.717 103.585 113.244 103.465L112.583 88.1646C112.583 88.1646 113.387 77.9862 113.428 77.8565C113.468 77.7267 115.302 71.8265 115.302 71.8265L120.103 61.0054Z" fill="#585B8A"/>
<path opacity="0.1" d="M120.522 62.5686L120.391 65.4072C120.391 65.4072 118.557 71.4798 117.94 72.4733C117.324 73.4668 115.447 79.3893 115.447 79.3893L114.39 89.6772L112.577 90.5429L111.684 88.8175L113.169 78.8824C113.169 78.8824 115.969 70.4984 116.383 69.6326L118.449 65.0666L120.522 62.5686Z" fill="black"/>
<path d="M120.356 62.3962L120.227 65.2348C120.227 65.2348 118.393 71.3074 117.774 72.3009C117.156 73.2944 115.283 79.2169 115.283 79.2169L114.232 89.5028L112.419 90.3665L111.512 88.639L112.997 78.704C112.997 78.704 115.797 70.3179 116.209 69.4542L118.29 64.8942L120.356 62.3962Z" fill="#663D5C"/>
<path d="M98.989 84.0627L102.532 86.6357C102.532 86.6357 105.03 85.1657 103.575 84.2148C102.12 83.2638 100.829 83.1199 100.361 83.1199C99.8935 83.1199 98.989 84.0627 98.989 84.0627Z" fill="#D28690"/>
<path d="M101.635 79.3063C101.556 79.3579 101.491 79.4299 101.446 79.5155C101.401 79.601 101.377 79.6972 101.378 79.7949C101.378 80.5837 101.463 82.672 102.093 81.7292C102.866 80.5755 102.725 79.5395 103.906 80.2876C104.639 80.7672 105.282 81.386 105.8 82.1124L105.471 79.6348C105.471 79.6348 103.044 78.3777 101.635 79.3063Z" fill="#D28690"/>
<path opacity="0.1" d="M129.103 109.564C128.925 109.856 128.769 110.494 128.639 111.317C121.415 113.59 116.129 108.785 116.129 108.785C115.49 106.511 114.967 104.203 114.564 101.871C114.434 101.072 114.463 99.5231 114.583 97.6334L127.499 95.2571C127.499 95.2571 129.928 108.223 129.103 109.564Z" fill="black"/>
<path d="M136.518 70.8797C136.19 72.005 136.314 74.2941 136.314 74.2941L133.347 88.9899C133.347 88.9899 131.905 100.314 131.658 101.826C131.411 103.339 130.999 109.995 130.999 109.995C122.594 114.318 116.118 108.44 116.118 108.44C115.478 106.166 114.956 103.857 114.552 101.524C114.139 98.9574 115.356 88.6736 115.932 84.1055C116.104 82.7531 116.22 81.9015 116.22 81.9015L118.383 73.4729C118.383 73.4729 121.04 66.3623 122.03 64.2881C123.019 62.2139 126.993 57.5545 126.993 57.5545C127.485 57.2261 128.274 58.3858 128.86 59.4422C129.302 60.2411 129.633 60.9831 129.633 60.9831C129.633 60.9831 134.576 63.2297 135.316 64.43C136.057 65.6303 135.935 68.1039 136.018 68.2337C136.101 68.3635 136.849 69.7564 136.518 70.8797Z" fill="#585B8A"/>
<path opacity="0.1" d="M124.861 65.6506C124.861 65.6506 125.232 67.9418 124.281 68.6332C123.363 69.3023 116.529 83.3999 116.104 84.2799C116.276 82.9255 116.392 82.0739 116.392 82.0739L118.555 73.6473C118.555 73.6473 121.214 66.5367 122.202 64.4604C123.189 62.3842 127.167 57.7269 127.167 57.7269C127.659 57.3984 128.446 58.5582 129.032 59.6146C128.148 61.5387 126.307 65.1762 124.861 65.6506Z" fill="black"/>
<path d="M124.697 65.4783C124.697 65.4783 125.066 67.7694 124.117 68.4608C123.168 69.1522 116.367 83.2255 115.936 84.1055C116.108 82.7531 116.224 81.9016 116.224 81.9016L118.387 73.473C118.387 73.473 121.044 66.3623 122.033 64.2881C123.023 62.2139 126.996 57.5545 126.996 57.5545C127.489 57.2261 128.278 58.3858 128.863 59.4422C127.984 61.3643 126.14 65.0038 124.697 65.4783Z" fill="#585B8A"/>
<path d="M134.501 86.1818L132.176 98.8723V98.8743L131.954 100.089V100.091L131.453 102.822L129.318 102.348L128.322 102.127L114.548 99.0649L113.536 98.8399L111.224 98.3269L111.677 95.176L111.864 93.8662L113.532 82.2483L134.501 86.1818Z" fill="#6C63FF"/>
<path d="M121.647 96.5547C121.647 96.5547 116.168 98.6289 117.362 101.092C118.557 103.556 126.22 99.1905 126.22 99.1905L121.647 96.5547Z" fill="#D28690"/>
<path opacity="0.1" d="M125.561 114.231C125.561 114.403 125.767 116.609 126.591 117.386C127.414 118.162 125.561 114.231 125.561 114.231Z" fill="black"/>
<path opacity="0.1" d="M120.041 122.053C120.041 122.053 121.029 124.906 124.942 126.074C128.856 127.242 120.041 122.053 120.041 122.053Z" fill="black"/>
<path opacity="0.1" d="M129.036 50.2938C129.036 51.4793 128.738 52.6439 128.173 53.6702C127.607 54.6965 126.793 55.5481 125.814 56.1393C125.445 55.9226 125.117 55.6359 124.848 55.2938C124.567 54.9369 124.349 54.4503 124.517 54.0245C124.652 53.6819 125.01 53.4649 125.097 53.1101C125.138 52.8931 125.127 52.6689 125.066 52.4572C124.994 52.1227 124.927 51.7881 124.857 51.4556C124.797 51.1717 124.691 50.8372 124.422 50.7683C124.154 50.6993 123.93 50.9345 123.719 51.1089C123.203 51.5367 122.213 51.8266 121.593 51.4759C120.973 51.1251 121.147 49.9511 121.046 49.3165C121.045 49.2614 121.032 49.2072 121.009 49.1578C120.985 49.1084 120.952 49.065 120.911 49.0306C120.821 48.9992 120.724 48.9922 120.631 49.0104C120.296 49.0104 120.028 48.6961 119.931 48.3595C119.863 48.0159 119.825 47.6663 119.819 47.3153C119.782 46.9645 119.66 46.5935 119.374 46.413C119.146 46.3015 118.892 46.258 118.642 46.2873L117.43 46.3015C118.234 45.1614 119.36 44.3161 120.648 43.8859C121.936 43.4557 123.321 43.4625 124.605 43.9053C125.889 44.3481 127.008 45.2044 127.801 46.3524C128.595 47.5004 129.024 48.8817 129.026 50.2999L129.036 50.2938Z" fill="black"/>
<path d="M123.891 51.1089C124.102 50.9345 124.334 50.7034 124.594 50.7703C124.855 50.8372 124.967 51.1758 125.027 51.4556L125.236 52.4552C125.298 52.6674 125.309 52.8922 125.269 53.1101C125.17 53.4669 124.815 53.6818 124.678 54.0245C124.509 54.4503 124.73 54.9369 125.008 55.2917C125.516 55.9336 126.217 56.3736 126.997 56.5387C127.2 56.59 127.412 56.5948 127.617 56.5529C128.077 56.4414 128.39 55.9973 128.637 55.5817C129.915 53.4933 131.015 51.2042 131.239 48.7346C131.3 48.2309 131.278 47.7198 131.173 47.2241C131.068 46.8387 130.92 46.4678 130.732 46.119C130.403 45.4065 129.986 44.7431 129.49 44.1462C128.61 43.1527 127.397 42.5424 126.15 42.1815C124.748 41.7733 123.284 41.6529 121.839 41.8267C121.452 41.8733 121.081 41.9402 120.7 41.9666C120.222 41.9899 119.743 41.9818 119.266 41.9422L116.421 41.7638C116.259 42.1105 116.421 42.5221 116.615 42.8465C116.808 43.171 117.048 43.5075 117.032 43.8928C117.017 44.278 116.756 44.5821 116.555 44.9065C116.354 45.231 116.201 45.6507 116.402 45.967C116.603 46.2833 117.013 46.3035 117.368 46.2995L118.802 46.2833C119.052 46.2563 119.304 46.3019 119.531 46.4151C119.817 46.5955 119.939 46.9686 119.975 47.3173C119.983 47.6682 120.021 48.0176 120.088 48.3615C120.186 48.6981 120.453 49.0164 120.787 49.0124C120.881 48.9928 120.978 49.0005 121.067 49.0347C121.108 49.0686 121.142 49.1117 121.165 49.1608C121.189 49.2098 121.201 49.2637 121.203 49.3185C121.303 49.9532 121.118 51.1251 121.75 51.4779C122.382 51.8307 123.375 51.5367 123.891 51.1089Z" fill="#663D5C"/>
<path opacity="0.1" d="M132.06 64.4279C131.349 64.3487 130.634 64.5254 130.032 64.9288C129.43 65.3322 128.976 65.9385 128.746 66.6481C127.973 68.9575 126.684 73.1241 127.006 74.7705C127.46 77.1043 127.996 80.9952 127.996 80.9952C127.996 80.9952 130.344 82.4144 129.155 83.8459C127.967 85.2774 127.63 87.3049 127.63 87.3049C127.63 87.3049 126.106 87.9963 125.777 89.4663C125.449 90.9363 123.222 92.9659 123.222 92.9659L119.886 96.4675C119.886 96.4675 125.406 102.347 126.519 102.648L129.938 98.4545L133.975 92.8361L137.477 88.9838C137.477 88.9838 138.301 86.9562 137.889 83.1038C137.477 79.2514 135.869 75.5836 135.869 75.5836L135.993 74.2859C135.993 74.2859 136.372 64.9896 132.06 64.4279Z" fill="black"/>
<path d="M132.389 64.4277C131.679 64.3495 130.965 64.5266 130.363 64.93C129.762 65.3334 129.309 65.9391 129.078 66.6479C128.305 68.9573 127.016 73.124 127.339 74.7704C127.791 77.1041 128.326 80.995 128.326 80.995C128.326 80.995 130.674 82.4143 129.486 83.8457C128.297 85.2772 127.963 87.3048 127.963 87.3048C127.963 87.3048 126.438 87.9962 126.108 89.4662C125.777 90.9361 123.555 92.9657 123.555 92.9657L120.217 96.4673C120.217 96.4673 125.737 102.347 126.85 102.647L130.269 98.4543L134.296 92.836L137.798 88.9836C137.798 88.9836 138.623 86.956 138.21 83.1037C137.796 79.2513 136.192 75.5834 136.192 75.5834L136.316 74.2858C136.316 74.2858 136.7 64.9894 132.389 64.4277Z" fill="#585B8A"/>
<path opacity="0.1" d="M128.939 77.5808C128.939 77.5808 132.441 82.0739 133.925 81.0804C135.409 80.0869 128.939 77.5808 128.939 77.5808Z" fill="black"/>
<path opacity="0.1" d="M130.257 74.1218C130.628 74.2516 133.678 78.7041 135.243 78.177C136.808 77.6498 130.257 74.1218 130.257 74.1218Z" fill="black"/>
<path opacity="0.1" d="M131.123 81.7698C131.123 81.7698 131.33 84.3205 133.842 83.9737C136.354 83.627 131.123 81.7698 131.123 81.7698Z" fill="black"/>
<path opacity="0.1" d="M120.02 61.198L118.661 64.3752L120.358 62.5686L120.02 61.198Z" fill="black"/>
<path d="M120.02 61.0256L118.661 64.2028L120.358 62.3963L120.02 61.0256Z" fill="#F0F3F7"/>
<path opacity="0.3" d="M114.549 99.0647L113.536 98.8396L111.677 95.1758L111.864 93.866L114.549 99.0647Z" fill="black"/>
<path opacity="0.3" d="M132.176 98.8743L131.954 100.089V100.091L129.318 102.347L128.322 102.126L132.176 98.8743Z" fill="black"/>
<path opacity="0.1" d="M90.642 84.6954C90.1318 84.7846 89.637 84.8657 89.1848 84.9265C86.6724 85.2732 80.6967 82.1609 80.6967 82.1609C80.6967 82.1609 73.4049 75.7639 71.3042 69.7137C69.2034 63.6634 73.8166 62.7551 73.8166 62.7551C75.5559 61.7169 79.3381 64.6123 79.8734 65.0888C80.4087 65.5653 80.8629 66.7737 80.8204 67.5523C80.7779 68.3309 82.0573 69.3244 82.0573 69.3244C82.0573 69.3244 84.2411 73.3004 84.7765 73.7323C85.3118 74.1642 85.4355 74.5535 85.5998 75.2895C85.764 76.0255 87.2058 76.6297 87.8242 76.5851C88.4427 76.5405 89.177 76.802 89.177 77.1467C89.177 77.4245 89.782 77.5624 90.2786 77.607C90.4255 79.8231 90.5705 82.7266 90.642 84.6954Z" fill="black"/>
<path opacity="0.1" d="M90.6189 84.0627C90.2323 84.1276 89.8613 84.1864 89.5134 84.2351C87.001 84.5818 81.0273 81.4695 81.0273 81.4695C81.0273 81.4695 73.7355 75.0725 71.6347 69.0223C69.534 62.972 74.1471 62.0637 74.1471 62.0637C75.8865 61.0255 79.6667 63.9209 80.202 64.3974C80.7374 64.8739 81.1915 66.0823 81.151 66.8609C81.1104 67.6395 82.3859 68.633 82.3859 68.633C82.3859 68.633 84.5698 72.609 85.1051 73.0409C85.6404 73.4728 85.7641 73.8621 85.9303 74.5981C86.0965 75.3341 87.5363 75.9363 88.1548 75.8937C88.7732 75.8511 89.5076 76.1106 89.5076 76.4553C89.5076 76.6581 89.8516 76.7939 90.2343 76.8608C90.2497 77.096 90.2633 77.3454 90.2807 77.6049C90.4082 79.598 90.5396 82.1406 90.6189 84.0627Z" fill="black"/>
<path opacity="0.1" d="M100.176 79.7097L100.019 83.5945H99.8511L99.5032 83.3918L99.5457 80.0443C99.7488 79.919 99.9592 79.8072 100.176 79.7097Z" fill="black"/>
<path d="M73.8166 62.4085C73.8166 62.4085 69.2034 63.3168 71.3042 69.3671C73.4049 75.4173 80.6967 81.8163 80.6967 81.8163C80.6967 81.8163 86.6704 84.9266 89.1848 84.5819C91.6991 84.2372 95.5277 83.3289 96.0224 83.4586C96.5172 83.5884 99.8548 83.5884 99.8548 83.5884L100.019 79.5333L96.1538 79.3163L94.1767 78.8844C94.1767 78.8844 93.4752 78.2762 93.0636 78.3654C92.6519 78.4546 91.788 77.8463 91.788 77.8463C91.788 77.8463 91.1271 77.2847 90.6285 77.2847C90.1298 77.2847 89.1867 77.1549 89.1867 76.8102C89.1867 76.4656 88.4446 76.202 87.8339 76.2486C87.2232 76.2952 85.764 75.687 85.594 74.9429C85.4239 74.1987 85.306 73.8196 84.7707 73.3877C84.2353 72.9558 82.0515 68.9778 82.0515 68.9778C82.0515 68.9778 80.774 67.9843 80.8146 67.2077C80.8552 66.4311 80.4029 65.2187 79.8676 64.7422C79.3323 64.2657 75.5443 61.3724 73.8166 62.4085Z" fill="#DCE6F2"/>
<path opacity="0.1" d="M85.6829 76.3257C85.6829 76.3257 83.9107 78.185 84.3629 78.5296L85.6829 76.3257Z" fill="black"/>
<path opacity="0.1" d="M87.5769 77.7957C87.5769 77.7957 85.2693 79.6549 85.8878 79.7847C86.5062 79.9145 87.5769 77.7957 87.5769 77.7957Z" fill="black"/>
<path opacity="0.1" d="M83.6614 80.5532C83.9919 80.7276 88.893 83.7973 90.7483 83.7527L83.6614 80.5532Z" fill="black"/>
<path opacity="0.1" d="M83.9939 60.0321C83.9939 60.0321 83.1281 63.0146 82.7976 63.0146C82.5386 63.0146 78.1902 59.3204 76.3755 57.7673L76.4547 57.6983C76.4547 57.6983 76.619 56.3581 77.278 55.6708C77.937 54.9834 83.9939 60.0321 83.9939 60.0321Z" fill="black"/>
<path d="M83.8276 59.6854C83.8276 59.6854 82.9637 62.6679 82.6333 62.6679C82.3724 62.6679 78.024 58.9737 76.2092 57.4206L76.2885 57.3516C76.2885 57.3516 76.4547 56.0114 77.1137 55.3241C77.7727 54.6367 83.8276 59.6854 83.8276 59.6854Z" fill="#DCE6F2"/>
<g opacity="0.15">
<path opacity="0.15" d="M72.1604 50.0464C72.7402 51.4353 74.3365 52.1084 75.2623 53.2155C74.7115 51.855 73.1016 51.1879 72.1604 50.0464Z" fill="black"/>
<path opacity="0.15" d="M78.0685 53.2459C77.8385 53.7102 77.2955 53.9353 76.8007 53.9251C76.3609 53.892 75.9302 53.7767 75.5291 53.5845C75.6746 53.8096 75.7854 54.0573 75.8576 54.3185C76.3088 54.546 76.7964 54.6835 77.2955 54.724C77.796 54.7362 78.3333 54.5111 78.5633 54.0448C78.9324 53.3047 78.5478 52.6721 78.0975 52.074C78.1814 52.2578 78.2226 52.4599 78.2175 52.6636C78.2125 52.8673 78.1614 53.0669 78.0685 53.2459Z" fill="black"/>
<path opacity="0.15" d="M85.2403 43.0837C85.1572 42.6944 84.875 42.3882 84.73 42.0212C84.6413 41.7373 84.5709 41.4473 84.5194 41.1534C84.4096 40.7378 84.2061 40.356 83.9261 40.0403C83.965 40.1401 83.9979 40.2423 84.0246 40.3464C84.0788 40.6417 84.1511 40.9329 84.2411 41.2183C84.386 41.5853 84.6682 41.8915 84.7513 42.2807C84.8003 42.5558 84.7476 42.84 84.604 43.0758C84.4605 43.3115 84.2367 43.4811 83.9783 43.55C83.2632 43.7142 82.4476 43.0654 81.833 43.4831C81.4562 43.7365 81.3692 44.2657 81.319 44.7321C81.2326 45.5431 81.145 46.3494 81.0561 47.151C81.0387 47.4353 80.9814 47.7154 80.8861 47.9823C80.5826 48.7122 79.7497 49.0548 78.9901 49.0427C78.6934 49.0635 78.4007 48.9616 78.1746 48.7588C78.0647 48.5956 77.9467 48.4385 77.8209 48.2884C76.8546 47.4368 76.5608 49.5192 76.8159 50.1132C76.9437 50.3805 77.102 50.6304 77.2875 50.8574C77.0749 50.1883 77.3725 48.2621 78.3157 49.0873C78.4414 49.2369 78.5588 49.394 78.6674 49.5577C78.8944 49.7602 79.1876 49.862 79.4849 49.8415C80.2444 49.8537 81.0774 49.511 81.3808 48.7811C81.4763 48.5136 81.5336 48.2328 81.5509 47.9478C81.6385 47.1368 81.7261 46.3311 81.8137 45.5309C81.864 45.0646 81.9509 44.5354 82.3259 44.282C82.9424 43.8643 83.7579 44.5131 84.473 44.3468C84.7294 44.2771 84.9512 44.108 85.0935 43.8736C85.2359 43.6392 85.2883 43.357 85.2403 43.0837Z" fill="black"/>
</g>
<path opacity="0.1" d="M128.029 56.0359C127.823 56.0761 127.612 56.0706 127.408 56.0197C126.63 55.8547 125.929 55.4154 125.422 54.7747C125.141 54.4179 124.921 53.9313 125.091 53.5055C125.226 53.1628 125.582 52.9479 125.671 52.591C125.711 52.3732 125.7 52.1483 125.638 51.9361L125.429 50.9365C125.369 50.6527 125.265 50.3181 124.996 50.2512C124.728 50.1843 124.504 50.4155 124.293 50.5898C123.777 51.0176 122.785 51.3096 122.167 50.9568C121.549 50.604 121.721 49.4321 121.62 48.7975C121.618 48.7427 121.605 48.689 121.582 48.64C121.559 48.591 121.526 48.5479 121.485 48.5136C121.394 48.4805 121.297 48.4728 121.203 48.4913C120.868 48.4913 120.602 48.177 120.503 47.8405C120.436 47.4966 120.399 47.1471 120.393 46.7963C120.354 46.4475 120.234 46.0744 119.946 45.894C119.719 45.7818 119.468 45.7363 119.218 45.7622L117.784 45.7784C117.43 45.7784 117.011 45.7541 116.818 45.4459C116.624 45.1377 116.767 44.6998 116.97 44.3855C117.173 44.0712 117.43 43.759 117.448 43.3717C117.465 42.9844 117.225 42.6499 117.03 42.3255C116.918 42.1481 116.836 41.952 116.787 41.7456L116.375 41.7192C116.215 42.0639 116.375 42.4755 116.568 42.802C116.761 43.1284 117.003 43.4629 116.986 43.8462C116.968 44.2294 116.711 44.5376 116.508 44.8599C116.305 45.1823 116.157 45.6041 116.358 45.9204C116.559 46.2367 116.966 46.259 117.324 46.2549L118.758 46.2367C119.008 46.2113 119.26 46.2575 119.486 46.3705C119.774 46.5509 119.896 46.924 119.933 47.2727C119.939 47.6237 119.977 47.9733 120.045 48.3169C120.142 48.6515 120.41 48.9718 120.745 48.9658C120.838 48.9484 120.935 48.956 121.025 48.9881C121.066 49.0226 121.099 49.0661 121.122 49.1154C121.146 49.1648 121.159 49.2189 121.16 49.2739C121.261 49.9065 121.075 51.0805 121.707 51.4333C122.339 51.7861 123.325 51.4941 123.833 51.0663C124.044 50.8919 124.277 50.6608 124.538 50.7257C124.799 50.7906 124.911 51.1312 124.969 51.411L125.18 52.4126C125.241 52.625 125.252 52.8498 125.211 53.0675C125.114 53.4223 124.757 53.6393 124.621 53.9799C124.453 54.4057 124.672 54.8944 124.952 55.2492C125.463 55.8926 126.169 56.3322 126.952 56.4941C127.156 56.545 127.367 56.5505 127.573 56.5103C127.905 56.4041 128.19 56.1769 128.377 55.8696C128.271 55.9464 128.153 56.0027 128.029 56.0359Z" fill="black"/>
<path opacity="0.1" d="M39.3657 145.581C41.9455 145.581 44.0369 145.244 44.0369 144.829C44.0369 144.413 41.9455 144.077 39.3657 144.077C36.7859 144.077 34.6946 144.413 34.6946 144.829C34.6946 145.244 36.7859 145.581 39.3657 145.581Z" fill="#6C63FF"/>
<path opacity="0.1" d="M202.464 126.023C205.043 126.023 207.135 125.687 207.135 125.271C207.135 124.856 205.043 124.519 202.464 124.519C199.884 124.519 197.792 124.856 197.792 125.271C197.792 125.687 199.884 126.023 202.464 126.023Z" fill="#6C63FF"/>
<path opacity="0.1" d="M154.842 157.761C162.313 157.761 168.37 156.786 168.37 155.583C168.37 154.38 162.313 153.406 154.842 153.406C147.37 153.406 141.313 154.38 141.313 155.583C141.313 156.786 147.37 157.761 154.842 157.761Z" fill="#6C63FF"/>
<path opacity="0.1" d="M193.299 148.057C199.127 148.057 203.851 147.296 203.851 146.358C203.851 145.419 199.127 144.659 193.299 144.659C187.471 144.659 182.747 145.419 182.747 146.358C182.747 147.296 187.471 148.057 193.299 148.057Z" fill="#6C63FF"/>
<path opacity="0.1" d="M191.562 166.169C201.444 166.169 209.456 164.879 209.456 163.288C209.456 161.697 201.444 160.407 191.562 160.407C181.679 160.407 173.667 161.697 173.667 163.288C173.667 164.879 181.679 166.169 191.562 166.169Z" fill="#6C63FF"/>
<path opacity="0.1" d="M19.3726 168C26.8441 168 32.901 167.025 32.901 165.822C32.901 164.62 26.8441 163.645 19.3726 163.645C11.9011 163.645 5.84424 164.62 5.84424 165.822C5.84424 167.025 11.9011 168 19.3726 168Z" fill="#6C63FF"/>
<path d="M39.5783 120.871C39.5783 120.871 40.1079 121.597 39.3348 122.696C38.5618 123.795 37.924 124.724 38.1752 125.401C38.1752 125.401 39.3348 123.373 40.3011 123.337C41.2674 123.3 40.6239 122.096 39.5783 120.871Z" fill="#6C63FF"/>
<path opacity="0.1" d="M39.5782 120.871C39.6254 120.941 39.6619 121.017 39.6864 121.098C40.614 122.242 41.1069 123.306 40.2159 123.329C39.3868 123.353 38.3915 124.91 38.1538 125.304C38.1611 125.334 38.1701 125.364 38.1809 125.393C38.1809 125.393 39.3404 123.365 40.3068 123.329C41.2731 123.292 40.6237 122.096 39.5782 120.871Z" fill="black"/>
<path d="M40.5639 121.796C40.5639 122.051 40.5349 122.258 40.502 122.258C40.4692 122.258 40.4402 122.055 40.4402 121.796C40.4402 121.536 40.475 121.662 40.5078 121.662C40.5407 121.662 40.5639 121.54 40.5639 121.796Z" fill="#FFD037"/>
<path d="M40.9002 122.102C40.6876 122.224 40.5001 122.305 40.4847 122.266C40.4692 122.228 40.6277 122.112 40.8422 121.988C41.0567 121.865 40.9717 121.956 40.9872 121.988C41.0026 122.021 41.1147 121.978 40.9002 122.102Z" fill="#FFD037"/>
<path d="M36.7837 120.871C36.7837 120.871 36.2542 121.597 37.0272 122.696C37.8003 123.795 38.44 124.724 38.1868 125.401C38.1868 125.401 37.0272 123.373 36.0706 123.337C35.1139 123.3 35.7324 122.096 36.7837 120.871Z" fill="#6C63FF"/>
<path opacity="0.1" d="M36.7838 120.871C36.7376 120.941 36.7011 121.018 36.6755 121.098C35.7479 122.242 35.255 123.306 36.146 123.329C36.9751 123.353 37.9704 124.91 38.21 125.304C38.2021 125.334 38.1924 125.364 38.181 125.393C38.181 125.393 37.0215 123.365 36.0648 123.329C35.1082 123.292 35.7324 122.096 36.7838 120.871Z" fill="black"/>
<path d="M35.8 121.796C35.8 122.051 35.8271 122.258 35.86 122.258C35.8928 122.258 35.9218 122.055 35.9218 121.796C35.9218 121.536 35.887 121.662 35.8542 121.662C35.8213 121.662 35.8 121.54 35.8 121.796Z" fill="#FFD037"/>
<path d="M35.4618 122.102C35.6763 122.224 35.8618 122.305 35.8792 122.266C35.8966 122.228 35.7343 122.112 35.5197 121.988C35.3052 121.865 35.3903 121.956 35.3748 121.988C35.3593 122.021 35.2472 121.978 35.4618 122.102Z" fill="#FFD037"/>
<path opacity="0.1" d="M38.1808 130.952C41.2367 130.952 43.7139 130.554 43.7139 130.062C43.7139 129.571 41.2367 129.172 38.1808 129.172C35.125 129.172 32.6477 129.571 32.6477 130.062C32.6477 130.554 35.125 130.952 38.1808 130.952Z" fill="#6C63FF"/>
<path d="M41.0296 124.42L41.0025 124.647L40.9658 124.967L40.9504 125.101L40.9136 125.421L40.8962 125.555L40.8595 125.875L40.4363 129.525C40.3996 129.849 39.8932 130.103 39.2767 130.103H37.0851C36.4744 130.103 35.968 129.849 35.9255 129.525L35.5023 125.875L35.4656 125.555L35.4501 125.421L35.4114 125.101L35.396 124.967L35.3593 124.647L35.3322 124.42C35.311 124.235 35.5854 124.081 35.9313 124.081H40.4324C40.7764 124.081 41.0509 124.235 41.0296 124.42Z" fill="#65617D"/>
<path d="M41.0026 124.647L40.9659 124.967H35.3961L35.3594 124.647H41.0026Z" fill="#9D9CB5"/>
<path d="M40.9503 125.101L40.9136 125.421H35.45L35.4114 125.101H40.9503Z" fill="#9D9CB5"/>
<path d="M40.8982 125.555L40.8595 125.875H35.5023L35.4656 125.555H40.8982Z" fill="#9D9CB5"/>
<path d="M198.782 118.063C198.782 118.063 198.121 121.291 201.06 121.672L201.242 121.313C201.242 121.313 198.964 119.065 198.782 118.063Z" fill="#6C63FF"/>
<path d="M202.178 121.287L201.494 121.439L201.426 121.455C201.426 121.455 199.602 119.902 199.625 116.435C199.869 116.946 200.161 117.431 200.496 117.881C201.219 118.884 202.041 120.223 202.178 121.287Z" fill="#6C63FF"/>
<path d="M202.407 121.619C202.354 121.656 202.293 121.68 202.229 121.688C202.166 121.697 202.101 121.691 202.04 121.67C200.285 121.24 200.881 115.241 200.881 115.241C200.977 115.287 201.074 116.052 201.488 117.037C202.193 118.767 202.972 121.186 202.407 121.619Z" fill="#6C63FF"/>
<path d="M206.3 118.063C206.3 118.063 206.414 121.291 203.474 121.672L203.291 121.307C203.291 121.307 206.118 119.065 206.3 118.063Z" fill="#6C63FF"/>
<path d="M205.457 116.441C205.481 119.908 203.111 121.461 203.111 121.461L203.042 121.445L202.359 121.293C202.495 120.228 203.326 118.89 204.039 117.887C204.448 117.341 204.925 116.854 205.457 116.441Z" fill="#6C63FF"/>
<path d="M203.032 121.307C202.928 121.442 202.796 121.549 202.645 121.621C202.599 121.643 202.55 121.66 202.5 121.672C202.069 121.778 201.921 121.451 201.944 120.896C201.984 119.908 202.576 118.195 203.103 116.911C203.357 116.282 203.732 115.714 204.205 115.243C204.205 115.243 204.178 119.912 203.032 121.307Z" fill="#6C63FF"/>
<path d="M202.541 113.136C202.541 113.136 200.581 120.435 202.268 121.526C203.956 122.617 202.974 113.781 202.541 113.136Z" fill="#6C63FF"/>
<path opacity="0.1" d="M198.782 118.063C198.782 118.063 198.121 121.291 201.06 121.672L201.242 121.313C201.242 121.313 198.964 119.065 198.782 118.063Z" fill="black"/>
<path opacity="0.1" d="M202.178 121.287L201.494 121.439L201.426 121.455C201.426 121.455 199.602 119.902 199.625 116.435C199.869 116.946 200.161 117.431 200.496 117.881C201.219 118.884 202.041 120.223 202.178 121.287Z" fill="black"/>
<path opacity="0.1" d="M202.407 121.619C202.354 121.656 202.293 121.68 202.229 121.688C202.166 121.697 202.101 121.691 202.04 121.67C200.285 121.24 200.881 115.241 200.881 115.241C200.977 115.287 201.074 116.052 201.488 117.037C202.193 118.767 202.972 121.186 202.407 121.619Z" fill="black"/>
<path opacity="0.1" d="M206.3 118.063C206.3 118.063 206.414 121.291 203.474 121.672L203.291 121.307C203.291 121.307 206.118 119.065 206.3 118.063Z" fill="black"/>
<path opacity="0.1" d="M205.457 116.441C205.481 119.908 203.111 121.461 203.111 121.461L203.042 121.445L202.359 121.293C202.495 120.228 203.326 118.89 204.039 117.887C204.448 117.341 204.925 116.854 205.457 116.441Z" fill="black"/>
<path opacity="0.1" d="M203.032 121.307C202.928 121.442 202.796 121.549 202.645 121.621C202.599 121.643 202.55 121.66 202.5 121.672C202.069 121.778 201.921 121.451 201.944 120.896C201.984 119.908 202.576 118.195 203.103 116.911C203.357 116.282 203.732 115.714 204.205 115.243C204.205 115.243 204.178 119.912 203.032 121.307Z" fill="black"/>
<path opacity="0.1" d="M202.541 113.136C202.541 113.136 200.581 120.435 202.268 121.526C203.956 122.617 202.974 113.781 202.541 113.136Z" fill="black"/>
<path d="M198.782 118.063C198.782 118.063 198.395 121.291 201.333 121.672L201.515 121.313C201.515 121.313 198.964 119.065 198.782 118.063Z" fill="#6C63FF"/>
<path d="M202.45 121.287L201.766 121.439L201.698 121.455C201.698 121.455 199.601 119.902 199.619 116.441C199.619 116.441 200.156 117.049 200.763 117.887C201.491 118.884 202.313 120.222 202.45 121.287Z" fill="#6C63FF"/>
<path opacity="0.1" d="M202.45 121.287L201.766 121.439C201.118 120.843 200.861 119.286 200.769 117.881C201.491 118.884 202.313 120.222 202.45 121.287Z" fill="black"/>
<path d="M202.682 121.619C202.628 121.656 202.567 121.68 202.503 121.689C202.439 121.697 202.374 121.691 202.313 121.67C200.558 121.24 200.879 115.241 200.879 115.241C200.976 115.287 201.354 116.052 201.758 117.037C202.468 118.767 203.245 121.186 202.682 121.619Z" fill="#6C63FF"/>
<path d="M206.3 118.063C206.3 118.063 206.686 121.291 203.749 121.672L203.567 121.313C203.567 121.313 206.118 119.065 206.3 118.063Z" fill="#6C63FF"/>
<path d="M205.457 116.441C205.481 119.908 203.384 121.461 203.384 121.461L203.316 121.445L202.632 121.293C202.767 120.228 203.598 118.89 204.313 117.887C204.92 117.049 205.457 116.441 205.457 116.441Z" fill="#6C63FF"/>
<path opacity="0.1" d="M204.313 117.881C204.224 119.19 203.996 120.632 203.442 121.305C203.404 121.354 203.362 121.399 203.316 121.439L202.632 121.287C202.767 120.222 203.59 118.884 204.313 117.881Z" fill="black"/>
<path d="M203.304 121.307C203.201 121.442 203.068 121.55 202.918 121.621C202.872 121.643 202.824 121.66 202.775 121.672C202.342 121.778 202.195 121.451 202.216 120.896C202.259 119.908 202.85 118.195 203.376 116.911C203.762 115.989 204.112 115.289 204.205 115.243C204.205 115.241 204.45 119.912 203.304 121.307Z" fill="#6C63FF"/>
<path opacity="0.1" d="M202.682 121.619C202.582 121.621 202.484 121.588 202.404 121.526C201.578 120.987 201.561 118.963 201.758 117.037C202.467 118.767 203.244 121.186 202.682 121.619Z" fill="black"/>
<path opacity="0.1" d="M203.304 121.307C203.21 121.524 203.082 121.638 202.918 121.621C202.834 121.611 202.754 121.579 202.684 121.528C202.469 121.374 202.305 121.152 202.216 120.896C202.259 119.908 202.85 118.195 203.376 116.911C203.565 118.69 203.629 120.575 203.304 121.307Z" fill="black"/>
<path d="M202.541 113.136C202.541 113.136 200.856 120.435 202.541 121.526C204.226 122.617 202.974 113.781 202.541 113.136Z" fill="#6C63FF"/>
<path d="M205.776 121.169H198.759V122.388H199.829L199.857 122.532L200.286 124.898H204.365L204.794 122.532L204.82 122.388H205.776V121.169Z" fill="#4B4770"/>
<path opacity="0.1" d="M205.776 121.169H198.759V122.388H199.829L199.857 122.532L200.286 124.898H204.365L204.794 122.532L204.82 122.388H205.776V121.169Z" fill="black"/>
<path d="M205.185 121.885L205.067 122.532L204.638 124.898H200.558L200.129 122.532L200.011 121.885H205.185Z" fill="#4B4770"/>
<path opacity="0.1" d="M205.185 121.885L205.067 122.532H200.129L200.011 121.885H205.185Z" fill="black"/>
<path d="M206.049 121.169H199.031V122.388H206.049V121.169Z" fill="#4B4770"/>
<path d="M26.9389 142.021C26.7539 142.288 26.6056 142.582 26.4983 142.893C26.4712 142.968 26.4441 143.055 26.4171 143.138C26.3681 143.114 26.3169 143.095 26.2644 143.081C26.0391 143.022 25.8061 143.001 25.5745 143.02C25.5745 142.925 25.5861 142.818 25.588 142.722C25.617 141.654 25.4972 140.166 24.525 140.796C23.5935 141.405 24.2583 142.418 24.8594 143.067C24.9116 143.124 24.9638 143.177 25.014 143.227C24.4651 143.633 24.3608 144.592 24.2699 145.587C24.1791 146.583 23.3732 147.672 22.8379 148.29C22.7838 148.353 22.7354 148.41 22.6871 148.462C22.4707 148.281 22.2202 148.15 21.9521 148.078C21.6839 148.006 21.4042 147.994 21.1314 148.043C21.1101 147.956 21.085 147.864 21.0599 147.769C20.627 146.129 19.7283 143.288 18.5822 142.666L18.733 142.463C19.22 141.796 19.7689 140.802 18.9591 140.549C18.1493 140.295 18.0759 141.409 18.1203 142.244C18.1281 142.349 18.1358 142.449 18.1435 142.542C17.9817 142.55 17.823 142.592 17.6774 142.667C17.5318 142.741 17.4024 142.847 17.297 142.976L17.1714 142.82C16.5143 142.009 15.3103 140.717 14.945 141.692C14.6049 142.601 15.6659 143.781 16.4119 144.464L16.4583 144.507C15.9577 146.638 18.1435 148.375 19.3205 149.136L19.4732 149.233C17.8498 151.24 16.8467 155.003 16.8467 155.003L21.3923 155.855C21.3923 155.855 24.4072 153.126 24.0206 150.563H24.0516C27.0645 149.93 27.7487 146.561 27.279 144.559L27.3331 144.537C27.8821 144.302 28.363 143.92 28.7285 143.43C29.5711 142.203 27.8086 140.817 26.9389 142.021Z" fill="#6C63FF"/>
<path opacity="0.1" d="M26.9389 142.021C26.7539 142.288 26.6056 142.582 26.4983 142.893C26.4712 142.968 26.4441 143.055 26.4171 143.138C26.3681 143.114 26.3169 143.095 26.2644 143.081C26.0391 143.022 25.8061 143.001 25.5745 143.02C25.5745 142.925 25.5861 142.818 25.588 142.722C25.617 141.654 25.4972 140.166 24.525 140.796C23.5935 141.405 24.2583 142.418 24.8594 143.067C24.9116 143.124 24.9638 143.177 25.014 143.227C24.4651 143.633 24.3608 144.592 24.2699 145.587C24.1791 146.583 23.3732 147.672 22.8379 148.29C22.7838 148.353 22.7354 148.41 22.6871 148.462C22.4707 148.281 22.2202 148.15 21.9521 148.078C21.6839 148.006 21.4042 147.994 21.1314 148.043C21.1101 147.956 21.085 147.864 21.0599 147.769C20.627 146.129 19.7283 143.288 18.5822 142.666L18.733 142.463C19.22 141.796 19.7689 140.802 18.9591 140.549C18.1493 140.295 18.0759 141.409 18.1203 142.244C18.1281 142.349 18.1358 142.449 18.1435 142.542C17.9817 142.55 17.823 142.592 17.6774 142.667C17.5318 142.741 17.4024 142.847 17.297 142.976L17.1714 142.82C16.5143 142.009 15.3103 140.717 14.945 141.692C14.6049 142.601 15.6659 143.781 16.4119 144.464L16.4583 144.507C15.9577 146.638 18.1435 148.375 19.3205 149.136L19.4732 149.233C17.8498 151.24 16.8467 155.003 16.8467 155.003L21.3923 155.855C21.3923 155.855 24.4072 153.126 24.0206 150.563H24.0516C27.0645 149.93 27.7487 146.561 27.279 144.559L27.3331 144.537C27.8821 144.302 28.363 143.92 28.7285 143.43C29.5711 142.203 27.8086 140.817 26.9389 142.021Z" fill="black"/>
<path d="M17.8904 143.408L17.3589 145.03C17.3589 145.03 17.0632 144.811 16.6902 144.466C15.9442 143.783 14.8832 142.603 15.2234 141.694C15.5886 140.719 16.7926 142.007 17.4497 142.822C17.7145 143.146 17.8904 143.408 17.8904 143.408Z" fill="#6C63FF"/>
<path d="M19.0113 142.465C18.8499 142.688 18.6769 142.902 18.4934 143.106C18.448 142.821 18.4164 142.534 18.3987 142.246C18.3542 141.411 18.4392 140.301 19.2374 140.551C20.0356 140.8 19.4983 141.798 19.0113 142.465Z" fill="#6C63FF"/>
<path d="M25.8759 142.722C25.8604 143.26 25.8102 143.69 25.8102 143.69C25.5764 143.498 25.355 143.29 25.1473 143.067C24.5462 142.412 23.8814 141.402 24.8129 140.796C25.7754 140.164 25.8952 141.654 25.8759 142.722Z" fill="#6C63FF"/>
<path d="M29.0068 143.426C28.6413 143.916 28.1604 144.297 27.6114 144.533C27.4591 144.602 27.3029 144.662 27.1437 144.711L26.5176 143.789C26.5833 143.484 26.6699 143.184 26.7765 142.893C26.8839 142.582 27.0322 142.288 27.2172 142.021C28.083 140.816 29.8494 142.203 29.0068 143.426Z" fill="#6C63FF"/>
<path opacity="0.1" d="M17.4497 142.822C17.7145 143.146 17.8903 143.398 17.8903 143.398L17.3589 145.02C17.3589 145.02 17.0632 144.801 16.6902 144.456C16.7731 143.933 16.979 143.441 17.2893 143.023C17.3415 142.956 17.3975 142.887 17.4497 142.822Z" fill="black"/>
<path opacity="0.1" d="M19.0113 142.465C18.8499 142.688 18.677 142.902 18.4934 143.106C18.448 142.821 18.4164 142.534 18.3987 142.246C18.6196 142.251 18.8336 142.327 19.0113 142.465Z" fill="black"/>
<path d="M21.624 148.945L20.3021 149.553C20.3021 149.553 20.0141 149.407 19.5986 149.136C18.2091 148.239 15.4164 145.983 17.2795 143.323C19.1425 140.662 20.7137 145.433 21.338 147.767C21.5254 148.477 21.624 148.945 21.624 148.945Z" fill="#6C63FF"/>
<path opacity="0.1" d="M25.1377 143.067C25.33 142.859 25.5905 142.736 25.8663 142.722C25.8508 143.259 25.8006 143.689 25.8006 143.689C25.5668 143.497 25.3454 143.289 25.1377 143.067Z" fill="black"/>
<path opacity="0.1" d="M27.6154 144.533C27.463 144.602 27.3068 144.662 27.1477 144.711L26.5215 143.789C26.5872 143.484 26.6738 143.184 26.7805 142.893C27.1805 143.14 27.4781 143.756 27.6154 144.533Z" fill="black"/>
<path d="M24.3299 150.559C24.2584 150.575 24.183 150.589 24.1076 150.602C19.6761 151.307 22.6466 148.799 22.6466 148.799C22.6466 148.799 22.8398 148.596 23.1162 148.29C23.6515 147.672 24.4555 146.589 24.5483 145.587C24.6874 144.081 24.8478 142.668 26.5428 143.081C28.2067 143.491 28.5256 149.677 24.3299 150.559Z" fill="#6C63FF"/>
<path d="M24.2466 162.134H15.7798V164.47H24.2466V162.134Z" fill="#D4DFEC"/>
<path d="M25.4972 154.543H14.4348V162.694H25.4972V154.543Z" fill="#D4DFEC"/>
<path opacity="0.1" d="M24.2466 162.134H15.7798V164.47H24.2466V162.134Z" fill="black"/>
<path opacity="0.1" d="M25.4972 154.543H14.4348V162.694H25.4972V154.543Z" fill="black"/>
<path d="M24.8032 162.134H16.3364V164.47H24.8032V162.134Z" fill="#D4DFEC"/>
<path opacity="0.1" d="M21.338 147.769C21.5313 148.467 21.624 148.945 21.624 148.945L20.3021 149.553C20.3021 149.553 20.0141 149.407 19.5986 149.136C20.1166 148.448 20.7002 147.929 21.338 147.769Z" fill="black"/>
<path opacity="0.1" d="M24.3299 150.559C24.2584 150.575 24.183 150.589 24.1076 150.601C19.6761 151.307 22.6466 148.799 22.6466 148.799C22.6466 148.799 22.8398 148.596 23.1162 148.29C23.9434 148.985 24.2854 149.768 24.3299 150.559Z" fill="black"/>
<path d="M17.125 155.005C17.125 155.005 19.6065 145.679 23.0871 148.556C26.5678 151.433 21.6705 155.855 21.6705 155.855L17.125 155.005Z" fill="#6C63FF"/>
<path opacity="0.1" d="M18.3774 145.076C18.5311 145.076 18.6557 144.946 18.6557 144.784C18.6557 144.623 18.5311 144.492 18.3774 144.492C18.2237 144.492 18.0991 144.623 18.0991 144.784C18.0991 144.946 18.2237 145.076 18.3774 145.076Z" fill="black"/>
<path opacity="0.1" d="M18.3542 146.439C18.5079 146.439 18.6325 146.308 18.6325 146.147C18.6325 145.986 18.5079 145.855 18.3542 145.855C18.2005 145.855 18.0759 145.986 18.0759 146.147C18.0759 146.308 18.2005 146.439 18.3542 146.439Z" fill="black"/>
<path opacity="0.1" d="M26.4267 145.344C26.5804 145.344 26.705 145.213 26.705 145.052C26.705 144.891 26.5804 144.76 26.4267 144.76C26.273 144.76 26.1484 144.891 26.1484 145.052C26.1484 145.213 26.273 145.344 26.4267 145.344Z" fill="black"/>
<path opacity="0.1" d="M19.9331 152.329C20.0868 152.329 20.2114 152.198 20.2114 152.037C20.2114 151.876 20.0868 151.745 19.9331 151.745C19.7794 151.745 19.6548 151.876 19.6548 152.037C19.6548 152.198 19.7794 152.329 19.9331 152.329Z" fill="black"/>
<path opacity="0.1" d="M25.8469 147.607C26.0006 147.607 26.1252 147.476 26.1252 147.315C26.1252 147.153 26.0006 147.023 25.8469 147.023C25.6932 147.023 25.5686 147.153 25.5686 147.315C25.5686 147.476 25.6932 147.607 25.8469 147.607Z" fill="black"/>
<path opacity="0.1" d="M22.9712 150.626C23.1249 150.626 23.2495 150.495 23.2495 150.334C23.2495 150.173 23.1249 150.042 22.9712 150.042C22.8175 150.042 22.6929 150.173 22.6929 150.334C22.6929 150.495 22.8175 150.626 22.9712 150.626Z" fill="black"/>
<path opacity="0.1" d="M19.3281 145.66C19.4818 145.66 19.6064 145.53 19.6064 145.368C19.6064 145.207 19.4818 145.076 19.3281 145.076C19.1744 145.076 19.0498 145.207 19.0498 145.368C19.0498 145.53 19.1744 145.66 19.3281 145.66Z" fill="black"/>
<path opacity="0.1" d="M25.6614 146.22C25.8151 146.22 25.9397 146.089 25.9397 145.928C25.9397 145.767 25.8151 145.636 25.6614 145.636C25.5077 145.636 25.3831 145.767 25.3831 145.928C25.3831 146.089 25.5077 146.22 25.6614 146.22Z" fill="black"/>
<path opacity="0.1" d="M24.7104 148.483C24.8641 148.483 24.9887 148.352 24.9887 148.191C24.9887 148.029 24.8641 147.899 24.7104 147.899C24.5567 147.899 24.4321 148.029 24.4321 148.191C24.4321 148.352 24.5567 148.483 24.7104 148.483Z" fill="black"/>
<path opacity="0.1" d="M21.7883 152.11C21.942 152.11 22.0666 151.979 22.0666 151.818C22.0666 151.657 21.942 151.526 21.7883 151.526C21.6346 151.526 21.51 151.657 21.51 151.818C21.51 151.979 21.6346 152.11 21.7883 152.11Z" fill="black"/>
<path opacity="0.1" d="M21.1855 150.675C21.3392 150.675 21.4638 150.544 21.4638 150.383C21.4638 150.221 21.3392 150.091 21.1855 150.091C21.0318 150.091 20.9072 150.221 20.9072 150.383C20.9072 150.544 21.0318 150.675 21.1855 150.675Z" fill="black"/>
<path opacity="0.1" d="M19.7456 147.436C19.8993 147.436 20.0239 147.306 20.0239 147.144C20.0239 146.983 19.8993 146.853 19.7456 146.853C19.5919 146.853 19.4673 146.983 19.4673 147.144C19.4673 147.306 19.5919 147.436 19.7456 147.436Z" fill="black"/>
<path opacity="0.1" d="M24.8032 162.134H16.3364V162.988H24.8032V162.134Z" fill="black"/>
<path d="M26.0538 154.543H14.9915V162.694H26.0538V154.543Z" fill="#D4DFEC"/>
<path opacity="0.1" d="M22.1594 153.424C22.3131 153.424 22.4377 153.293 22.4377 153.132C22.4377 152.971 22.3131 152.84 22.1594 152.84C22.0057 152.84 21.8811 152.971 21.8811 153.132C21.8811 153.293 22.0057 153.424 22.1594 153.424Z" fill="black"/>
<path opacity="0.1" d="M20.4897 153.789C20.6434 153.789 20.768 153.658 20.768 153.497C20.768 153.336 20.6434 153.205 20.4897 153.205C20.336 153.205 20.2114 153.336 20.2114 153.497C20.2114 153.658 20.336 153.789 20.4897 153.789Z" fill="black"/>
<path opacity="0.1" d="M9.66313 12.664C10.7796 12.664 11.6846 11.7145 11.6846 10.5432C11.6846 9.37189 10.7796 8.42236 9.66313 8.42236C8.54667 8.42236 7.6416 9.37189 7.6416 10.5432C7.6416 11.7145 8.54667 12.664 9.66313 12.664Z" fill="#6C63FF"/>
<path opacity="0.1" d="M203.809 80.1071C205.303 80.1071 206.514 78.8362 206.514 77.2685C206.514 75.7008 205.303 74.4299 203.809 74.4299C202.314 74.4299 201.103 75.7008 201.103 77.2685C201.103 78.8362 202.314 80.1071 203.809 80.1071Z" fill="#6C63FF"/>
<path opacity="0.1" d="M209.025 73.2579C210.116 73.2579 211 72.3301 211 71.1857C211 70.0413 210.116 69.1135 209.025 69.1135C207.934 69.1135 207.05 70.0413 207.05 71.1857C207.05 72.3301 207.934 73.2579 209.025 73.2579Z" fill="#6C63FF"/>
<path opacity="0.1" d="M13.142 5.67718C14.6363 5.67718 15.8476 4.4063 15.8476 2.83859C15.8476 1.27088 14.6363 0 13.142 0C11.6477 0 10.4363 1.27088 10.4363 2.83859C10.4363 4.4063 11.6477 5.67718 13.142 5.67718Z" fill="#6C63FF"/>
<path opacity="0.1" d="M2.70567 18.6535C4.19998 18.6535 5.41135 17.3826 5.41135 15.8149C5.41135 14.2472 4.19998 12.9763 2.70567 12.9763C1.21137 12.9763 0 14.2472 0 15.8149C0 17.3826 1.21137 18.6535 2.70567 18.6535Z" fill="#6C63FF"/>
</g>
<defs>
<linearGradient id="paint0_linear" x1="101.874" y1="157.309" x2="101.874" y2="38.5948" gradientUnits="userSpaceOnUse">
<stop stop-color="#808080" stop-opacity="0.25"/>
<stop offset="0.54" stop-color="#808080" stop-opacity="0.12"/>
<stop offset="1" stop-color="#808080" stop-opacity="0.1"/>
</linearGradient>
<clipPath id="clip0">
<rect width="211" height="168" fill="white"/>
</clipPath>
</defs>
</svg>
