<svg width="40" height="40" viewBox="0 0 40 40" fill="none" xmlns="http://www.w3.org/2000/svg">
<g clip-path="url(#clip0)">
<path d="M22.5022 2.98047C11.451 2.97588 2.5 12.1657 2.5 23.5084C2.5 32.4778 8.09937 40.1023 15.8974 42.9024C16.9475 43.1733 16.7867 42.4067 16.7867 41.8834V38.3259C10.7225 39.0557 10.4768 34.9336 10.0701 34.2451C9.24785 32.8037 7.30393 32.4365 7.88487 31.748C9.26572 31.0181 10.6734 31.9316 12.3045 34.4058C13.4842 36.2006 15.7857 35.8976 16.952 35.5992C17.2067 34.5205 17.7519 33.5566 18.5027 32.8083C12.2196 31.6516 9.60088 27.7131 9.60088 23.031C9.60088 20.7588 10.3293 18.6702 11.7593 16.9855C10.8477 14.2084 11.8442 11.8306 11.9783 11.4771C14.5746 11.2384 17.2738 13.3867 17.4838 13.5566C18.9585 13.148 20.6432 12.9323 22.529 12.9323C24.4238 12.9323 26.113 13.1572 27.6011 13.5703C28.1061 13.1756 30.6086 11.3303 33.0217 11.5552C33.1513 11.9086 34.1255 14.2313 33.2675 16.9717C34.7154 18.661 35.4527 20.7679 35.4527 23.0447C35.4527 27.736 32.8162 31.6791 26.5152 32.8175C27.0549 33.3627 27.4834 34.0129 27.7757 34.7301C28.0681 35.4473 28.2184 36.2172 28.2178 36.9947V42.1588C28.2535 42.5719 28.2178 42.9805 28.8881 42.9805C36.8023 40.2401 42.5 32.5605 42.5 23.5129C42.5 12.1657 33.5446 2.98047 22.5022 2.98047Z" fill="white"/>
</g>
<defs>
<clipPath id="clip0">
<rect width="40" height="40" fill="white"/>
</clipPath>
</defs>
</svg>
