<svg width="211" height="168" viewBox="0 0 211 168" fill="none" xmlns="http://www.w3.org/2000/svg">
<g clip-path="url(#clip0)">
<path d="M208.159 57.4822C208.407 58.3942 208.639 59.3109 208.856 60.2323H135.189V57.4822H208.159Z" fill="#E6E6E6"/>
<path d="M205.812 50.2329C204.626 47.0758 203.243 43.9875 201.67 40.9843C201.187 40.0584 200.684 39.1417 200.163 38.2342C200.077 38.0785 199.986 37.9228 199.895 37.7671V58.2329H206.26V51.4508L205.812 50.2329Z" fill="#E6E6E6"/>
<path d="M201.67 40.9845H199.895V38.2344H200.163C200.685 39.1409 201.188 40.0576 201.67 40.9845Z" fill="#CCCCCC"/>
<path d="M205.812 50.2329H199.895V52.983H206.26V51.4508L205.812 50.2329Z" fill="#CCCCCC"/>
<path d="M196.447 34.4851H190.082V58.2332H196.447V34.4851Z" fill="#E6E6E6"/>
<path d="M196.447 38.2346H190.082V40.9844H196.447V38.2346Z" fill="#CCCCCC"/>
<path d="M196.447 50.2339H190.082V52.9837H196.447V50.2339Z" fill="#CCCCCC"/>
<path d="M167.423 34.3469H144.591C144.239 34.3474 143.902 34.4794 143.653 34.714C143.404 34.9485 143.264 35.2665 143.264 35.5982V57.1207C143.264 57.243 143.283 57.3648 143.32 57.4821C143.403 57.7393 143.571 57.9646 143.8 58.1248C144.029 58.285 144.306 58.3716 144.591 58.372H167.423C167.708 58.3717 167.985 58.285 168.214 58.1248C168.443 57.9646 168.611 57.7393 168.694 57.4821C168.731 57.3648 168.75 57.243 168.75 57.1207V35.5982C168.75 35.2665 168.61 34.9485 168.361 34.714C168.112 34.4794 167.775 34.3474 167.423 34.3469V34.3469Z" fill="#E6E6E6"/>
<path d="M165.799 35.8762H146.212C145.86 35.8767 145.523 36.0087 145.274 36.2433C145.025 36.4778 144.885 36.7958 144.885 37.1275V55.5912C144.885 55.9229 145.025 56.2409 145.274 56.4755C145.523 56.71 145.86 56.842 146.212 56.8425H165.799C166.151 56.842 166.488 56.71 166.737 56.4755C166.986 56.2409 167.126 55.9229 167.126 55.5912V37.1275C167.126 36.7958 166.986 36.4778 166.737 36.2433C166.488 36.0087 166.151 35.8767 165.799 35.8762V35.8762Z" fill="white"/>
<path d="M162.383 39.0962H149.628C149.276 39.0967 148.939 39.2287 148.69 39.4632C148.441 39.6978 148.301 40.0158 148.301 40.3475V52.3711C148.301 52.7028 148.441 53.0208 148.69 53.2554C148.939 53.4899 149.276 53.6219 149.628 53.6224H162.383C162.735 53.6207 163.071 53.4883 163.32 53.254C163.568 53.0197 163.709 52.7025 163.711 52.3711V40.3475C163.71 40.0158 163.57 39.6978 163.321 39.4632C163.073 39.2287 162.735 39.0967 162.383 39.0962V39.0962Z" fill="#CCCCCC"/>
<path d="M161.598 50.2505L158.904 45.8518C158.852 45.7672 158.778 45.697 158.688 45.6482C158.598 45.5994 158.497 45.5737 158.393 45.5737C158.289 45.5737 158.188 45.5994 158.098 45.6482C158.008 45.697 157.934 45.7672 157.882 45.8518L155.915 49.0637L153.335 44.8518C153.283 44.7672 153.209 44.697 153.119 44.6482C153.029 44.5994 152.928 44.5737 152.824 44.5737C152.72 44.5737 152.619 44.5994 152.529 44.6482C152.439 44.6971 152.365 44.7673 152.313 44.8518L149.619 49.2506L146.414 54.4835H152.595L151.983 55.4835H164.803L161.598 50.2505Z" fill="white"/>
<path d="M160.645 43.4843C161.671 43.4843 162.502 42.7009 162.502 41.7345C162.502 40.7681 161.671 39.9846 160.645 39.9846C159.62 39.9846 158.789 40.7681 158.789 41.7345C158.789 42.7009 159.62 43.4843 160.645 43.4843Z" fill="white"/>
<path d="M210.976 76.9135C210.955 75.8346 210.91 74.7612 210.84 73.6934C210.811 73.1818 210.775 72.6729 210.731 72.1641H198.277C197.925 72.1646 197.587 72.2966 197.339 72.5311C197.09 72.7657 196.95 73.0837 196.949 73.4154V94.9378C196.949 95.0363 196.961 95.1344 196.988 95.2298C197.057 95.5027 197.222 95.7457 197.456 95.9197C197.69 96.0936 197.979 96.1885 198.277 96.1891H209.757C209.816 95.8721 209.872 95.5495 209.923 95.2298C209.955 95.0407 209.988 94.8488 210.017 94.6597C210.088 94.2065 210.156 93.7532 210.218 93.3C210.306 92.6827 210.386 92.0626 210.457 91.4397C210.716 89.2068 210.883 86.9498 210.958 84.6688V84.666C210.985 83.8067 210.998 82.9438 210.999 82.0772V78.7404C210.999 78.1286 210.994 77.5196 210.976 76.9135Z" fill="#E6E6E6"/>
<path d="M210.976 76.9134C210.956 75.8345 210.91 74.7611 210.841 73.6934H199.9C199.548 73.6939 199.21 73.8259 198.962 74.0604C198.713 74.295 198.573 74.613 198.572 74.9447V93.4084C198.573 93.7401 198.713 94.0581 198.962 94.2926C199.21 94.5272 199.548 94.6592 199.9 94.6597H210.018C210.088 94.2064 210.156 93.7532 210.218 93.2999C210.307 92.6826 210.386 92.0625 210.457 91.4396C210.717 89.2068 210.884 86.9498 210.959 84.6687V84.6659C210.985 83.8067 210.999 82.9437 211 82.0771V78.7403C211 78.1285 210.994 77.5196 210.976 76.9134Z" fill="white"/>
<path d="M210.976 76.9133H203.316C202.964 76.9138 202.626 77.0458 202.378 77.2804C202.129 77.5149 201.989 77.8329 201.988 78.1646V90.1883C201.989 90.52 202.129 90.838 202.378 91.0725C202.626 91.3071 202.964 91.4391 203.316 91.4396H210.457C210.717 89.2067 210.884 86.9497 210.959 84.6686V84.6658C210.985 83.8066 210.999 82.9437 211 82.077V78.7402C211 78.1285 210.994 77.5195 210.976 76.9133Z" fill="#CCCCCC"/>
<path d="M210.96 84.6687C210.886 86.9488 210.719 89.2058 210.458 91.4396C210.388 92.0625 210.308 92.6826 210.219 93.2999H205.671L206.284 92.3016H200.102L201.989 89.2178L203.305 87.0684L206.001 82.6694C206.053 82.5845 206.127 82.5139 206.216 82.4648C206.306 82.4157 206.408 82.3899 206.512 82.3899C206.615 82.3899 206.717 82.4157 206.807 82.4648C206.896 82.5139 206.971 82.5845 207.022 82.6694L209.603 86.8821L210.96 84.6687Z" fill="white"/>
<path d="M188.608 22.4874H135.189V19.7373H185.959C186.862 20.6355 187.745 21.5522 188.608 22.4874Z" fill="#E6E6E6"/>
<path d="M163.564 3.41455C165.741 4.5435 167.863 5.75309 169.93 7.04333V20.4851H163.564V3.41455Z" fill="#E6E6E6"/>
<path d="M169.927 12.4868H163.562V15.2366H169.927V12.4868Z" fill="#CCCCCC"/>
<path d="M179.741 14.1064V20.4853H173.375V9.3042C174.859 10.3247 176.309 11.386 177.726 12.4881C178.404 13.0164 179.076 13.5559 179.741 14.1064Z" fill="#E6E6E6"/>
<path d="M179.741 14.1064V15.2353H173.375V12.488H177.726C178.404 13.0164 179.076 13.5558 179.741 14.1064Z" fill="#CCCCCC"/>
<path d="M157.065 0.350368C158.749 1.06498 160.405 1.82689 162.032 2.63608L160.722 5.12756L156.371 13.4168L155.076 15.8804L153.05 19.7372L152.604 20.5853L150.79 19.7372L146.902 17.9214L149.371 13.2165H149.374L150.666 10.7529L155.02 2.46368L156.301 0.0278084L156.315 0L157.065 0.350368Z" fill="#E6E6E6"/>
<path d="M162.018 2.66111L160.724 5.12756L155.021 2.46368L156.302 0.0278067L156.316 0L157.066 0.350365L162.018 2.66111Z" fill="#CCCCCC"/>
<path d="M150.667 10.7537L149.373 13.218L155.077 15.8799L156.371 13.4156L150.667 10.7537Z" fill="#CCCCCC"/>
<path d="M209.923 95.2297C209.873 95.5495 209.817 95.8721 209.758 96.1891C209.655 96.7897 209.543 97.3847 209.422 97.9798H135.189V95.2297H209.923Z" fill="#E6E6E6"/>
<path d="M169.927 72.2319H163.562V95.98H169.927V72.2319Z" fill="#E6E6E6"/>
<path d="M169.927 75.9817H163.562V78.7315H169.927V75.9817Z" fill="#CCCCCC"/>
<path d="M169.927 87.981H163.562V90.7307H169.927V87.981Z" fill="#CCCCCC"/>
<path d="M179.739 72.2319H173.375V95.98H179.739V72.2319Z" fill="#E6E6E6"/>
<path d="M179.739 75.9817H173.375V78.7315H179.739V75.9817Z" fill="#CCCCCC"/>
<path d="M179.739 87.981H173.375V90.7307H179.739V87.981Z" fill="#CCCCCC"/>
<path d="M158.08 72.134L146.902 93.4165L152.606 96.0784L163.784 74.7959L158.08 72.134Z" fill="#E6E6E6"/>
<path d="M156.314 75.4942L155.02 77.9585L160.723 80.6204L162.017 78.1561L156.314 75.4942Z" fill="#CCCCCC"/>
<path d="M150.667 86.2476L149.373 88.7119L155.077 91.3738L156.371 88.9096L150.667 86.2476Z" fill="#CCCCCC"/>
<path d="M86.371 105.828C86.637 105.972 86.8905 106.136 87.1292 106.318L113.391 98.6134L114.872 92.4714L124.997 93.3667L123.497 104.48C123.375 105.378 122.949 106.214 122.28 106.864C121.612 107.514 120.738 107.941 119.789 108.083L88.8829 112.695C88.432 113.726 87.6591 114.602 86.667 115.208C85.6748 115.814 84.5104 116.121 83.3288 116.088C82.1471 116.055 81.0041 115.683 80.0518 115.023C79.0994 114.363 78.383 113.445 77.9976 112.391C77.6123 111.338 77.5763 110.198 77.8946 109.125C78.2128 108.052 78.8701 107.095 79.7791 106.383C80.6881 105.67 81.8057 105.235 82.9832 105.136C84.1608 105.037 85.3424 105.278 86.371 105.828V105.828Z" fill="#FFB8B8"/>
<path d="M129.677 97.0511L129.503 94.2482V94.2454L129.456 93.4779L128.942 85.2249C129.096 83.5043 128.52 81.7966 127.341 80.4754C126.162 79.1543 124.475 78.3274 122.65 78.1759C122.126 78.1315 121.597 78.1446 121.075 78.2148C119.525 78.4214 118.095 79.1155 117.016 80.1845C115.937 81.2535 115.273 82.6348 115.131 84.1043L114.066 88.2808L112.205 95.5857C112.073 96.0968 112.128 96.6348 112.36 97.1131C112.592 97.5913 112.989 97.9819 113.485 98.2218C113.772 98.3639 114.086 98.4509 114.409 98.4776L117.512 98.739L120.5 98.9892L123.948 99.2784L124.196 99.2979L124.833 99.3535L126.966 99.5315H126.972C127.328 99.5585 127.686 99.514 128.023 99.4009C128.36 99.2878 128.667 99.1086 128.925 98.8752C129.113 98.7028 129.271 98.5039 129.394 98.2857C129.609 97.9073 129.707 97.4795 129.677 97.0511V97.0511Z" fill="#6C63FF"/>
<path d="M158.495 63.0634C158.495 72.5804 149.159 71.1409 137.644 71.1409C126.128 71.1409 116.793 72.5804 116.793 63.0634C116.793 53.5465 121.353 36.677 137.644 36.677C154.496 36.677 158.495 53.5465 158.495 63.0634Z" fill="#2F2E41"/>
<path d="M147.496 67.2514C152.975 62.0863 152.975 53.712 147.496 48.5469C142.017 43.3818 133.133 43.3818 127.654 48.5469C122.174 53.712 122.174 62.0863 127.654 67.2514C133.133 72.4165 142.017 72.4165 147.496 67.2514Z" fill="#FFB8B8"/>
<path d="M157.324 76.6854C157.054 76.4401 156.768 76.2116 156.466 76.0013C154.559 74.6428 152.161 74.0447 149.791 74.3357L123.935 77.4194C121.567 77.6966 119.406 78.8323 117.911 80.5858C116.416 82.3393 115.704 84.5727 115.927 86.8126C116 87.5911 116.083 88.4114 116.174 89.2651C116.292 90.3357 116.425 91.4591 116.579 92.6214C116.832 94.5762 117.142 96.6395 117.511 98.7389C117.832 100.546 118.198 102.379 118.617 104.189C118.738 104.712 118.864 105.233 118.994 105.752C118.994 105.753 118.994 105.755 118.995 105.756C118.995 105.758 118.996 105.759 118.997 105.76C119.012 105.824 119.027 105.888 119.045 105.949C119.044 105.954 119.045 105.959 119.048 105.963C119.23 106.686 119.422 107.401 119.623 108.107C119.699 108.368 119.773 108.627 119.85 108.883C120.056 109.578 120.275 110.259 120.499 110.929C122.183 115.915 124.41 120.161 127.351 122.419C127.39 122.452 127.428 122.48 127.469 122.511L127.587 122.597L127.758 122.547L128.484 122.344L129.103 122.166L137.174 119.878L139.183 119.308L145.637 117.475H145.64L151.543 115.801L152.263 115.595L157.333 114.158L157.496 112.373L157.714 110.003L157.844 108.58L158.87 97.3513L159.469 90.8L160.118 83.6871C160.239 82.3973 160.05 81.0984 159.567 79.8865C159.083 78.6746 158.317 77.5806 157.324 76.6854V76.6854Z" fill="#2F2E41"/>
<path d="M171.782 131.017C171.714 130.831 171.649 130.645 171.581 130.461C168.549 122.119 164.077 115.81 157.496 112.373C157.493 112.373 157.493 112.37 157.49 112.37L157.378 112.312L151.643 114.183L150.935 114.414L150.198 114.656L150.189 114.658L144.82 116.41L144.812 116.413L140.599 117.787H140.596L136.7 119.057H136.697L135.791 119.355L128.98 121.577L128.189 121.835L127.481 122.066L127.372 122.102L127.352 122.419L126.865 130.461L126.832 131.017L126.225 141.053L106.045 168H119.85C124.476 168.001 129.095 167.669 133.667 167.007L146.62 153.849C146.728 153.743 146.865 153.667 147.017 153.63C147.168 153.592 147.327 153.594 147.477 153.635C147.627 153.676 147.762 153.755 147.868 153.863C147.974 153.972 148.046 154.105 148.077 154.25L149.98 163.148C159.353 160.023 168.122 155.475 175.938 149.684C175.03 142.774 173.702 136.476 171.782 131.017Z" fill="#2F2E41"/>
<path d="M121.363 56.6015H126.913L129.361 50.1396L129.85 56.6015H132.503L133.931 52.8321L134.217 56.6015H153.925C153.925 54.7629 153.541 52.9423 152.794 51.2436C152.048 49.5449 150.954 48.0015 149.575 46.7014C148.195 45.4013 146.558 44.37 144.756 43.6663C142.954 42.9627 141.023 42.6006 139.072 42.6006H136.216C132.277 42.6006 128.499 44.0757 125.714 46.7014C122.928 49.3271 121.363 52.8883 121.363 56.6015V56.6015Z" fill="#2F2E41"/>
<path d="M87.23 126.676C86.324 127.034 85.3456 127.202 84.3636 127.166C83.3817 127.129 82.42 126.891 81.5465 126.466C80.673 126.042 79.9089 125.442 79.3079 124.709C78.7068 123.976 78.2836 123.128 78.068 122.224L54.332 119.69L62.2886 110.708L83.6089 114.492C85.2435 114.251 86.9151 114.584 88.3069 115.427C89.6987 116.271 90.7139 117.566 91.1603 119.068C91.6066 120.569 91.4531 122.173 90.7287 123.576C90.0043 124.978 88.7594 126.081 87.23 126.676L87.23 126.676Z" fill="#A0616A"/>
<path d="M74.4329 110.051L64.4005 108.36L63.672 108.238C63.0897 108.14 62.5361 107.927 62.0474 107.613C61.5588 107.298 61.1461 106.891 60.8366 106.415C60.5271 105.94 60.3277 105.409 60.2515 104.856C60.1754 104.303 60.2242 103.741 60.3947 103.207L65.3209 87.7775L65.4683 87.3187C66.0834 85.3575 65.9739 83.2576 65.1577 81.3627C64.3416 79.4678 62.8671 77.8903 60.9758 76.8884C59.6955 76.2182 58.2686 75.8355 56.8058 75.7699C55.3431 75.7043 53.884 75.9577 52.5421 76.5103C51.2002 77.0629 50.0115 77.8998 49.0687 78.956C48.1258 80.0121 47.454 81.2591 47.1057 82.5999L40.8226 106.772L40.5896 107.668C40.1507 109.354 40.1028 111.11 40.4492 112.816C40.7956 114.522 41.5281 116.137 42.5968 117.552C43.6655 118.966 45.0452 120.147 46.6419 121.013C48.2385 121.88 50.0146 122.411 51.849 122.572C51.8696 122.575 51.8873 122.575 51.9081 122.578L55.6691 122.892L60.548 123.301L66.6837 123.815L72.4094 124.296C73.1593 124.36 73.9074 124.156 74.5052 123.725C75.103 123.293 75.5068 122.665 75.6365 121.966C75.6453 121.927 75.6512 121.888 75.6571 121.849L76.8725 113.296L76.8843 113.218C76.9891 112.494 76.7923 111.759 76.3353 111.169C75.8783 110.578 75.1965 110.178 74.4329 110.051V110.051Z" fill="#CCCCCC"/>
<path d="M58.9747 45.2419C54.9698 52.6644 51.8134 60.3199 42.9796 60.3199C38.7374 60.3199 34.6689 58.7313 31.6693 55.9037C28.6696 53.076 26.9844 49.2409 26.9844 45.2419C26.9844 36.9146 34.1463 30.2682 42.9796 30.164C51.9573 30.058 66.429 31.4266 58.9747 45.2419Z" fill="#2F2E41"/>
<path d="M69.0215 142.343L68.6585 138.928L68.3872 138.942L20.6914 141.108L20.8153 144.565L21.0248 150.485C28.405 155.784 36.6008 159.99 45.3284 162.956L45.6382 160.693C45.6653 160.508 45.7591 160.338 45.9039 160.211C46.0486 160.085 46.2354 160.009 46.4325 159.997C46.6297 159.986 46.8251 160.038 46.9856 160.147C47.1462 160.255 47.2621 160.413 47.3136 160.592L48.2546 163.899C55.8574 166.21 63.7526 167.557 71.7324 167.906L69.0215 142.343Z" fill="#2F2E41"/>
<path d="M53.6893 56.7397C59.1686 51.5746 59.1686 43.2003 53.6893 38.0352C48.21 32.8701 39.3263 32.8701 33.847 38.0352C28.3676 43.2003 28.3676 51.5746 33.847 56.7397C39.3263 61.9048 48.21 61.9048 53.6893 56.7397Z" fill="#A0616A"/>
<path d="M71.763 139.159L68.9813 131.017L68.934 130.878L68.7924 130.461L67.9989 128.142C67.7423 127.388 67.4974 126.632 67.2703 125.873C67.0608 125.189 66.8652 124.503 66.6833 123.815C66.4238 122.859 66.1878 121.898 65.9754 120.934C65.2555 117.695 64.7755 114.412 64.5388 111.11C64.4738 110.195 64.4276 109.279 64.4001 108.36C64.2273 102.73 64.765 97.1004 66.0019 91.5899C67.0786 86.8247 66.5035 81.8595 64.3612 77.4256C62.219 72.9917 58.6227 69.3236 54.1023 66.9615C51.1361 65.4161 47.8529 64.4878 44.474 64.2392C44.241 64.2225 44.0079 64.2086 43.772 64.1947C40.2027 63.9821 36.6284 64.5279 33.3128 65.7917C29.9972 67.0556 27.0251 69.0052 24.6158 71.4968C23.3254 72.8218 22.2046 74.2852 21.2765 75.8569C18.7015 80.2303 17.7348 85.2844 18.5274 90.2302L21.8429 111.216L21.0879 120.05L20.197 130.461L20.1498 131.017L19.1999 142.118C19.1549 142.635 19.2878 143.152 19.5789 143.593C19.87 144.034 20.3039 144.374 20.8164 144.565C21.1165 144.678 21.437 144.735 21.7604 144.734C21.8076 144.734 21.8518 144.734 21.8991 144.731L69.0226 142.343L69.4533 142.321C69.8463 142.301 70.2294 142.197 70.573 142.016C70.9165 141.835 71.2113 141.582 71.4346 141.276C71.6578 140.971 71.8035 140.621 71.8605 140.254C71.9174 139.887 71.8841 139.512 71.763 139.159L71.763 139.159Z" fill="#CCCCCC"/>
<path d="M58.6553 39.9128C55.4491 41.9959 51.6436 43.1046 47.7496 43.0899C49.1387 43.9978 50.72 44.611 52.3846 44.8874C47.2073 45.9343 41.8565 45.9626 36.6671 44.9706C35.5135 44.7963 34.4005 44.4359 33.3768 43.9054C32.3803 43.3352 31.5468 42.4273 31.3458 41.345C31.001 39.4879 32.536 37.8008 34.1313 36.6638C36.5737 34.9494 39.3898 33.7683 42.3759 33.2058C45.362 32.6433 48.4434 32.7135 51.3972 33.4114C53.3259 33.8814 55.2581 34.6754 56.5108 36.1355C57.7636 37.5956 58.1347 39.8465 56.9411 41.35L58.6553 39.9128Z" fill="#2F2E41"/>
<path d="M59.373 123.924C58.4754 124.302 57.5011 124.489 56.5185 124.473C55.5359 124.456 54.5691 124.237 53.686 123.831C52.803 123.424 52.0252 122.84 51.4075 122.12C50.7898 121.399 50.3472 120.56 50.1109 119.661L26.3223 117.612L34.0707 108.47L55.4728 111.817C57.1016 111.543 58.7805 111.842 60.1913 112.656C61.6021 113.471 62.6469 114.745 63.1276 116.238C63.6084 117.73 63.4917 119.337 62.7997 120.754C62.1077 122.17 60.8884 123.298 59.373 123.924L59.373 123.924Z" fill="#A0616A"/>
<path d="M46.1989 107.565L40.8213 106.772L35.3966 105.972C34.8123 105.886 34.254 105.684 33.7583 105.38C33.2626 105.076 32.8407 104.677 32.5203 104.208C32.1999 103.74 31.9883 103.213 31.8993 102.662C31.8104 102.111 31.8462 101.548 32.0043 101.011L36.7122 85.022C37.2819 83.0487 37.124 80.9516 36.2645 79.0739C35.4049 77.1962 33.8945 75.6492 31.9807 74.6862C30.6878 74.036 29.252 73.6787 27.7871 73.6425C26.3222 73.6063 24.8685 73.8922 23.5412 74.4777C22.2099 75.0539 21.0387 75.9137 20.1198 76.9892C19.201 78.0648 18.5596 79.3268 18.2462 80.6758L12.3083 105.871C11.9082 107.571 11.9025 109.332 12.2913 111.034C12.6801 112.736 13.4544 114.338 14.5612 115.732C15.6679 117.126 17.081 118.278 18.7037 119.109C20.3264 119.94 22.1205 120.431 23.9631 120.548L44.5027 121.846C45.2538 121.895 45.9967 121.676 46.5844 121.232C47.1722 120.789 47.562 120.154 47.6767 119.452C47.6856 119.413 47.6885 119.374 47.6944 119.336L48.7121 110.76L48.7209 110.682C48.8086 109.956 48.5951 109.226 48.125 108.645C47.655 108.064 46.9648 107.677 46.1989 107.565Z" fill="#CCCCCC"/>
<path d="M137.195 94.273L135.964 94.9062L120.798 102.706L119.567 103.339C118.97 103.647 118.527 104.166 118.335 104.782C118.143 105.398 118.218 106.06 118.543 106.624L129.837 126.135C130.163 126.698 130.714 127.116 131.367 127.297C132.02 127.478 132.723 127.408 133.321 127.101L133.324 127.099L150.945 118.036L150.948 118.034C151.546 117.726 151.989 117.208 152.181 116.592C152.373 115.976 152.298 115.314 151.973 114.75L140.679 95.2386C140.352 94.6756 139.802 94.2577 139.149 94.0767C138.496 93.8956 137.793 93.9663 137.195 94.273V94.273Z" fill="#E6E6E6"/>
<path d="M137.548 94.8847L136.09 95.6346L121.379 103.201L119.921 103.951C119.495 104.17 119.18 104.54 119.043 104.978C118.906 105.417 118.96 105.889 119.191 106.29L130.485 125.801C130.718 126.202 131.109 126.5 131.575 126.629C132.04 126.758 132.54 126.707 132.966 126.489L132.969 126.487L150.59 117.424L150.594 117.423C151.019 117.203 151.335 116.834 151.471 116.395C151.608 115.957 151.555 115.485 151.323 115.084L140.03 95.5723C139.797 95.1714 139.405 94.8738 138.94 94.7449C138.475 94.616 137.974 94.6663 137.548 94.8847V94.8847Z" fill="white"/>
<path d="M137.962 100.393C137.908 100.3 137.816 100.23 137.707 100.2C137.598 100.17 137.481 100.181 137.381 100.232L136.794 100.535L130.809 103.613C130.71 103.665 130.637 103.751 130.605 103.854C130.573 103.956 130.586 104.066 130.64 104.16C130.694 104.254 130.786 104.323 130.894 104.354C131.002 104.384 131.119 104.373 131.219 104.322L137.791 100.941C137.891 100.89 137.964 100.803 137.996 100.7C138.028 100.598 138.016 100.488 137.962 100.393Z" fill="#E6E6E6"/>
<path d="M140.2 100.791C140.174 100.745 140.138 100.704 140.094 100.671C140.05 100.638 140 100.613 139.946 100.598C139.893 100.583 139.836 100.579 139.781 100.585C139.725 100.591 139.671 100.607 139.622 100.633L131.501 104.809C131.452 104.835 131.409 104.869 131.374 104.91C131.338 104.951 131.312 104.999 131.296 105.049C131.281 105.1 131.276 105.153 131.282 105.206C131.288 105.258 131.305 105.309 131.332 105.356C131.359 105.402 131.395 105.443 131.439 105.476C131.482 105.509 131.533 105.534 131.586 105.549C131.64 105.564 131.697 105.568 131.752 105.563C131.808 105.557 131.862 105.541 131.911 105.515L132.289 105.321L134.652 104.106H134.655L140.029 101.339C140.079 101.314 140.123 101.28 140.159 101.239C140.194 101.197 140.221 101.15 140.237 101.099C140.253 101.048 140.258 100.994 140.251 100.942C140.245 100.889 140.228 100.838 140.2 100.791V100.791Z" fill="#E6E6E6"/>
<path d="M131.376 107.448L128.798 102.991C128.771 102.946 128.727 102.913 128.674 102.899C128.622 102.885 128.566 102.891 128.518 102.916L127.267 103.558L126.618 103.892L123.134 105.682L122.459 106.03C122.411 106.055 122.376 106.097 122.361 106.147C122.346 106.196 122.353 106.249 122.379 106.294L122.544 106.58L124.957 110.751C124.984 110.796 125.027 110.829 125.079 110.843C125.131 110.857 125.187 110.851 125.235 110.827L129.394 108.688L130.043 108.355L131.293 107.712C131.317 107.7 131.339 107.684 131.356 107.664C131.373 107.644 131.386 107.621 131.393 107.596C131.401 107.572 131.403 107.546 131.4 107.521C131.398 107.495 131.389 107.47 131.376 107.448V107.448Z" fill="#E6E6E6"/>
<path d="M141.223 106.049C141.168 105.956 141.077 105.886 140.969 105.856C140.86 105.826 140.744 105.837 140.644 105.888L131.73 110.473C131.651 110.514 131.588 110.577 131.55 110.653C131.511 110.73 131.499 110.815 131.515 110.899C131.521 110.942 131.536 110.983 131.559 111.021C131.582 111.059 131.61 111.094 131.645 111.124L131.647 111.127C131.714 111.183 131.796 111.218 131.884 111.228C131.973 111.238 132.062 111.222 132.14 111.182L141.055 106.597C141.104 106.571 141.147 106.537 141.182 106.496C141.218 106.454 141.244 106.407 141.259 106.356C141.275 106.305 141.28 106.252 141.273 106.199C141.267 106.146 141.25 106.096 141.223 106.049Z" fill="#E6E6E6"/>
<path d="M143.464 106.447C143.437 106.401 143.4 106.36 143.356 106.327C143.312 106.294 143.262 106.269 143.208 106.254C143.154 106.24 143.098 106.235 143.042 106.241C142.986 106.247 142.932 106.263 142.883 106.289L132.42 111.669C132.341 111.708 132.278 111.77 132.239 111.846C132.2 111.921 132.188 112.007 132.204 112.089V112.092C132.211 112.135 132.226 112.177 132.249 112.214C132.271 112.254 132.301 112.29 132.337 112.32C132.402 112.377 132.485 112.413 132.574 112.423C132.662 112.433 132.752 112.417 132.83 112.376L143.293 106.995C143.392 106.943 143.466 106.857 143.498 106.754C143.53 106.652 143.518 106.541 143.464 106.447Z" fill="#E6E6E6"/>
<path d="M128.744 114.937C129.746 114.937 130.558 114.171 130.558 113.227C130.558 112.282 129.746 111.516 128.744 111.516C127.742 111.516 126.93 112.282 126.93 113.227C126.93 114.171 127.742 114.937 128.744 114.937Z" fill="#E6E6E6"/>
<path d="M142.504 86.7652L141.273 87.3983L126.107 95.1985L124.876 95.8316C124.279 96.1397 123.835 96.6584 123.643 97.2742C123.451 97.8899 123.526 98.5523 123.852 99.1161L135.145 118.627C135.472 119.19 136.022 119.608 136.676 119.789C137.329 119.97 138.031 119.9 138.629 119.593L138.633 119.591L156.254 110.528L156.257 110.527C156.854 110.219 157.297 109.7 157.489 109.084C157.682 108.468 157.607 107.806 157.281 107.242L145.988 87.7308C145.661 87.1677 145.111 86.7499 144.457 86.5689C143.804 86.3878 143.102 86.4585 142.504 86.7652V86.7652Z" fill="#CCCCCC"/>
<path d="M142.859 87.3769L141.401 88.1268L126.689 95.6934L125.231 96.4433C124.806 96.6627 124.49 97.0321 124.354 97.4706C124.217 97.9091 124.27 98.3808 124.502 98.7822L135.795 118.294C136.028 118.695 136.42 118.992 136.885 119.121C137.35 119.25 137.851 119.2 138.277 118.981L138.28 118.98L155.901 109.916L155.904 109.915C156.329 109.695 156.645 109.326 156.782 108.887C156.919 108.449 156.865 107.977 156.633 107.576L145.34 88.0645C145.107 87.6635 144.715 87.366 144.25 87.2371C143.785 87.1082 143.285 87.1584 142.859 87.3769Z" fill="white"/>
<path d="M143.271 92.8856C143.216 92.792 143.124 92.7225 143.016 92.6923C142.907 92.6621 142.79 92.6736 142.69 92.7243L139.663 94.2815L138.82 94.7153L136.118 96.1056C136.019 96.1572 135.945 96.2437 135.914 96.3461C135.882 96.4485 135.895 96.5586 135.949 96.6523C136.003 96.7459 136.094 96.8156 136.203 96.846C136.311 96.8765 136.428 96.8652 136.528 96.8147L139.714 95.1769L140.38 94.8321L143.1 93.4334C143.199 93.3818 143.273 93.2952 143.305 93.1927C143.337 93.0901 143.325 92.9798 143.271 92.8856V92.8856Z" fill="#CCCCCC"/>
<path d="M145.511 93.2833C145.484 93.2369 145.448 93.196 145.404 93.1629C145.361 93.1297 145.311 93.1051 145.257 93.0903C145.203 93.0756 145.147 93.0711 145.091 93.077C145.036 93.0829 144.982 93.0992 144.933 93.1248L140.712 95.2966L140.063 95.6302L136.812 97.3014C136.763 97.3268 136.719 97.3611 136.684 97.4023C136.649 97.4435 136.623 97.4908 136.607 97.5415C136.591 97.5923 136.586 97.6454 136.592 97.698C136.598 97.7505 136.615 97.8015 136.642 97.8478C136.669 97.8942 136.706 97.9351 136.749 97.9683C136.793 98.0014 136.843 98.0261 136.897 98.0409C136.951 98.0558 137.007 98.0605 137.063 98.0548C137.119 98.0491 137.173 98.0331 137.222 98.0077L140.473 96.3365L141.122 96.0028L145.34 93.8311C145.39 93.8061 145.434 93.772 145.469 93.7308C145.505 93.6896 145.531 93.6421 145.547 93.5911C145.563 93.5401 145.568 93.4866 145.562 93.4338C145.556 93.3809 145.538 93.3298 145.511 93.2833V93.2833Z" fill="#CCCCCC"/>
<path d="M136.685 99.9402L134.629 96.3865L134.275 95.7748L134.107 95.4828C134.08 95.438 134.035 95.405 133.983 95.391C133.93 95.3769 133.874 95.3829 133.826 95.4077L129.652 97.5544L127.767 98.5221C127.72 98.5474 127.685 98.5893 127.67 98.6387C127.655 98.6882 127.661 98.7412 127.688 98.7863L127.856 99.0754L128.039 99.3952L128.21 99.6872V99.69L130.266 103.244C130.292 103.288 130.336 103.321 130.388 103.335C130.44 103.349 130.496 103.343 130.543 103.319L136.602 100.204C136.626 100.192 136.647 100.176 136.664 100.156C136.681 100.136 136.694 100.113 136.702 100.089C136.71 100.064 136.712 100.038 136.709 100.013C136.706 99.9873 136.698 99.9627 136.685 99.9402V99.9402Z" fill="#6C63FF"/>
<path d="M146.532 98.5414C146.478 98.4478 146.387 98.3783 146.279 98.3481C146.17 98.3179 146.054 98.3294 145.954 98.3801L143.29 99.751L142.642 100.085L140.069 101.405L137.04 102.965C136.99 102.991 136.947 103.025 136.911 103.066C136.876 103.108 136.85 103.155 136.834 103.206C136.818 103.257 136.813 103.31 136.819 103.363C136.825 103.416 136.842 103.467 136.869 103.513C136.896 103.56 136.932 103.601 136.976 103.634C137.02 103.668 137.07 103.692 137.124 103.707C137.178 103.722 137.234 103.727 137.29 103.721C137.346 103.716 137.4 103.7 137.45 103.675L143.052 100.794L143.7 100.46L146.364 99.0892C146.414 99.0637 146.457 99.0293 146.492 98.9879C146.527 98.9466 146.553 98.8991 146.569 98.8482C146.585 98.7973 146.589 98.744 146.583 98.6913C146.577 98.6387 146.56 98.5877 146.532 98.5414V98.5414Z" fill="#CCCCCC"/>
<path d="M148.774 98.9391C148.747 98.8927 148.71 98.8518 148.666 98.8187C148.622 98.7857 148.572 98.7611 148.518 98.7464C148.464 98.7316 148.408 98.7271 148.352 98.733C148.296 98.7388 148.242 98.755 148.193 98.7806L143.983 100.947L143.334 101.28L137.73 104.161C137.68 104.186 137.636 104.221 137.601 104.262C137.566 104.303 137.539 104.35 137.523 104.401C137.507 104.452 137.502 104.505 137.508 104.558C137.514 104.611 137.531 104.662 137.558 104.708C137.585 104.755 137.622 104.796 137.666 104.829C137.709 104.862 137.76 104.887 137.814 104.902C137.868 104.917 137.924 104.921 137.98 104.915C138.036 104.909 138.09 104.893 138.14 104.867L143.741 101.987L144.39 101.653L148.603 99.4869C148.702 99.4354 148.776 99.3489 148.808 99.2463C148.84 99.1436 148.828 99.0332 148.774 98.9391V98.9391Z" fill="#CCCCCC"/>
<path d="M134.055 107.429C135.057 107.429 135.869 106.663 135.869 105.719C135.869 104.774 135.057 104.009 134.055 104.009C133.053 104.009 132.24 104.774 132.24 105.719C132.24 106.663 133.053 107.429 134.055 107.429Z" fill="#CCCCCC"/>
<path d="M135.272 115.334C135.577 115.362 135.88 115.413 136.176 115.486L156.752 98.2804L155.421 92.1079L165.041 88.9976L168.523 99.709C168.804 100.574 168.78 101.502 168.454 102.354C168.128 103.205 167.518 103.934 166.716 104.43L140.558 120.619C140.597 121.733 140.275 122.832 139.635 123.769C138.995 124.706 138.068 125.437 136.976 125.865C135.885 126.293 134.681 126.398 133.525 126.165C132.368 125.933 131.315 125.374 130.504 124.563C129.693 123.752 129.163 122.728 128.985 121.626C128.806 120.524 128.988 119.398 129.506 118.396C130.023 117.394 130.852 116.564 131.882 116.017C132.912 115.47 134.094 115.232 135.272 115.334V115.334Z" fill="#FFB8B8"/>
<path d="M170.915 90.5388L165.086 80.0445C164.486 78.4484 163.252 77.1345 161.644 76.3802C160.035 75.6258 158.179 75.49 156.467 76.0014C156.402 76.0181 156.34 76.0376 156.275 76.0598C154.54 76.6317 153.116 77.8291 152.316 79.3895C151.516 80.9498 151.406 82.7455 152.009 84.3824L154.349 95.9806C154.416 96.3126 154.558 96.6271 154.766 96.9025C154.973 97.178 155.242 97.4079 155.552 97.5767C155.892 97.7639 156.274 97.8708 156.667 97.8881C156.99 97.9075 157.315 97.8649 157.62 97.763L158.871 97.3515L166.9 94.7154L169.526 93.8534C169.864 93.7417 170.173 93.5627 170.432 93.3284C170.691 93.0941 170.893 92.8101 171.024 92.4956C171.156 92.1812 171.215 91.8436 171.196 91.506C171.177 91.1683 171.081 90.8385 170.915 90.5388V90.5388Z" fill="#6C63FF"/>
<path d="M192.919 131.017H0.294983C0.216749 131.017 0.141718 130.988 0.0863982 130.936C0.0310782 130.883 0 130.813 0 130.739C0 130.665 0.0310782 130.595 0.0863982 130.542C0.141718 130.49 0.216749 130.461 0.294983 130.461H192.919C192.997 130.461 193.072 130.49 193.127 130.542C193.183 130.595 193.214 130.665 193.214 130.739C193.214 130.813 193.183 130.883 193.127 130.936C193.072 130.988 192.997 131.017 192.919 131.017Z" fill="#3F3D56"/>
<path d="M33.4785 125.873V126.012C33.4795 126.955 33.7708 127.877 34.3169 128.666C34.8631 129.456 35.6406 130.08 36.5552 130.461C37.2113 130.737 37.9221 130.88 38.6407 130.878H86.2804V125.873H33.4785Z" fill="#3F3D56"/>
<path d="M119.544 92.8857C118.788 91.4146 117.624 90.1636 116.175 89.2653C115.519 88.8554 114.81 88.5247 114.066 88.2809C113.053 87.9472 111.986 87.7771 110.913 87.7776H65.1905C62.6488 87.7804 60.212 88.7334 58.4147 90.4276C56.6175 92.1218 55.6065 94.4188 55.6035 96.8148V121.841C55.6027 122.192 55.6244 122.543 55.6685 122.892C55.7333 123.414 55.8457 123.929 56.0047 124.432C56.1623 124.928 56.3656 125.41 56.6123 125.873C57.4065 127.377 58.6301 128.642 60.1455 129.527C61.661 130.411 63.4082 130.879 65.1905 130.878H110.913C112.172 130.878 113.419 130.645 114.582 130.191C115.746 129.737 116.803 129.071 117.693 128.232C118.583 127.393 119.289 126.396 119.771 125.3C120.253 124.203 120.5 123.028 120.5 121.841V96.8148C120.502 95.4536 120.175 94.1099 119.544 92.8857V92.8857Z" fill="#3F3D56"/>
<path d="M90.5591 111.552C91.8624 111.552 92.9189 110.556 92.9189 109.328C92.9189 108.099 91.8624 107.103 90.5591 107.103C89.2558 107.103 88.1992 108.099 88.1992 109.328C88.1992 110.556 89.2558 111.552 90.5591 111.552Z" fill="white"/>
</g>
<defs>
<clipPath id="clip0">
<rect width="211" height="168" fill="white"/>
</clipPath>
</defs>
</svg>
