<svg width="335" height="44" viewBox="0 0 335 44" fill="none" xmlns="http://www.w3.org/2000/svg">
<path d="M14.748 21.9082V28.8164H2.63672V32.1211H18.1934V18.8145H6.36328V11.9062H18.1934V8.60156H2.63672V21.9082H14.748ZM1.75781 22.7871V7.72266H19.0723V12.7852H7.24219V17.9355H19.0723V33H1.75781V27.9375H13.8691V22.7871H1.75781ZM43.3357 28.8164H34.9509V8.60156H31.2244V32.1211H46.781V8.60156H43.3357V28.8164ZM42.4568 7.72266H47.6599V33H30.3455V7.72266H35.8298V27.9375H42.4568V7.72266ZM64.4175 12.7852V17.9355H71.0445V12.7852H64.4175ZM63.5386 32.1211V21.9082H65.8413L71.7476 32.1211H75.0523L69.4448 21.9082H75.3687V8.60156H59.812V32.1211H63.5386ZM71.9234 11.9062V18.8145H63.5386V11.9062H71.9234ZM58.9331 33V7.72266H76.2476V22.7871H70.939L76.5464 33H71.2378L65.3316 22.7871H64.4175V33H58.9331ZM96.0286 21.9082H100.792V28.8164H92.4075V11.9062H104.238V8.60156H88.6809V32.1211H104.238V18.8145H96.0286V21.9082ZM95.1497 17.9355H105.116V33H87.802V7.72266H105.116V12.7852H93.2864V27.9375H99.9134V22.7871H95.1497V17.9355ZM132.825 11.9062V8.60156H117.269V32.1211H132.825V28.8164H120.995V21.9082H132.825V18.8145H120.995V11.9062H132.825ZM121.874 12.7852V17.9355H133.704V22.7871H121.874V27.9375H133.704V33H116.39V7.72266H133.704V12.7852H121.874ZM149.583 11.9062H161.413V8.60156H145.856V32.1211H161.413V28.8164H149.583V11.9062ZM150.462 27.9375H162.292V33H144.977V7.72266H162.292V12.7852H150.462V27.9375ZM174.444 8.60156V32.1211H190.001V8.60156H174.444ZM185.676 12.7852H179.049V27.9375H185.676V12.7852ZM190.879 7.72266V33H173.565V7.72266H190.879ZM186.555 28.8164H178.17V11.9062H186.555V28.8164ZM217.094 32.1211L218.588 30.2578V10.4648L217.076 8.60156H203.032V32.1211H217.094ZM214.264 12.7852H207.637V27.9375H214.264V12.7852ZM202.153 33V7.72266H217.498L219.467 10.1484V30.5742L217.516 33H202.153ZM215.143 28.8164H206.758V11.9062H215.143V28.8164ZM247.176 11.9062V8.60156H231.619V32.1211H247.176V28.8164H235.346V21.9082H247.176V18.8145H235.346V11.9062H247.176ZM236.225 12.7852V17.9355H248.055V22.7871H236.225V27.9375H248.055V33H230.74V7.72266H248.055V12.7852H236.225ZM264.812 12.7852V17.9355H271.439V12.7852H264.812ZM263.933 32.1211V21.9082H266.236L272.142 32.1211H275.447L269.84 21.9082H275.764V8.60156H260.207V32.1211H263.933ZM272.318 11.9062V18.8145H263.933V11.9062H272.318ZM259.328 33V7.72266H276.642V22.7871H271.334L276.941 33H271.633L265.726 22.7871H264.812V33H259.328ZM301.187 21.9082V28.8164H289.076V32.1211H304.632V18.8145H292.802V11.9062H304.632V8.60156H289.076V21.9082H301.187ZM288.197 22.7871V7.72266H305.511V12.7852H293.681V17.9355H305.511V33H288.197V27.9375H300.308V22.7871H288.197Z" fill="#FEFBFB"/>
<path d="M14.748 21.9082H15.248V21.4082H14.748V21.9082ZM14.748 28.8164V29.3164H15.248V28.8164H14.748ZM2.63672 28.8164V28.3164H2.13672V28.8164H2.63672ZM2.63672 32.1211H2.13672V32.6211H2.63672V32.1211ZM18.1934 32.1211V32.6211H18.6934V32.1211H18.1934ZM18.1934 18.8145H18.6934V18.3145H18.1934V18.8145ZM6.36328 18.8145H5.86328V19.3145H6.36328V18.8145ZM6.36328 11.9062V11.4062H5.86328V11.9062H6.36328ZM18.1934 11.9062V12.4062H18.6934V11.9062H18.1934ZM18.1934 8.60156H18.6934V8.10156H18.1934V8.60156ZM2.63672 8.60156V8.10156H2.13672V8.60156H2.63672ZM2.63672 21.9082H2.13672V22.4082H2.63672V21.9082ZM1.75781 22.7871H1.25781V23.2871H1.75781V22.7871ZM1.75781 7.72266V7.22266H1.25781V7.72266H1.75781ZM19.0723 7.72266H19.5723V7.22266H19.0723V7.72266ZM19.0723 12.7852V13.2852H19.5723V12.7852H19.0723ZM7.24219 12.7852V12.2852H6.74219V12.7852H7.24219ZM7.24219 17.9355H6.74219V18.4355H7.24219V17.9355ZM19.0723 17.9355H19.5723V17.4355H19.0723V17.9355ZM19.0723 33V33.5H19.5723V33H19.0723ZM1.75781 33H1.25781V33.5H1.75781V33ZM1.75781 27.9375V27.4375H1.25781V27.9375H1.75781ZM13.8691 27.9375V28.4375H14.3691V27.9375H13.8691ZM13.8691 22.7871H14.3691V22.2871H13.8691V22.7871ZM14.248 21.9082V28.8164H15.248V21.9082H14.248ZM14.748 28.3164H2.63672V29.3164H14.748V28.3164ZM2.13672 28.8164V32.1211H3.13672V28.8164H2.13672ZM2.63672 32.6211H18.1934V31.6211H2.63672V32.6211ZM18.6934 32.1211V18.8145H17.6934V32.1211H18.6934ZM18.1934 18.3145H6.36328V19.3145H18.1934V18.3145ZM6.86328 18.8145V11.9062H5.86328V18.8145H6.86328ZM6.36328 12.4062H18.1934V11.4062H6.36328V12.4062ZM18.6934 11.9062V8.60156H17.6934V11.9062H18.6934ZM18.1934 8.10156H2.63672V9.10156H18.1934V8.10156ZM2.13672 8.60156V21.9082H3.13672V8.60156H2.13672ZM2.63672 22.4082H14.748V21.4082H2.63672V22.4082ZM2.25781 22.7871V7.72266H1.25781V22.7871H2.25781ZM1.75781 8.22266H19.0723V7.22266H1.75781V8.22266ZM18.5723 7.72266V12.7852H19.5723V7.72266H18.5723ZM19.0723 12.2852H7.24219V13.2852H19.0723V12.2852ZM6.74219 12.7852V17.9355H7.74219V12.7852H6.74219ZM7.24219 18.4355H19.0723V17.4355H7.24219V18.4355ZM18.5723 17.9355V33H19.5723V17.9355H18.5723ZM19.0723 32.5H1.75781V33.5H19.0723V32.5ZM2.25781 33V27.9375H1.25781V33H2.25781ZM1.75781 28.4375H13.8691V27.4375H1.75781V28.4375ZM14.3691 27.9375V22.7871H13.3691V27.9375H14.3691ZM13.8691 22.2871H1.75781V23.2871H13.8691V22.2871ZM43.3357 28.8164V29.3164H43.8357V28.8164H43.3357ZM34.9509 28.8164H34.4509V29.3164H34.9509V28.8164ZM34.9509 8.60156H35.4509V8.10156H34.9509V8.60156ZM31.2244 8.60156V8.10156H30.7244V8.60156H31.2244ZM31.2244 32.1211H30.7244V32.6211H31.2244V32.1211ZM46.781 32.1211V32.6211H47.281V32.1211H46.781ZM46.781 8.60156H47.281V8.10156H46.781V8.60156ZM43.3357 8.60156V8.10156H42.8357V8.60156H43.3357ZM42.4568 7.72266V7.22266H41.9568V7.72266H42.4568ZM47.6599 7.72266H48.1599V7.22266H47.6599V7.72266ZM47.6599 33V33.5H48.1599V33H47.6599ZM30.3455 33H29.8455V33.5H30.3455V33ZM30.3455 7.72266V7.22266H29.8455V7.72266H30.3455ZM35.8298 7.72266H36.3298V7.22266H35.8298V7.72266ZM35.8298 27.9375H35.3298V28.4375H35.8298V27.9375ZM42.4568 27.9375V28.4375H42.9568V27.9375H42.4568ZM43.3357 28.3164H34.9509V29.3164H43.3357V28.3164ZM35.4509 28.8164V8.60156H34.4509V28.8164H35.4509ZM34.9509 8.10156H31.2244V9.10156H34.9509V8.10156ZM30.7244 8.60156V32.1211H31.7244V8.60156H30.7244ZM31.2244 32.6211H46.781V31.6211H31.2244V32.6211ZM47.281 32.1211V8.60156H46.281V32.1211H47.281ZM46.781 8.10156H43.3357V9.10156H46.781V8.10156ZM42.8357 8.60156V28.8164H43.8357V8.60156H42.8357ZM42.4568 8.22266H47.6599V7.22266H42.4568V8.22266ZM47.1599 7.72266V33H48.1599V7.72266H47.1599ZM47.6599 32.5H30.3455V33.5H47.6599V32.5ZM30.8455 33V7.72266H29.8455V33H30.8455ZM30.3455 8.22266H35.8298V7.22266H30.3455V8.22266ZM35.3298 7.72266V27.9375H36.3298V7.72266H35.3298ZM35.8298 28.4375H42.4568V27.4375H35.8298V28.4375ZM42.9568 27.9375V7.72266H41.9568V27.9375H42.9568ZM64.4175 12.7852V12.2852H63.9175V12.7852H64.4175ZM64.4175 17.9355H63.9175V18.4355H64.4175V17.9355ZM71.0444 17.9355V18.4355H71.5444V17.9355H71.0444ZM71.0444 12.7852H71.5444V12.2852H71.0444V12.7852ZM63.5386 32.1211V32.6211H64.0386V32.1211H63.5386ZM63.5386 21.9082V21.4082H63.0386V21.9082H63.5386ZM65.8413 21.9082L66.2742 21.6579L66.1298 21.4082H65.8413V21.9082ZM71.7476 32.1211L71.3147 32.3714L71.4591 32.6211H71.7476V32.1211ZM75.0523 32.1211V32.6211H75.8972L75.4905 31.8805L75.0523 32.1211ZM69.4448 21.9082V21.4082H68.5999L69.0066 22.1488L69.4448 21.9082ZM75.3687 21.9082V22.4082H75.8687V21.9082H75.3687ZM75.3687 8.60156H75.8687V8.10156H75.3687V8.60156ZM59.812 8.60156V8.10156H59.312V8.60156H59.812ZM59.812 32.1211H59.312V32.6211H59.812V32.1211ZM71.9234 11.9062H72.4234V11.4062H71.9234V11.9062ZM71.9234 18.8145V19.3145H72.4234V18.8145H71.9234ZM63.5386 18.8145H63.0386V19.3145H63.5386V18.8145ZM63.5386 11.9062V11.4062H63.0386V11.9062H63.5386ZM58.9331 33H58.4331V33.5H58.9331V33ZM58.9331 7.72266V7.22266H58.4331V7.72266H58.9331ZM76.2476 7.72266H76.7476V7.22266H76.2476V7.72266ZM76.2476 22.7871V23.2871H76.7476V22.7871H76.2476ZM70.939 22.7871V22.2871H70.094L70.5007 23.0278L70.939 22.7871ZM76.5464 33V33.5H77.3913L76.9847 32.7594L76.5464 33ZM71.2378 33L70.805 33.2503L70.9494 33.5H71.2378V33ZM65.3316 22.7871L65.7644 22.5368L65.62 22.2871H65.3316V22.7871ZM64.4175 22.7871V22.2871H63.9175V22.7871H64.4175ZM64.4175 33V33.5H64.9175V33H64.4175ZM63.9175 12.7852V17.9355H64.9175V12.7852H63.9175ZM64.4175 18.4355H71.0444V17.4355H64.4175V18.4355ZM71.5444 17.9355V12.7852H70.5444V17.9355H71.5444ZM71.0444 12.2852H64.4175V13.2852H71.0444V12.2852ZM64.0386 32.1211V21.9082H63.0386V32.1211H64.0386ZM63.5386 22.4082H65.8413V21.4082H63.5386V22.4082ZM65.4085 22.1585L71.3147 32.3714L72.1804 31.8708L66.2742 21.6579L65.4085 22.1585ZM71.7476 32.6211H75.0523V31.6211H71.7476V32.6211ZM75.4905 31.8805L69.8831 21.6676L69.0066 22.1488L74.614 32.3617L75.4905 31.8805ZM69.4448 22.4082H75.3687V21.4082H69.4448V22.4082ZM75.8687 21.9082V8.60156H74.8687V21.9082H75.8687ZM75.3687 8.10156H59.812V9.10156H75.3687V8.10156ZM59.312 8.60156V32.1211H60.312V8.60156H59.312ZM59.812 32.6211H63.5386V31.6211H59.812V32.6211ZM71.4234 11.9062V18.8145H72.4234V11.9062H71.4234ZM71.9234 18.3145H63.5386V19.3145H71.9234V18.3145ZM64.0386 18.8145V11.9062H63.0386V18.8145H64.0386ZM63.5386 12.4062H71.9234V11.4062H63.5386V12.4062ZM59.4331 33V7.72266H58.4331V33H59.4331ZM58.9331 8.22266H76.2476V7.22266H58.9331V8.22266ZM75.7476 7.72266V22.7871H76.7476V7.72266H75.7476ZM76.2476 22.2871H70.939V23.2871H76.2476V22.2871ZM70.5007 23.0278L76.1081 33.2406L76.9847 32.7594L71.3773 22.5465L70.5007 23.0278ZM76.5464 32.5H71.2378V33.5H76.5464V32.5ZM71.6706 32.7497L65.7644 22.5368L64.8987 23.0374L70.805 33.2503L71.6706 32.7497ZM65.3316 22.2871H64.4175V23.2871H65.3316V22.2871ZM63.9175 22.7871V33H64.9175V22.7871H63.9175ZM64.4175 32.5H58.9331V33.5H64.4175V32.5ZM96.0286 21.9082H95.5286V22.4082H96.0286V21.9082ZM100.792 21.9082H101.292V21.4082H100.792V21.9082ZM100.792 28.8164V29.3164H101.292V28.8164H100.792ZM92.4075 28.8164H91.9075V29.3164H92.4075V28.8164ZM92.4075 11.9062V11.4062H91.9075V11.9062H92.4075ZM104.238 11.9062V12.4062H104.738V11.9062H104.238ZM104.238 8.60156H104.738V8.10156H104.238V8.60156ZM88.6809 8.60156V8.10156H88.1809V8.60156H88.6809ZM88.6809 32.1211H88.1809V32.6211H88.6809V32.1211ZM104.238 32.1211V32.6211H104.738V32.1211H104.238ZM104.238 18.8145H104.738V18.3145H104.238V18.8145ZM96.0286 18.8145V18.3145H95.5286V18.8145H96.0286ZM95.1497 17.9355V17.4355H94.6497V17.9355H95.1497ZM105.116 17.9355H105.616V17.4355H105.116V17.9355ZM105.116 33V33.5H105.616V33H105.116ZM87.802 33H87.302V33.5H87.802V33ZM87.802 7.72266V7.22266H87.302V7.72266H87.802ZM105.116 7.72266H105.616V7.22266H105.116V7.72266ZM105.116 12.7852V13.2852H105.616V12.7852H105.116ZM93.2864 12.7852V12.2852H92.7864V12.7852H93.2864ZM93.2864 27.9375H92.7864V28.4375H93.2864V27.9375ZM99.9134 27.9375V28.4375H100.413V27.9375H99.9134ZM99.9134 22.7871H100.413V22.2871H99.9134V22.7871ZM95.1497 22.7871H94.6497V23.2871H95.1497V22.7871ZM96.0286 22.4082H100.792V21.4082H96.0286V22.4082ZM100.292 21.9082V28.8164H101.292V21.9082H100.292ZM100.792 28.3164H92.4075V29.3164H100.792V28.3164ZM92.9075 28.8164V11.9062H91.9075V28.8164H92.9075ZM92.4075 12.4062H104.238V11.4062H92.4075V12.4062ZM104.738 11.9062V8.60156H103.738V11.9062H104.738ZM104.238 8.10156H88.6809V9.10156H104.238V8.10156ZM88.1809 8.60156V32.1211H89.1809V8.60156H88.1809ZM88.6809 32.6211H104.238V31.6211H88.6809V32.6211ZM104.738 32.1211V18.8145H103.738V32.1211H104.738ZM104.238 18.3145H96.0286V19.3145H104.238V18.3145ZM95.5286 18.8145V21.9082H96.5286V18.8145H95.5286ZM95.1497 18.4355H105.116V17.4355H95.1497V18.4355ZM104.616 17.9355V33H105.616V17.9355H104.616ZM105.116 32.5H87.802V33.5H105.116V32.5ZM88.302 33V7.72266H87.302V33H88.302ZM87.802 8.22266H105.116V7.22266H87.802V8.22266ZM104.616 7.72266V12.7852H105.616V7.72266H104.616ZM105.116 12.2852H93.2864V13.2852H105.116V12.2852ZM92.7864 12.7852V27.9375H93.7864V12.7852H92.7864ZM93.2864 28.4375H99.9134V27.4375H93.2864V28.4375ZM100.413 27.9375V22.7871H99.4134V27.9375H100.413ZM99.9134 22.2871H95.1497V23.2871H99.9134V22.2871ZM95.6497 22.7871V17.9355H94.6497V22.7871H95.6497ZM132.825 11.9062V12.4062H133.325V11.9062H132.825ZM132.825 8.60156H133.325V8.10156H132.825V8.60156ZM117.269 8.60156V8.10156H116.769V8.60156H117.269ZM117.269 32.1211H116.769V32.6211H117.269V32.1211ZM132.825 32.1211V32.6211H133.325V32.1211H132.825ZM132.825 28.8164H133.325V28.3164H132.825V28.8164ZM120.995 28.8164H120.495V29.3164H120.995V28.8164ZM120.995 21.9082V21.4082H120.495V21.9082H120.995ZM132.825 21.9082V22.4082H133.325V21.9082H132.825ZM132.825 18.8145H133.325V18.3145H132.825V18.8145ZM120.995 18.8145H120.495V19.3145H120.995V18.8145ZM120.995 11.9062V11.4062H120.495V11.9062H120.995ZM121.874 12.7852V12.2852H121.374V12.7852H121.874ZM121.874 17.9355H121.374V18.4355H121.874V17.9355ZM133.704 17.9355H134.204V17.4355H133.704V17.9355ZM133.704 22.7871V23.2871H134.204V22.7871H133.704ZM121.874 22.7871V22.2871H121.374V22.7871H121.874ZM121.874 27.9375H121.374V28.4375H121.874V27.9375ZM133.704 27.9375H134.204V27.4375H133.704V27.9375ZM133.704 33V33.5H134.204V33H133.704ZM116.39 33H115.89V33.5H116.39V33ZM116.39 7.72266V7.22266H115.89V7.72266H116.39ZM133.704 7.72266H134.204V7.22266H133.704V7.72266ZM133.704 12.7852V13.2852H134.204V12.7852H133.704ZM133.325 11.9062V8.60156H132.325V11.9062H133.325ZM132.825 8.10156H117.269V9.10156H132.825V8.10156ZM116.769 8.60156V32.1211H117.769V8.60156H116.769ZM117.269 32.6211H132.825V31.6211H117.269V32.6211ZM133.325 32.1211V28.8164H132.325V32.1211H133.325ZM132.825 28.3164H120.995V29.3164H132.825V28.3164ZM121.495 28.8164V21.9082H120.495V28.8164H121.495ZM120.995 22.4082H132.825V21.4082H120.995V22.4082ZM133.325 21.9082V18.8145H132.325V21.9082H133.325ZM132.825 18.3145H120.995V19.3145H132.825V18.3145ZM121.495 18.8145V11.9062H120.495V18.8145H121.495ZM120.995 12.4062H132.825V11.4062H120.995V12.4062ZM121.374 12.7852V17.9355H122.374V12.7852H121.374ZM121.874 18.4355H133.704V17.4355H121.874V18.4355ZM133.204 17.9355V22.7871H134.204V17.9355H133.204ZM133.704 22.2871H121.874V23.2871H133.704V22.2871ZM121.374 22.7871V27.9375H122.374V22.7871H121.374ZM121.874 28.4375H133.704V27.4375H121.874V28.4375ZM133.204 27.9375V33H134.204V27.9375H133.204ZM133.704 32.5H116.39V33.5H133.704V32.5ZM116.89 33V7.72266H115.89V33H116.89ZM116.39 8.22266H133.704V7.22266H116.39V8.22266ZM133.204 7.72266V12.7852H134.204V7.72266H133.204ZM133.704 12.2852H121.874V13.2852H133.704V12.2852ZM149.583 11.9062V11.4062H149.083V11.9062H149.583ZM161.413 11.9062V12.4062H161.913V11.9062H161.413ZM161.413 8.60156H161.913V8.10156H161.413V8.60156ZM145.856 8.60156V8.10156H145.356V8.60156H145.856ZM145.856 32.1211H145.356V32.6211H145.856V32.1211ZM161.413 32.1211V32.6211H161.913V32.1211H161.413ZM161.413 28.8164H161.913V28.3164H161.413V28.8164ZM149.583 28.8164H149.083V29.3164H149.583V28.8164ZM150.462 27.9375H149.962V28.4375H150.462V27.9375ZM162.292 27.9375H162.792V27.4375H162.292V27.9375ZM162.292 33V33.5H162.792V33H162.292ZM144.977 33H144.477V33.5H144.977V33ZM144.977 7.72266V7.22266H144.477V7.72266H144.977ZM162.292 7.72266H162.792V7.22266H162.292V7.72266ZM162.292 12.7852V13.2852H162.792V12.7852H162.292ZM150.462 12.7852V12.2852H149.962V12.7852H150.462ZM149.583 12.4062H161.413V11.4062H149.583V12.4062ZM161.913 11.9062V8.60156H160.913V11.9062H161.913ZM161.413 8.10156H145.856V9.10156H161.413V8.10156ZM145.356 8.60156V32.1211H146.356V8.60156H145.356ZM145.856 32.6211H161.413V31.6211H145.856V32.6211ZM161.913 32.1211V28.8164H160.913V32.1211H161.913ZM161.413 28.3164H149.583V29.3164H161.413V28.3164ZM150.083 28.8164V11.9062H149.083V28.8164H150.083ZM150.462 28.4375H162.292V27.4375H150.462V28.4375ZM161.792 27.9375V33H162.792V27.9375H161.792ZM162.292 32.5H144.977V33.5H162.292V32.5ZM145.477 33V7.72266H144.477V33H145.477ZM144.977 8.22266H162.292V7.22266H144.977V8.22266ZM161.792 7.72266V12.7852H162.792V7.72266H161.792ZM162.292 12.2852H150.462V13.2852H162.292V12.2852ZM149.962 12.7852V27.9375H150.962V12.7852H149.962ZM174.444 8.60156V8.10156H173.944V8.60156H174.444ZM174.444 32.1211H173.944V32.6211H174.444V32.1211ZM190.001 32.1211V32.6211H190.501V32.1211H190.001ZM190.001 8.60156H190.501V8.10156H190.001V8.60156ZM185.676 12.7852H186.176V12.2852H185.676V12.7852ZM179.049 12.7852V12.2852H178.549V12.7852H179.049ZM179.049 27.9375H178.549V28.4375H179.049V27.9375ZM185.676 27.9375V28.4375H186.176V27.9375H185.676ZM190.879 7.72266H191.379V7.22266H190.879V7.72266ZM190.879 33V33.5H191.379V33H190.879ZM173.565 33H173.065V33.5H173.565V33ZM173.565 7.72266V7.22266H173.065V7.72266H173.565ZM186.555 28.8164V29.3164H187.055V28.8164H186.555ZM178.17 28.8164H177.67V29.3164H178.17V28.8164ZM178.17 11.9062V11.4062H177.67V11.9062H178.17ZM186.555 11.9062H187.055V11.4062H186.555V11.9062ZM173.944 8.60156V32.1211H174.944V8.60156H173.944ZM174.444 32.6211H190.001V31.6211H174.444V32.6211ZM190.501 32.1211V8.60156H189.501V32.1211H190.501ZM190.001 8.10156H174.444V9.10156H190.001V8.10156ZM185.676 12.2852H179.049V13.2852H185.676V12.2852ZM178.549 12.7852V27.9375H179.549V12.7852H178.549ZM179.049 28.4375H185.676V27.4375H179.049V28.4375ZM186.176 27.9375V12.7852H185.176V27.9375H186.176ZM190.379 7.72266V33H191.379V7.72266H190.379ZM190.879 32.5H173.565V33.5H190.879V32.5ZM174.065 33V7.72266H173.065V33H174.065ZM173.565 8.22266H190.879V7.22266H173.565V8.22266ZM186.555 28.3164H178.17V29.3164H186.555V28.3164ZM178.67 28.8164V11.9062H177.67V28.8164H178.67ZM178.17 12.4062H186.555V11.4062H178.17V12.4062ZM186.055 11.9062V28.8164H187.055V11.9062H186.055ZM217.094 32.1211V32.6211H217.334L217.484 32.4339L217.094 32.1211ZM218.588 30.2578L218.978 30.5706L219.088 30.4335V30.2578H218.588ZM218.588 10.4648H219.088V10.2875L218.976 10.1498L218.588 10.4648ZM217.076 8.60156L217.465 8.28654L217.315 8.10156H217.076V8.60156ZM203.032 8.60156V8.10156H202.532V8.60156H203.032ZM203.032 32.1211H202.532V32.6211H203.032V32.1211ZM214.264 12.7852H214.764V12.2852H214.264V12.7852ZM207.637 12.7852V12.2852H207.137V12.7852H207.637ZM207.637 27.9375H207.137V28.4375H207.637V27.9375ZM214.264 27.9375V28.4375H214.764V27.9375H214.264ZM202.153 33H201.653V33.5H202.153V33ZM202.153 7.72266V7.22266H201.653V7.72266H202.153ZM217.498 7.72266L217.887 7.40757L217.737 7.22266H217.498V7.72266ZM219.467 10.1484H219.967V9.97107L219.855 9.83335L219.467 10.1484ZM219.467 30.5742L219.857 30.8876L219.967 30.7504V30.5742H219.467ZM217.516 33V33.5H217.755L217.906 33.3134L217.516 33ZM215.143 28.8164V29.3164H215.643V28.8164H215.143ZM206.758 28.8164H206.258V29.3164H206.758V28.8164ZM206.758 11.9062V11.4062H206.258V11.9062H206.758ZM215.143 11.9062H215.643V11.4062H215.143V11.9062ZM217.484 32.4339L218.978 30.5706L218.198 29.945L216.704 31.8083L217.484 32.4339ZM219.088 30.2578V10.4648H218.088V30.2578H219.088ZM218.976 10.1498L217.465 8.28654L216.688 8.91658L218.2 10.7799L218.976 10.1498ZM217.076 8.10156H203.032V9.10156H217.076V8.10156ZM202.532 8.60156V32.1211H203.532V8.60156H202.532ZM203.032 32.6211H217.094V31.6211H203.032V32.6211ZM214.264 12.2852H207.637V13.2852H214.264V12.2852ZM207.137 12.7852V27.9375H208.137V12.7852H207.137ZM207.637 28.4375H214.264V27.4375H207.637V28.4375ZM214.764 27.9375V12.7852H213.764V27.9375H214.764ZM202.653 33V7.72266H201.653V33H202.653ZM202.153 8.22266H217.498V7.22266H202.153V8.22266ZM217.11 8.03774L219.079 10.4635L219.855 9.83335L217.887 7.40757L217.11 8.03774ZM218.967 10.1484V30.5742H219.967V10.1484H218.967ZM219.077 30.2608L217.126 32.6866L217.906 33.3134L219.857 30.8876L219.077 30.2608ZM217.516 32.5H202.153V33.5H217.516V32.5ZM215.143 28.3164H206.758V29.3164H215.143V28.3164ZM207.258 28.8164V11.9062H206.258V28.8164H207.258ZM206.758 12.4062H215.143V11.4062H206.758V12.4062ZM214.643 11.9062V28.8164H215.643V11.9062H214.643ZM247.176 11.9062V12.4062H247.676V11.9062H247.176ZM247.176 8.60156H247.676V8.10156H247.176V8.60156ZM231.619 8.60156V8.10156H231.119V8.60156H231.619ZM231.619 32.1211H231.119V32.6211H231.619V32.1211ZM247.176 32.1211V32.6211H247.676V32.1211H247.176ZM247.176 28.8164H247.676V28.3164H247.176V28.8164ZM235.346 28.8164H234.846V29.3164H235.346V28.8164ZM235.346 21.9082V21.4082H234.846V21.9082H235.346ZM247.176 21.9082V22.4082H247.676V21.9082H247.176ZM247.176 18.8145H247.676V18.3145H247.176V18.8145ZM235.346 18.8145H234.846V19.3145H235.346V18.8145ZM235.346 11.9062V11.4062H234.846V11.9062H235.346ZM236.225 12.7852V12.2852H235.725V12.7852H236.225ZM236.225 17.9355H235.725V18.4355H236.225V17.9355ZM248.055 17.9355H248.555V17.4355H248.055V17.9355ZM248.055 22.7871V23.2871H248.555V22.7871H248.055ZM236.225 22.7871V22.2871H235.725V22.7871H236.225ZM236.225 27.9375H235.725V28.4375H236.225V27.9375ZM248.055 27.9375H248.555V27.4375H248.055V27.9375ZM248.055 33V33.5H248.555V33H248.055ZM230.74 33H230.24V33.5H230.74V33ZM230.74 7.72266V7.22266H230.24V7.72266H230.74ZM248.055 7.72266H248.555V7.22266H248.055V7.72266ZM248.055 12.7852V13.2852H248.555V12.7852H248.055ZM247.676 11.9062V8.60156H246.676V11.9062H247.676ZM247.176 8.10156H231.619V9.10156H247.176V8.10156ZM231.119 8.60156V32.1211H232.119V8.60156H231.119ZM231.619 32.6211H247.176V31.6211H231.619V32.6211ZM247.676 32.1211V28.8164H246.676V32.1211H247.676ZM247.176 28.3164H235.346V29.3164H247.176V28.3164ZM235.846 28.8164V21.9082H234.846V28.8164H235.846ZM235.346 22.4082H247.176V21.4082H235.346V22.4082ZM247.676 21.9082V18.8145H246.676V21.9082H247.676ZM247.176 18.3145H235.346V19.3145H247.176V18.3145ZM235.846 18.8145V11.9062H234.846V18.8145H235.846ZM235.346 12.4062H247.176V11.4062H235.346V12.4062ZM235.725 12.7852V17.9355H236.725V12.7852H235.725ZM236.225 18.4355H248.055V17.4355H236.225V18.4355ZM247.555 17.9355V22.7871H248.555V17.9355H247.555ZM248.055 22.2871H236.225V23.2871H248.055V22.2871ZM235.725 22.7871V27.9375H236.725V22.7871H235.725ZM236.225 28.4375H248.055V27.4375H236.225V28.4375ZM247.555 27.9375V33H248.555V27.9375H247.555ZM248.055 32.5H230.74V33.5H248.055V32.5ZM231.24 33V7.72266H230.24V33H231.24ZM230.74 8.22266H248.055V7.22266H230.74V8.22266ZM247.555 7.72266V12.7852H248.555V7.72266H247.555ZM248.055 12.2852H236.225V13.2852H248.055V12.2852ZM264.812 12.7852V12.2852H264.312V12.7852H264.812ZM264.812 17.9355H264.312V18.4355H264.812V17.9355ZM271.439 17.9355V18.4355H271.939V17.9355H271.439ZM271.439 12.7852H271.939V12.2852H271.439V12.7852ZM263.933 32.1211V32.6211H264.433V32.1211H263.933ZM263.933 21.9082V21.4082H263.433V21.9082H263.933ZM266.236 21.9082L266.669 21.6579L266.525 21.4082H266.236V21.9082ZM272.142 32.1211L271.71 32.3714L271.854 32.6211H272.142V32.1211ZM275.447 32.1211V32.6211H276.292L275.885 31.8805L275.447 32.1211ZM269.84 21.9082V21.4082H268.995L269.401 22.1488L269.84 21.9082ZM275.764 21.9082V22.4082H276.264V21.9082H275.764ZM275.764 8.60156H276.264V8.10156H275.764V8.60156ZM260.207 8.60156V8.10156H259.707V8.60156H260.207ZM260.207 32.1211H259.707V32.6211H260.207V32.1211ZM272.318 11.9062H272.818V11.4062H272.318V11.9062ZM272.318 18.8145V19.3145H272.818V18.8145H272.318ZM263.933 18.8145H263.433V19.3145H263.933V18.8145ZM263.933 11.9062V11.4062H263.433V11.9062H263.933ZM259.328 33H258.828V33.5H259.328V33ZM259.328 7.72266V7.22266H258.828V7.72266H259.328ZM276.642 7.72266H277.142V7.22266H276.642V7.72266ZM276.642 22.7871V23.2871H277.142V22.7871H276.642ZM271.334 22.7871V22.2871H270.489L270.896 23.0278L271.334 22.7871ZM276.941 33V33.5H277.786L277.38 32.7594L276.941 33ZM271.633 33L271.2 33.2503L271.344 33.5H271.633V33ZM265.726 22.7871L266.159 22.5368L266.015 22.2871H265.726V22.7871ZM264.812 22.7871V22.2871H264.312V22.7871H264.812ZM264.812 33V33.5H265.312V33H264.812ZM264.312 12.7852V17.9355H265.312V12.7852H264.312ZM264.812 18.4355H271.439V17.4355H264.812V18.4355ZM271.939 17.9355V12.7852H270.939V17.9355H271.939ZM271.439 12.2852H264.812V13.2852H271.439V12.2852ZM264.433 32.1211V21.9082H263.433V32.1211H264.433ZM263.933 22.4082H266.236V21.4082H263.933V22.4082ZM265.803 22.1585L271.71 32.3714L272.575 31.8708L266.669 21.6579L265.803 22.1585ZM272.142 32.6211H275.447V31.6211H272.142V32.6211ZM275.885 31.8805L270.278 21.6676L269.401 22.1488L275.009 32.3617L275.885 31.8805ZM269.84 22.4082H275.764V21.4082H269.84V22.4082ZM276.264 21.9082V8.60156H275.264V21.9082H276.264ZM275.764 8.10156H260.207V9.10156H275.764V8.10156ZM259.707 8.60156V32.1211H260.707V8.60156H259.707ZM260.207 32.6211H263.933V31.6211H260.207V32.6211ZM271.818 11.9062V18.8145H272.818V11.9062H271.818ZM272.318 18.3145H263.933V19.3145H272.318V18.3145ZM264.433 18.8145V11.9062H263.433V18.8145H264.433ZM263.933 12.4062H272.318V11.4062H263.933V12.4062ZM259.828 33V7.72266H258.828V33H259.828ZM259.328 8.22266H276.642V7.22266H259.328V8.22266ZM276.142 7.72266V22.7871H277.142V7.72266H276.142ZM276.642 22.2871H271.334V23.2871H276.642V22.2871ZM270.896 23.0278L276.503 33.2406L277.38 32.7594L271.772 22.5465L270.896 23.0278ZM276.941 32.5H271.633V33.5H276.941V32.5ZM272.065 32.7497L266.159 22.5368L265.294 23.0374L271.2 33.2503L272.065 32.7497ZM265.726 22.2871H264.812V23.2871H265.726V22.2871ZM264.312 22.7871V33H265.312V22.7871H264.312ZM264.812 32.5H259.328V33.5H264.812V32.5ZM301.187 21.9082H301.687V21.4082H301.187V21.9082ZM301.187 28.8164V29.3164H301.687V28.8164H301.187ZM289.076 28.8164V28.3164H288.576V28.8164H289.076ZM289.076 32.1211H288.576V32.6211H289.076V32.1211ZM304.632 32.1211V32.6211H305.132V32.1211H304.632ZM304.632 18.8145H305.132V18.3145H304.632V18.8145ZM292.802 18.8145H292.302V19.3145H292.802V18.8145ZM292.802 11.9062V11.4062H292.302V11.9062H292.802ZM304.632 11.9062V12.4062H305.132V11.9062H304.632ZM304.632 8.60156H305.132V8.10156H304.632V8.60156ZM289.076 8.60156V8.10156H288.576V8.60156H289.076ZM289.076 21.9082H288.576V22.4082H289.076V21.9082ZM288.197 22.7871H287.697V23.2871H288.197V22.7871ZM288.197 7.72266V7.22266H287.697V7.72266H288.197ZM305.511 7.72266H306.011V7.22266H305.511V7.72266ZM305.511 12.7852V13.2852H306.011V12.7852H305.511ZM293.681 12.7852V12.2852H293.181V12.7852H293.681ZM293.681 17.9355H293.181V18.4355H293.681V17.9355ZM305.511 17.9355H306.011V17.4355H305.511V17.9355ZM305.511 33V33.5H306.011V33H305.511ZM288.197 33H287.697V33.5H288.197V33ZM288.197 27.9375V27.4375H287.697V27.9375H288.197ZM300.308 27.9375V28.4375H300.808V27.9375H300.308ZM300.308 22.7871H300.808V22.2871H300.308V22.7871ZM300.687 21.9082V28.8164H301.687V21.9082H300.687ZM301.187 28.3164H289.076V29.3164H301.187V28.3164ZM288.576 28.8164V32.1211H289.576V28.8164H288.576ZM289.076 32.6211H304.632V31.6211H289.076V32.6211ZM305.132 32.1211V18.8145H304.132V32.1211H305.132ZM304.632 18.3145H292.802V19.3145H304.632V18.3145ZM293.302 18.8145V11.9062H292.302V18.8145H293.302ZM292.802 12.4062H304.632V11.4062H292.802V12.4062ZM305.132 11.9062V8.60156H304.132V11.9062H305.132ZM304.632 8.10156H289.076V9.10156H304.632V8.10156ZM288.576 8.60156V21.9082H289.576V8.60156H288.576ZM289.076 22.4082H301.187V21.4082H289.076V22.4082ZM288.697 22.7871V7.72266H287.697V22.7871H288.697ZM288.197 8.22266H305.511V7.22266H288.197V8.22266ZM305.011 7.72266V12.7852H306.011V7.72266H305.011ZM305.511 12.2852H293.681V13.2852H305.511V12.2852ZM293.181 12.7852V17.9355H294.181V12.7852H293.181ZM293.681 18.4355H305.511V17.4355H293.681V18.4355ZM305.011 17.9355V33H306.011V17.9355H305.011ZM305.511 32.5H288.197V33.5H305.511V32.5ZM288.697 33V27.9375H287.697V33H288.697ZM288.197 28.4375H300.308V27.4375H288.197V28.4375ZM300.808 27.9375V22.7871H299.808V27.9375H300.808ZM300.308 22.2871H288.197V23.2871H300.308V22.2871Z" fill="white"/>
<rect x="322" y="23" width="8" height="7" stroke="white" stroke-width="2"/>
<rect x="318" y="19" width="16" height="15" stroke="white" stroke-width="2"/>
</svg>
