<svg width="472" height="404" viewBox="0 0 472 404" fill="none" xmlns="http://www.w3.org/2000/svg">
<g clip-path="url(#clip0)">
<path d="M138.712 399.784C146.289 393.383 150.891 383.27 149.684 373.425C148.477 363.579 141.001 354.529 131.304 352.438C121.607 350.348 110.554 356.135 107.608 365.606C105.987 347.346 104.119 328.32 94.4098 312.769C85.618 298.688 70.3904 288.613 53.8871 286.811C37.3838 285.008 20.0079 291.816 9.71544 304.84C-0.577053 317.865 -3.09712 336.799 4.11148 351.752C9.42179 362.768 19.2053 370.966 29.4559 377.635C62.5795 399.004 102.307 407.694 141.328 402.106" fill="#E6E6E6"/>
<path d="M26.0349 292.193C39.6521 303.283 52.1445 315.687 63.3314 329.224C80.8387 350.338 95.0059 374.01 105.339 399.416C106.096 401.269 103.086 402.076 102.338 400.243C95.7664 384.18 87.6365 368.8 78.0646 354.323C63.1381 331.707 44.8512 311.499 23.8338 294.394C22.2799 293.129 24.4937 290.938 26.0349 292.193V292.193Z" fill="white"/>
<path d="M143.945 399.784C136.368 393.383 131.766 383.27 132.973 373.425C134.18 363.579 141.655 354.529 151.352 352.438C161.049 350.348 172.103 356.135 175.049 365.606C176.67 347.346 178.537 328.32 188.247 312.769C197.039 298.688 212.266 288.613 228.77 286.811C245.273 285.008 262.649 291.816 272.941 304.84C283.234 317.865 285.754 336.799 278.545 351.752C273.235 362.768 263.451 370.966 253.201 377.635C220.077 399.004 180.35 407.694 141.328 402.106" fill="#E6E6E6"/>
<path d="M256.623 292.193C243.005 303.283 230.513 315.687 219.326 329.224C201.819 350.338 187.652 374.01 177.318 399.416C176.562 401.269 179.572 402.076 180.32 400.243C197.227 358.953 224.218 322.561 258.824 294.394C260.378 293.129 258.164 290.938 256.623 292.193V292.193Z" fill="white"/>
<path d="M166.43 181.739C180.447 181.739 191.81 170.377 191.81 156.361C191.81 142.345 180.447 130.983 166.43 130.983C152.412 130.983 141.049 142.345 141.049 156.361C141.049 170.377 152.412 181.739 166.43 181.739Z" fill="#F2F2F2"/>
<path d="M88.1746 68.8784H263.041V78.4445H110.498C101.529 78.4445 92.6478 80.2108 84.3615 83.6427C76.0753 87.0746 68.5462 92.1048 62.2042 98.4461C55.8621 104.787 50.8313 112.316 47.3991 120.601C43.9668 128.886 42.2002 137.766 42.2002 146.734V255.416H23.066C22.2202 255.416 21.4091 255.08 20.811 254.482C20.213 253.884 19.877 253.073 19.877 252.227V137.168C19.8769 128.2 21.6435 119.32 25.0758 111.035C28.5081 102.75 33.5389 95.2213 39.8809 88.88C46.2229 82.5387 53.752 77.5085 62.0382 74.0766C70.3245 70.6448 79.2057 68.8784 88.1746 68.8784Z" fill="#F2F2F2"/>
<path d="M121.809 400.316V255.007H164.383V400.316C164.382 401.293 163.993 402.229 163.302 402.92C162.612 403.61 161.675 403.999 160.699 404H125.493C124.516 403.999 123.58 403.61 122.889 402.92C122.198 402.229 121.81 401.293 121.809 400.316Z" fill="#3F3D56"/>
<path d="M10.8711 252.142V133.983C10.8923 115.173 18.3748 97.1399 31.677 83.8391C44.9792 70.5384 63.0148 63.0567 81.827 63.0354H262.223V256.235H14.9648C13.8794 256.234 12.8389 255.802 12.0715 255.035C11.304 254.267 10.8723 253.227 10.8711 252.142ZM260.585 64.6727H81.827C63.4489 64.6935 45.8296 72.0026 32.8344 84.9964C19.8392 97.9902 12.5293 115.608 12.5086 133.983V252.142C12.5093 252.793 12.7683 253.417 13.2288 253.878C13.6892 254.338 14.3136 254.597 14.9648 254.598H260.585V64.6727Z" fill="#3F3D56"/>
<path d="M166.431 169.459C162.523 169.455 158.777 167.901 156.015 165.138C153.252 162.376 151.698 158.63 151.693 154.723V49.1185C151.693 48.4674 151.434 47.8431 150.973 47.3827C150.513 46.9223 149.888 46.6633 149.237 46.6626H91.9257C90.8404 46.6614 89.7999 46.2297 89.0324 45.4624C88.265 44.695 87.8333 43.6546 87.832 42.5694V4.09321C87.8333 3.00801 88.265 1.96761 89.0324 1.20026C89.7999 0.432904 90.8404 0.00125665 91.9257 0H177.074C178.159 0.00124151 179.2 0.432888 179.967 1.20024C180.735 1.9676 181.167 3.00801 181.168 4.09321V154.723C181.163 158.63 179.609 162.376 176.847 165.138C174.084 167.901 170.338 169.455 166.431 169.459Z" fill="#6C63FF"/>
<path d="M268.771 61.3983C281.123 61.3724 292.978 66.2535 301.73 74.9678C310.482 83.6821 315.413 95.5158 315.439 107.866V242.376H407.138C410.821 242.369 414.357 243.825 416.967 246.424C419.578 249.023 421.048 252.552 421.056 256.235H222.104V107.866C222.129 95.5158 227.061 83.6821 235.813 74.9678C244.565 66.2535 256.42 61.3724 268.771 61.3983Z" fill="#3F3D56"/>
<path d="M257.573 137.996L267.236 177.91L456.266 132.155L446.603 92.2412C446.486 91.7532 446.248 91.3026 445.911 90.9312C445.573 90.5598 445.147 90.2797 444.673 90.1168C444.322 89.9936 443.952 89.9378 443.581 89.9524L334.313 33.3827C333.672 33.0558 332.936 32.9685 332.237 33.1365C331.538 33.3045 330.922 33.7168 330.501 34.299L277.84 107.726L257.987 135.415C257.951 135.463 257.926 135.519 257.913 135.578C257.901 135.637 257.901 135.698 257.914 135.757C257.51 136.43 257.387 137.234 257.573 137.996Z" fill="white"/>
<path d="M257.914 135.757C257.924 135.809 257.943 135.859 257.972 135.903C258 135.947 258.037 135.986 258.081 136.016C258.132 136.051 258.19 136.075 258.251 136.087C258.312 136.099 258.375 136.099 258.436 136.086C258.534 136.06 258.621 135.999 258.68 135.916L258.748 135.822L259.782 134.376L278.555 108.209L331.2 34.7988C331.5 34.3828 331.94 34.0882 332.439 33.9686C332.938 33.849 333.463 33.9123 333.92 34.1469L442.341 90.2785L443.314 90.7834C443.353 90.7999 443.394 90.8141 443.435 90.8257C443.508 90.8124 443.582 90.8053 443.657 90.8044C443.759 90.7704 443.844 90.6987 443.894 90.6041C443.921 90.5542 443.937 90.4997 443.942 90.4435C443.948 90.3874 443.942 90.3307 443.925 90.2768C443.908 90.223 443.881 90.1729 443.845 90.1295C443.809 90.0861 443.765 90.0502 443.715 90.0239L443.581 89.9525L334.313 33.3827C333.673 33.0558 332.937 32.9685 332.238 33.1365C331.539 33.3045 330.923 33.7168 330.501 34.299L277.84 107.726L257.987 135.415C257.951 135.463 257.926 135.519 257.914 135.578C257.901 135.637 257.901 135.698 257.914 135.757Z" fill="#3F3D56"/>
<path d="M314.686 139.827L318.894 140.294L350.122 143.753L370.825 146.045L372.048 146.181L397.88 126.005L398.87 125.233L404.972 120.468L426.679 103.517L426.809 102.326L434.53 32.6483C434.636 31.6888 434.356 30.7268 433.753 29.9731C433.15 29.2194 432.273 28.7355 431.314 28.6275L328.271 17.2142C327.311 17.1094 326.35 17.3891 325.596 17.992C324.842 18.5949 324.358 19.4718 324.25 20.4308L318.805 69.5801L315.784 96.8293L313.083 121.207L311.83 132.528L311.465 135.808C311.36 136.767 311.641 137.729 312.245 138.483C312.849 139.236 313.726 139.72 314.686 139.827Z" fill="#E6E6E6"/>
<path d="M343.002 78.7516L387.636 83.6946L403.465 85.4471C404.164 85.5245 404.871 85.4635 405.547 85.2676C406.222 85.0717 406.852 84.7447 407.401 84.3053C407.95 83.8659 408.407 83.3227 408.746 82.7068C409.085 82.0908 409.299 81.4141 409.376 80.7153C409.454 80.0165 409.393 79.3094 409.197 78.6342C409.001 77.959 408.674 77.3289 408.235 76.7801C407.795 76.2313 407.252 75.7744 406.636 75.4354C406.02 75.0965 405.343 74.8822 404.644 74.8048L384.956 72.6246L344.184 68.1042C342.772 67.9482 341.356 68.3592 340.247 69.2468C339.139 70.1343 338.428 71.4258 338.271 72.8373C338.114 74.2487 338.525 75.6646 339.412 76.7737C340.299 77.8828 341.59 78.5942 343.002 78.7516Z" fill="white"/>
<path d="M340.462 98.494C340.577 98.5146 340.692 98.5351 340.809 98.5464L392.623 104.286L401.274 105.246C402.686 105.402 404.102 104.991 405.211 104.103C406.32 103.215 407.031 101.923 407.187 100.512C407.343 99.0999 406.932 97.6838 406.044 96.5751C405.156 95.4664 403.864 94.7558 402.452 94.5996L389.943 93.2158L348.899 88.6684L341.992 87.9031C340.611 87.7491 339.224 88.1381 338.124 88.9881C337.025 89.8381 336.299 91.0823 336.1 92.4577C335.901 93.8331 336.245 95.2319 337.059 96.3584C337.873 97.4849 339.093 98.2507 340.462 98.4939V98.494Z" fill="white"/>
<path d="M334.596 116C335.021 116.705 335.602 117.302 336.295 117.746C336.988 118.19 337.774 118.468 338.592 118.558L359.829 120.91L397.652 125.1L397.661 125.098L398.87 125.233L404.971 120.468C405.009 120.106 405.009 119.741 404.972 119.379C404.844 118.164 404.304 117.029 403.442 116.162C402.581 115.295 401.449 114.748 400.235 114.612L394.98 114.028L374.138 111.722L359.141 110.059L339.77 107.912C338.777 107.802 337.773 107.972 336.872 108.403C335.971 108.833 335.208 109.507 334.67 110.349C334.132 111.19 333.84 112.165 333.827 113.164C333.814 114.162 334.08 115.145 334.596 116L334.596 116Z" fill="white"/>
<path d="M364.426 54.6195L375.531 55.8493L380.436 56.394L387.846 57.214C389.258 57.3701 390.674 56.9591 391.783 56.0712C392.892 55.1833 393.603 53.8914 393.759 52.4796C393.915 51.0678 393.504 49.6517 392.616 48.543C391.728 47.4343 390.436 46.7237 389.024 46.5675L365.609 43.9761C364.197 43.8193 362.781 44.2295 361.672 45.1166C360.563 46.0036 359.852 47.2949 359.695 48.7063C359.538 50.1177 359.948 51.5336 360.835 52.6425C361.723 53.7514 363.014 54.4626 364.426 54.6194V54.6195Z" fill="white"/>
<path d="M273.615 84.2642L287.155 140.189L309.753 144.485L330.657 148.465L353.085 152.732L360.252 154.095C360.671 154.175 361.103 154.164 361.518 154.063C361.933 153.963 362.322 153.775 362.658 153.513L368.408 149.023L372.048 146.181L397.881 126.005L381.455 58.1614C381.293 57.4864 380.939 56.8727 380.436 56.3939C379.996 55.9703 379.455 55.6644 378.865 55.5046C378.275 55.3447 377.654 55.3361 377.059 55.4793L276.298 79.8689C275.359 80.0966 274.55 80.6874 274.047 81.5116C273.544 82.3357 273.389 83.3257 273.615 84.2642Z" fill="#6C63FF"/>
<path d="M304.663 128.754C304.998 130.134 305.867 131.324 307.079 132.063C308.291 132.803 309.747 133.031 311.128 132.698L370.252 118.387C371.631 118.051 372.821 117.182 373.561 115.971C374.3 114.759 374.529 113.303 374.197 111.923C374.182 111.855 374.162 111.788 374.139 111.721C373.761 110.391 372.883 109.258 371.689 108.56C370.495 107.863 369.077 107.655 367.732 107.979L308.608 122.29C307.228 122.626 306.038 123.495 305.298 124.706C304.559 125.918 304.33 127.374 304.663 128.754Z" fill="white"/>
<path d="M309.754 144.485L330.658 148.465L374.939 137.746C376.319 137.412 377.51 136.544 378.25 135.331C378.99 134.119 379.218 132.663 378.883 131.283C378.549 129.902 377.68 128.711 376.468 127.972C375.256 127.232 373.799 127.004 372.419 127.338L313.294 141.65C312.059 141.946 310.97 142.676 310.226 143.706C310.047 143.952 309.889 144.213 309.754 144.485Z" fill="white"/>
<path d="M353.086 152.732L360.252 154.095C360.672 154.175 361.103 154.164 361.518 154.063C361.933 153.963 362.322 153.775 362.659 153.513L368.408 149.023L353.086 152.732Z" fill="white"/>
<path d="M316.576 98.7665C316.911 100.146 317.78 101.336 318.992 102.076C320.204 102.815 321.66 103.044 323.041 102.711L345.941 97.1677C347.32 96.8318 348.51 95.9627 349.249 94.751C349.989 93.5393 350.218 92.0839 349.885 90.7039C349.707 89.9623 349.371 89.268 348.899 88.6685C348.265 87.8582 347.412 87.2473 346.441 86.9088C345.469 86.5703 344.421 86.5185 343.421 86.7596L320.521 92.3027C319.14 92.637 317.949 93.5057 317.21 94.7179C316.47 95.93 316.242 97.3863 316.576 98.7665V98.7665Z" fill="white"/>
<path d="M330.655 148.464L353.087 152.732L360.251 154.097C360.671 154.175 361.102 154.164 361.516 154.063C361.931 153.963 362.32 153.776 362.657 153.514L368.41 149.023L366.391 149.512L362.129 152.837C361.888 153.023 361.611 153.157 361.315 153.229C361.018 153.3 360.71 153.308 360.411 153.253L355.106 152.244L332.674 147.976L330.655 148.464ZM397.659 125.101L397.877 126.003L398.872 125.23L397.659 125.101ZM330.655 148.464L353.087 152.732L360.251 154.097C360.671 154.175 361.102 154.164 361.516 154.063C361.931 153.963 362.32 153.776 362.657 153.514L368.41 149.023L366.391 149.512L362.129 152.837C361.888 153.023 361.611 153.157 361.315 153.229C361.018 153.3 360.71 153.308 360.411 153.253L355.106 152.244L332.674 147.976L330.655 148.464ZM330.655 148.464L353.087 152.732L360.251 154.097C360.671 154.175 361.102 154.164 361.516 154.063C361.931 153.963 362.32 153.776 362.657 153.514L368.41 149.023L366.391 149.512L362.129 152.837C361.888 153.023 361.611 153.157 361.315 153.229C361.018 153.3 360.71 153.308 360.411 153.253L355.106 152.244L332.674 147.976L330.655 148.464ZM257.573 137.997L282.885 242.545C283.072 243.318 283.559 243.985 284.238 244.399C284.917 244.813 285.732 244.941 286.505 244.754L469.706 200.41C470.479 200.223 471.145 199.736 471.559 199.057C471.974 198.378 472.102 197.563 471.915 196.79L446.603 92.2413C446.486 91.7533 446.248 91.3026 445.911 90.9312C445.573 90.5598 445.147 90.2797 444.673 90.1168C444.322 89.9936 443.952 89.9378 443.581 89.9525C443.148 89.965 442.724 90.0765 442.341 90.2786C442.164 90.3624 441.997 90.466 441.844 90.5873L426.808 102.326L404.973 119.382L397.657 125.095L397.659 125.101L397.652 125.103L370.826 146.042L366.391 149.512L362.129 152.837C361.888 153.023 361.611 153.157 361.315 153.229C361.018 153.3 360.71 153.308 360.411 153.253L355.106 152.244L332.674 147.976L310.223 143.706L261.049 134.349C260.629 134.266 260.197 134.275 259.782 134.376C259.223 134.513 258.714 134.807 258.318 135.224C258.166 135.388 258.031 135.567 257.914 135.757C257.51 136.43 257.387 137.234 257.573 137.997ZM330.655 148.464L353.087 152.732L360.251 154.097C360.671 154.175 361.102 154.164 361.516 154.063C361.931 153.963 362.32 153.776 362.657 153.514L368.41 149.023L366.391 149.512L362.129 152.837C361.888 153.023 361.611 153.157 361.315 153.229C361.018 153.3 360.71 153.308 360.411 153.253L355.106 152.244L332.674 147.976L330.655 148.464ZM330.655 148.464L353.087 152.732L360.251 154.097C360.671 154.175 361.102 154.164 361.516 154.063C361.931 153.963 362.32 153.776 362.657 153.514L368.41 149.023L366.391 149.512L362.129 152.837C361.888 153.023 361.611 153.157 361.315 153.229C361.018 153.3 360.71 153.308 360.411 153.253L355.106 152.244L332.674 147.976L330.655 148.464ZM330.655 148.464L353.087 152.732L360.251 154.097C360.671 154.175 361.102 154.164 361.516 154.063C361.931 153.963 362.32 153.776 362.657 153.514L368.41 149.023L366.391 149.512L362.129 152.837C361.888 153.023 361.611 153.157 361.315 153.229C361.018 153.3 360.71 153.308 360.411 153.253L355.106 152.244L332.674 147.976L330.655 148.464Z" fill="white"/>
<path d="M330.655 148.464L353.087 152.732L360.251 154.097C360.671 154.175 361.102 154.164 361.516 154.063C361.931 153.963 362.32 153.776 362.657 153.514L368.41 149.023L366.391 149.512L362.129 152.837C361.888 153.023 361.611 153.157 361.315 153.229C361.018 153.3 360.71 153.308 360.411 153.253L355.106 152.244L332.674 147.976L330.655 148.464ZM397.659 125.101L397.877 126.003L398.872 125.23L397.659 125.101ZM330.655 148.464L353.087 152.732L360.251 154.097C360.671 154.175 361.102 154.164 361.516 154.063C361.931 153.963 362.32 153.776 362.657 153.514L368.41 149.023L366.391 149.512L362.129 152.837C361.888 153.023 361.611 153.157 361.315 153.229C361.018 153.3 360.71 153.308 360.411 153.253L355.106 152.244L332.674 147.976L330.655 148.464ZM330.655 148.464L353.087 152.732L360.251 154.097C360.671 154.175 361.102 154.164 361.516 154.063C361.931 153.963 362.32 153.776 362.657 153.514L368.41 149.023L366.391 149.512L362.129 152.837C361.888 153.023 361.611 153.157 361.315 153.229C361.018 153.3 360.71 153.308 360.411 153.253L355.106 152.244L332.674 147.976L330.655 148.464ZM258.748 135.822L258.859 135.905C258.878 135.875 258.91 135.847 258.935 135.815C259.183 135.557 259.491 135.365 259.832 135.255C260.173 135.145 260.536 135.122 260.888 135.187L309.755 144.482L330.655 148.464L353.087 152.732L360.251 154.097C360.671 154.175 361.102 154.163 361.516 154.063C361.931 153.963 362.32 153.776 362.657 153.514L368.41 149.023L366.391 149.512L362.129 152.837C361.888 153.023 361.611 153.157 361.315 153.229C361.018 153.3 360.71 153.308 360.411 153.253L355.106 152.244L332.674 147.976L310.223 143.706L261.049 134.349C260.629 134.266 260.197 134.275 259.782 134.376L258.748 135.822ZM257.573 137.996L282.885 242.545C283.072 243.318 283.559 243.985 284.238 244.399C284.917 244.813 285.732 244.941 286.505 244.754L469.706 200.41C470.479 200.223 471.145 199.736 471.559 199.057C471.974 198.379 472.102 197.563 471.915 196.79L446.603 92.2413C446.486 91.7533 446.248 91.3026 445.911 90.9312C445.573 90.5598 445.147 90.2797 444.673 90.1168C444.322 89.9936 443.952 89.9378 443.581 89.9525C443.148 89.965 442.724 90.0765 442.341 90.2786C442.164 90.3624 441.997 90.466 441.844 90.5873L426.808 102.326L404.973 119.382L397.657 125.095L397.659 125.101L397.652 125.103L370.826 146.042L366.391 149.512L362.129 152.837C361.888 153.023 361.611 153.157 361.315 153.229C361.018 153.3 360.71 153.308 360.411 153.253L355.106 152.244L332.674 147.976L310.223 143.706L261.049 134.349C260.629 134.266 260.197 134.275 259.782 134.376C259.223 134.513 258.714 134.807 258.318 135.224C258.166 135.388 258.031 135.567 257.914 135.757C257.51 136.43 257.387 137.234 257.573 137.996ZM258.407 137.794C258.333 137.486 258.328 137.165 258.393 136.855C258.459 136.545 258.592 136.253 258.785 136.001C258.803 135.964 258.828 135.931 258.859 135.905C258.878 135.875 258.91 135.847 258.935 135.815C259.183 135.557 259.491 135.365 259.832 135.255C260.173 135.145 260.536 135.122 260.888 135.187L309.755 144.482L330.655 148.464L353.087 152.732L360.251 154.097C360.671 154.175 361.102 154.164 361.516 154.063C361.931 153.963 362.32 153.776 362.657 153.514L368.41 149.023L372.049 146.181L397.877 126.003L398.872 125.23L404.969 120.467L426.68 103.514L442.376 91.2572C442.615 91.0712 442.891 90.938 443.185 90.8667C443.267 90.8466 443.35 90.8329 443.434 90.8257C443.508 90.8124 443.582 90.8053 443.657 90.8045C443.908 90.8021 444.157 90.8428 444.394 90.9247C444.732 91.0425 445.036 91.243 445.277 91.508C445.518 91.7729 445.689 92.0939 445.775 92.4418L471.087 196.991C471.153 197.265 471.165 197.549 471.122 197.828C471.078 198.106 470.98 198.374 470.833 198.614C470.686 198.855 470.494 199.064 470.266 199.23C470.038 199.396 469.779 199.516 469.505 199.582L286.305 243.926C285.752 244.059 285.169 243.967 284.684 243.67C284.199 243.373 283.852 242.896 283.719 242.343L258.407 137.794ZM330.655 148.464L353.087 152.732L360.251 154.097C360.671 154.175 361.102 154.164 361.516 154.063C361.931 153.963 362.32 153.776 362.657 153.514L368.41 149.023L366.391 149.512L362.129 152.837C361.888 153.023 361.611 153.157 361.315 153.229C361.018 153.3 360.71 153.308 360.411 153.253L355.106 152.244L332.674 147.976L330.655 148.464ZM330.655 148.464L353.087 152.732L360.251 154.097C360.671 154.175 361.102 154.164 361.516 154.063C361.931 153.963 362.32 153.776 362.657 153.514L368.41 149.023L366.391 149.512L362.129 152.837C361.888 153.023 361.611 153.157 361.315 153.229C361.018 153.3 360.71 153.308 360.411 153.253L355.106 152.244L332.674 147.976L330.655 148.464ZM330.655 148.464L353.087 152.732L360.251 154.097C360.671 154.175 361.102 154.164 361.516 154.063C361.931 153.963 362.32 153.776 362.657 153.514L368.41 149.023L366.391 149.512L362.129 152.837C361.888 153.023 361.611 153.157 361.315 153.229C361.018 153.3 360.71 153.308 360.411 153.253L355.106 152.244L332.674 147.976L330.655 148.464Z" fill="#3F3D56"/>
<path d="M421.959 179.87C421.546 178.157 421.83 176.35 422.748 174.846C423.666 173.342 425.143 172.263 426.855 171.846L449.978 166.25C451.689 165.842 453.491 166.129 454.991 167.047C456.491 167.966 457.566 169.442 457.98 171.151C458.393 172.86 458.113 174.664 457.199 176.167C456.286 177.67 454.814 178.75 453.106 179.169L429.983 184.766C428.27 185.179 426.463 184.895 424.958 183.977C423.454 183.059 422.375 181.582 421.959 179.87Z" fill="#6C63FF"/>
<path d="M166.43 160.454C169.596 160.454 172.162 157.889 172.162 154.724C172.162 151.559 169.596 148.993 166.43 148.993C163.265 148.993 160.699 151.559 160.699 154.724C160.699 157.889 163.265 160.454 166.43 160.454Z" fill="white"/>
</g>
<defs>
<clipPath id="clip0">
<rect width="472" height="404" fill="white"/>
</clipPath>
</defs>
</svg>
