<svg width="728" height="493" viewBox="0 0 728 493" fill="none" xmlns="http://www.w3.org/2000/svg">
<g clip-path="url(#clip0)">
<path d="M635.539 169.602C609.191 151.074 567.924 133.551 522.32 121.527C480.796 110.579 440.296 105.293 408.27 106.643L408.104 103.139C440.511 101.774 481.431 107.104 523.326 118.15C569.356 130.286 611.07 148.016 637.771 166.794L635.539 169.602Z" fill="#CCCCCC"/>
<path d="M632.804 183.874C632.828 200.29 629.169 216.526 622.068 231.522C621.475 232.777 620.857 234.021 620.215 235.253C607.863 259.051 587.304 278.21 561.89 289.605C536.476 301 507.708 303.958 480.277 297.997C452.847 292.037 428.372 277.509 410.847 256.783C393.321 236.057 383.778 210.357 383.773 183.874C383.773 181.163 383.872 178.474 384.068 175.805C384.161 174.448 384.282 173.099 384.43 171.758C387.732 141.904 403.091 114.382 427.337 94.8709C451.583 75.3596 482.867 65.3481 514.731 66.9026C546.596 68.457 576.611 81.4586 598.582 103.224C620.553 124.99 632.803 153.859 632.804 183.874V183.874Z" fill="#6C63FF"/>
<path opacity="0.1" d="M622.068 231.522C621.475 232.777 620.858 234.021 620.215 235.253C616.577 235.625 612.747 235.895 608.726 236.063C605.396 236.203 601.97 236.274 598.47 236.274C567.893 236.274 531.094 230.964 493.5 221.054C451.605 210.007 413.702 194.556 386.771 177.544C385.854 176.966 384.953 176.386 384.068 175.805C384.162 174.448 384.282 173.099 384.43 171.758C385.858 172.715 387.33 173.674 388.848 174.634C415.462 191.442 452.984 206.728 494.507 217.677C531.772 227.503 568.225 232.767 598.451 232.767C601.907 232.767 605.276 232.698 608.558 232.56C613.337 232.356 617.841 232.01 622.068 231.522Z" fill="black"/>
<path d="M598.469 233.469C567.893 233.469 531.092 228.16 493.5 218.248C451.605 207.202 413.701 191.751 386.77 174.739C359.276 157.373 346.384 140.261 350.468 126.555C354.551 112.85 375.02 104.534 408.103 103.139L408.27 106.643C392.821 107.294 380.23 109.454 370.848 113.063C361.488 116.663 355.839 121.521 354.057 127.502C352.275 133.483 354.417 140.395 360.424 148.047C366.445 155.717 376.009 163.718 388.848 171.828C415.459 188.637 452.983 203.924 494.506 214.872C531.773 224.697 568.222 229.962 598.451 229.963C601.905 229.963 605.273 229.894 608.556 229.755C624.005 229.104 636.596 226.944 645.978 223.335C655.338 219.735 660.987 214.877 662.769 208.896C665.969 198.156 656.299 184.202 635.539 169.602L637.771 166.794C648.454 174.307 656.362 181.712 661.275 188.804C666.543 196.407 668.253 203.486 666.359 209.843C662.275 223.548 641.806 231.864 608.723 233.259C605.394 233.399 601.97 233.469 598.469 233.469Z" fill="#CCCCCC"/>
<path d="M511.583 45.621C512.371 45.621 513.01 45.0201 513.01 44.2788C513.01 43.5376 512.371 42.9366 511.583 42.9366C510.795 42.9366 510.156 43.5376 510.156 44.2788C510.156 45.0201 510.795 45.621 511.583 45.621Z" fill="#F2F2F2"/>
<path d="M322.291 103.863C323.646 103.863 324.745 102.829 324.745 101.554C324.745 100.278 323.646 99.2447 322.291 99.2447C320.935 99.2447 319.836 100.278 319.836 101.554C319.836 102.829 320.935 103.863 322.291 103.863Z" fill="#CCCCCC"/>
<path d="M317.058 196.489C319.736 196.489 321.907 194.447 321.907 191.927C321.907 189.408 319.736 187.366 317.058 187.366C314.38 187.366 312.209 189.408 312.209 191.927C312.209 194.447 314.38 196.489 317.058 196.489Z" fill="#CCCCCC"/>
<path d="M608.13 55.372C609.915 55.372 611.362 54.0109 611.362 52.3319C611.362 50.653 609.915 49.2919 608.13 49.2919C606.345 49.2919 604.898 50.653 604.898 52.3319C604.898 54.0109 606.345 55.372 608.13 55.372Z" fill="#CCCCCC"/>
<path d="M722.753 183.441C725.651 183.441 728 181.232 728 178.505C728 175.779 725.651 173.57 722.753 173.57C719.855 173.57 717.506 175.779 717.506 178.505C717.506 181.232 719.855 183.441 722.753 183.441Z" fill="#CCCCCC"/>
<path d="M681.722 101.789C682.965 101.789 683.973 100.841 683.973 99.6712C683.973 98.5016 682.965 97.5535 681.722 97.5535C680.479 97.5535 679.471 98.5016 679.471 99.6712C679.471 100.841 680.479 101.789 681.722 101.789Z" fill="#CCCCCC"/>
<path d="M408.375 75.7684C410.315 75.7684 411.887 74.2893 411.887 72.4647C411.887 70.6401 410.315 69.1609 408.375 69.1609C406.436 69.1609 404.863 70.6401 404.863 72.4647C404.863 74.2893 406.436 75.7684 408.375 75.7684Z" fill="#CCCCCC"/>
<path d="M673.843 170.615C675.086 170.615 676.094 169.667 676.094 168.497C676.094 167.327 675.086 166.379 673.843 166.379C672.6 166.379 671.592 167.327 671.592 168.497C671.592 169.667 672.6 170.615 673.843 170.615Z" fill="#CCCCCC"/>
<path d="M328.474 258.988C330.021 258.988 331.276 257.808 331.276 256.352C331.276 254.896 330.021 253.716 328.474 253.716C326.926 253.716 325.672 254.896 325.672 256.352C325.672 257.808 326.926 258.988 328.474 258.988Z" fill="#CCCCCC"/>
<path d="M385.072 295.893C386.747 295.893 388.106 294.615 388.106 293.038C388.106 291.462 386.747 290.184 385.072 290.184C383.396 290.184 382.037 291.462 382.037 293.038C382.037 294.615 383.396 295.893 385.072 295.893Z" fill="#CCCCCC"/>
<path d="M473.281 5.63289H467.293V0H464.081V5.63289H458.09V8.65744H464.081V14.2903H467.293V8.65744H473.281V5.63289Z" fill="#CCCCCC"/>
<path d="M612.186 310.424H608.425V306.888H606.408V310.424H602.648V312.322H606.408V315.859H608.425V312.322H612.186V310.424Z" fill="#CCCCCC"/>
<path d="M698.971 292.32H696.16V289.676H694.651V292.32H691.84V293.74H694.651V296.384H696.16V293.74H698.971V292.32Z" fill="#CCCCCC"/>
<path opacity="0.1" d="M510.157 102.001C515.935 102.001 520.62 97.5944 520.62 92.1585C520.62 86.7225 515.935 82.3158 510.157 82.3158C504.378 82.3158 499.693 86.7225 499.693 92.1585C499.693 97.5944 504.378 102.001 510.157 102.001Z" fill="black"/>
<path opacity="0.1" d="M429.778 174.032C435.557 174.032 440.241 169.625 440.241 164.189C440.241 158.753 435.557 154.346 429.778 154.346C423.999 154.346 419.314 158.753 419.314 164.189C419.314 169.625 423.999 174.032 429.778 174.032Z" fill="black"/>
<path opacity="0.1" d="M545.35 272.906C551.129 272.906 555.813 268.499 555.813 263.063C555.813 257.627 551.129 253.22 545.35 253.22C539.571 253.22 534.887 257.627 534.887 263.063C534.887 268.499 539.571 272.906 545.35 272.906Z" fill="black"/>
<path opacity="0.1" d="M510.157 189.243C515.935 189.243 520.62 184.836 520.62 179.4C520.62 173.964 515.935 169.558 510.157 169.558C504.378 169.558 499.693 173.964 499.693 179.4C499.693 184.836 504.378 189.243 510.157 189.243Z" fill="black"/>
<path opacity="0.1" d="M435.01 243.378C440.789 243.378 445.474 238.971 445.474 233.535C445.474 228.099 440.789 223.692 435.01 223.692C429.232 223.692 424.547 228.099 424.547 233.535C424.547 238.971 429.232 243.378 435.01 243.378Z" fill="black"/>
<path opacity="0.1" d="M566.278 136.45C572.057 136.45 576.741 132.044 576.741 126.608C576.741 121.172 572.057 116.765 566.278 116.765C560.499 116.765 555.814 121.172 555.814 126.608C555.814 132.044 560.499 136.45 566.278 136.45Z" fill="black"/>
<path opacity="0.1" d="M600.997 203.112C606.775 203.112 611.46 198.706 611.46 193.27C611.46 187.834 606.775 183.427 600.997 183.427C595.218 183.427 590.533 187.834 590.533 193.27C590.533 198.706 595.218 203.112 600.997 203.112Z" fill="black"/>
<path d="M510.156 149.425C517.773 149.425 523.949 143.616 523.949 136.45C523.949 129.285 517.773 123.476 510.156 123.476C502.538 123.476 496.363 129.285 496.363 136.45C496.363 143.616 502.538 149.425 510.156 149.425Z" fill="white"/>
<path d="M510.156 117.66C504.984 117.66 500.025 119.592 496.368 123.032C492.711 126.472 490.656 131.138 490.656 136.003C490.656 146.134 510.156 179.4 510.156 179.4C510.156 179.4 529.656 146.134 529.656 136.003C529.656 131.138 527.602 126.472 523.945 123.032C520.288 119.592 515.328 117.66 510.156 117.66ZM510.156 144.951C508.369 144.951 506.622 144.452 505.136 143.518C503.65 142.584 502.491 141.257 501.807 139.703C501.123 138.15 500.945 136.441 501.293 134.792C501.642 133.143 502.503 131.628 503.766 130.44C505.03 129.251 506.64 128.441 508.393 128.113C510.146 127.785 511.963 127.954 513.614 128.597C515.266 129.24 516.677 130.33 517.67 131.728C518.663 133.126 519.193 134.769 519.193 136.45C519.193 137.567 518.959 138.672 518.505 139.703C518.051 140.735 517.385 141.672 516.546 142.461C515.707 143.251 514.711 143.877 513.614 144.304C512.518 144.731 511.343 144.951 510.156 144.951Z" fill="#CCCCCC"/>
<path d="M435.009 204.902C442.627 204.902 448.802 199.093 448.802 191.927C448.802 184.762 442.627 178.953 435.009 178.953C427.392 178.953 421.217 184.762 421.217 191.927C421.217 199.093 427.392 204.902 435.009 204.902Z" fill="white"/>
<path d="M435.01 173.137C429.838 173.137 424.878 175.069 421.221 178.509C417.564 181.949 415.51 186.615 415.51 191.48C415.51 201.611 435.01 234.877 435.01 234.877C435.01 234.877 454.51 201.611 454.51 191.48C454.51 189.071 454.005 186.686 453.025 184.46C452.045 182.235 450.609 180.213 448.798 178.509C446.987 176.806 444.838 175.455 442.472 174.533C440.106 173.611 437.57 173.137 435.01 173.137ZM435.01 200.428C433.222 200.428 431.475 199.929 429.989 198.995C428.503 198.061 427.345 196.734 426.661 195.18C425.977 193.627 425.798 191.918 426.147 190.269C426.495 188.62 427.356 187.105 428.62 185.917C429.884 184.728 431.494 183.918 433.247 183.59C435 183.262 436.817 183.43 438.468 184.074C440.119 184.717 441.53 185.807 442.523 187.205C443.516 188.603 444.046 190.246 444.046 191.927C444.046 193.044 443.813 194.149 443.358 195.18C442.904 196.212 442.239 197.149 441.4 197.938C440.56 198.727 439.564 199.354 438.468 199.781C437.371 200.208 436.196 200.428 435.01 200.428Z" fill="#CCCCCC"/>
<path d="M600.998 164.636C608.615 164.636 614.79 158.827 614.79 151.662C614.79 144.496 608.615 138.687 600.998 138.687C593.38 138.687 587.205 144.496 587.205 151.662C587.205 158.827 593.38 164.636 600.998 164.636Z" fill="white"/>
<path d="M600.998 132.871C598.437 132.871 595.901 133.346 593.536 134.268C591.17 135.189 589.02 136.541 587.209 138.244C585.399 139.947 583.962 141.969 582.982 144.195C582.002 146.42 581.498 148.806 581.498 151.214C581.498 161.345 600.998 194.612 600.998 194.612C600.998 194.612 620.498 161.345 620.498 151.214C620.498 148.806 619.993 146.42 619.014 144.195C618.034 141.969 616.597 139.947 614.786 138.244C612.976 136.541 610.826 135.189 608.46 134.268C606.094 133.346 603.559 132.871 600.998 132.871ZM600.998 160.162C599.211 160.162 597.464 159.664 595.978 158.73C594.491 157.796 593.333 156.468 592.649 154.915C591.965 153.362 591.786 151.652 592.135 150.003C592.484 148.355 593.344 146.84 594.608 145.651C595.872 144.462 597.482 143.653 599.235 143.325C600.988 142.997 602.805 143.165 604.456 143.808C606.107 144.452 607.519 145.541 608.512 146.939C609.505 148.337 610.035 149.981 610.035 151.662C610.035 152.778 609.801 153.883 609.347 154.915C608.893 155.946 608.227 156.883 607.388 157.673C606.549 158.462 605.553 159.088 604.456 159.515C603.36 159.942 602.185 160.162 600.998 160.162Z" fill="#CCCCCC"/>
<path d="M510.156 62.183C517.773 62.183 523.949 56.3742 523.949 49.2086C523.949 42.043 517.773 36.2341 510.156 36.2341C502.538 36.2341 496.363 42.043 496.363 49.2086C496.363 56.3742 502.538 62.183 510.156 62.183Z" fill="white"/>
<path d="M510.156 30.4181C504.984 30.4181 500.025 32.3507 496.368 35.7907C492.711 39.2307 490.656 43.8963 490.656 48.7612C490.656 58.8919 510.156 92.1584 510.156 92.1584C510.156 92.1584 529.656 58.8919 529.656 48.7612C529.656 43.8963 527.602 39.2307 523.945 35.7907C520.288 32.3507 515.328 30.4181 510.156 30.4181ZM510.156 57.7091C508.369 57.7091 506.622 57.2106 505.136 56.2765C503.65 55.3425 502.491 54.0149 501.807 52.4616C501.123 50.9083 500.945 49.1992 501.293 47.5502C501.642 45.9013 502.503 44.3867 503.766 43.1978C505.03 42.009 506.64 41.1994 508.393 40.8714C510.146 40.5435 511.963 40.7118 513.614 41.3552C515.266 41.9986 516.677 43.0881 517.67 44.486C518.663 45.8839 519.193 47.5274 519.193 49.2086C519.193 50.3249 518.959 51.4303 518.505 52.4616C518.051 53.493 517.385 54.4301 516.546 55.2194C515.707 56.0087 514.711 56.6349 513.614 57.0621C512.518 57.4893 511.343 57.7091 510.156 57.7091Z" fill="#CCCCCC"/>
<path d="M545.351 234.43C552.969 234.43 559.144 228.621 559.144 221.455C559.144 214.29 552.969 208.481 545.351 208.481C537.734 208.481 531.559 214.29 531.559 221.455C531.559 228.621 537.734 234.43 545.351 234.43Z" fill="white"/>
<path d="M545.351 202.665C540.18 202.665 535.22 204.597 531.563 208.037C527.906 211.477 525.852 216.143 525.852 221.008C525.852 231.139 545.351 264.405 545.351 264.405C545.351 264.405 564.851 231.139 564.851 221.008C564.851 218.599 564.347 216.214 563.367 213.988C562.387 211.763 560.951 209.741 559.14 208.037C557.329 206.334 555.18 204.983 552.814 204.061C550.448 203.139 547.912 202.665 545.351 202.665ZM545.351 229.956C543.564 229.956 541.817 229.457 540.331 228.523C538.845 227.589 537.687 226.262 537.003 224.708C536.319 223.155 536.14 221.446 536.489 219.797C536.837 218.148 537.698 216.633 538.962 215.445C540.225 214.256 541.836 213.446 543.589 213.118C545.341 212.79 547.158 212.958 548.81 213.602C550.461 214.245 551.872 215.335 552.865 216.733C553.858 218.131 554.388 219.774 554.388 221.455C554.388 222.572 554.154 223.677 553.7 224.708C553.246 225.74 552.58 226.677 551.741 227.466C550.902 228.255 549.906 228.882 548.81 229.309C547.713 229.736 546.538 229.956 545.351 229.956Z" fill="#3F3D56"/>
<path d="M429.779 134.661C437.396 134.661 443.572 128.852 443.572 121.686C443.572 114.521 437.396 108.712 429.779 108.712C422.162 108.712 415.986 114.521 415.986 121.686C415.986 128.852 422.162 134.661 429.779 134.661Z" fill="white"/>
<path d="M429.777 102.896C424.606 102.896 419.646 104.829 415.989 108.269C412.332 111.709 410.277 116.374 410.277 121.239C410.277 131.37 429.777 164.636 429.777 164.636C429.777 164.636 449.277 131.37 449.277 121.239C449.277 116.374 447.223 111.709 443.566 108.269C439.909 104.829 434.949 102.896 429.777 102.896ZM429.777 130.187C427.99 130.187 426.243 129.688 424.757 128.754C423.271 127.82 422.112 126.493 421.429 124.939C420.745 123.386 420.566 121.677 420.914 120.028C421.263 118.379 422.124 116.865 423.387 115.676C424.651 114.487 426.261 113.677 428.014 113.349C429.767 113.021 431.584 113.19 433.235 113.833C434.887 114.476 436.298 115.566 437.291 116.964C438.284 118.362 438.814 120.005 438.814 121.686C438.814 122.803 438.58 123.908 438.126 124.939C437.672 125.971 437.006 126.908 436.167 127.697C435.328 128.487 434.332 129.113 433.235 129.54C432.139 129.967 430.964 130.187 429.777 130.187Z" fill="#3F3D56"/>
<path d="M566.277 98.422C573.895 98.422 580.07 92.6131 580.07 85.4475C580.07 78.2819 573.895 72.4731 566.277 72.4731C558.66 72.4731 552.484 78.2819 552.484 85.4475C552.484 92.6131 558.66 98.422 566.277 98.422Z" fill="white"/>
<path d="M566.277 66.657C561.106 66.657 556.146 68.5896 552.489 72.0296C548.832 75.4696 546.777 80.1353 546.777 85.0002C546.777 95.1308 566.277 128.397 566.277 128.397C566.277 128.397 585.777 95.1308 585.777 85.0002C585.777 80.1353 583.723 75.4696 580.066 72.0296C576.409 68.5896 571.449 66.657 566.277 66.657ZM566.277 93.9481C564.49 93.9481 562.743 93.4495 561.257 92.5155C559.771 91.5814 558.613 90.2538 557.929 88.7006C557.245 87.1473 557.066 85.4381 557.414 83.7892C557.763 82.1403 558.624 80.6256 559.887 79.4368C561.151 78.248 562.761 77.4384 564.514 77.1104C566.267 76.7824 568.084 76.9507 569.735 77.5941C571.387 78.2375 572.798 79.327 573.791 80.7249C574.784 82.1228 575.314 83.7663 575.314 85.4476C575.314 87.702 574.362 89.8642 572.667 91.4583C570.972 93.0525 568.674 93.948 566.277 93.948V93.9481Z" fill="#3F3D56"/>
<path d="M170.192 482.941L181.169 481.768L181.588 441.381L165.387 443.111L170.192 482.941Z" fill="#FFB8B8"/>
<path d="M203.496 489.097L168.996 492.78L167.483 480.241L188.654 477.981C192.189 477.604 195.739 478.563 198.522 480.648C201.306 482.732 203.095 485.772 203.496 489.097Z" fill="#2F2E41"/>
<path d="M57.2967 482.296L68.3448 482.295L73.6003 442.209L57.2949 442.21L57.2967 482.296Z" fill="#FFB8B8"/>
<path d="M89.6523 491.944L54.9305 491.946L54.9299 479.326L76.2365 479.326C79.7944 479.325 83.2067 480.655 85.7227 483.021C88.2386 485.388 89.6522 488.597 89.6523 491.944Z" fill="#2F2E41"/>
<path d="M136.563 303.037L142.871 322.338L177.115 392.044L186.126 458.164L165.4 459.011L152.784 397.978L109.529 353.898L71.6804 469.184L54.5586 467.488C54.5586 467.488 68.9769 318.295 88.8022 303.037C88.8022 303.037 121.243 288.626 136.563 303.037Z" fill="#2F2E41"/>
<path d="M108.58 219.755C120.804 219.755 130.713 210.433 130.713 198.935C130.713 187.436 120.804 178.114 108.58 178.114C96.3566 178.114 86.4473 187.436 86.4473 198.935C86.4473 210.433 96.3566 219.755 108.58 219.755Z" fill="#FFB8B8"/>
<path d="M138.815 306.851C138.815 306.851 141.519 220.387 103.67 226.321C65.8222 232.255 81.5923 315.752 81.5923 315.752C81.5923 315.752 89.7026 331.01 109.528 314.057C129.353 297.103 138.815 306.851 138.815 306.851Z" fill="#CCCCCC"/>
<path opacity="0.2" d="M86.5488 262.771L95.4549 294.884L109.023 307.649L90.1534 301.765L86.5488 262.771Z" fill="black"/>
<path d="M139.096 343.419C137.851 342.994 136.719 342.318 135.782 341.437C134.845 340.557 134.124 339.494 133.67 338.323C133.217 337.152 133.042 335.902 133.158 334.66C133.274 333.419 133.678 332.216 134.341 331.138L113.291 308.213L129.885 306.181L147.33 328.262C149.183 329.43 150.516 331.197 151.076 333.228C151.636 335.259 151.385 337.413 150.37 339.281C149.355 341.149 147.647 342.602 145.569 343.365C143.491 344.128 141.188 344.147 139.096 343.419Z" fill="#FFB8B8"/>
<path d="M113.467 243.932L115.837 287.778L143.773 321.686L132.058 330.163L94.2097 294.56C94.2097 294.56 80.6925 251.328 90.6051 238.612C94.3223 233.844 98.4198 232.533 102.089 232.756C105.109 232.993 107.932 234.26 110.028 236.318C112.123 238.376 113.347 241.084 113.467 243.932Z" fill="#CCCCCC"/>
<path d="M105.949 220.811C106.055 220.722 106.137 220.611 106.189 220.487C106.241 220.362 106.262 220.229 106.249 220.096C106.237 219.962 106.191 219.834 106.117 219.72C106.042 219.607 105.941 219.511 105.82 219.441C103.854 218.296 102.253 216.674 101.184 214.746C100.115 212.817 99.618 210.654 99.7448 208.483C99.8717 206.311 100.618 204.212 101.905 202.406C103.192 200.599 104.973 199.152 107.06 198.217C113.567 195.298 122.385 197.569 127.195 191.96C128.174 190.761 128.865 189.376 129.223 187.902C129.581 186.428 129.597 184.899 129.27 183.418C128.232 178.121 123.999 174.187 119.258 171.492C113.435 168.18 106.741 166.469 99.9367 166.552C93.1321 166.635 86.4883 168.51 80.7581 171.963C75.028 175.416 70.4404 180.309 67.5153 186.089C64.5903 191.869 63.4446 198.304 64.2081 204.665C64.82 209.763 66.4923 215.48 63.2697 219.619C60.4335 223.262 55.08 223.945 50.3773 224.85C40.2906 226.792 30.5596 231.271 23.7146 238.505C16.8696 245.739 13.218 255.89 15.2818 265.378C17.3455 274.866 25.6252 283.205 35.8014 284.676C44.0844 285.873 52.6372 282.564 58.7198 277.141C64.8024 271.719 68.6472 264.396 71.0723 256.85C73.9507 247.894 75.0861 238.243 80.2828 230.265C85.3681 222.458 96.3267 216.862 104.916 220.927C105.08 221.008 105.267 221.041 105.451 221.02C105.636 220.999 105.809 220.926 105.949 220.811Z" fill="#2F2E41"/>
<path d="M277.553 493H0.901146C0.662148 493 0.432937 492.911 0.263939 492.752C0.0949413 492.593 0 492.377 0 492.152C0 491.928 0.0949413 491.712 0.263939 491.553C0.432937 491.394 0.662148 491.305 0.901146 491.305H277.553C277.792 491.305 278.021 491.394 278.19 491.553C278.359 491.712 278.454 491.928 278.454 492.152C278.454 492.377 278.359 492.593 278.19 492.752C278.021 492.911 277.792 493 277.553 493Z" fill="#3F3D56"/>
</g>
<defs>
<clipPath id="clip0">
<rect width="728" height="493" fill="white"/>
</clipPath>
</defs>
</svg>
