<svg width="211" height="168" viewBox="0 0 211 168" fill="none" xmlns="http://www.w3.org/2000/svg">
<g clip-path="url(#clip0)">
<g opacity="0.5">
<path opacity="0.5" d="M129.083 0.00239586L17.9114 41.7L87.9781 168.003L199.15 126.306L129.083 0.00239586Z" fill="url(#paint0_linear)"/>
</g>
<path d="M128.184 1.46324L19.8403 42.0999L88.3585 165.612L196.702 124.975L128.184 1.46324Z" fill="white"/>
<path d="M99.2193 8.38518L45.4717 28.5444L51.4104 39.2497L105.158 19.0905L99.2193 8.38518Z" fill="url(#paint1_linear)"/>
<path d="M66.5401 8.00232C62.3917 9.55889 60.5988 13.6522 62.5371 17.1457C64.4754 20.6392 69.4107 22.2095 73.5591 20.6529C77.7076 19.0963 79.5005 15.003 77.5622 11.5095C75.6239 8.01604 70.6886 6.44574 66.5401 8.00232ZM72.0738 17.9769C71.2009 18.3251 70.2216 18.4515 69.2609 18.3399C68.3002 18.2283 67.4018 17.8839 66.6803 17.3504C65.9589 16.817 65.4472 16.1189 65.2105 15.3452C64.9739 14.5716 65.0231 13.7574 65.3518 13.0068C65.6805 12.2563 66.2738 11.6033 67.0559 11.1312C67.8381 10.6592 68.7736 10.3896 69.743 10.3568C70.7124 10.324 71.6717 10.5296 72.4984 10.9472C73.325 11.3648 73.9815 11.9756 74.3841 12.7014C74.6538 13.1727 74.8081 13.683 74.838 14.2033C74.8679 14.7235 74.7728 15.2436 74.5583 15.7336C74.3438 16.2237 74.0139 16.6742 73.5876 17.0594C73.1613 17.4447 72.647 17.7571 72.0738 17.9789V17.9769Z" fill="url(#paint2_linear)"/>
<path d="M98.6558 8.60577L46.0405 28.3403L51.7181 38.5747L104.333 18.8402L98.6558 8.60577Z" fill="#6C63FF"/>
<path d="M66.7977 8.46899C65.3427 9.0145 64.1172 9.90253 63.276 11.0208C62.4349 12.139 62.0159 13.4373 62.0721 14.7513C62.1283 16.0653 62.6572 17.3362 63.5918 18.4031C64.5264 19.47 65.8248 20.285 67.3228 20.7451C68.8207 21.2052 70.451 21.2897 72.0074 20.988C73.5638 20.6862 74.9764 20.0117 76.0666 19.0498C77.1567 18.0879 77.8755 16.8817 78.132 15.5839C78.3885 14.2861 78.1711 12.9548 77.5074 11.7586C76.6176 10.1547 74.9894 8.90709 72.981 8.29019C70.9726 7.67329 68.7485 7.7376 66.7977 8.46899ZM72.0882 18.0064C71.249 18.321 70.3153 18.4239 69.405 18.3022C68.4947 18.1804 67.6488 17.8395 66.9741 17.3224C66.2995 16.8054 65.8264 16.1355 65.6147 15.3974C65.4031 14.6593 65.4623 13.8862 65.785 13.1758C66.1076 12.4654 66.6792 11.8496 67.4274 11.4063C68.1757 10.9629 69.067 10.712 69.9887 10.6852C70.9103 10.6583 71.821 10.8568 72.6055 11.2555C73.39 11.6542 74.0131 12.2352 74.3961 12.925C74.9091 13.8503 74.9541 14.9052 74.5213 15.8577C74.0885 16.8103 73.2133 17.5825 72.0882 18.0045V18.0064Z" fill="#6C63FF"/>
<path d="M59.2276 51.4935L36.0305 60.1941L46.6118 79.2681L69.8089 70.5675L59.2276 51.4935Z" fill="url(#paint3_linear)"/>
<path d="M80.2752 89.2628L57.0781 97.9634L67.6594 117.037L90.8565 108.337L80.2752 89.2628Z" fill="url(#paint4_linear)"/>
<path d="M58.764 52.5097L37.2654 60.5732L47.0719 78.2507L68.5705 70.1872L58.764 52.5097Z" fill="#69F0AE"/>
<path d="M79.5392 89.9574L58.0405 98.021L67.8471 115.699L89.3457 107.635L79.5392 89.9574Z" fill="#6C63FF"/>
<path d="M105.403 41.6097L75.9353 52.6624L76.8733 54.3532L106.341 43.3006L105.403 41.6097Z" fill="#E0E0E0"/>
<path d="M126.001 36.9485L77.344 55.1982L78.282 56.8891L126.939 38.6394L126.001 36.9485Z" fill="#E0E0E0"/>
<path d="M123.978 40.7699L78.7485 57.7341L79.6865 59.425L124.916 42.4607L123.978 40.7699Z" fill="#E0E0E0"/>
<path d="M126.18 79.0594L96.7114 90.1121L97.6494 91.8029L127.118 80.7503L126.18 79.0594Z" fill="#E0E0E0"/>
<path d="M146.776 74.3965L98.1191 92.6462L99.0572 94.3371L147.714 76.0874L146.776 74.3965Z" fill="#E0E0E0"/>
<path d="M144.754 78.2196L99.5247 95.1838L100.463 96.8747L145.692 79.9105L144.754 78.2196Z" fill="#E0E0E0"/>
<path d="M47.4547 66.1562L52.9908 67.6344L54.8123 58.8733L57.5064 59.4791L54.4761 70.3104L46.1267 67.3011L47.4547 66.1562Z" fill="url(#paint5_linear)"/>
<path d="M48.1605 66.0407L52.9741 67.3247L54.5572 59.7065L56.8985 60.2339L54.264 69.6517L47.0042 67.0365L48.1605 66.0407Z" fill="white"/>
<path d="M69.065 103.722L73.8787 105.006L75.4618 97.3877L77.803 97.915L75.1685 107.333L67.9087 104.718L69.065 103.722Z" fill="white"/>
<path d="M161.482 104.605L92.7415 130.388L103.193 149.229L171.934 123.446L161.482 104.605Z" fill="#E0E0E0"/>
<path d="M151.517 119.621C148.875 119.001 146.172 119.119 145.33 121.603C145.046 122.44 145.013 123.74 143.921 124.171C142.314 124.806 140.376 123.536 138.981 123.018C136.382 122.054 133.714 122.71 132.21 124.737C131.447 125.765 131.12 126.947 130.861 128.117C130.749 128.625 130.734 129.252 130.474 129.731C129.976 130.646 128.417 130.564 127.394 130.529C127.17 130.529 126.941 130.507 126.712 130.487C127.521 129.571 127.925 128.456 127.857 127.325C127.79 125.469 126.324 123.438 123.761 123.665C121.465 123.861 119.848 125.684 120.106 127.529C120.325 129.097 121.567 130.313 123.16 131.058C122.378 131.342 121.543 131.564 120.804 131.858C120.459 131.995 120.124 132.149 119.8 132.318C117.566 131.432 114.631 131.266 112.622 132.169C111.649 132.607 112.359 133.906 113.337 133.465C114.868 132.777 116.556 132.95 118.155 133.387L118.289 133.426C118.131 133.593 117.991 133.77 117.872 133.957C116.968 135.4 117.872 137.682 120.07 137.839C123.169 138.057 123.315 134.689 121.631 133.348C121.56 133.291 121.488 133.236 121.412 133.183C122.108 132.907 122.862 132.699 123.527 132.465C124.106 132.264 124.658 132.011 125.172 131.713L125.291 131.738C127.659 132.179 131.354 132.316 132.205 129.958C132.935 127.911 133.004 123.565 136.938 123.967C138.542 124.13 139.859 125.143 141.384 125.51C142.751 125.845 144.331 125.859 145.452 125.032C146.377 124.349 146.584 123.342 146.868 122.401C147.013 121.914 147.156 121.334 147.638 120.987C148.508 120.362 149.946 120.73 150.916 120.958C151.977 121.205 152.592 119.872 151.517 119.621ZM120.761 136.204C120.239 136.629 119.686 136.292 119.407 135.847C119.068 135.306 119.214 134.773 119.645 134.296C119.716 134.219 119.792 134.144 119.872 134.073C120.904 134.622 121.748 135.408 120.771 136.204H120.761ZM122.592 125.618C123.665 124.798 125.16 124.979 125.799 126.104C126.438 127.229 126.157 128.817 125.26 129.809C125.141 129.939 125.01 130.061 124.867 130.174C124.242 130.002 123.664 129.731 123.167 129.376C121.898 128.435 121.181 126.696 122.602 125.612L122.592 125.618Z" fill="#6C63FF"/>
<path d="M165.815 43.4645L146.57 49.634C142.951 49.4124 135.336 48.6048 127.778 45.6739C119.364 42.4118 109.725 42.4196 101.552 45.8366C82.7168 46.2072 72.3503 44.2232 66.8191 42.3451L68.2782 39.8829L48.7708 33.6291L0 15.656V89.3207L17.0684 95.5744L26.2236 77.515L46.3294 85.1607L50.1894 77.0955L63.3906 85.1509L64.2894 85.7723L63.052 86.829C61.9175 87.8142 61.2852 89.1195 61.2852 90.4763C61.2852 91.8332 61.9175 93.1384 63.052 94.1237C63.6011 94.6009 64.2627 94.9811 64.9965 95.2409C65.7303 95.5006 66.5208 95.6346 67.3197 95.6346C68.1187 95.6346 68.9092 95.5006 69.643 95.2409C70.3768 94.9811 71.0384 94.6009 71.5874 94.1237L70.9103 94.7118C69.7758 95.6971 69.1435 97.0023 69.1435 98.3592C69.1435 99.716 69.7758 101.021 70.9103 102.007C71.4593 102.484 72.121 102.864 72.8548 103.124C73.5885 103.383 74.3791 103.517 75.178 103.517C75.9769 103.517 76.7674 103.383 77.5012 103.124C78.235 102.864 78.8966 102.484 79.4457 102.007L83.3557 98.664L80.6711 100.958C79.5366 101.943 78.9043 103.248 78.9043 104.605C78.9043 105.962 79.5366 107.267 80.6711 108.252C81.2202 108.73 81.8818 109.11 82.6156 109.37C83.3494 109.629 84.1399 109.763 84.9388 109.763C85.7377 109.763 86.5283 109.629 87.2621 109.37C87.9958 109.11 88.6575 108.73 89.2065 108.252L93.0665 104.953L91.4429 106.341C90.6497 107.029 90.2076 107.941 90.2076 108.89C90.2076 109.838 90.6497 110.75 91.4429 111.438C91.8263 111.771 92.2884 112.037 92.8008 112.218C93.3132 112.399 93.8652 112.493 94.4231 112.493C94.981 112.493 95.533 112.399 96.0454 112.218C96.5578 112.037 97.0199 111.771 97.4033 111.438L99.9782 109.239C104.401 111.895 107.98 113.834 109.732 114.336C117.035 116.418 117.035 112.248 117.035 112.248C126.788 116.416 131.666 108.08 131.666 108.08C143.859 112.248 143.859 101.826 143.859 101.826C146.906 103.563 149.104 102.767 150.64 101.238C152.731 99.1639 152.986 96.237 151.55 93.8885L163.204 85.0332L168.244 93.5062L188.35 85.8605L197.506 102.55L210.988 97.5995V24.7053L165.815 43.4645Z" fill="url(#paint6_linear)"/>
<path d="M162.577 82.0395L141.353 97.5503L124.848 72.3433L162.577 64.5879V82.0395Z" fill="#BE7C5E"/>
<path d="M61.178 41.3198C61.178 41.3198 67.9896 49.0752 108.34 47.1364L131.921 76.2211L147.724 90.84C150.206 93.1376 150.346 96.6212 147.91 98.9502C146.429 100.364 144.3 101.107 141.353 99.4893C141.353 99.4893 141.353 109.184 129.563 105.306C129.563 105.306 124.848 113.061 115.416 109.184C115.416 109.184 115.416 113.061 108.342 111.122C101.268 109.184 63.536 83.9785 63.536 83.9785L47.0303 74.2843L61.178 41.3198Z" fill="#FDA57D"/>
<path d="M146.069 51.0158C146.069 51.0158 135.879 51.0158 125.804 47.2538C116.641 43.8368 105.972 44.272 97.5178 48.7574C90.6276 52.4136 84.6576 58.4674 84.7696 68.4655C84.7696 68.4655 93.9392 76.2209 103.633 60.7101H110.707C110.707 60.7101 117.519 80.1006 136.647 78.1578C155.775 76.2151 160.229 74.2801 160.229 74.2801L146.069 51.0158Z" fill="#BE7C5E"/>
<path d="M84.1613 89.3019L83.3959 88.6726C81.328 86.9722 77.9752 86.9722 75.9073 88.6726L70.4265 93.1792C68.3586 94.8796 68.3586 97.6364 70.4265 99.3368L71.1919 99.9662C73.2598 101.667 76.6126 101.667 78.6806 99.9662L84.1613 95.4595C86.2293 93.7592 86.2293 91.0023 84.1613 89.3019Z" fill="#BE7C5E"/>
<path d="M76.5612 81.9774L75.7958 81.3481C73.7279 79.6477 70.3751 79.6477 68.3072 81.3481L62.8264 85.8547C60.7585 87.5551 60.7585 90.312 62.8264 92.0123L63.5918 92.6417C65.6597 94.3421 69.0125 94.3421 71.0805 92.6417L76.5612 88.1351C78.6292 86.4347 78.6292 83.6778 76.5612 81.9774Z" fill="#BE7C5E"/>
<path d="M94.7714 94.1481L94.006 93.5187C91.9381 91.8184 88.5853 91.8184 86.5174 93.5187L79.8582 98.9943C77.7903 100.695 77.7903 103.452 79.8582 105.152L80.6236 105.781C82.6915 107.482 86.0443 107.482 88.1122 105.781L94.7714 100.306C96.8393 98.6053 96.8393 95.8485 94.7714 94.1481Z" fill="#BE7C5E"/>
<path d="M100.356 100.894L99.8211 100.455C98.377 99.2675 96.0356 99.2675 94.5915 100.455L90.3886 103.911C88.9445 105.098 88.9445 107.023 90.3886 108.211L90.9231 108.65C92.3672 109.838 94.7085 109.838 96.1526 108.65L100.356 105.194C101.8 104.007 101.8 102.082 100.356 100.894Z" fill="#BE7C5E"/>
<path d="M186.157 85.9173L164.935 93.6727L143.711 51.016L162.577 45.1995L186.157 85.9173Z" fill="white"/>
<path d="M25.8088 76.223L47.0304 83.9784L68.2544 41.3217L49.3884 35.5032L25.8088 76.223Z" fill="white"/>
<path d="M2.22681 18.0537L49.3883 35.5034L18.7349 93.673L2.22681 87.8564V18.0537Z" fill="#333333"/>
<path d="M209.739 27.7478L162.577 45.1994L193.233 103.367L209.739 97.5505V27.7478Z" fill="#4D8AF0"/>
</g>
<defs>
<linearGradient id="paint0_linear" x1="143.565" y1="147.154" x2="93.3933" y2="13.3887" gradientUnits="userSpaceOnUse">
<stop stop-color="#808080" stop-opacity="0.25"/>
<stop offset="0.54" stop-color="#808080" stop-opacity="0.12"/>
<stop offset="1" stop-color="#808080" stop-opacity="0.1"/>
</linearGradient>
<linearGradient id="paint1_linear" x1="33915.1" y1="-10698.2" x2="33659.9" y2="-11378.7" gradientUnits="userSpaceOnUse">
<stop stop-color="#808080" stop-opacity="0.25"/>
<stop offset="0.54" stop-color="#808080" stop-opacity="0.12"/>
<stop offset="1" stop-color="#808080" stop-opacity="0.1"/>
</linearGradient>
<linearGradient id="paint2_linear" x1="10022.6" y1="-2125.49" x2="9667.4" y2="-3072.42" gradientUnits="userSpaceOnUse">
<stop stop-color="#808080" stop-opacity="0.25"/>
<stop offset="0.54" stop-color="#808080" stop-opacity="0.12"/>
<stop offset="1" stop-color="#808080" stop-opacity="0.1"/>
</linearGradient>
<linearGradient id="paint3_linear" x1="13736.9" y1="2539.31" x2="12926.7" y2="379.227" gradientUnits="userSpaceOnUse">
<stop stop-color="#808080" stop-opacity="0.25"/>
<stop offset="0.54" stop-color="#808080" stop-opacity="0.12"/>
<stop offset="1" stop-color="#808080" stop-opacity="0.1"/>
</linearGradient>
<linearGradient id="paint4_linear" x1="16025.8" y1="6605.52" x2="15215.6" y2="4445.24" gradientUnits="userSpaceOnUse">
<stop stop-color="#808080" stop-opacity="0.25"/>
<stop offset="0.54" stop-color="#808080" stop-opacity="0.12"/>
<stop offset="1" stop-color="#808080" stop-opacity="0.1"/>
</linearGradient>
<linearGradient id="paint5_linear" x1="6304.67" y1="1522.04" x2="6087.71" y2="943.576" gradientUnits="userSpaceOnUse">
<stop stop-color="#808080" stop-opacity="0.25"/>
<stop offset="0.54" stop-color="#808080" stop-opacity="0.12"/>
<stop offset="1" stop-color="#808080" stop-opacity="0.1"/>
</linearGradient>
<linearGradient id="paint6_linear" x1="126513" y1="60277.6" x2="126513" y2="10019.3" gradientUnits="userSpaceOnUse">
<stop stop-color="#808080" stop-opacity="0.25"/>
<stop offset="0.54" stop-color="#808080" stop-opacity="0.12"/>
<stop offset="1" stop-color="#808080" stop-opacity="0.1"/>
</linearGradient>
<clipPath id="clip0">
<rect width="211" height="168" fill="white"/>
</clipPath>
</defs>
</svg>
