<svg width="728" height="493" viewBox="0 0 728 493" fill="none" xmlns="http://www.w3.org/2000/svg">
<g clip-path="url(#clip0)">
<path d="M101.543 485.955C157.624 485.955 203.087 440.46 203.087 384.339C203.087 328.218 157.624 282.723 101.543 282.723C45.4625 282.723 0 328.218 0 384.339C0 440.46 45.4625 485.955 101.543 485.955Z" fill="#F2F2F2"/>
<path d="M224.377 429.411C174.739 429.411 126.637 412.188 88.2666 380.675C49.8961 349.163 23.6312 305.311 13.9472 256.592C4.26325 207.873 11.7594 157.301 35.1584 113.493C58.5573 69.6852 96.4114 35.3515 142.271 16.3423C188.13 -2.66702 239.157 -5.17569 286.657 9.24369C334.158 23.6631 375.192 54.1183 402.77 95.4202C430.347 136.722 442.761 186.315 437.895 235.749C433.03 285.184 411.187 331.4 376.088 366.525C356.211 386.525 332.568 402.381 306.527 413.175C280.486 423.969 252.564 429.488 224.377 429.411ZM224.377 1.6386C106.977 1.6386 11.4638 97.2196 11.4638 214.705C11.4638 332.19 106.977 427.772 224.377 427.772C341.778 427.772 437.291 332.19 437.291 214.705C437.291 97.2196 341.778 1.6386 224.377 1.6386Z" fill="#2F2E41"/>
<path d="M336.157 282.663L336.133 282.676L230.387 341.601L114.593 283.662L112.598 282.663L118.607 162.384L223.175 87.8105L224.33 88.5325L332.552 156.37L336.157 282.663Z" fill="#6C63FF"/>
<path opacity="0.3" d="M336.134 282.676L230.388 341.601L114.594 283.662L217.166 211.699L336.134 282.676Z" fill="black"/>
<path opacity="0.1" d="M336.157 282.663L217.166 211.699L224.33 88.5325L332.552 156.37L336.157 282.663Z" fill="black"/>
<path d="M117.068 199.499L116.48 198.667L222.216 123.981L333.911 194.06L333.37 194.924L222.249 125.204L117.068 199.499Z" fill="#F2F2F2"/>
<path d="M115.019 240.362L114.447 239.519L219.646 168.045L219.922 168.202L334.005 232.906L333.502 233.792L219.694 169.244L115.019 240.362Z" fill="#F2F2F2"/>
<path d="M155.158 304.257L154.621 303.391L260.644 237.648V111.615H261.662V238.215L155.158 304.257Z" fill="#F2F2F2"/>
<path d="M196.771 325.076L196.23 324.213L298.318 260.136V135.229H299.336V260.7L196.771 325.076Z" fill="#F2F2F2"/>
<path d="M297.933 304.27L179.205 238.255L179.222 237.937L185.472 114.312L186.489 114.363L180.255 237.672L298.428 303.379L297.933 304.27Z" fill="#F2F2F2"/>
<path d="M260.579 325.096L143.184 263.532L143.202 263.205L150.122 139.518L151.139 139.575L144.238 262.935L261.052 324.194L260.579 325.096Z" fill="#F2F2F2"/>
<path d="M356.22 87.6852C378.833 87.6852 397.165 69.3404 397.165 46.7109C397.165 24.0814 378.833 5.73657 356.22 5.73657C333.607 5.73657 315.275 24.0814 315.275 46.7109C315.275 69.3404 333.607 87.6852 356.22 87.6852Z" fill="#3F3D56"/>
<path d="M728 484.317H23.748V485.956H728V484.317Z" fill="#2F2E41"/>
<path d="M646.236 263.917L655.595 289.572C655.595 289.572 645.829 318.891 655.595 319.705C665.361 320.52 666.582 291.608 666.582 291.608L661.292 260.66L646.236 263.917Z" fill="#FFB9B9"/>
<path d="M650.713 180.032L657.63 186.955V219.939C657.63 219.939 661.699 226.047 660.886 227.676C660.072 229.305 659.258 229.305 660.072 230.526C660.886 231.748 661.699 232.562 660.886 233.377C660.489 233.905 660.275 234.548 660.275 235.209C660.275 235.87 660.489 236.513 660.886 237.041C661.699 237.856 663.327 239.078 662.106 240.299C660.886 241.521 659.258 240.706 660.886 245.186C662.513 249.665 665.362 250.887 664.548 252.515C663.734 254.144 663.734 258.216 663.734 258.216L646.236 260.66L642.574 214.645L650.713 180.032Z" fill="#D0CDE1"/>
<path d="M664.547 257.81L644.201 258.624L645.015 267.175L662.92 263.917L664.547 257.81Z" fill="#3F3D56"/>
<path d="M608.596 137.478L606.154 161.911L630.977 165.576L632.807 151.527L634.639 137.478H608.596Z" fill="#FFB9B9"/>
<path opacity="0.1" d="M608.596 137.478L606.154 161.911L630.977 165.576L632.807 151.527L634.639 137.478H608.596Z" fill="black"/>
<path d="M554.68 253.737L568.515 283.463C568.515 283.463 570.956 297.309 574.619 297.716C578.281 298.123 581.943 283.463 581.943 283.463L577.06 275.726L571.363 253.737L554.68 253.737Z" fill="#FFB9B9"/>
<path d="M583.572 280.613L572.178 298.53C572.178 298.53 561.191 469.152 562.819 467.93C564.446 466.708 569.736 466.301 571.771 463.043C573.806 459.786 586.42 463.043 586.42 463.043L593.745 455.306V449.198C593.745 447.977 608.394 354.725 608.394 354.725V378.344C608.394 378.344 603.918 465.08 611.242 464.265C618.567 463.451 633.623 458.564 633.623 458.564C633.623 458.564 655.189 296.494 648.679 290.386C642.168 284.278 639.32 270.433 639.32 270.433L583.572 280.613Z" fill="#2F2E41"/>
<path d="M622.229 145.419C633.017 145.419 641.761 136.668 641.761 125.873C641.761 115.078 633.017 106.327 622.229 106.327C611.442 106.327 602.697 115.078 602.697 125.873C602.697 136.668 611.442 145.419 622.229 145.419Z" fill="#FFB9B9"/>
<path d="M578.688 165.779L575.84 164.151C575.84 164.151 563.226 172.702 559.156 191.841C555.087 210.98 552.239 215.866 552.239 215.866C552.239 215.866 548.17 216.681 551.018 219.531C553.866 222.382 553.866 221.975 551.425 223.603C548.983 225.232 547.356 221.975 548.983 225.232C550.611 228.49 552.646 227.676 551.018 229.712C549.39 231.748 546.542 231.748 548.17 233.377C549.797 235.005 546.542 238.67 548.577 240.299C550.611 241.928 551.425 242.335 551.425 245.186C551.413 246.849 551.688 248.503 552.239 250.072H573.399C573.399 250.072 569.329 242.335 570.55 240.706C571.771 239.077 572.178 237.449 571.364 236.634C570.55 235.82 568.109 237.449 570.55 235.413C572.992 233.377 573.805 234.598 572.992 232.155C572.178 229.712 570.55 230.933 572.178 229.712C573.805 228.49 575.026 228.897 574.212 227.676C573.399 226.454 571.771 226.454 573.399 225.64C575.026 224.825 576.247 225.64 575.84 223.603C575.433 221.567 575.026 222.382 575.84 221.567C576.654 220.753 585.199 193.063 585.199 192.248C585.199 191.434 578.688 165.779 578.688 165.779Z" fill="#D0CDE1"/>
<path d="M574.619 248.443L548.982 250.072L555.493 256.181L573.398 256.588L574.619 248.443Z" fill="#3F3D56"/>
<path d="M581.944 278.984L576.654 288.757C576.654 288.757 592.524 290.793 598.221 292.829C603.918 294.865 618.567 297.716 618.567 297.716L622.229 283.463L581.944 278.984Z" fill="#3F3D56"/>
<path d="M628.332 283.463L632.808 296.902L650.713 293.236L648.678 280.613L628.332 283.463Z" fill="#3F3D56"/>
<path d="M635.657 151.934C635.657 151.934 634.436 151.12 631.588 152.749C628.739 154.378 619.38 155.192 614.904 150.306C610.428 145.419 607.173 141.347 605.952 142.161C604.731 142.976 603.917 152.342 603.917 152.342L599.848 155.599L575.84 164.151L577.874 219.124L581.537 231.748C581.537 231.748 578.688 241.521 582.351 247.222C586.013 252.923 580.316 254.959 580.316 254.959C580.316 254.959 579.095 256.588 579.909 260.66C580.723 264.732 579.095 279.799 579.095 279.799C579.095 279.799 613.683 295.273 649.899 281.835L645.83 266.361L643.795 231.748C643.795 231.748 645.83 226.047 645.423 223.604C645.016 221.16 657.63 186.955 657.63 186.955C657.63 186.955 655.596 169.852 645.016 166.187C634.436 162.522 632.808 158.857 632.808 158.857C632.808 158.857 637.691 153.563 635.657 151.934Z" fill="#D0CDE1"/>
<path d="M602.562 128.377C602.562 128.377 600.533 125.332 601.313 122.053C601.779 120.192 601.964 118.27 601.859 116.354C602.732 113.514 603.828 110.747 605.136 108.079C606.774 105.112 605.994 103.863 611.143 102.927C616.292 101.99 614.185 95.2759 627.759 102.536C628.217 103.176 628.854 103.666 629.59 103.944C630.326 104.222 631.128 104.275 631.894 104.098C634.702 103.551 635.717 107.454 635.717 107.454C635.717 107.454 637.589 106.362 638.291 107.923C638.993 109.484 643.999 106.986 643.999 117.525C643.999 128.064 638.302 137.478 638.302 137.478C638.302 137.478 638.72 119.75 629.437 117.955C620.153 116.159 610.168 110.928 607.749 117.642C606.444 121.41 604.703 125.013 602.562 128.377Z" fill="#2F2E41"/>
<path d="M638.505 132.592C639.516 132.592 640.336 131.498 640.336 130.149C640.336 128.799 639.516 127.705 638.505 127.705C637.494 127.705 636.674 128.799 636.674 130.149C636.674 131.498 637.494 132.592 638.505 132.592Z" fill="#FFB9B9"/>
<path d="M628.13 457.121L630.992 465.713C630.992 465.713 630.992 474.304 633.854 478.6C636.715 482.896 639.577 492.203 628.13 492.919C616.683 493.635 611.675 489.34 611.675 489.34C611.675 489.34 613.821 483.612 611.675 481.464C609.528 479.316 611.675 475.02 611.675 475.02L613.821 457.837L628.13 457.121Z" fill="#2F2E41"/>
<path d="M572.381 457.121L569.519 465.713C569.519 465.713 569.519 474.304 566.657 478.6C563.796 482.896 560.934 492.203 572.381 492.919C583.828 493.635 588.836 489.34 588.836 489.34C588.836 489.34 586.69 483.612 588.836 481.464C590.983 479.316 588.836 475.02 588.836 475.02L586.69 457.837L572.381 457.121Z" fill="#2F2E41"/>
</g>
<defs>
<clipPath id="clip0">
<rect width="728" height="493" fill="white"/>
</clipPath>
</defs>
</svg>
