<svg width="728" height="493" viewBox="0 0 728 493" fill="none" xmlns="http://www.w3.org/2000/svg">
<g clip-path="url(#clip0)">
<path d="M122.518 374.456C122.518 374.456 125.078 339.602 177.565 343.654L122.518 374.456Z" fill="#E6E6E6"/>
<path d="M121.901 492.559C121.835 492.194 115.64 455.876 140.725 436.655C149.983 429.561 162.388 425.589 177.595 424.849L177.762 426.218C163.166 426.929 151.269 430.734 142.401 437.527C117.903 456.295 123.992 492.044 124.056 492.403L121.901 492.559Z" fill="#E6E6E6"/>
<path d="M121.963 338.82H119.779V491.52H121.963V338.82Z" fill="#E6E6E6"/>
<path d="M122.516 339.602C132.415 339.602 140.439 334.524 140.439 328.259C140.439 321.994 132.415 316.915 122.516 316.915C112.618 316.915 104.594 321.994 104.594 328.259C104.594 334.524 112.618 339.602 122.516 339.602Z" fill="#6C63FF"/>
<path d="M177.678 436.805C187.514 436.805 195.488 431.758 195.488 425.533C195.488 419.308 187.514 414.261 177.678 414.261C167.843 414.261 159.869 419.308 159.869 425.533C159.869 431.758 167.843 436.805 177.678 436.805Z" fill="#E6E6E6"/>
<path d="M728 124.638V125.385C727.973 127.258 727.888 129.124 727.745 130.981C725.191 162.759 703.531 192.715 667.204 214.711C630.877 236.707 582.634 249.077 532.361 249.285C482.089 249.493 433.594 237.524 396.815 215.831C360.036 194.138 337.759 164.363 334.549 132.609C334.281 129.972 334.147 127.315 334.147 124.638C334.076 98.8237 346.735 73.6383 370.357 52.5939C372.246 50.8982 374.211 49.2335 376.252 47.6C377.658 46.4638 379.105 45.353 380.565 44.2508C413.808 19.3251 461.162 3.63885 512.469 0.557377C563.775 -2.5241 614.946 7.24472 655.003 27.768C657.374 28.9805 659.705 30.2353 661.982 31.5156C663.804 32.5416 665.595 33.5901 667.354 34.6613C702.005 55.6389 723.333 83.9152 727.317 114.159C727.772 117.618 728 121.111 728 124.638Z" fill="#6C63FF"/>
<path d="M376.252 47.6C376.348 47.6257 376.438 47.6599 376.519 47.7018C377.578 48.2529 376.252 49.3128 376.412 50.1861C376.6 51.3053 378.958 51.5512 380.739 51.6614C382.521 51.7801 384.772 52.6873 383.928 53.6878C379.453 54.6629 374.925 53.7048 370.357 52.5941C346.735 73.6384 334.076 98.8238 334.147 124.639C334.147 127.318 334.281 129.975 334.549 132.609C334.923 132.782 335.333 132.921 335.768 133.024C337.107 133.346 338.661 133.287 339.894 133.745C340.872 134.109 341.528 134.754 342.506 135.093C345.306 136.06 349.191 134.203 351.803 135.356C352.478 135.745 353.118 136.158 353.719 136.594C356.13 137.916 360.095 137.026 362.882 138.018C364.677 138.654 365.601 139.926 366.566 141.079C368.964 143.962 372.849 146.794 377.98 147.023C379.598 146.976 381.219 147.01 382.829 147.124C384.41 147.353 385.964 148.227 385.709 149.236C385.267 150.974 386.62 152.873 386.259 154.611C385.602 157.791 378.489 159.181 377.886 162.361C377.884 163.061 377.821 163.76 377.698 164.455C377.377 165.286 376.385 165.964 376.037 166.795C375.367 168.364 377.149 169.932 379.092 170.984C381.047 172.044 383.378 172.959 384.45 174.435C385.575 176.003 385.026 177.826 385.388 179.53C386.192 183.253 391.269 186.008 396.493 187.789C398.168 188.232 399.654 188.917 400.834 189.79C402.174 191.019 402.04 192.639 402.495 194.106C403.593 197.692 408.363 200.651 408.497 204.306C408.59 206.909 406.313 209.266 404.947 211.716C403.541 214.285 403.123 217.029 403.727 219.72C411.366 223.82 419.485 227.548 428.015 230.87C428.479 230.436 428.819 229.954 429.02 229.445C429.182 228.883 429.07 228.303 428.699 227.782C428.328 227.261 427.716 226.824 426.943 226.529C428.383 226.184 429.693 225.653 430.788 224.968C431.326 224.618 431.682 224.172 431.806 223.69C431.931 223.207 431.819 222.713 431.485 222.272C433.843 222.459 436.642 222.552 438.196 221.407C439.442 220.492 439.362 219.118 438.866 217.956C438.371 216.786 437.54 215.659 437.527 214.446C442.989 214.615 448.464 214.498 453.897 214.099C453.111 212.421 451.323 211.004 448.913 210.147C451.378 209.885 453.616 208.019 454.393 206.518C455.064 204.987 455.101 203.372 454.5 201.83C454.313 201.433 454.286 201.014 454.419 200.609C454.816 200.071 455.512 199.645 456.375 199.413C460.448 197.929 464.52 196.448 468.593 194.97C469.319 194.738 469.98 194.432 470.549 194.063C471.821 193.105 471.634 191.672 470.977 190.494C470.321 189.315 469.276 188.204 469.021 186.966C468.271 183.261 474.541 180.599 476.657 177.105C477.377 175.711 477.765 174.257 477.809 172.79C477.984 171.213 477.997 169.39 476.095 168.381C474.259 167.406 471.406 167.626 469.49 166.719C467.735 165.888 467.133 164.286 465.217 163.616C463.475 163.005 461.305 163.395 459.363 163.107C455.96 162.607 453.817 160.122 450.333 159.893C448.378 159.758 446.154 160.368 444.546 159.648C443.126 159.003 443.073 157.723 442.805 156.638C442.329 154.947 441.047 153.389 439.131 152.174C437.215 150.958 434.757 150.143 432.088 149.838C430.065 149.634 427.868 149.71 426.14 149.007C424.398 148.294 423.608 146.963 422.228 145.971C420.031 144.386 416.548 143.818 413.292 143.334C408.872 142.681 404.455 142.026 400.043 141.367C397.699 141.011 394.672 140.825 393.399 142.13C393.022 142.627 392.761 143.155 392.622 143.699C392.143 144.677 391.189 145.535 389.895 146.151C388.601 146.766 387.033 147.106 385.415 147.124C384.307 145.927 382.512 145.046 380.404 144.666C379.027 144.519 377.667 144.315 376.332 144.055C375.635 143.839 375.015 143.535 374.51 143.162C374.005 142.789 373.625 142.355 373.394 141.886C373.164 141.416 373.087 140.923 373.168 140.434C373.249 139.945 373.487 139.472 373.867 139.044C374.627 138.184 374.919 137.189 374.699 136.213C374.478 135.237 373.758 134.335 372.648 133.643C370.397 132.363 367.142 132.049 364.114 132.176C363.324 131.082 364.65 129.853 366.07 129.056C367.504 128.268 369.232 127.487 369.54 126.3C370.036 124.435 366.271 123.019 363.418 123.57C360.564 124.13 358.742 125.885 357.537 127.615C356.952 128.635 356.155 129.602 355.166 130.489C354.659 130.928 353.97 131.269 353.176 131.476C352.381 131.682 351.512 131.746 350.665 131.659C348.307 131.277 347.409 129.505 346.887 128.013C346.05 126.019 345.626 123.964 345.627 121.9C345.648 119.816 346.956 117.82 349.271 116.338C353.17 114.065 359.171 114.286 364.436 114.65C363.872 114.174 363.602 113.585 363.676 112.991C363.75 112.398 364.163 111.843 364.838 111.429C365.542 111.033 366.389 110.752 367.304 110.61C368.219 110.468 369.175 110.47 370.089 110.615C371.676 110.823 373.107 111.363 374.148 112.149C375.649 113.302 376.077 114.871 377.203 116.177C378.341 117.491 380.887 118.61 382.963 117.906C384.772 117.296 385.053 115.719 384.611 114.456C384.155 113.201 383.204 111.971 383.365 110.682C383.673 108.232 387.705 106.748 391.255 105.739C394.806 104.73 398.865 103.365 399.427 100.923C399.453 100.448 399.598 99.9791 399.856 99.5328C400.249 99.1344 400.798 98.8073 401.45 98.5832C411.805 94.2505 422.348 89.8585 434.191 87.4929C434.807 87.3657 434.874 87.5014 435.504 87.4081C436.388 87.0859 435.798 86.1957 434.954 85.8395C434.11 85.4834 432.985 85.2036 432.771 84.5762C432.623 84.1183 433.052 83.6605 433.159 83.1941C433.187 82.9125 433.106 82.6308 432.922 82.3737C432.738 82.1166 432.457 81.892 432.104 81.7196C431.751 81.5472 431.336 81.4323 430.897 81.3848C430.457 81.3374 430.006 81.3589 429.582 81.4475C428.631 80.6505 430.507 79.7263 432.034 79.455C436.607 78.6622 441.299 78.179 446.033 78.0136C446.58 77.9565 447.14 78.0161 447.627 78.1832C447.975 78.3958 448.182 78.6846 448.204 78.9904C448.227 79.2963 448.063 79.596 447.748 79.8281C447.103 80.2811 446.39 80.6929 445.618 81.0575C444.849 81.53 444.3 82.1269 444.031 82.7833C443.762 83.4397 443.782 84.1302 444.091 84.7797C446.569 85.5767 449.248 86.3991 451.995 86.1193C454.727 85.8395 457.152 83.8894 455.866 82.3378C454.674 80.8879 451.07 80.5572 450.454 78.9717C449.731 77.1148 453.883 75.4614 452.946 73.647C452.544 72.85 451.285 72.3752 450.32 71.8071C449.185 71.0997 448.413 70.1923 448.105 69.2032C447.796 68.2141 447.966 67.1891 448.592 66.2619C447.024 66.4354 445.412 66.3689 443.893 66.068C442.374 65.7671 440.99 65.2405 439.857 64.5323C437.768 63.2011 436.106 61.0899 433.132 61.1577C430.413 61.2086 428.069 63.218 425.523 62.6076C424.894 62.4549 424.237 62.1497 423.634 62.3278C423.436 62.4087 423.268 62.5171 423.145 62.6449C423.022 62.7727 422.947 62.9165 422.924 63.0654C422.281 65.024 423.393 67.254 421.705 68.9497C419.87 70.7896 415.623 71.044 413.4 72.7058C412.194 73.6046 411.725 74.8171 410.613 75.7667C409.501 76.7163 407.157 77.3268 405.817 76.4959C406.473 75.6446 406.653 74.6776 406.327 73.7533C406.001 72.829 405.188 72.0023 404.022 71.4086C402.788 70.896 401.456 70.4857 400.057 70.1877C398.494 69.7703 397.008 69.2472 395.623 68.6276C394.932 68.3615 394.372 67.9801 394.002 67.5253C393.709 66.9535 393.747 66.3344 394.109 65.7787C394.787 64.5541 395.98 63.4697 397.559 62.6421C399.138 61.8145 401.044 61.2749 403.071 61.0814C404.839 60.9288 406.902 60.9797 408.081 60.1233C408.697 59.6739 409.019 58.9871 409.93 58.8091C410.504 58.7333 411.101 58.7779 411.631 58.9363C413.842 59.4281 416.039 59.9198 418.249 60.4116C418.986 60.6256 419.8 60.7105 420.607 60.6575C421.007 60.6249 421.372 60.4971 421.628 60.3003C421.884 60.1034 422.013 59.8522 421.987 59.5976C421.772 58.9024 420.084 58.5717 420.245 57.868C420.323 57.638 420.516 57.43 420.794 57.2744C423.184 55.6659 426.105 54.4115 429.35 53.601C432.594 52.7904 436.082 52.4437 439.563 52.5856C440.393 53.459 439.08 54.4849 437.969 55.2226C436.87 55.9687 435.986 57.2914 437.326 57.8595C437.866 58.0388 438.471 58.1265 439.081 58.1138C440.71 58.2521 442.293 58.5556 443.769 59.0126C446.06 59.64 448.311 60.3353 450.508 61.0814C450.184 60.1724 450.24 59.2257 450.668 58.3343C450.91 57.8967 451.401 57.5319 452.045 57.3109C452.689 57.0898 453.44 57.0285 454.151 57.1388C455.464 57.461 456.134 58.5632 457.541 58.665C459.403 58.8006 460.14 57.054 459.363 55.9687C458.586 54.8834 457.032 53.9847 456.911 52.7891C456.817 51.9921 457.3 51.0001 456.295 50.5168C455.938 50.367 455.529 50.274 455.103 50.2455C446.69 49.2704 438.272 48.2925 429.85 47.3118C428.35 47.1338 426.193 47.2694 426.126 48.2275C426.086 48.7702 426.85 49.3043 426.515 49.7961C426.153 50.3218 424.974 50.2794 424.117 50.4659C423.473 50.6509 422.941 50.9636 422.603 51.3568C422.264 51.7499 422.137 52.2021 422.241 52.645C422.47 53.5266 423.011 54.3642 423.822 55.0954C422.174 54.663 419.696 54.5866 418.048 54.1457C417.808 52.9382 417.322 51.7554 416.601 50.627C416.56 50.4475 416.457 50.2758 416.3 50.1241C416.143 49.9724 415.935 49.8443 415.691 49.749C415.447 49.6536 415.173 49.5932 414.888 49.572C414.603 49.5509 414.315 49.5695 414.043 49.6265C411.872 49.8385 409.702 50.042 407.532 50.254C406.987 50.2703 406.465 50.3983 406.045 50.6186C405.201 51.1866 406.032 52.0939 406.005 52.8739C405.926 53.3101 405.635 53.72 405.172 54.0466C404.709 54.3733 404.096 54.6006 403.419 54.6969C402.056 54.8721 400.649 54.8605 399.293 54.6629C396.252 54.3662 393.225 54.0694 390.184 53.7727C392.868 53.2313 395.255 52.2201 397.069 50.856C398.275 49.9572 398.918 48.2784 397.177 47.8545C396.662 47.7651 396.126 47.7392 395.596 47.7782C391.47 47.7951 388.214 45.6161 384.356 44.6919C383.143 44.4054 381.86 44.2562 380.565 44.251L376.252 47.6Z" fill="#3F3D56"/>
<path d="M727.746 130.981C727.273 131.382 726.652 131.704 725.938 131.919C725.223 132.133 724.436 132.233 723.646 132.21C719.453 131.981 717.685 128.157 713.532 127.725C713.165 127.665 712.776 127.689 712.434 127.793C711.817 128.005 711.71 128.53 711.67 128.971C711.496 131.159 711.349 133.431 712.702 135.449C714.671 138.4 719.775 140.876 718.703 144.004C712.943 142.317 709.942 138.222 708.589 134.296C707.222 130.37 707.008 126.25 704.57 122.536C702.708 124.037 698.823 122.799 697.135 121.222C695.527 119.729 694.536 118 692.982 116.482C691.428 114.973 689.044 113.616 686.204 113.531C683.216 113.447 680.617 114.744 678.34 115.973C676.359 116.9 674.695 118.071 673.45 119.416C671.856 121.451 672.271 123.842 672.191 126.106C672.111 128.547 671.293 131.133 668.654 132.931C666.015 134.72 661.152 135.347 658.245 133.728C656.84 132.801 655.838 131.658 655.338 130.413C652.178 124.583 649.548 118.644 647.461 112.624C646.979 113.998 645.063 115.77 643.241 114.964C642.834 114.745 642.505 114.473 642.277 114.167C638.874 110.53 632.591 108.342 626.228 107.028C619.878 105.722 613.193 105.112 606.91 103.671C603.387 102.861 600.021 101.8 596.877 100.508C596.078 101.253 595.612 102.12 595.527 103.018C595.442 103.916 595.742 104.813 596.394 105.612C597.1 106.395 598.195 107.007 599.508 107.355C600.821 107.703 602.279 107.767 603.655 107.537C605.048 107.249 606.227 106.638 607.607 106.333C608.987 106.036 610.849 106.18 611.452 107.028C612.041 107.834 611.157 108.809 611.599 109.657C612.256 110.937 615.323 111.039 616.395 112.209C616.71 112.672 616.782 113.187 616.602 113.678C616.421 114.17 615.996 114.611 615.39 114.939C614.157 115.575 612.797 116.105 611.345 116.516C606.843 118.102 603.642 120.806 599.703 122.909C595.765 125.02 590.205 126.555 585.517 125.207C586.628 121.62 579.89 118.992 578.644 115.422C578.229 114.244 578.443 112.997 577.867 111.853C577.023 110.191 574.692 109.055 572.79 107.8C570.479 106.259 568.678 104.442 567.493 102.454C566.308 100.466 565.763 98.349 565.891 96.2262C565.998 94.7509 566.427 93.2501 565.891 91.8087C565.368 90.3758 563.479 88.9853 561.149 89.0446C555.83 89.1972 549.119 89.4516 546.332 86.5773C545.327 85.5513 544.899 84.0506 546.345 83.2621C547.364 82.711 548.864 82.7618 550.19 82.8466C554.196 83.0925 558.188 83.3469 562.193 83.5928C564.993 83.7623 568.021 83.9065 570.432 82.9823C572.843 82.0581 573.888 79.5908 571.651 78.497C570.03 77.7 567.11 77.7424 566.628 76.479C566.239 75.4192 568.088 74.2237 567.083 73.3334C566.373 72.706 564.765 72.8755 563.788 73.3503C562.934 73.9111 562.006 74.4245 561.015 74.885C559.099 75.5125 556.821 74.9105 554.758 74.5035C552.695 74.0965 549.936 74.0626 548.944 75.275C547.819 76.6232 549.922 78.4037 548.824 79.7603C547.35 81.5494 542.394 80.5319 540.33 82.0751C537.973 83.8386 541.938 86.484 541.148 88.7394C540.13 89.0588 538.999 89.2057 537.865 89.1656C536.731 89.1254 535.632 88.8997 534.677 88.5105C533.74 88.1069 532.993 87.55 532.517 86.8989C532.04 86.2479 531.851 85.5272 531.971 84.8137C532.159 83.7963 533.003 82.7534 532.44 81.7953C531.833 81.0553 530.832 80.4755 529.613 80.1588C525.728 78.7938 521.843 77.4343 517.958 76.0805C516.873 77.3524 518.24 78.9209 519.955 79.879C521.656 80.8287 523.799 81.5494 524.925 82.8042C525.637 83.6739 525.798 84.683 525.375 85.6253C524.952 86.5676 523.976 87.3722 522.647 87.8746C522.479 87.9478 522.288 87.9971 522.087 88.019C521.885 88.041 521.679 88.0351 521.482 88.0017C521.296 87.9328 521.134 87.841 521.005 87.7318C520.876 87.6226 520.783 87.4981 520.732 87.3658C518.682 84.0337 515.587 80.7524 510.657 79.0142C505.714 77.2676 498.627 77.6322 495.386 80.5574C494.622 81.2526 494.1 82.0496 493.43 82.7873C489.88 86.696 482.244 88.5444 475.117 88.4257C474.42 88.454 473.725 88.3507 473.121 88.1289C471.969 87.6287 472.022 86.5603 472.196 85.6785C472.451 84.4322 472.692 83.1943 472.947 81.9479C472.953 81.1869 473.418 80.456 474.246 79.9045C475.572 79.2431 477.475 79.6586 479.163 79.6416C480.437 79.6057 481.662 79.3217 482.671 78.8285C483.681 78.3354 484.425 77.6569 484.802 76.886C485.142 76.1081 485.139 75.2862 484.795 74.5092C484.45 73.7321 483.776 73.0294 482.847 72.4771C482.083 72.0192 481.052 71.4426 481.453 70.8237C481.617 70.6532 481.837 70.5072 482.098 70.396C482.36 70.2847 482.656 70.2108 482.967 70.1793C485.981 69.6282 489.183 69.484 492.144 68.8227C495.118 68.1698 497.998 66.8302 498.708 64.8885C498.922 64.295 499.016 63.5743 499.86 63.2775C500.286 63.1693 500.74 63.1118 501.2 63.108C502.81 62.9618 504.277 62.4398 505.31 61.6444C506.344 60.849 506.87 59.8377 506.786 58.8092C508.206 58.1818 510.202 58.6481 511.582 59.3179C512.948 59.9878 514.167 60.8696 515.842 61.1578C518.963 61.7005 521.977 59.9454 525.219 59.9369C526.586 59.9369 527.992 60.2421 529.265 59.9454C530.564 59.6486 531.341 58.8346 532.333 58.2327C533.338 57.6222 535.079 57.2576 536.003 57.9105C535.735 56.681 535.481 55.4601 535.213 54.2391C536.791 54.4907 538.436 54.5255 540.038 54.3412C541.639 54.157 543.159 53.7579 544.497 53.1708C541.121 52.4501 537.758 51.7294 534.382 51.0087C534.028 50.9534 533.701 50.8426 533.431 50.6865C532.695 50.1862 533.431 49.4062 534.021 48.8381C535.454 47.473 535.695 45.2261 533.338 44.5478C531.73 44.0815 529.895 44.6411 528.354 45.1837C525.889 46.0486 523.424 46.9219 520.959 47.7867C520.732 48.677 522.446 49.1857 523.505 49.7793C524.15 50.1413 524.606 50.6185 524.814 51.148C525.022 51.6774 524.972 52.2344 524.671 52.7455C524.369 53.2567 523.83 53.6981 523.125 54.0116C522.419 54.3251 521.58 54.496 520.718 54.502C521.204 54.9031 521.541 55.3679 521.706 55.8624C521.87 56.3568 521.858 56.8683 521.669 57.3593C520.022 57.4356 518.36 57.5119 516.699 57.5882C516.423 57.6231 516.139 57.623 515.863 57.5881C515.588 57.5532 515.325 57.4841 515.092 57.3848C514.556 57.088 514.636 56.5623 514.502 56.1214C514.282 55.5944 513.816 55.1214 513.167 54.7632C512.518 54.405 511.713 54.1782 510.858 54.1119C509.152 53.9905 507.424 54.0914 505.781 54.4087C505.067 54.568 504.285 54.5559 503.584 54.3748C503.187 54.2082 502.886 53.9641 502.727 53.6795C502.435 53.0981 502.386 52.4789 502.583 51.8818C502.78 51.2847 503.217 50.7299 503.852 50.271C505.139 49.3669 506.556 48.5408 508.085 47.8037C511.552 45.883 514.099 43.3865 515.44 40.5967C518.173 39.8675 521 38.884 523.746 38.1548C525.954 37.5072 528.267 37.0153 530.645 36.688C532.883 36.4717 535.15 36.4035 537.41 36.4845C540.491 36.5184 543.586 36.5523 546.667 36.5947C549.417 36.5216 552.165 36.7717 554.772 37.3324C557.304 37.9937 559.541 39.4266 559.715 41.1563C559.768 41.3534 559.74 41.5558 559.634 41.7443C559.529 41.9327 559.349 42.101 559.112 42.2331C558.756 42.3576 558.353 42.4164 557.947 42.4027C555.388 42.4536 554.303 42.8606 551.744 42.9199C553.365 44.0137 555.187 45.1668 557.545 45.3618C561.698 45.701 564.685 42.9793 566.601 40.6137C566.669 41.2158 567.107 41.7772 567.82 42.1779C568.533 42.5787 569.466 42.7872 570.419 42.7588C571.445 42.6471 572.425 42.4048 573.299 42.0466C581.539 39.1965 590.769 37.6872 600.159 37.6546C600.066 37.2046 600.242 36.7491 600.65 36.3762C601.058 36.0034 601.671 35.7398 602.369 35.6366C604.285 35.3992 605.999 36.4421 606.924 37.5274C607.835 38.6127 608.411 39.8675 609.884 40.6815C611.345 41.4954 614.171 41.4531 614.747 40.283C615.31 39.1553 613.448 38.1887 611.907 37.5189C610.353 36.8576 608.732 35.6281 609.777 34.6446C617.654 33.5338 625.598 32.4316 633.676 32.2111C635.049 32.2375 636.416 32.0875 637.695 31.7702C638.329 31.6005 638.855 31.3032 639.195 30.9246C639.534 30.5459 639.666 30.107 639.571 29.676C637.808 29.9363 635.963 29.8593 634.269 29.4548C632.576 29.0502 631.111 28.3363 630.059 27.4036C638.352 26.9712 647.033 26.5897 655.003 27.7682L661.983 31.5159C660.657 32.3892 658.888 33.2116 659.853 34.0849C660.171 34.2855 660.557 34.4378 660.982 34.5303C661.406 34.6228 661.859 34.6532 662.304 34.6191C663.992 34.6361 665.68 34.6615 667.355 34.6615C702.005 55.6392 723.333 83.9154 727.317 114.159C724.504 114.091 721.918 116.347 722.28 118.314C722.709 120.594 725.307 122.426 727.17 124.393C727.478 124.713 727.755 125.044 728 125.385L727.746 130.981Z" fill="#3F3D56"/>
<path d="M467.381 247.319C486.071 247.319 501.223 237.729 501.223 225.9C501.223 214.07 486.071 204.481 467.381 204.481C448.691 204.481 433.539 214.07 433.539 225.9C433.539 237.729 448.691 247.319 467.381 247.319Z" fill="#2F2E41"/>
<path d="M451.225 236.721C451.225 236.721 440.202 252.169 437.053 252.667C433.903 253.166 463.035 262.136 463.035 262.136C463.035 262.136 468.547 243.199 470.909 242.202C473.271 241.206 451.225 236.721 451.225 236.721Z" fill="#FFB9B9"/>
<path d="M385.876 363.296L365.404 399.674L387.45 405.156L425.243 357.815L385.876 363.296Z" fill="#FFB9B9"/>
<path d="M457.525 364.293C457.525 364.293 498.467 400.671 500.83 401.169C503.192 401.668 519.726 392.698 519.726 392.698C519.726 392.698 499.255 361.303 492.956 359.808C486.657 358.313 457.525 364.293 457.525 364.293Z" fill="#FFB9B9"/>
<path d="M362.256 393.196L329.974 446.517C329.974 446.517 332.336 449.507 329.974 450.005C327.612 450.504 322.101 458.477 322.101 458.975C322.101 459.474 316.589 459.972 316.589 461.467C316.589 462.962 311.865 474.922 311.865 474.922C311.865 474.922 320.526 486.882 326.038 483.393C331.549 479.905 333.911 472.928 333.911 472.928L341.784 459.972C341.784 459.972 340.997 452.995 346.509 451.999C352.02 451.002 355.169 438.544 355.169 438.544C355.169 438.544 363.83 433.062 365.405 431.567C366.98 430.072 394.537 403.661 392.175 403.162C389.813 402.664 362.256 393.196 362.256 393.196Z" fill="#2F2E41"/>
<path d="M496.105 400.172L519.726 390.206C519.726 390.206 560.668 437.547 560.668 438.544C560.668 439.54 559.093 442.53 560.668 443.527C562.243 444.524 575.628 460.47 584.289 461.965C592.949 463.46 594.524 469.44 587.438 470.437C580.352 471.433 570.904 473.925 568.542 470.437C567.16 468.385 565.583 466.388 563.817 464.457C563.817 464.457 555.944 465.952 555.157 464.955C554.248 463.487 553.46 461.99 552.795 460.47C552.795 460.47 546.496 453.494 546.496 451.002C546.496 448.51 542.559 448.012 542.559 448.012C542.559 448.012 533.898 435.055 528.387 433.062C522.875 431.069 518.151 421.102 518.151 421.102L496.105 400.172Z" fill="#2F2E41"/>
<path d="M467.761 248.182C480.371 248.182 490.594 241.712 490.594 233.731C490.594 225.75 480.371 219.279 467.761 219.279C455.15 219.279 444.928 225.75 444.928 233.731C444.928 241.712 455.15 248.182 467.761 248.182Z" fill="#FFB9B9"/>
<path d="M400.048 321.437C400.048 321.437 366.254 378.256 370.978 378.256C375.702 378.256 506.395 380.056 510.332 376.07C514.268 372.083 476.421 332.4 474.846 331.902C473.271 331.403 400.048 321.437 400.048 321.437Z" fill="#2F2E41"/>
<path d="M366.192 202.835L342.571 179.911C342.571 179.911 348.412 155.865 340.539 160.35C332.665 164.835 330.174 182.946 330.174 182.946L357.531 209.313L366.192 202.835Z" fill="#FFB9B9"/>
<path d="M580.35 244.694L601.609 243.697C601.609 243.697 626.804 226.754 628.378 232.236C629.953 237.718 607.907 249.677 607.907 249.677L578.775 251.671L580.35 244.694Z" fill="#FFB9B9"/>
<path d="M425.244 249.677V244.694C425.244 244.694 404.773 236.222 405.56 234.728C406.348 233.233 403.986 232.236 403.986 232.236C403.986 232.236 401.624 230.243 401.624 229.744C401.624 229.246 398.474 228.748 398.474 228.748L378.79 214.296C378.79 214.296 367.767 200.343 365.405 200.841C363.043 201.339 350.446 204.329 352.021 206.323C353.595 208.316 397.687 251.172 397.687 251.172C397.687 251.172 400.049 260.641 403.986 260.641C407.922 260.641 425.244 249.677 425.244 249.677Z" fill="#3F3D56"/>
<path d="M477.995 255.657C477.995 255.657 495.317 255.159 496.104 255.657C496.892 256.156 507.914 255.657 507.914 255.657C507.914 255.657 537.834 251.172 540.196 249.677C542.558 248.182 581.925 241.704 583.5 244.694C585.075 247.684 589.011 253.664 585.075 254.661C581.138 255.657 474.846 272.6 474.846 272.6L477.995 255.657Z" fill="#3F3D56"/>
<path d="M455.543 212.219C463.276 212.219 469.546 208.251 469.546 203.356C469.546 198.461 463.276 194.493 455.543 194.493C447.809 194.493 441.539 198.461 441.539 203.356C441.539 208.251 447.809 212.219 455.543 212.219Z" fill="#2F2E41"/>
<path d="M436.871 198.555C436.871 196.365 438.153 194.251 440.469 192.624C442.786 190.996 445.973 189.969 449.415 189.74C448.931 189.708 448.444 189.692 447.957 189.692C444.243 189.692 440.681 190.626 438.055 192.288C435.429 193.95 433.953 196.205 433.953 198.555C433.953 200.906 435.429 203.16 438.055 204.823C440.681 206.485 444.243 207.418 447.957 207.418C448.444 207.418 448.931 207.402 449.415 207.371C445.973 207.142 442.786 206.115 440.469 204.487C438.153 202.859 436.871 200.746 436.871 198.555Z" fill="#2F2E41"/>
<path d="M471.318 230.221C484.208 230.221 494.657 226.253 494.657 221.358C494.657 216.463 484.208 212.495 471.318 212.495C458.428 212.495 447.979 216.463 447.979 221.358C447.979 226.253 458.428 230.221 471.318 230.221Z" fill="#2F2E41"/>
<path d="M444.534 244.445C444.534 244.445 437.447 247.933 435.873 248.432C434.298 248.93 424.85 243.947 423.275 243.947C421.7 243.947 401.229 258.896 401.229 258.896C401.229 258.896 405.034 261.67 401.229 275.84C399.803 281.154 396.972 303.873 396.972 306.863C396.972 309.853 381.546 317.201 395.718 323.679C409.89 330.157 477.602 337.134 478.389 333.147C479.177 329.161 470.516 318.696 474.453 313.713C478.39 308.729 478.389 290.291 478.389 290.291L483.114 270.856L487.05 255.408C487.05 255.408 468.548 252.169 466.973 252.169C465.398 252.169 458.312 259.146 444.534 244.445Z" fill="#3F3D56"/>
<path d="M724.882 491.452H0V493H724.882V491.452Z" fill="#3F3D56"/>
</g>
<defs>
<clipPath id="clip0">
<rect width="728" height="493" fill="white"/>
</clipPath>
</defs>
</svg>
