<svg width="40" height="40" viewBox="0 0 40 40" fill="none" xmlns="http://www.w3.org/2000/svg">
<path d="M37.4331 9.99984C36.1497 10.5832 34.7664 10.9665 33.3331 11.1498C34.7997 10.2665 35.9331 8.8665 36.4664 7.18317C35.0831 8.0165 33.5497 8.59984 31.9331 8.93317C30.6164 7.49984 28.7664 6.6665 26.6664 6.6665C22.7497 6.6665 19.5497 9.8665 19.5497 13.8165C19.5497 14.3832 19.6164 14.9332 19.7331 15.4498C13.7997 15.1498 8.51641 12.2998 4.99974 7.98317C4.38307 9.03317 4.03307 10.2665 4.03307 11.5665C4.03307 14.0498 5.28307 16.2498 7.21641 17.4998C6.03307 17.4998 4.93307 17.1665 3.96641 16.6665V16.7165C3.96641 20.1832 6.43307 23.0832 9.69974 23.7332C8.65095 24.0202 7.5499 24.0601 6.48307 23.8498C6.93575 25.2706 7.8223 26.5138 9.0181 27.4047C10.2139 28.2956 11.6588 28.7893 13.1497 28.8165C10.6225 30.8172 7.48973 31.8987 4.26641 31.8832C3.69974 31.8832 3.13307 31.8498 2.56641 31.7832C5.73307 33.8165 9.49974 34.9998 13.5331 34.9998C26.6664 34.9998 33.8831 24.0998 33.8831 14.6498C33.8831 14.3332 33.8831 14.0332 33.8664 13.7165C35.2664 12.7165 36.4664 11.4498 37.4331 9.99984Z" fill="white"/>
</svg>
