<svg width="40" height="40" viewBox="0 0 40 40" fill="none" xmlns="http://www.w3.org/2000/svg">
<path d="M37.4326 10.0001C36.1493 10.5834 34.7659 10.9667 33.3326 11.1501C34.7993 10.2667 35.9326 8.86675 36.4659 7.18341C35.0826 8.01675 33.5493 8.60008 31.9326 8.93341C30.6159 7.50008 28.7659 6.66675 26.6659 6.66675C22.7493 6.66675 19.5493 9.86675 19.5493 13.8167C19.5493 14.3834 19.6159 14.9334 19.7326 15.4501C13.7993 15.1501 8.51592 12.3001 4.99925 7.98341C4.38258 9.03341 4.03258 10.2667 4.03258 11.5667C4.03258 14.0501 5.28258 16.2501 7.21592 17.5001C6.03258 17.5001 4.93259 17.1667 3.96592 16.6667V16.7167C3.96592 20.1834 6.43259 23.0834 9.69925 23.7334C8.65046 24.0204 7.54941 24.0604 6.48258 23.8501C6.93526 25.2709 7.82181 26.5141 9.01761 27.405C10.2134 28.2958 11.6583 28.7896 13.1493 28.8167C10.622 30.8175 7.48925 31.8989 4.26592 31.8834C3.69925 31.8834 3.13258 31.8501 2.56592 31.7834C5.73258 33.8167 9.49925 35.0001 13.5326 35.0001C26.6659 35.0001 33.8826 24.1001 33.8826 14.6501C33.8826 14.3334 33.8826 14.0334 33.8659 13.7167C35.2659 12.7167 36.4659 11.4501 37.4326 10.0001Z" fill="white"/>
</svg>
