<svg width="40" height="40" viewBox="0 0 40 40" fill="none" xmlns="http://www.w3.org/2000/svg">
<path d="M37.4328 10.0001C36.1495 10.5834 34.7662 10.9667 33.3328 11.1501C34.7995 10.2667 35.9328 8.86675 36.4662 7.18341C35.0828 8.01675 33.5495 8.60008 31.9328 8.93341C30.6162 7.50008 28.7662 6.66675 26.6662 6.66675C22.7495 6.66675 19.5495 9.86675 19.5495 13.8167C19.5495 14.3834 19.6162 14.9334 19.7328 15.4501C13.7995 15.1501 8.51616 12.3001 4.9995 7.98341C4.38283 9.03341 4.03283 10.2667 4.03283 11.5667C4.03283 14.0501 5.28283 16.2501 7.21616 17.5001C6.03283 17.5001 4.93283 17.1667 3.96616 16.6667V16.7167C3.96616 20.1834 6.43283 23.0834 9.6995 23.7334C8.65071 24.0204 7.54965 24.0604 6.48283 23.8501C6.93551 25.2709 7.82206 26.5141 9.01786 27.405C10.2137 28.2958 11.6586 28.7896 13.1495 28.8167C10.6222 30.8175 7.48949 31.8989 4.26616 31.8834C3.6995 31.8834 3.13283 31.8501 2.56616 31.7834C5.73283 33.8167 9.4995 35.0001 13.5328 35.0001C26.6662 35.0001 33.8828 24.1001 33.8828 14.6501C33.8828 14.3334 33.8828 14.0334 33.8662 13.7167C35.2662 12.7167 36.4662 11.4501 37.4328 10.0001Z" fill="white"/>
</svg>
