<svg width="743" height="582" viewBox="0 0 743 582" fill="none" xmlns="http://www.w3.org/2000/svg">
<g clip-path="url(#clip0)">
<path opacity="0.1" d="M624.229 24.8192C649.818 33.3096 659.67 38.176 684.998 47.4214C695.372 51.2101 706.034 55.2528 714.019 62.8784C722.402 70.8883 726.975 82.0624 730.208 93.1953C737.143 117.095 738.578 144.055 726.487 165.806C715.427 185.711 693.882 199.974 689.042 222.212C685.472 238.61 691.967 255.275 695.152 271.747C699.274 293.223 697.772 315.398 690.793 336.122C684.14 355.78 671.163 374.854 651.548 381.628C628.733 389.501 603.88 378.979 579.753 379.734C552.682 380.585 528.096 395.616 507.203 412.844C486.311 430.072 467.458 450.073 444.279 464.013C420.641 478.214 393.59 485.469 366.937 492.566C352.114 496.513 337.133 500.48 321.802 500.988C304.85 501.551 287.933 497.824 272.115 491.694C242.791 480.342 216.914 460.691 197.045 436.325C185.483 422.152 175.48 403.853 180.533 386.282C184.206 373.515 194.951 364.318 203.19 353.906C225.119 326.334 229.918 286.202 215.109 254.238C207.605 238.04 195.768 224.326 185.27 209.885C174.773 195.444 165.271 179.39 163.643 161.613C162.016 143.836 170.262 124.103 186.747 117.246C206.966 108.845 235.665 119.881 248.716 102.297C253.66 95.6319 254.291 86.8533 255.802 78.6992C263.842 35.4717 304.905 0.768829 348.846 0.013823C383.12 -0.576455 415.443 16.974 449.669 18.5938C484.059 20.2205 518.985 5.73814 552.284 14.3933C564.498 17.6123 575.744 23.7897 587.841 27.4343C599.939 31.0789 613.931 31.7653 624.353 24.6408" fill="#6C63FF"/>
<path opacity="0.1" d="M638.799 125.461H338.432V146.238H638.799V125.461Z" fill="#6C63FF"/>
<path opacity="0.1" d="M638.799 215.17H338.432V235.946H638.799V215.17Z" fill="#6C63FF"/>
<path opacity="0.1" d="M638.799 308.653H338.432V329.43H638.799V308.653Z" fill="#6C63FF"/>
<path opacity="0.1" d="M468.776 71.6433H449.889V125.468H468.776V71.6433Z" fill="#6C63FF"/>
<path opacity="0.1" d="M468.776 80.1404H449.889V83.9154H468.776V80.1404Z" fill="#6C63FF"/>
<path opacity="0.1" d="M468.776 109.414H449.889V113.189H468.776V109.414Z" fill="#6C63FF"/>
<path opacity="0.1" d="M497.118 71.6433H478.23V125.468H497.118V71.6433Z" fill="#6C63FF"/>
<path opacity="0.1" d="M497.118 80.1404H478.23V83.9154H497.118V80.1404Z" fill="#6C63FF"/>
<path opacity="0.1" d="M497.118 109.414H478.23V113.189H497.118V109.414Z" fill="#6C63FF"/>
<path opacity="0.1" d="M525.454 71.6433H506.566V125.468H525.454V71.6433Z" fill="#6C63FF"/>
<path opacity="0.1" d="M525.454 80.1404H506.566V83.9154H525.454V80.1404Z" fill="#6C63FF"/>
<path opacity="0.1" d="M525.454 109.414H506.566V113.189H525.454V109.414Z" fill="#6C63FF"/>
<path opacity="0.1" d="M553.788 71.6433H534.9V125.468H553.788V71.6433Z" fill="#6C63FF"/>
<path opacity="0.1" d="M553.788 80.1404H534.9V83.9154H553.788V80.1404Z" fill="#6C63FF"/>
<path opacity="0.1" d="M553.788 109.414H534.9V113.189H553.788V109.414Z" fill="#6C63FF"/>
<path opacity="0.1" d="M542.609 253.422L525.725 261.885L549.858 310.001L566.741 301.537L542.609 253.422Z" fill="#6C63FF"/>
<path opacity="0.1" d="M546.419 261.021L529.535 269.485L531.228 272.859L548.112 264.396L546.419 261.021Z" fill="#6C63FF"/>
<path opacity="0.1" d="M559.546 287.183L542.662 295.646L544.355 299.021L561.239 290.557L559.546 287.183Z" fill="#6C63FF"/>
<path opacity="0.1" d="M558.513 162.292H539.625V216.117H558.513V162.292Z" fill="#6C63FF"/>
<path opacity="0.1" d="M558.513 170.789H539.625V174.564H558.513V170.789Z" fill="#6C63FF"/>
<path opacity="0.1" d="M558.513 200.063H539.625V203.838H558.513V200.063Z" fill="#6C63FF"/>
<path opacity="0.1" d="M586.847 162.292H567.959V216.117H586.847V162.292Z" fill="#6C63FF"/>
<path opacity="0.1" d="M586.847 170.789H567.959V174.564H586.847V170.789Z" fill="#6C63FF"/>
<path opacity="0.1" d="M586.847 200.063H567.959V203.838H586.847V200.063Z" fill="#6C63FF"/>
<path opacity="0.1" d="M615.181 162.292H596.293V216.117H615.181V162.292Z" fill="#6C63FF"/>
<path opacity="0.1" d="M615.181 170.789H596.293V174.564H615.181V170.789Z" fill="#6C63FF"/>
<path opacity="0.1" d="M615.181 200.063H596.293V203.838H615.181V200.063Z" fill="#6C63FF"/>
<path opacity="0.1" d="M383.772 254.828H364.885V308.653H383.772V254.828Z" fill="#6C63FF"/>
<path opacity="0.1" d="M383.772 263.326H364.885V267.101H383.772V263.326Z" fill="#6C63FF"/>
<path opacity="0.1" d="M383.772 292.599H364.885V296.374H383.772V292.599Z" fill="#6C63FF"/>
<path opacity="0.1" d="M412.106 254.828H393.219V308.653H412.106V254.828Z" fill="#6C63FF"/>
<path opacity="0.1" d="M412.106 263.326H393.219V267.101H412.106V263.326Z" fill="#6C63FF"/>
<path opacity="0.1" d="M412.106 292.599H393.219V296.374H412.106V292.599Z" fill="#6C63FF"/>
<path opacity="0.1" d="M440.442 254.828H421.555V308.653H440.442V254.828Z" fill="#6C63FF"/>
<path opacity="0.1" d="M440.442 263.326H421.555V267.101H440.442V263.326Z" fill="#6C63FF"/>
<path opacity="0.1" d="M440.442 292.599H421.555V296.374H440.442V292.599Z" fill="#6C63FF"/>
<path opacity="0.1" d="M468.776 254.828H449.889V308.653H468.776V254.828Z" fill="#6C63FF"/>
<path opacity="0.1" d="M468.776 263.326H449.889V267.101H468.776V263.326Z" fill="#6C63FF"/>
<path opacity="0.1" d="M468.776 292.599H449.889V296.374H468.776V292.599Z" fill="#6C63FF"/>
<path opacity="0.1" d="M497.118 254.828H478.23V308.653H497.118V254.828Z" fill="#6C63FF"/>
<path opacity="0.1" d="M497.118 263.326H478.23V267.101H497.118V263.326Z" fill="#6C63FF"/>
<path opacity="0.1" d="M497.118 292.599H478.23V296.374H497.118V292.599Z" fill="#6C63FF"/>
<path opacity="0.1" d="M525.454 254.828H506.566V308.653H525.454V254.828Z" fill="#6C63FF"/>
<path opacity="0.1" d="M525.454 263.326H506.566V267.101H525.454V263.326Z" fill="#6C63FF"/>
<path opacity="0.1" d="M525.454 292.599H506.566V296.374H525.454V292.599Z" fill="#6C63FF"/>
<g opacity="0.1">
<path opacity="0.1" d="M478.609 196.549C478.609 196.549 472.883 194.606 470.123 199.651C469.396 201.019 469.026 202.549 469.048 204.098C469.069 205.646 469.482 207.165 470.247 208.512C472.059 211.786 475.787 216.062 482.859 215.657C488.853 215.335 490.851 210.763 491.393 206.508C491.599 204.912 491.393 203.291 490.793 201.798C490.193 200.305 489.22 198.991 487.967 197.981C486.714 196.971 485.223 196.3 483.636 196.031C482.049 195.763 480.42 195.905 478.904 196.446L478.609 196.549Z" fill="#6C63FF"/>
<path opacity="0.1" d="M471.44 208.965C470.675 207.618 470.263 206.1 470.242 204.551C470.22 203.002 470.59 201.472 471.317 200.104C474.063 195.059 479.803 197.002 479.803 197.002L480.098 196.899C482.281 196.109 484.681 196.163 486.826 197.05C485.641 196.344 484.313 195.91 482.939 195.78C481.566 195.649 480.18 195.825 478.883 196.295L478.587 196.398C478.587 196.398 472.861 194.455 470.101 199.5C469.374 200.868 469.005 202.398 469.026 203.947C469.048 205.496 469.46 207.014 470.225 208.361C471.641 211.067 473.919 213.224 476.699 214.491C474.475 213.163 472.656 211.252 471.44 208.965Z" fill="#6C63FF"/>
<path opacity="0.2" d="M475.635 198.972C475.635 198.972 477.756 200.64 482.919 198.972H475.635Z" fill="#6C63FF"/>
<path opacity="0.1" d="M475.176 186.844C475.176 186.844 478.815 196.7 478.513 199.281L481.396 198.979C481.396 198.979 476.542 190.337 477.757 186.844H475.176Z" fill="#6C63FF"/>
<path opacity="0.2" d="M475.176 186.844C475.176 186.844 478.815 196.7 478.513 199.281L481.396 198.979C481.396 198.979 476.542 190.337 477.757 186.844H475.176Z" fill="#6C63FF"/>
<path opacity="0.1" d="M490.04 187.667C490.04 187.667 484.307 184.736 481.746 187.159C479.185 189.582 478.787 195.766 478.787 195.766C478.787 195.766 488.131 197.05 490.04 187.667Z" fill="#6C63FF"/>
<path opacity="0.1" d="M490.04 187.667C490.04 187.667 484.307 184.736 481.746 187.159C479.185 189.582 478.787 195.766 478.787 195.766C478.787 195.766 488.131 197.05 490.04 187.667Z" fill="#6C63FF"/>
<path opacity="0.1" d="M478.787 195.766C478.787 195.766 480.291 188.587 490.04 187.667L478.787 195.766Z" fill="#6C63FF"/>
</g>
<g opacity="0.1">
<path opacity="0.1" d="M599.494 290.032C599.494 290.032 593.768 288.09 591.008 293.135C590.281 294.503 589.911 296.032 589.933 297.581C589.954 299.13 590.366 300.648 591.131 301.996C592.944 305.27 596.672 309.546 603.744 309.141C609.737 308.818 611.735 304.247 612.278 299.991C612.484 298.396 612.277 296.774 611.678 295.281C611.078 293.788 610.105 292.474 608.852 291.464C607.599 290.455 606.107 289.783 604.521 289.515C602.934 289.246 601.305 289.389 599.789 289.929L599.494 290.032Z" fill="#6C63FF"/>
<path opacity="0.1" d="M592.347 302.449C591.582 301.101 591.169 299.583 591.148 298.034C591.126 296.485 591.496 294.956 592.223 293.588C594.969 288.543 600.709 290.485 600.709 290.485L601.004 290.382C603.187 289.593 605.587 289.647 607.733 290.533C606.547 289.828 605.219 289.394 603.846 289.263C602.472 289.133 601.086 289.309 599.789 289.778L599.494 289.881C599.494 289.881 593.768 287.939 591.008 292.984C590.281 294.352 589.911 295.881 589.933 297.43C589.954 298.979 590.366 300.497 591.131 301.845C592.547 304.551 594.826 306.708 597.606 307.974C595.381 306.646 593.562 304.736 592.347 302.449Z" fill="#6C63FF"/>
<path opacity="0.2" d="M596.535 292.455C596.535 292.455 598.657 294.123 603.82 292.455H596.535Z" fill="#6C63FF"/>
<path opacity="0.1" d="M596.082 280.327C596.082 280.327 599.721 290.183 599.419 292.764L602.302 292.462C602.302 292.462 597.448 283.821 598.664 280.327H596.082Z" fill="#6C63FF"/>
<path opacity="0.2" d="M596.082 280.327C596.082 280.327 599.721 290.183 599.419 292.764L602.302 292.462C602.302 292.462 597.448 283.821 598.664 280.327H596.082Z" fill="#6C63FF"/>
<path opacity="0.1" d="M610.938 281.151C610.938 281.151 605.206 278.22 602.645 280.643C600.084 283.066 599.686 289.25 599.686 289.25C599.686 289.25 609.057 290.533 610.938 281.151Z" fill="#6C63FF"/>
<path opacity="0.1" d="M610.938 281.151C610.938 281.151 605.206 278.22 602.645 280.643C600.084 283.066 599.686 289.25 599.686 289.25C599.686 289.25 609.057 290.533 610.938 281.151Z" fill="#6C63FF"/>
<path opacity="0.1" d="M599.693 289.243C599.693 289.243 601.197 282.063 610.946 281.144L599.693 289.243Z" fill="#6C63FF"/>
</g>
<path d="M23.1094 514.07C23.1094 514.07 114.107 601.369 365.392 578.033C616.677 554.696 716.917 569.796 716.917 569.796C716.917 569.796 762.23 525.869 701.125 505.964C640.021 486.059 486.229 494.296 438.169 494.296C390.109 494.296 290.556 470.273 290.556 470.273L23.1094 514.07Z" fill="#6C63FF"/>
<path d="M673.224 536.199C673.224 536.199 658.312 460.65 689.015 408.87C701.902 387.14 707.834 361.957 705.115 336.843C703.801 324.927 701.397 313.157 697.934 301.68" stroke="#535461" stroke-width="2" stroke-miterlimit="10"/>
<path d="M717.096 268.933C716.265 277.945 697.535 302.565 697.535 302.565C697.535 302.565 683.612 274.925 684.436 265.906C684.633 263.763 685.25 261.679 686.252 259.774C687.255 257.869 688.623 256.181 690.278 254.804C691.934 253.428 693.844 252.391 695.9 251.753C697.957 251.114 700.118 250.887 702.262 251.084C704.406 251.281 706.491 251.898 708.396 252.9C710.302 253.903 711.991 255.27 713.368 256.925C714.744 258.58 715.782 260.49 716.42 262.545C717.059 264.601 717.286 266.762 717.089 268.906L717.096 268.933Z" fill="#6C63FF"/>
<path d="M739.505 321.351C733.909 328.469 704.785 338.977 704.785 338.977C704.785 338.977 708.122 308.207 713.711 301.09C715.041 299.396 716.693 297.982 718.57 296.927C720.448 295.871 722.515 295.196 724.654 294.94C726.792 294.683 728.961 294.85 731.035 295.431C733.109 296.013 735.048 296.997 736.742 298.327C738.435 299.657 739.85 301.308 740.906 303.185C741.961 305.062 742.637 307.129 742.893 309.267C743.15 311.405 742.983 313.572 742.401 315.646C741.82 317.719 740.836 319.658 739.505 321.351Z" fill="#6C63FF"/>
<path d="M730.476 406.578C722.052 409.9 691.609 404.272 691.609 404.272C691.609 404.272 710.03 379.398 718.454 376.075C720.458 375.286 722.597 374.899 724.75 374.937C726.903 374.974 729.027 375.435 731.002 376.293C732.977 377.152 734.763 378.39 736.259 379.938C737.755 381.487 738.931 383.315 739.721 385.317C740.51 387.32 740.897 389.459 740.86 391.611C740.822 393.764 740.361 395.887 739.503 397.862C738.645 399.836 737.405 401.622 735.857 403.117C734.308 404.613 732.48 405.789 730.476 406.578Z" fill="#6C63FF"/>
<path d="M709.124 469.524C701.379 474.219 670.422 473.821 670.422 473.821C670.422 473.821 684.373 446.188 692.111 441.493C695.829 439.239 700.291 438.553 704.515 439.587C708.739 440.622 712.378 443.291 714.634 447.008C716.889 450.725 717.574 455.186 716.54 459.409C715.505 463.631 712.835 467.27 709.117 469.524H709.124Z" fill="#6C63FF"/>
<path d="M670.334 337.577C676.224 344.441 705.761 353.727 705.761 353.727C705.761 353.727 701.133 323.122 695.242 316.252C692.414 312.949 688.389 310.906 684.053 310.571C679.717 310.235 675.425 311.636 672.122 314.464C668.819 317.291 666.775 321.315 666.44 325.65C666.104 329.985 667.505 334.275 670.334 337.577Z" fill="#6C63FF"/>
<path d="M646.304 411.513C653.98 416.317 684.945 416.317 684.945 416.317C684.945 416.317 671.364 388.499 663.661 383.701C659.974 381.396 655.521 380.651 651.284 381.628C647.047 382.605 643.371 385.224 641.066 388.911C638.761 392.597 638.014 397.048 638.992 401.284C639.969 405.52 642.59 409.194 646.277 411.499L646.304 411.513Z" fill="#6C63FF"/>
<path d="M632.806 486.581C639.561 492.607 670.073 497.851 670.073 497.851C670.073 497.851 661.394 468.145 654.632 462.112C653.025 460.679 651.152 459.576 649.119 458.867C647.086 458.157 644.933 457.855 642.783 457.977C640.633 458.1 638.529 458.644 636.589 459.58C634.65 460.515 632.914 461.823 631.481 463.43C630.047 465.036 628.944 466.909 628.234 468.941C627.525 470.973 627.222 473.126 627.345 475.275C627.467 477.424 628.012 479.528 628.948 481.467C629.883 483.405 631.192 485.141 632.799 486.574L632.806 486.581Z" fill="#6C63FF"/>
<path opacity="0.1" d="M581.553 109.799L571.412 105.584L584.979 72.9473L595.119 77.1617L581.553 109.799ZM591.893 70.5794C590.722 70.1004 589.721 69.2852 589.014 68.237C588.307 67.1887 587.927 65.9544 587.923 64.6903C587.918 63.4263 588.288 62.1891 588.986 61.1354C589.685 60.0818 590.681 59.2589 591.847 58.7709C593.013 58.283 594.299 58.1518 595.54 58.3941C596.781 58.6364 597.922 59.2412 598.819 60.132C599.716 61.0229 600.329 62.1597 600.58 63.3987C600.83 64.6377 600.708 65.9232 600.228 67.0926C599.58 68.6558 598.34 69.8996 596.779 70.5527C595.217 71.2059 593.461 71.2155 591.893 70.5794ZM619.5 125.544L609.379 121.343L615.984 105.454C617.557 101.665 619.5 96.7781 614.302 94.6229C609.105 92.4677 606.51 96.2084 604.745 100.464L598.03 116.621L587.904 112.414L601.47 79.7767L611.192 83.8194L609.338 88.274L609.482 88.3357C611.899 86.3315 616.348 85 621.264 87.0522C631.521 91.3146 630.601 98.8509 626.956 107.643L619.506 125.571L619.5 125.544Z" fill="#6C63FF"/>
<path opacity="0.1" d="M368.47 65.2805L364.439 75.5761V117.637H378.761V125.235H386.822L394.422 117.637H406.094L421.754 101.981V65.2805H368.47ZM416.365 99.2833L407.439 108.206H393.083L385.483 115.838V108.24H373.392V70.6754H416.358L416.365 99.2833ZM407.439 80.9366V96.579H402.07V80.9709L407.439 80.9366ZM393.117 80.9366V96.579H387.748V80.9709L393.117 80.9366Z" fill="#6C63FF"/>
<path d="M298.651 459.648L298.328 432.008V431.198L293.968 60.2906C293.968 59.8376 293.968 59.3914 293.927 58.9178C293.788 55.9544 293.292 53.0185 292.451 50.1735C292.382 49.947 292.321 49.7274 292.252 49.4871C292.183 49.2469 292.115 49.0684 292.039 48.8557C291.964 48.6429 291.861 48.3272 291.764 48.0663C291.668 47.8055 291.62 47.6888 291.552 47.4967C291.483 47.3045 291.339 46.9476 291.229 46.673L291.002 46.1376C290.886 45.8562 290.762 45.5817 290.638 45.3071L290.398 44.7992C290.265 44.5247 290.13 44.2501 289.993 43.9756L289.739 43.4814C289.597 43.2114 289.451 42.9415 289.3 42.6715L289.032 42.191C288.874 41.9233 288.716 41.6557 288.558 41.3948L288.277 40.935C288.105 40.6673 287.933 40.3996 287.755 40.1388L287.466 39.7887C287.274 39.5073 287.075 39.2328 286.876 38.9582L286.622 38.6082C286.334 38.2192 286.036 37.8372 285.729 37.4619C281.93 32.7449 277.055 29.0057 271.514 26.5566C265.974 24.1076 259.927 23.0199 253.879 23.3845L65.7591 34.4488C61.406 34.6996 57.1284 35.6955 53.1124 37.3933C25.8007 45.7464 -0.618588 63.8803 0.0130569 96.6613L7.0916 479.751C7.67519 511.407 34.2317 536.72 65.0794 542.081C71.3566 543.908 77.9993 544.085 84.3651 542.595L269.471 499.766C277.816 497.872 285.262 493.184 290.575 486.479C295.889 479.774 298.75 471.455 298.685 462.901L298.651 459.648Z" fill="url(#paint0_linear)"/>
<path d="M3.20721 101.514L10.1347 480.548C10.7801 515.861 43.7355 543.241 78.5927 543.241L63.0007 40.7017L61.6275 41.0517C32.7847 48.3341 2.5687 66.4611 3.20721 101.514Z" fill="#535461"/>
<path opacity="0.1" d="M3.20721 101.514L10.1347 480.548C10.7801 515.861 43.7355 543.241 78.5927 543.241L63.0007 40.7017L61.6275 41.0517C32.7847 48.3341 2.5687 66.4611 3.20721 101.514Z" fill="black"/>
<path d="M295.493 463.876C295.581 472.297 292.797 480.497 287.601 487.126C282.404 493.754 275.104 498.416 266.904 500.343L85.7522 542.726C80.3725 543.986 74.779 544.026 69.3819 542.843C63.9847 541.661 58.9206 539.286 54.561 535.892C50.2014 532.499 46.6567 528.173 44.1869 523.232C41.7171 518.291 40.3847 512.86 40.2875 507.337L39.7382 475.846V475.53L38.0218 378.622L32.8107 83.4489L32.7009 77.553C32.5353 68.0049 36.0666 58.7621 42.5571 51.7555C49.0475 44.7489 57.9951 40.5205 67.5306 39.9537L251.648 29.0061C261.378 28.4196 270.946 31.6951 278.274 38.1211C285.602 44.547 290.097 53.6041 290.783 63.3246C290.845 64.0452 290.872 64.7865 290.879 65.5278L295.143 432.523V434.417L295.452 460.671L295.493 463.876Z" fill="#6C63FF"/>
<path opacity="0.1" d="M295.493 463.876C295.581 472.297 292.797 480.497 287.601 487.126C282.404 493.754 275.104 498.416 266.904 500.343L85.7522 542.726C80.3725 543.986 74.779 544.026 69.3819 542.843C63.9847 541.661 58.9206 539.286 54.561 535.892C50.2014 532.499 46.6567 528.173 44.1869 523.232C41.7171 518.291 40.3847 512.86 40.2875 507.337L39.7382 475.846V475.53L38.0218 378.622L32.8107 83.4489L32.7009 77.553C32.5353 68.0049 36.0666 58.7621 42.5571 51.7555C49.0475 44.7489 57.9951 40.5205 67.5306 39.9537L251.648 29.0061C261.378 28.4196 270.946 31.6951 278.274 38.1211C285.602 44.547 290.097 53.6041 290.783 63.3246C290.845 64.0452 290.872 64.7865 290.879 65.5278L295.143 432.523V434.417L295.452 460.671L295.493 463.876Z" fill="black"/>
<path d="M295.459 460.671L130.518 478.221L117.885 57.408L282.813 42.8982C287.959 49.3342 290.797 57.3095 290.873 65.5484L295.459 460.671Z" fill="#6C63FF"/>
<path d="M295.15 434.417L39.7321 475.53L38.0156 378.629L127.181 366.707L295.15 434.417Z" fill="#6C63FF"/>
<path opacity="0.1" d="M295.15 434.417L39.7321 475.53L38.0156 378.629L127.181 366.707L295.15 434.417Z" fill="white"/>
<path d="M295.493 463.876C295.581 472.297 292.797 480.497 287.601 487.125C282.404 493.754 275.105 498.416 266.904 500.343L85.7523 542.726C80.3726 543.986 74.7791 544.026 69.3819 542.843C63.9847 541.661 58.9207 539.286 54.5611 535.892C50.2015 532.499 46.6568 528.173 44.187 523.232C41.7171 518.291 40.3848 512.86 40.2875 507.337L39.7383 475.846L295.143 432.516V434.41L295.452 460.664L295.493 463.876Z" fill="#535461"/>
<path d="M290.77 63.3246L32.8049 83.4489L32.695 77.553C32.5294 68.0049 36.0607 58.7621 42.5512 51.7555C49.0417 44.7489 57.9893 40.5205 67.5248 39.9537L251.649 29.0061C261.379 28.4196 270.947 31.6951 278.275 38.1211C285.603 44.547 290.098 53.6041 290.784 63.3246H290.77Z" fill="#535461"/>
<path d="M180.21 506.218C190.186 506.218 198.274 498.133 198.274 488.159C198.274 478.186 190.186 470.101 180.21 470.101C170.234 470.101 162.146 478.186 162.146 488.159C162.146 498.133 170.234 506.218 180.21 506.218Z" fill="white"/>
<path d="M186.535 54.0105L155.824 55.6029V53.7977L186.535 52.2053V54.0105Z" fill="white"/>
<path d="M23.1101 129.525C23.1101 126.492 20.651 124.034 17.6176 124.034C14.5841 124.034 12.125 126.492 12.125 129.525V154.152C12.125 157.184 14.5841 159.643 17.6176 159.643C20.651 159.643 23.1101 157.184 23.1101 154.152V129.525Z" fill="white"/>
<path d="M147.694 57.4079C148.692 57.4079 149.5 56.5997 149.5 55.6028C149.5 54.6058 148.692 53.7976 147.694 53.7976C146.697 53.7976 145.889 54.6058 145.889 55.6028C145.889 56.5997 146.697 57.4079 147.694 57.4079Z" fill="white"/>
<path d="M51.7258 180.268C52.1526 181.263 52.7821 182.159 53.574 182.897C54.366 183.636 55.3032 184.201 56.3259 184.558C57.239 184.853 58.2002 184.956 59.1271 185.183C63.5555 186.288 66.6793 190.118 70.7301 192.232C71.0533 192.431 71.4219 192.544 71.8012 192.561H71.9385C72.023 192.569 72.108 192.569 72.1925 192.561C72.6082 192.517 73.0019 192.352 73.3254 192.087L73.5039 191.95C73.9439 193.748 74.0117 195.616 73.703 197.441C72.0964 197.441 61.6948 198.079 63.116 210.365C64.6608 223.667 80.0881 242.295 80.0881 242.295C80.0881 242.295 90.8878 253.318 87.4138 290.952L87.0293 309.196C87.0293 309.196 91.1487 308.571 96.4697 307.947C96.5932 308.189 96.7191 308.418 96.8473 308.633C98.3578 311.27 100.282 313.647 102.546 315.675L111.327 336.534C111.327 336.534 112.082 337.907 113.195 340.034C113.298 344.455 110.551 348.319 110.551 348.319C93.5792 353.261 86.638 371.127 86.638 371.127C86.638 371.127 77.026 376.865 74.9663 383.255C70.9224 386.529 71.197 395.459 71.197 395.459C71.197 395.459 85.4708 403.064 95.9135 407.244C97.1223 407.728 98.3822 408.073 99.6691 408.273L97.3485 413.078C94.9317 413.949 94.7532 425.892 94.7532 425.892C94.7532 425.892 120.211 444.136 127.921 445.282C135.632 446.428 142.195 441.102 134.101 437.3C127.578 434.239 120.301 422.543 117.719 418.081C120.946 413.654 131.135 399.309 131.787 393.557C132.576 386.749 142.188 381.045 142.188 381.045C156.071 366.219 146.816 348.731 145.662 339.609C145.662 339.437 145.614 339.245 145.58 339.039C144.73 335.087 143.641 331.191 142.319 327.371C143.836 317.803 145.065 302.861 145.752 292.997C148.814 293.986 151.814 295.146 151.814 295.146C157.444 283.718 138.316 236.667 132.81 223.626C136.023 222.562 141.557 220.881 149.5 219.123C162.998 216.083 163.774 209.24 163.774 209.24L174.189 181.099C173.304 181.497 171.944 181.476 170.352 181.202C170.352 180.968 170.352 180.714 170.352 180.44C170.434 177.77 170.688 173.507 171.471 172.732C171.471 172.732 168.91 172.732 165.8 172.457V172.08L167.173 154.872C167.173 154.872 165.243 135.867 158.687 138.523C153.421 140.658 154.128 157.741 154.608 164.392C154.737 166.082 155.236 167.722 156.071 169.197L156.51 169.979L156.812 170.515C156.524 170.378 156.246 170.219 155.982 170.041V175.93C155.254 175.58 154.821 175.367 154.821 175.367C155.206 181.833 147.104 203.509 147.104 203.509C147.104 203.509 132.83 201.985 128.203 205.032C124.811 207.263 120.376 202.973 118.255 200.495L128.203 178.806C127.002 178.594 125.817 178.305 124.653 177.941C124.695 177.681 124.75 177.399 124.798 177.111C125.306 174.365 126.212 170.549 127.434 170.069C125.664 169.104 123.829 168.265 121.941 167.557C121.983 167.337 122.031 167.104 122.086 166.87C122.807 163.068 123.939 154.852 121.639 149.182C118.557 141.577 117.396 126.752 111.609 130.177C107.015 132.922 106.803 149.251 106.906 155.888C106.932 157.686 107.384 159.453 108.224 161.043L110.455 165.264L110.764 165.847L110.455 165.902V171.098C109.48 170.48 108.91 170.089 108.91 170.089C108.718 177.399 103.878 187.139 99.1473 194.977L96.7443 193.247L96.1538 192.822C96.148 192.746 96.148 192.671 96.1538 192.595C96.1538 192.595 95.1652 192.314 93.5998 191.998C91.6568 188.312 90.572 183.865 89.9678 180.172C89.906 179.788 89.8511 179.41 89.7962 179.046C90.6944 177.069 91.1624 174.924 91.1693 172.752C91.1478 169.038 89.806 165.452 87.3837 162.636C84.9613 159.819 81.6162 157.956 77.946 157.378C78.4197 156.849 78.6326 156.691 78.7699 156.691H78.8728C79.4893 156.728 80.101 156.564 80.6167 156.225C81.8388 155.627 83.2188 154.742 83.212 153.404C83.212 152.422 82.4293 151.612 81.6054 151.056C79.6143 149.725 79.5457 147.425 77.7057 147.624C77.3497 147.593 76.9912 147.64 76.6552 147.762C74.9594 148.318 73.4833 149.381 71.8492 150.054C70.694 150.525 69.4694 150.803 68.2241 150.878C67.4286 150.876 66.6343 150.938 65.8486 151.063C65.2204 151.221 64.6173 151.466 64.0566 151.791C60.5689 153.692 56.5524 156.595 55.4333 160.35C54.3829 163.878 55.8384 168.456 53.1333 170.995C52.6355 171.383 52.1757 171.818 51.7602 172.292C51.4133 172.815 51.1795 173.404 51.0736 174.022C50.6401 176.121 50.868 178.304 51.7258 180.268ZM122.278 363.069C122.422 364.888 122.079 366.178 121.015 366.597C115.227 368.876 108.656 389.782 108.656 389.782L104.269 398.836C100.789 396.212 97.4584 393.396 94.2932 390.4L94.767 387.126C94.767 387.126 107.125 378.004 107.88 375.341C108.492 373.193 118.467 365.814 122.278 363.069Z" fill="url(#paint1_linear)"/>
<path d="M130.86 221.244C130.86 221.244 157.087 281.933 150.722 295.043C150.722 295.043 140.231 290.924 138.728 291.673C137.224 292.421 122.25 213.378 122.25 213.378L130.86 221.244Z" fill="#C4C8E2"/>
<path opacity="0.05" d="M130.86 221.244C130.86 221.244 157.087 281.933 150.722 295.043C150.722 295.043 140.231 290.924 138.728 291.673C137.224 292.421 122.25 213.378 122.25 213.378L130.86 221.244Z" fill="black"/>
<path d="M116.621 414.546C116.621 414.546 125.615 431.404 133.483 435.137C141.351 438.871 134.98 444.129 127.489 443.003C119.999 441.878 95.2617 423.895 95.2617 423.895C95.2617 423.895 95.4334 412.123 97.7814 411.266C100.13 410.408 116.621 414.546 116.621 414.546Z" fill="#4C495A"/>
<path d="M93.0096 387.195C93.0096 387.195 105.752 399.934 111.369 401.052C116.985 402.171 106.494 409.666 96.3807 405.548C86.2675 401.43 72.3988 393.955 72.3988 393.955C72.3988 393.955 72.0212 381.964 78.3925 380.846C84.7639 379.727 93.0096 387.195 93.0096 387.195Z" fill="#4C495A"/>
<path d="M145.47 283.052C145.47 283.052 142.875 328.75 139.442 335.127C136.009 341.503 123.328 360.975 123.328 360.975C123.328 360.975 108.711 371.463 107.963 374.085C107.215 376.707 95.2615 385.719 95.2615 385.719L94.5131 390.963C94.5131 390.963 74.6506 389.837 75.7766 383.097C76.9026 376.357 87.3934 369.932 87.3934 369.932C87.3934 369.932 94.1286 352.354 110.606 347.488C110.606 347.488 115.852 339.993 111.355 334.001C111.355 334.001 100.116 305.908 93.7441 302.531C87.3728 299.154 96.3668 279.682 96.3668 279.682L145.47 283.052Z" fill="#5F5D7E"/>
<path opacity="0.05" d="M145.47 283.052C145.47 283.052 142.875 328.75 139.442 335.127C136.009 341.503 123.328 360.975 123.328 360.975C123.328 360.975 108.711 371.463 107.963 374.085C107.215 376.707 95.2615 385.719 95.2615 385.719L94.5131 390.963C94.5131 390.963 74.6506 389.837 75.7766 383.097C76.9026 376.357 87.3934 369.932 87.3934 369.932C87.3934 369.932 94.1286 352.354 110.606 347.488C110.606 347.488 115.852 339.993 111.355 334.001C111.355 334.001 100.116 305.908 93.7441 302.531C87.3728 299.154 96.3668 279.682 96.3668 279.682L145.47 283.052Z" fill="black"/>
<path d="M108.753 388.32L96.7589 413.421C98.6333 419.79 116.621 417.539 116.621 417.539C116.621 417.539 130.518 398.808 131.204 392.068C131.891 385.328 141.324 379.713 141.324 379.713C154.815 365.1 145.821 347.873 144.695 338.881C144.695 338.71 144.647 338.524 144.613 338.325C143.617 332.299 137.555 314.947 132.838 301.948C129.659 293.196 127.085 286.422 127.085 286.422C127.085 286.422 101.977 287.548 96.7315 296.539C94.3285 300.657 95.4064 304.94 97.2739 308.379C98.7384 310.973 100.609 313.315 102.814 315.318L111.349 335.909C111.349 335.909 126.336 363.254 120.713 365.505C115.09 367.757 108.753 388.32 108.753 388.32Z" fill="#5F5D7E"/>
<path d="M153.496 166.198C153.615 167.872 154.101 169.501 154.917 170.968L155.343 171.737L157.458 175.546H164.2L164.344 173.775L165.717 156.815C165.717 156.815 163.843 138.084 157.478 140.706C152.349 142.806 153.029 159.636 153.496 166.198Z" fill="#FDC2CC"/>
<path opacity="0.1" d="M155.35 171.737L157.464 175.546H164.206L164.351 173.775C161.213 173.494 157.471 172.945 155.35 171.737Z" fill="black"/>
<path d="M154.842 171.798V180.412L168.704 184.16C168.704 184.16 168.704 183.268 168.738 182.012C168.814 179.383 169.061 175.148 169.823 174.42C169.83 174.42 158.584 174.42 154.842 171.798Z" fill="#EAEAF3"/>
<path opacity="0.1" d="M154.842 176.85V180.412L168.704 184.16C168.704 184.16 168.704 183.267 168.738 182.011C164.159 181.181 157.464 178.12 154.842 176.85Z" fill="black"/>
<path d="M73.9706 191.065C76.7169 198.965 73.1467 202.513 73.1467 202.513C73.1467 202.513 106.871 204.758 98.6253 198.766C93.8193 195.265 91.6772 187.544 90.7435 181.73C90.3446 179.311 90.0993 176.87 90.0089 174.42C90.0089 174.42 63.061 174.022 68.6497 181.538C70.8963 184.425 72.6905 187.638 73.9706 191.065Z" fill="#FDC2CC"/>
<path opacity="0.1" d="M68.6573 181.538C71.4036 185.23 72.303 185.773 73.223 188.443C74.0667 188.586 74.9212 188.657 75.777 188.655C82.2033 188.655 88.458 187.331 90.7511 181.73C90.3499 179.311 90.1023 176.87 90.0096 174.42C90.0096 174.42 63.0617 174.022 68.6573 181.538Z" fill="black"/>
<path d="M76.5178 189.781C85.0039 189.781 91.8833 182.904 91.8833 174.42C91.8833 165.937 85.0039 159.059 76.5178 159.059C68.0317 159.059 61.1523 165.937 61.1523 174.42C61.1523 182.904 68.0317 189.781 76.5178 189.781Z" fill="#FDC2CC"/>
<path d="M153.717 177.063C153.717 177.063 168.334 184.558 172.453 182.684L162.333 210.407C162.333 210.407 161.585 217.147 148.471 220.146C135.358 223.146 128.986 225.768 128.986 225.768L104.627 196.94L116.985 200.31C116.985 200.31 123.357 209.302 127.854 206.302C132.351 203.303 146.213 204.806 146.213 204.806C146.213 204.806 154.094 183.412 153.717 177.063Z" fill="#C4C8E2"/>
<path opacity="0.05" d="M153.717 177.063C153.717 177.063 168.334 184.558 172.453 182.684L162.333 210.407C162.333 210.407 161.585 217.147 148.471 220.146C135.358 223.146 128.986 225.768 128.986 225.768L104.627 196.94L116.985 200.31C116.985 200.31 123.357 209.302 127.854 206.302C132.351 203.303 146.213 204.806 146.213 204.806C146.213 204.806 154.094 183.412 153.717 177.063Z" fill="black"/>
<path opacity="0.1" d="M96.758 194.723C96.758 194.723 76.9505 189.06 74.8633 199.583C74.8633 199.583 84.0153 195.121 97.1356 203.014C98.1174 203.605 99.0786 204.236 100.019 204.895C111.56 212.98 119.621 225.486 122.861 239.701L131.203 276.36L131.979 286.196C131.979 286.196 143.973 288.563 146.219 285.015C148.464 281.466 146.967 269.633 143.596 265.694C140.225 261.754 134.979 244.807 134.979 244.807L131.698 234.972C128.948 226.694 124.579 219.046 118.845 212.473L118.055 211.519C113.12 205.597 106.862 200.919 99.7858 197.86C97.884 197.016 96.4971 195.965 96.758 194.723Z" fill="black"/>
<path d="M96.758 193.975C96.758 193.975 76.9505 188.312 74.8633 198.834C74.8633 198.834 84.0153 194.373 97.1356 202.266C98.1174 202.856 99.0786 203.488 100.019 204.147C111.56 212.232 119.621 224.738 122.861 238.953L131.203 275.605L131.952 285.461C131.952 285.461 143.946 287.829 146.191 284.28C148.436 280.732 146.939 268.899 143.568 264.959C140.197 261.019 134.952 244.059 134.952 244.059L131.67 234.223C128.929 225.946 124.57 218.296 118.845 211.717L118.055 210.763C113.12 204.842 106.862 200.164 99.7858 197.105C97.884 196.281 96.4971 195.217 96.758 193.975Z" fill="#EAEAF3"/>
<path opacity="0.1" d="M146.575 269.489L146.41 275.941L141.165 272.571C141.165 272.571 131.821 238.575 125.237 229.33C124.461 228.239 124.083 226.584 123.362 226.33L96.5859 200.482V194.49C96.5859 194.49 110.262 204.607 111.388 206.481C111.869 207.277 119.051 211.203 123.383 217.346C127.26 223.007 130.703 228.955 133.681 235.137L142.662 255.309L146.575 269.489Z" fill="black"/>
<path d="M96.5723 194.085V199.891L123.74 225.925C124.461 226.2 124.838 227.833 125.614 228.925C132.198 238.198 141.543 272.166 141.543 272.166L146.788 275.536L146.953 269.084L143.039 254.931L134.045 234.718C131.067 228.536 127.624 222.589 123.747 216.927C119.421 210.75 112.233 206.858 111.752 206.062C110.784 204.449 100.218 196.714 97.3344 194.606L96.5723 194.085Z" fill="#D39999"/>
<path d="M157.925 105.124H119.71C115.475 105.124 112.041 108.557 112.041 112.791V150.994C112.041 155.229 115.475 158.661 119.71 158.661H157.925C162.16 158.661 165.594 155.229 165.594 150.994V112.791C165.594 108.557 162.16 105.124 157.925 105.124Z" fill="#6C63FF"/>
<path opacity="0.1" d="M157.925 105.124H119.71C115.475 105.124 112.041 108.557 112.041 112.791V150.994C112.041 155.229 115.475 158.661 119.71 158.661H157.925C162.16 158.661 165.594 155.229 165.594 150.994V112.791C165.594 108.557 162.16 105.124 157.925 105.124Z" fill="white"/>
<path opacity="0.2" d="M138.825 120.671C136.603 120.671 134.432 121.329 132.585 122.563C130.737 123.797 129.298 125.551 128.448 127.603C127.598 129.654 127.375 131.912 127.808 134.09C128.242 136.269 129.312 138.269 130.883 139.84C132.453 141.41 134.455 142.48 136.634 142.913C138.813 143.346 141.071 143.124 143.123 142.274C145.176 141.424 146.93 139.985 148.164 138.138C149.399 136.292 150.057 134.121 150.057 131.9C150.06 130.424 149.771 128.963 149.208 127.599C148.644 126.236 147.817 124.997 146.773 123.954C145.73 122.91 144.491 122.083 143.127 121.52C141.763 120.957 140.301 120.668 138.825 120.671ZM138.825 139.203C137.382 139.203 135.97 138.775 134.77 137.973C133.57 137.171 132.635 136.032 132.082 134.699C131.53 133.365 131.385 131.898 131.667 130.483C131.949 129.068 132.644 127.768 133.664 126.747C134.685 125.727 135.985 125.032 137.401 124.751C138.817 124.469 140.284 124.614 141.618 125.166C142.951 125.718 144.091 126.653 144.893 127.853C145.695 129.053 146.123 130.464 146.123 131.907C146.12 133.841 145.35 135.694 143.982 137.062C142.614 138.429 140.759 139.199 138.825 139.203ZM153.133 120.218C153.133 120.736 152.979 121.243 152.691 121.674C152.403 122.106 151.993 122.442 151.514 122.64C151.035 122.838 150.507 122.89 149.999 122.789C149.49 122.688 149.023 122.438 148.656 122.072C148.289 121.705 148.039 121.238 147.938 120.729C147.837 120.221 147.889 119.693 148.087 119.214C148.286 118.735 148.622 118.326 149.053 118.038C149.485 117.75 149.992 117.596 150.51 117.596C150.855 117.594 151.197 117.66 151.516 117.791C151.835 117.921 152.125 118.114 152.369 118.357C152.613 118.6 152.807 118.889 152.94 119.207C153.072 119.525 153.14 119.866 153.14 120.211L153.133 120.218ZM160.576 122.84C160.411 119.332 159.607 116.223 157.04 113.663C154.472 111.103 151.369 110.3 147.86 110.128C144.242 109.922 133.401 109.922 129.79 110.128C126.288 110.293 123.185 111.096 120.61 113.656C118.036 116.216 117.246 119.325 117.074 122.833C116.868 126.45 116.868 137.288 117.074 140.898C117.239 144.405 118.042 147.515 120.61 150.075C123.178 152.635 126.281 153.438 129.79 153.61C133.408 153.815 144.249 153.815 147.86 153.61C151.369 153.445 154.479 152.642 157.04 150.075C159.601 147.508 160.404 144.405 160.576 140.898C160.782 137.281 160.782 126.484 160.576 122.84ZM155.921 144.803C155.549 145.744 154.988 146.599 154.272 147.315C153.556 148.03 152.701 148.591 151.76 148.963C148.876 150.109 142.031 149.841 138.846 149.841C135.66 149.841 128.808 150.095 125.931 148.963C124.99 148.591 124.135 148.03 123.419 147.315C122.704 146.599 122.142 145.744 121.771 144.803C120.624 141.921 120.892 135.078 120.892 131.893C120.892 128.708 120.638 121.858 121.771 118.982C122.142 118.041 122.704 117.186 123.419 116.471C124.135 115.756 124.99 115.195 125.931 114.823C128.815 113.677 135.66 113.944 138.846 113.944C142.031 113.944 148.883 113.69 151.76 114.823C152.701 115.195 153.556 115.756 154.272 116.471C154.988 117.186 155.549 118.041 155.921 118.982C157.067 121.865 156.799 128.708 156.799 131.893C156.799 135.078 157.047 141.928 155.921 144.803Z" fill="black"/>
<path opacity="0.1" d="M81.6401 158.112C82.8279 157.529 84.1667 156.65 84.1599 155.332C84.0986 154.854 83.9248 154.396 83.6527 153.998C83.3806 153.6 83.018 153.271 82.5945 153.04C80.4524 151.585 80.6172 148.922 78.1592 149.766C76.5115 150.315 75.0765 151.358 73.47 152.024C72.3491 152.489 71.159 152.765 69.9478 152.841C69.1729 152.84 68.3991 152.902 67.6341 153.026C67.0236 153.172 66.4366 153.403 65.8902 153.712C62.4719 155.622 59.9327 158.788 58.8117 162.539C57.7955 166.019 57.8985 170.137 55.2758 172.636C54.802 173.019 54.3652 173.447 53.9713 173.912C53.6263 174.428 53.3924 175.01 53.2848 175.621C52.8129 177.698 52.9927 179.869 53.7997 181.84C54.2098 182.816 54.8191 183.697 55.5887 184.425C56.3582 185.153 57.2712 185.712 58.2693 186.068C59.155 186.356 60.0887 186.459 61.0156 186.686C65.3204 187.77 68.3687 191.545 72.2891 193.632C72.6026 193.83 72.9622 193.943 73.3326 193.961C73.7369 193.917 74.1191 193.755 74.4312 193.494C75.9485 192.41 77.1774 190.749 77.1774 188.868C77.0551 187.703 76.7151 186.572 76.175 185.533C75.3547 183.587 74.7269 181.567 74.3007 179.499C74.1642 179.023 74.15 178.52 74.2595 178.037C74.541 177.131 75.5503 176.706 76.2506 176.061C77.5825 174.825 77.7404 172.739 77.2461 170.995C76.7518 169.252 75.7288 167.714 74.9598 166.074C74.6949 165.58 74.5403 165.034 74.5067 164.475C74.5067 162.285 77.4658 161.098 78.7154 159.67C80.3975 157.693 79.3264 159.258 81.6401 158.112Z" fill="black"/>
<path d="M81.2622 158.112C82.45 157.529 83.7888 156.65 83.782 155.332C83.7238 154.85 83.5514 154.389 83.2792 153.987C83.007 153.584 82.6427 153.253 82.2166 153.019C80.0745 151.564 80.2393 148.901 77.7813 149.745C76.1336 150.294 74.6986 151.338 73.0921 152.003C71.9712 152.468 70.781 152.744 69.5699 152.82C68.7941 152.868 66.295 151.688 65.5398 151.859C64.9293 152.006 64.3423 152.237 63.7959 152.546C60.3776 154.455 57.8383 157.622 56.7173 161.372C55.7012 164.852 56.4084 169.197 53.7857 171.668C53.3463 172.087 53.9436 173.363 53.5866 173.857C53.2415 174.373 53.0077 174.955 52.9 175.567C52.4281 177.643 52.6079 179.814 53.4149 181.785C53.825 182.762 54.4343 183.642 55.2039 184.37C55.9735 185.098 56.8864 185.658 57.8845 186.013C58.7702 186.301 59.7039 186.404 60.6308 186.631C64.9356 187.715 67.984 191.49 71.9043 193.577C72.2179 193.775 72.5774 193.888 72.9479 193.906C73.3521 193.863 73.7343 193.7 74.0464 193.44C75.5637 192.355 76.7927 190.694 76.7927 188.813C76.6704 187.649 76.3303 186.517 75.7903 185.478C74.9699 183.533 74.3421 181.512 73.9159 179.445C73.7794 178.968 73.7653 178.466 73.8747 177.983C74.1562 177.077 75.1655 176.651 75.8658 176.006C77.1977 174.77 77.3557 172.684 76.8613 170.94C76.367 169.197 75.344 167.66 74.575 166.019C74.3102 165.525 74.1556 164.979 74.1219 164.42C74.1219 162.23 77.081 161.043 78.3306 159.615C80.0196 157.693 78.9485 159.258 81.2622 158.112Z" fill="#865A61"/>
<path opacity="0.1" d="M97.3012 308.379C104.167 307.569 112.818 306.773 116.621 307.404C122.739 308.42 131.321 302.97 132.866 301.948C129.687 293.196 127.112 286.422 127.112 286.422C127.112 286.422 102.004 287.548 96.7588 296.539C94.3558 300.657 95.4337 304.94 97.3012 308.379Z" fill="black"/>
<path d="M64.5317 211.505C66.0284 224.614 81.0094 242.975 81.0094 242.975C81.0094 242.975 91.5002 253.84 88.1291 290.924L87.7515 308.907C87.7515 308.907 109.859 305.537 116.587 306.663C123.316 307.789 133.065 301.041 133.065 301.041C133.065 301.041 136.814 236.235 120.707 222.747C118.719 219.69 116.558 216.75 114.233 213.941C109.907 208.704 104.023 202.808 98.5238 201.353C97.8154 201.16 97.0877 201.048 96.3542 201.017C96.3542 201.017 79.4921 191.655 74.995 198.772C75.0225 198.766 63.035 198.395 64.5317 211.505Z" fill="#C4C8E2"/>
<path opacity="0.1" d="M132.919 281.391C132.919 281.391 126.926 278.769 116.806 279.517C106.686 280.265 88.6562 271.281 88.6562 271.281" fill="black"/>
<path opacity="0.05" d="M122.052 364.908C122.052 364.908 121.674 366.034 126.549 367.53C131.423 369.026 132.92 370.53 132.92 370.53" fill="black"/>
<path d="M107.174 157.803C107.2 159.573 107.64 161.312 108.458 162.882L110.607 167.042L112.103 169.925L121.468 170.673C121.468 170.673 121.661 169.904 121.901 168.614C122.587 164.866 123.707 156.774 121.468 151.18C118.468 143.685 117.349 129.079 111.726 132.449C107.291 135.139 107.078 151.262 107.174 157.803Z" fill="#FDC2CC"/>
<path opacity="0.1" d="M110.607 166.925V167.042L112.104 169.924L121.469 170.673C121.469 170.673 121.661 169.904 121.901 168.614C118.572 167.323 114.178 166.136 110.607 166.925Z" fill="black"/>
<path d="M110.607 167.673V174.413L124.099 181.531C124.099 181.531 124.25 180.309 124.538 178.731C125.025 176.019 125.911 172.258 127.099 171.791C127.085 171.798 117.37 166.177 110.607 167.673Z" fill="#EAEAF3"/>
<path opacity="0.05" d="M74.1421 228.904C75.7852 230.351 77.71 231.443 79.7955 232.11C81.8809 232.777 84.0819 233.006 86.2601 232.782C109.981 230.373 110.627 221.992 110.627 221.992L114.272 213.934C109.947 208.697 104.063 202.802 98.5635 201.346C94.6294 207.682 91.1485 212.253 91.1485 212.253C91.1485 212.253 73.538 198.766 68.2926 211.505C65.2236 218.931 69.7893 225.067 74.1421 228.904Z" fill="black"/>
<path opacity="0.1" d="M110.607 171.805V174.42L124.099 181.538C124.099 181.538 124.25 180.316 124.538 178.737C118.743 176.871 112.99 173.343 110.607 171.805Z" fill="black"/>
<path d="M109.123 171.798C109.123 171.798 119.243 178.916 127.859 180.412L110.249 219.371C110.249 219.371 109.603 227.751 85.8825 230.16C83.7043 230.384 81.5034 230.155 79.418 229.488C77.3326 228.82 75.4078 227.729 73.7645 226.282C69.4185 222.439 64.8391 216.296 67.908 208.883C73.1534 196.144 90.764 209.631 90.764 209.631C90.764 209.631 108.752 186.034 109.123 171.798Z" fill="#C4C8E2"/>
<path opacity="0.2" d="M253.551 111.858C253.551 112.324 253.551 112.784 253.551 113.23C253.551 127.363 242.792 143.65 223.122 143.65C217.299 143.665 211.596 141.996 206.699 138.846C207.556 138.939 208.418 138.983 209.281 138.976C214.094 138.989 218.772 137.381 222.559 134.412C220.328 134.371 218.165 133.635 216.373 132.306C214.581 130.977 213.249 129.122 212.563 126.999C213.23 127.104 213.905 127.159 214.581 127.164C215.531 127.161 216.477 127.039 217.396 126.8C214.974 126.31 212.797 124.997 211.233 123.084C209.67 121.171 208.818 118.776 208.821 116.305V116.175C210.293 117.003 211.939 117.473 213.627 117.548C211.358 116.034 209.752 113.712 209.137 111.055C208.522 108.398 208.944 105.607 210.317 103.251C213.004 106.556 216.355 109.26 220.154 111.187C223.954 113.115 228.115 114.222 232.37 114.438C232.197 113.633 232.108 112.812 232.102 111.988C232.097 109.837 232.741 107.734 233.949 105.954C235.157 104.175 236.874 102.8 238.875 102.01C240.877 101.22 243.07 101.052 245.168 101.526C247.267 102.001 249.174 103.097 250.64 104.671C253.036 104.211 255.333 103.338 257.43 102.091C256.632 104.561 254.96 106.655 252.727 107.98C254.858 107.74 256.941 107.183 258.906 106.325C257.445 108.457 255.634 110.328 253.551 111.858Z" fill="black"/>
<path opacity="0.2" d="M213.345 223.152V263.449C213.345 264.112 213.082 264.747 212.613 265.216C212.144 265.684 211.509 265.948 210.846 265.948H199.291V248.411H205.175L206.04 241.581H199.263V237.216C199.263 235.233 199.813 233.887 202.655 233.887H206.273V227.772C204.52 227.585 202.757 227.493 200.993 227.497C195.776 227.497 192.192 230.682 192.192 236.537V241.581H186.287V248.445H192.192V265.989H170.53C169.868 265.987 169.233 265.723 168.765 265.255C168.297 264.787 168.033 264.152 168.031 263.49V223.152C168.033 222.49 168.297 221.856 168.765 221.388C169.233 220.92 169.868 220.656 170.53 220.654H210.846C211.508 220.656 212.143 220.92 212.611 221.388C213.079 221.856 213.343 222.49 213.345 223.152Z" fill="black"/>
<path opacity="0.1" d="M426.923 169.444C426.424 167.922 425.535 166.558 424.343 165.489C423.151 164.419 421.699 163.681 420.132 163.349C414.379 162.141 391.674 163.425 391.674 163.425C391.674 163.425 368.962 164.708 363.387 166.554C361.868 167.062 360.51 167.959 359.447 169.156C358.384 170.353 357.655 171.809 357.332 173.377C356.137 179.163 356.81 191.051 356.81 191.051C356.81 191.051 357.496 202.939 359.323 208.553C359.823 210.062 360.715 211.411 361.906 212.464C363.098 213.516 364.547 214.235 366.106 214.545C371.86 215.753 394.564 214.47 394.564 214.47C394.564 214.47 417.276 213.186 422.851 211.34C424.365 210.855 425.724 209.978 426.789 208.797C427.854 207.617 428.587 206.176 428.914 204.62C430.108 198.834 429.435 186.946 429.435 186.946C429.435 186.946 428.763 175.059 426.923 169.444ZM386.305 200.221L385.083 178.628L404.678 188.347L386.305 200.214V200.221Z" fill="#6C63FF"/>
</g>
<defs>
<linearGradient id="paint0_linear" x1="149.342" y1="543.584" x2="149.342" y2="23.3159" gradientUnits="userSpaceOnUse">
<stop stop-color="#808080" stop-opacity="0.25"/>
<stop offset="0.54" stop-color="#808080" stop-opacity="0.12"/>
<stop offset="1" stop-color="#808080" stop-opacity="0.1"/>
</linearGradient>
<linearGradient id="paint1_linear" x1="-109270" y1="213280" x2="-109270" y2="67997.9" gradientUnits="userSpaceOnUse">
<stop stop-color="#808080" stop-opacity="0.25"/>
<stop offset="0.54" stop-color="#808080" stop-opacity="0.12"/>
<stop offset="1" stop-color="#808080" stop-opacity="0.1"/>
</linearGradient>
<clipPath id="clip0">
<rect width="743" height="582" fill="white"/>
</clipPath>
</defs>
</svg>
