<svg width="211" height="168" viewBox="0 0 211 168" fill="none" xmlns="http://www.w3.org/2000/svg">
<g clip-path="url(#clip0)">
<path d="M121.593 8.1766C123.403 12.239 119.568 13.3897 115.175 15.5671C110.782 17.7445 107.494 20.1241 105.684 16.0617C103.874 11.9993 102.406 3.93609 108.621 0.855767C115.05 -2.33068 119.783 4.11417 121.593 8.1766Z" fill="#2F2E41"/>
<path d="M112.63 16.1657C115.896 16.1657 118.544 13.3728 118.544 9.92768C118.544 6.48254 115.896 3.6897 112.63 3.6897C109.364 3.6897 106.716 6.48254 106.716 9.92768C106.716 13.3728 109.364 16.1657 112.63 16.1657Z" fill="#FFB8B8"/>
<path d="M141.93 37.5919C141.725 37.31 141.52 37.0331 141.313 36.7639C141.046 36.4134 140.777 36.0739 140.506 35.7455C137.441 32.0145 134.181 29.6652 130.591 29.4138H130.586L130.533 29.4087L123.379 36.7639L120.947 39.2631L121 39.4002L122.312 42.8467H145.305C144.269 41.0331 143.142 39.279 141.93 37.5919Z" fill="#2F2E41"/>
<path d="M106.199 12.4392L108.316 11.3899L108.021 8.16862L109.437 10.8344L110.449 10.3329L110.277 8.45383L111.102 10.0089L118.621 6.28235C117.915 4.69729 116.641 3.47303 115.079 2.8789C113.517 2.28477 111.795 2.36943 110.292 3.11426L109.203 3.65434C107.7 4.39917 106.539 5.74316 105.976 7.39065C105.412 9.03813 105.493 10.8542 106.199 12.4392Z" fill="#2F2E41"/>
<path d="M155.197 125.669H31.7094C30.656 125.667 29.6462 125.225 28.9013 124.44C28.1565 123.654 27.7375 122.589 27.7363 121.478V43.2135C27.7372 42.3995 28.0441 41.6192 28.5898 41.0436C29.1355 40.468 29.8753 40.1442 30.647 40.1433H156.209C156.994 40.1443 157.747 40.4736 158.302 41.0591C158.857 41.6447 159.17 42.4385 159.17 43.2666V121.478C159.169 122.589 158.75 123.654 158.005 124.44C157.261 125.225 156.251 125.667 155.197 125.669Z" fill="#F2F2F2"/>
<path d="M35.5622 121.478H151.345C152.366 121.478 153.346 121.05 154.069 120.288C154.791 119.526 155.197 118.492 155.197 117.414V50.9868C155.197 49.909 154.791 48.8754 154.069 48.1133C153.346 47.3512 152.366 46.9231 151.345 46.9231H35.5622C34.5404 46.9231 33.5604 47.3512 32.8379 48.1133C32.1154 48.8754 31.7095 49.909 31.7095 50.9868V117.414C31.7095 118.492 32.1154 119.526 32.8379 120.288C33.5604 121.05 34.5404 121.478 35.5622 121.478Z" fill="white"/>
<path d="M159.115 42.9738H27.6807V40.8403C27.6822 39.7255 28.1029 38.6569 28.8504 37.8689C29.598 37.0809 30.6113 36.6379 31.6682 36.637H155.128C156.184 36.6379 157.198 37.0809 157.945 37.8689C158.693 38.6569 159.114 39.7255 159.115 40.8403V42.9738Z" fill="#6C63FF"/>
<path d="M34.9274 40.8997C35.497 40.8997 35.9588 40.4126 35.9588 39.8118C35.9588 39.2109 35.497 38.7239 34.9274 38.7239C34.3578 38.7239 33.896 39.2109 33.896 39.8118C33.896 40.4126 34.3578 40.8997 34.9274 40.8997Z" fill="white"/>
<path d="M38.8424 40.8997C39.4121 40.8997 39.8739 40.4126 39.8739 39.8118C39.8739 39.2109 39.4121 38.7239 38.8424 38.7239C38.2728 38.7239 37.811 39.2109 37.811 39.8118C37.811 40.4126 38.2728 40.8997 38.8424 40.8997Z" fill="white"/>
<path d="M42.7575 40.8997C43.3271 40.8997 43.7889 40.4126 43.7889 39.8118C43.7889 39.2109 43.3271 38.7239 42.7575 38.7239C42.1879 38.7239 41.7261 39.2109 41.7261 39.8118C41.7261 40.4126 42.1879 40.8997 42.7575 40.8997Z" fill="white"/>
<path d="M97.066 107.072H86.7119C86.1054 107.071 85.5239 106.817 85.0951 106.365C84.6662 105.912 84.425 105.299 84.4243 104.659V93.7382C84.425 93.0985 84.6662 92.4853 85.0951 92.0329C85.5239 91.5806 86.1054 91.3262 86.7119 91.3254H97.066C97.6724 91.3262 98.2539 91.5806 98.6827 92.0329C99.1116 92.4853 99.3528 93.0985 99.3535 93.7382V104.659C99.3528 105.299 99.1116 105.912 98.6827 106.365C98.2539 106.817 97.6724 107.071 97.066 107.072ZM86.7119 91.8334C86.233 91.834 85.774 92.0348 85.4354 92.3919C85.0969 92.749 84.9064 93.2332 84.9059 93.7382V104.659C84.9064 105.164 85.0969 105.648 85.4354 106.006C85.774 106.363 86.233 106.564 86.7119 106.564H97.066C97.5448 106.564 98.0038 106.363 98.3424 106.006C98.6809 105.648 98.8714 105.164 98.8719 104.659V93.7382C98.8714 93.2332 98.6809 92.749 98.3424 92.3919C98.0038 92.0348 97.5448 91.834 97.066 91.8334H86.7119Z" fill="#CCCCCC"/>
<path d="M95.0191 104.024H88.7585C88.567 104.024 88.3834 103.944 88.2479 103.801C88.1125 103.658 88.0363 103.465 88.0361 103.263V95.1352C88.0363 94.9332 88.1125 94.7395 88.2479 94.5967C88.3834 94.4539 88.567 94.3735 88.7585 94.3733H93.2949C93.4595 94.3734 93.6191 94.4327 93.7474 94.5413L95.4716 96.0027C95.556 96.0739 95.6242 96.1643 95.6709 96.2671C95.7176 96.3699 95.7418 96.4825 95.7415 96.5966V103.263C95.7413 103.465 95.6651 103.658 95.5297 103.801C95.3943 103.944 95.2107 104.024 95.0191 104.024ZM88.7585 94.8812C88.6947 94.8813 88.6335 94.9081 88.5883 94.9557C88.5432 95.0033 88.5178 95.0679 88.5177 95.1352V103.263C88.5178 103.33 88.5432 103.394 88.5883 103.442C88.6335 103.49 88.6947 103.516 88.7585 103.517H95.0191C95.083 103.516 95.1442 103.49 95.1893 103.442C95.2344 103.394 95.2598 103.33 95.2599 103.263V96.5966C95.26 96.5586 95.252 96.5211 95.2364 96.4868C95.2208 96.4525 95.1981 96.4224 95.17 96.3987L93.4456 94.9372C93.4029 94.901 93.3497 94.8813 93.2949 94.8812H88.7585Z" fill="#CCCCCC"/>
<path d="M93.8152 97.9288H89.9625C89.8986 97.9288 89.8374 97.9021 89.7922 97.8545C89.747 97.8068 89.7217 97.7422 89.7217 97.6749C89.7217 97.6075 89.747 97.5429 89.7922 97.4953C89.8374 97.4477 89.8986 97.4209 89.9625 97.4209H93.8152C93.879 97.4209 93.9403 97.4477 93.9854 97.4953C94.0306 97.5429 94.0559 97.6075 94.0559 97.6749C94.0559 97.7422 94.0306 97.8068 93.9854 97.8545C93.9403 97.9021 93.879 97.9288 93.8152 97.9288Z" fill="#CCCCCC"/>
<path d="M93.8152 99.4528H89.9625C89.8986 99.4528 89.8374 99.426 89.7922 99.3784C89.747 99.3307 89.7217 99.2662 89.7217 99.1988C89.7217 99.1314 89.747 99.0668 89.7922 99.0192C89.8374 98.9716 89.8986 98.9448 89.9625 98.9448H93.8152C93.879 98.9448 93.9403 98.9716 93.9854 99.0192C94.0306 99.0668 94.0559 99.1314 94.0559 99.1988C94.0559 99.2662 94.0306 99.3307 93.9854 99.3784C93.9403 99.426 93.879 99.4528 93.8152 99.4528Z" fill="#CCCCCC"/>
<path d="M93.8152 100.977H89.9625C89.8986 100.977 89.8374 100.95 89.7922 100.902C89.747 100.855 89.7217 100.79 89.7217 100.723C89.7217 100.655 89.747 100.591 89.7922 100.543C89.8374 100.496 89.8986 100.469 89.9625 100.469H93.8152C93.879 100.469 93.9403 100.496 93.9854 100.543C94.0306 100.591 94.0559 100.655 94.0559 100.723C94.0559 100.79 94.0306 100.855 93.9854 100.902C93.9403 100.95 93.879 100.977 93.8152 100.977Z" fill="#CCCCCC"/>
<path d="M121.627 107.072H111.273C110.666 107.071 110.085 106.817 109.656 106.365C109.227 105.912 108.986 105.299 108.985 104.659V93.7382C108.986 93.0985 109.227 92.4853 109.656 92.0329C110.085 91.5806 110.666 91.3262 111.273 91.3254H121.627C122.233 91.3262 122.815 91.5806 123.244 92.0329C123.673 92.4853 123.914 93.0985 123.914 93.7382V104.659C123.914 105.299 123.673 105.912 123.244 106.365C122.815 106.817 122.233 107.071 121.627 107.072ZM111.273 91.8334C110.794 91.834 110.335 92.0348 109.996 92.3919C109.658 92.749 109.467 93.2332 109.467 93.7382V104.659C109.467 105.164 109.658 105.648 109.996 106.006C110.335 106.363 110.794 106.564 111.273 106.564H121.627C122.106 106.564 122.565 106.363 122.903 106.006C123.242 105.648 123.432 105.164 123.433 104.659V93.7382C123.432 93.2332 123.242 92.749 122.903 92.3919C122.565 92.0348 122.106 91.834 121.627 91.8334H111.273Z" fill="#CCCCCC"/>
<path d="M119.821 101.993H113.079C112.887 101.992 112.704 101.912 112.568 101.769C112.433 101.626 112.357 101.433 112.356 101.231V97.167C112.357 96.965 112.433 96.7713 112.568 96.6284C112.704 96.4856 112.887 96.4052 113.079 96.405H119.821C120.013 96.4052 120.196 96.4856 120.332 96.6284C120.467 96.7713 120.543 96.965 120.543 97.167V101.231C120.543 101.433 120.467 101.626 120.332 101.769C120.196 101.912 120.013 101.992 119.821 101.993ZM113.079 96.913C113.015 96.9131 112.954 96.9398 112.909 96.9875C112.863 97.0351 112.838 97.0996 112.838 97.167V101.231C112.838 101.298 112.863 101.363 112.909 101.41C112.954 101.458 113.015 101.485 113.079 101.485H119.821C119.885 101.485 119.946 101.458 119.991 101.41C120.036 101.363 120.062 101.298 120.062 101.231V97.167C120.062 97.0996 120.036 97.0351 119.991 96.9875C119.946 96.9398 119.885 96.9131 119.821 96.913H113.079Z" fill="#CCCCCC"/>
<path d="M116.45 99.8687C116.315 99.8689 116.182 99.8291 116.067 99.7538L112.47 97.3823C112.416 97.3465 112.377 97.2896 112.363 97.224C112.349 97.1584 112.36 97.0895 112.394 97.0325C112.427 96.9754 112.481 96.9348 112.543 96.9196C112.606 96.9045 112.671 96.9159 112.725 96.9515L116.323 99.323C116.361 99.348 116.405 99.3613 116.45 99.3613C116.495 99.3613 116.539 99.348 116.578 99.323L120.175 96.9515C120.229 96.9159 120.295 96.9045 120.357 96.9196C120.419 96.9348 120.473 96.9754 120.507 97.0325C120.54 97.0895 120.551 97.1584 120.537 97.224C120.523 97.2896 120.484 97.3465 120.43 97.3823L116.833 99.7538C116.718 99.8291 116.585 99.869 116.45 99.8687Z" fill="#CCCCCC"/>
<path d="M72.5054 107.072H62.1513C61.5448 107.071 60.9634 106.817 60.5345 106.365C60.1057 105.912 59.8645 105.299 59.8638 104.659V93.7382C59.8645 93.0985 60.1057 92.4853 60.5345 92.0329C60.9634 91.5806 61.5448 91.3262 62.1513 91.3254H72.5054C73.1119 91.3262 73.6933 91.5806 74.1221 92.0329C74.551 92.4853 74.7922 93.0985 74.7929 93.7382V104.659C74.7922 105.299 74.551 105.912 74.1221 106.365C73.6933 106.817 73.1119 107.071 72.5054 107.072ZM62.1513 91.8334C61.6725 91.834 61.2135 92.0348 60.8749 92.3919C60.5363 92.749 60.3459 93.2332 60.3454 93.7382V104.659C60.3459 105.164 60.5363 105.648 60.8749 106.006C61.2135 106.363 61.6725 106.564 62.1513 106.564H72.5054C72.9842 106.564 73.4432 106.363 73.7818 106.006C74.1203 105.648 74.3108 105.164 74.3113 104.659V93.7382C74.3108 93.2332 74.1203 92.749 73.7818 92.3919C73.4432 92.0348 72.9842 91.834 72.5054 91.8334H62.1513Z" fill="#CCCCCC"/>
<path d="M70.6994 101.993H63.9572C63.7657 101.992 63.5821 101.912 63.4467 101.769C63.3112 101.626 63.2351 101.433 63.2349 101.231V97.167C63.2351 96.965 63.3112 96.7713 63.4467 96.6284C63.5821 96.4856 63.7657 96.4052 63.9572 96.405H70.6994C70.891 96.4052 71.0746 96.4856 71.21 96.6284C71.3454 96.7713 71.4216 96.965 71.4218 97.167V101.231C71.4216 101.433 71.3454 101.626 71.21 101.769C71.0746 101.912 70.891 101.992 70.6994 101.993ZM63.9572 96.913C63.8934 96.9131 63.8322 96.9398 63.7871 96.9875C63.7419 97.0351 63.7165 97.0996 63.7164 97.167V101.231C63.7165 101.298 63.7419 101.363 63.7871 101.41C63.8322 101.458 63.8934 101.485 63.9572 101.485H70.6994C70.7633 101.485 70.8245 101.458 70.8696 101.41C70.9148 101.363 70.9402 101.298 70.9402 101.231V97.167C70.9402 97.0996 70.9148 97.0351 70.8696 96.9875C70.8245 96.9398 70.7633 96.9131 70.6994 96.913H63.9572Z" fill="#CCCCCC"/>
<path d="M69.6306 101.993H64.7849C64.7003 101.993 64.6172 101.969 64.544 101.924C64.4708 101.88 64.41 101.816 64.3677 101.739C64.3254 101.661 64.3032 101.574 64.3032 101.485C64.3032 101.395 64.3255 101.308 64.3678 101.231L65.8274 98.5638C65.8697 98.4866 65.9305 98.4224 66.0037 98.3779C66.0769 98.3333 66.1599 98.3098 66.2445 98.3098C66.329 98.3098 66.4121 98.3333 66.4853 98.3779C66.5585 98.4224 66.6193 98.4866 66.6616 98.5638L67.6043 100.286L68.1504 99.2883C68.1927 99.2111 68.2535 99.1469 68.3267 99.1023C68.3999 99.0578 68.483 99.0343 68.5675 99.0343C68.6521 99.0343 68.7351 99.0578 68.8083 99.1023C68.8815 99.1469 68.9424 99.2111 68.9846 99.2883L70.0477 101.231C70.09 101.308 70.1123 101.395 70.1123 101.485C70.1122 101.574 70.09 101.661 70.0477 101.739C70.0054 101.816 69.9446 101.88 69.8714 101.924C69.7982 101.969 69.7151 101.993 69.6306 101.993H69.6306ZM69.6306 101.485L68.5675 99.5423L67.8129 100.921C67.7918 100.96 67.7614 100.992 67.7247 101.014C67.6881 101.036 67.6466 101.048 67.6043 101.048C67.562 101.048 67.5205 101.036 67.4839 101.014C67.4473 100.992 67.4169 100.96 67.3957 100.921L66.2446 98.8178L64.7849 101.485H69.6306Z" fill="#CCCCCC"/>
<path d="M69.9767 98.4368C70.2427 98.4368 70.4583 98.2094 70.4583 97.9289C70.4583 97.6483 70.2427 97.4209 69.9767 97.4209C69.7107 97.4209 69.4951 97.6483 69.4951 97.9289C69.4951 98.2094 69.7107 98.4368 69.9767 98.4368Z" fill="#CCCCCC"/>
<path d="M185.127 164.616L182.175 164.616L180.771 152.606L185.128 152.606L185.127 164.616Z" fill="#FFB8B8"/>
<path d="M185.88 167.635L176.362 167.634V167.507C176.362 166.994 176.458 166.486 176.644 166.012C176.83 165.538 177.103 165.107 177.447 164.744C177.791 164.381 178.199 164.093 178.649 163.897C179.098 163.7 179.58 163.599 180.067 163.599H180.067L185.881 163.6L185.88 167.635Z" fill="#2F2E41"/>
<path d="M197.167 164.616L194.215 164.616L192.811 152.606L197.168 152.606L197.167 164.616Z" fill="#FFB8B8"/>
<path d="M197.92 167.635L188.401 167.634V167.507C188.401 166.994 188.497 166.486 188.683 166.012C188.87 165.538 189.142 165.107 189.487 164.744C189.831 164.381 190.239 164.093 190.688 163.897C191.138 163.7 191.62 163.599 192.106 163.599H192.107L197.92 163.6L197.92 167.635Z" fill="#2F2E41"/>
<path d="M196.282 159.41L193.548 158.532C193.344 158.467 193.163 158.34 193.028 158.167C192.892 157.994 192.808 157.782 192.786 157.559L190.237 132.078C190.235 132.047 190.222 132.019 190.2 131.997C190.179 131.976 190.151 131.965 190.121 131.965C190.092 131.962 190.063 131.971 190.04 131.99C190.017 132.01 190.002 132.038 189.999 132.069L185.729 156.755C185.703 156.905 185.649 157.048 185.57 157.175C185.491 157.303 185.389 157.412 185.269 157.497C185.149 157.582 185.015 157.642 184.873 157.671C184.732 157.701 184.586 157.7 184.444 157.669L180.95 156.91C180.694 156.854 180.466 156.701 180.307 156.482C180.149 156.262 180.071 155.989 180.088 155.713L182.685 115.251L200.296 113.247L197.679 158.386C197.662 158.676 197.541 158.949 197.34 159.148C197.14 159.347 196.875 159.459 196.599 159.46C196.492 159.46 196.385 159.443 196.282 159.41Z" fill="#2F2E41"/>
<path d="M196.266 80.0155C199.532 80.0155 202.18 77.2227 202.18 73.7775C202.18 70.3324 199.532 67.5396 196.266 67.5396C192.999 67.5396 190.352 70.3324 190.352 73.7775C190.352 77.2227 192.999 80.0155 196.266 80.0155Z" fill="#FFB8B8"/>
<path d="M182.658 115.489L186.476 90.1291C186.679 88.7807 187.152 87.4935 187.864 86.3529C188.575 85.2123 189.509 84.2446 190.602 83.5142C191.696 82.7838 192.924 82.3074 194.206 82.1167C195.488 81.926 196.793 82.0254 198.036 82.4083C200.208 83.071 202.068 84.5641 203.252 86.5959C204.437 88.6277 204.861 91.0522 204.441 93.396L200.446 116.044L182.658 115.489Z" fill="#6C63FF"/>
<path d="M197.898 120.027C198.194 119.821 198.443 119.549 198.628 119.231C198.813 118.913 198.93 118.556 198.97 118.185C199.01 117.814 198.973 117.438 198.86 117.084C198.748 116.73 198.563 116.406 198.319 116.136L202.267 108.072L197.821 108.572L194.753 116.153C194.35 116.615 194.121 117.218 194.11 117.846C194.099 118.475 194.307 119.086 194.695 119.563C195.082 120.041 195.623 120.352 196.213 120.437C196.804 120.522 197.403 120.376 197.898 120.027V120.027Z" fill="#FFB8B8"/>
<path d="M198.744 114.713C198.525 114.681 198.321 114.579 198.159 114.421L196.649 112.949C196.486 112.789 196.373 112.58 196.326 112.351C196.279 112.121 196.3 111.882 196.386 111.665L199.405 104.117L198.976 89.2037C199.038 88.7243 199.189 88.2624 199.42 87.8444C199.65 87.4264 199.957 87.0604 200.322 86.7675C200.687 86.4746 201.104 86.2605 201.547 86.1374C201.991 86.0142 202.453 85.9845 202.907 86.0499C203.362 86.1153 203.8 86.2745 204.196 86.5184C204.592 86.7624 204.938 87.0863 205.216 87.4716C205.493 87.8569 205.696 88.2961 205.812 88.7641C205.928 89.2321 205.956 89.7196 205.894 90.1989L206.626 99.5739C206.849 102.419 206.084 105.253 204.474 107.548L199.766 114.261C199.675 114.39 199.56 114.498 199.427 114.577C199.295 114.656 199.148 114.704 198.996 114.719C198.912 114.728 198.827 114.726 198.744 114.713Z" fill="#6C63FF"/>
<path d="M162.208 70.3787C162.273 70.7459 162.413 71.0936 162.618 71.3975C162.824 71.7014 163.09 71.9541 163.398 72.1377C163.707 72.3213 164.049 72.4313 164.402 72.4601C164.755 72.4889 165.11 72.4358 165.441 72.3044L170.942 79.2832L172.239 74.7696L166.816 68.8343C166.57 68.2618 166.133 67.8045 165.589 67.5489C165.044 67.2934 164.43 67.2574 163.862 67.4477C163.294 67.6381 162.812 68.0416 162.507 68.5818C162.202 69.122 162.096 69.7614 162.208 70.3787Z" fill="#FFB8B8"/>
<path d="M166.517 73.2715C166.631 73.0721 166.799 72.9139 167 72.818L168.874 71.9248C169.078 71.8286 169.304 71.8005 169.523 71.8444C169.741 71.8882 169.942 72.0019 170.098 72.1699L175.51 78.045L188.697 83.4437C189.092 83.6904 189.437 84.0167 189.712 84.4039C189.987 84.7912 190.187 85.2319 190.3 85.7007C190.414 86.1695 190.438 86.6573 190.373 87.1362C190.308 87.6152 190.153 88.0758 189.919 88.4918C189.685 88.9077 189.375 89.2709 189.007 89.5606C188.64 89.8502 188.222 90.0606 187.777 90.1797C187.333 90.2988 186.87 90.3243 186.416 90.2547C185.962 90.1852 185.526 90.0219 185.132 89.7743L176.661 86.8303C174.09 85.9372 171.915 84.0895 170.539 81.6309L166.513 74.4407C166.436 74.3024 166.387 74.1485 166.37 73.989C166.353 73.8294 166.367 73.6679 166.413 73.5148C166.439 73.4297 166.474 73.348 166.517 73.2715Z" fill="#6C63FF"/>
<path opacity="0.1" d="M201.062 95.4077L200.822 103.535L196.386 111.665L200.09 102.605L201.062 95.4077Z" fill="black"/>
<path d="M195.588 74.9498C195.216 75.0007 194.84 74.9077 194.529 74.688C194.217 74.4684 193.992 74.137 193.895 73.7555C193.801 73.3164 193.596 72.9124 193.301 72.587C193.006 72.2615 192.633 72.0269 192.221 71.9082C191.136 71.6467 189.81 72.1853 189.015 71.3183C188.845 71.1204 188.722 70.8827 188.656 70.6247C188.59 70.3667 188.583 70.0959 188.636 69.8345C188.783 68.992 189.354 68.3555 189.976 67.8465C191.284 66.7802 192.868 66.156 194.519 66.0558C195.373 66.0297 196.228 66.0746 197.076 66.19C197.964 66.2491 198.842 66.4183 199.692 66.6942C200.66 67.0797 201.521 67.7165 202.195 68.5458C202.868 69.375 203.333 70.3699 203.545 71.4386C203.739 72.5105 203.709 73.6143 203.458 74.6728C203.206 75.7313 202.738 76.7191 202.087 77.5672C201.307 78.5912 200.302 79.3985 199.158 79.9187C198.886 80.0543 198.574 80.071 198.29 79.9652C197.578 79.6665 197.694 78.7361 198.019 78.1156C198.366 77.4515 198.901 76.8085 198.622 76.0003C198.482 75.6255 198.213 75.3202 197.869 75.1453C197.161 74.7645 196.369 74.8546 195.608 74.9473L195.588 74.9498Z" fill="#2F2E41"/>
<path d="M160.232 78.4724H87.0307C85.9773 78.4712 84.9675 78.0293 84.2226 77.2436C83.4778 76.458 83.0588 75.3928 83.0576 74.2818V57.7732C83.0588 56.6621 83.4778 55.5969 84.2226 54.8113C84.9675 54.0257 85.9773 53.5838 87.0307 53.5825H160.232C161.285 53.5838 162.295 54.0257 163.04 54.8113C163.785 55.597 164.204 56.6621 164.205 57.7732V74.2818C164.204 75.3928 163.785 76.458 163.04 77.2436C162.295 78.0292 161.285 78.4711 160.232 78.4724Z" fill="white"/>
<path d="M160.232 78.5994H87.0305C85.9452 78.5982 84.9047 78.1429 84.1373 77.3334C83.3699 76.524 82.9382 75.4265 82.937 74.2818V57.7732C82.9382 56.6285 83.3699 55.531 84.1373 54.7216C84.9047 53.9122 85.9452 53.4569 87.0305 53.4556H160.232C161.317 53.4569 162.357 53.9122 163.125 54.7216C163.892 55.531 164.324 56.6285 164.325 57.7732V74.2818C164.324 75.4265 163.892 76.524 163.125 77.3334C162.357 78.1429 161.317 78.5982 160.232 78.5994ZM87.0305 53.9635C86.0729 53.9647 85.1548 54.3664 84.4777 55.0806C83.8006 55.7948 83.4197 56.7632 83.4186 57.7732V74.2818C83.4197 75.2919 83.8006 76.2602 84.4777 76.9744C85.1548 77.6886 86.0729 78.0903 87.0305 78.0915H160.232C161.189 78.0903 162.107 77.6886 162.784 76.9744C163.461 76.2602 163.842 75.2919 163.843 74.2818V57.7732C163.842 56.7632 163.461 55.7948 162.784 55.0806C162.107 54.3664 161.189 53.9647 160.232 53.9635H87.0305Z" fill="#3F3D56"/>
<path d="M151.322 74.4089H95.9399C94.8865 74.4077 93.8766 73.9658 93.1318 73.1801C92.387 72.3945 91.968 71.3293 91.9668 70.2183V61.583C91.968 60.4719 92.387 59.4068 93.1318 58.6211C93.8766 57.8355 94.8865 57.3936 95.9399 57.3923H151.322C152.376 57.3936 153.385 57.8355 154.13 58.6211C154.875 59.4068 155.294 60.4719 155.295 61.583V70.2183C155.294 71.3293 154.875 72.3945 154.13 73.1801C153.385 73.9658 152.376 74.4077 151.322 74.4089Z" fill="#F2F2F2"/>
<path d="M107.858 69.7546C110.482 69.7546 112.609 67.5108 112.609 64.743C112.609 61.9752 110.482 59.7314 107.858 59.7314C105.234 59.7314 103.106 61.9752 103.106 64.743C103.106 67.5108 105.234 69.7546 107.858 69.7546Z" fill="#FF6584"/>
<path d="M147.881 73.903L141.174 67.9701L134.583 62.1397C134.409 61.9858 134.189 61.9017 133.962 61.9022C133.735 61.9026 133.516 61.9876 133.342 62.1422L126.773 67.9994L125.168 69.4301L122.748 67.2897L115.395 60.7851C115.221 60.6313 115.002 60.5471 114.775 60.5476C114.548 60.5481 114.328 60.6331 114.155 60.7876L106.825 67.3221L99.3808 73.9595C99.3431 73.9931 99.3161 74.0381 99.3034 74.0885C99.2908 74.1388 99.2931 74.1921 99.3102 74.241C99.3272 74.2899 99.358 74.3321 99.3986 74.3618C99.4391 74.3916 99.4873 74.4075 99.5367 74.4074L114.8 74.3764L119.631 74.3666L119.584 74.4087L133.985 74.3795L147.726 74.3515C147.776 74.3515 147.824 74.3354 147.864 74.3054C147.905 74.2755 147.935 74.2332 147.952 74.1842C147.969 74.1352 147.971 74.082 147.958 74.0317C147.946 73.9814 147.918 73.9364 147.881 73.903Z" fill="#3F3D56"/>
<path d="M210.759 168H164.527C164.463 168 164.402 167.973 164.357 167.925C164.312 167.878 164.286 167.813 164.286 167.746C164.286 167.679 164.312 167.614 164.357 167.566C164.402 167.519 164.463 167.492 164.527 167.492H210.759C210.823 167.492 210.884 167.519 210.929 167.566C210.975 167.614 211 167.679 211 167.746C211 167.813 210.975 167.878 210.929 167.925C210.884 167.973 210.823 168 210.759 168Z" fill="#CCCCCC"/>
<path d="M145.453 33.5028C145.26 33.1732 145.006 32.8883 144.706 32.6656C144.406 32.4429 144.066 32.2871 143.707 32.2075C143.575 32.1784 143.442 32.1605 143.307 32.1542L124.961 14.8532C124.601 14.4625 124.12 14.2202 123.605 14.17C123.504 14.1577 123.402 14.1543 123.3 14.1598C122.876 14.1801 122.468 14.33 122.124 14.5913C121.78 14.8525 121.516 15.2138 121.364 15.6309C121.212 16.048 121.178 16.5028 121.267 16.9398C121.356 17.3768 121.563 17.7769 121.865 18.0914L128.888 24.5501L140.422 35.1537C140.432 35.3534 140.46 35.5516 140.507 35.7455C140.645 36.307 140.941 36.811 141.357 37.1906C141.773 37.5703 142.288 37.8076 142.835 37.8713C143.334 37.9327 143.839 37.8447 144.292 37.6173C144.651 37.44 144.97 37.1826 145.226 36.863C145.253 36.8299 145.277 36.7995 145.301 36.7639C145.638 36.3011 145.833 35.741 145.86 35.1583C145.887 34.5757 145.745 33.9982 145.453 33.5028H145.453Z" fill="#FFB8B8"/>
<path d="M114.072 50.1767L113.902 42.8469L113.757 36.7641L113.658 32.5074L113.463 24.2099C113.425 23.7657 113.264 23.3429 113.002 22.9932C112.739 22.6434 112.386 22.3819 111.985 22.2405C111.583 22.0991 111.152 22.084 110.743 22.1969C110.334 22.3099 109.964 22.546 109.68 22.8765C109.613 22.9521 109.553 23.0336 109.5 23.1204C109.203 23.5682 109.07 24.1137 109.124 24.6569L109.553 36.7641L109.767 42.8469L110.042 50.6059C109.962 50.7199 109.891 50.8396 109.827 50.964C109.656 51.3065 109.553 51.6821 109.523 52.0681C109.494 52.4541 109.539 52.8423 109.656 53.2092C109.779 53.594 109.977 53.9471 110.238 54.2452C110.499 54.5433 110.817 54.7797 111.171 54.9388C111.525 55.0979 111.907 55.1761 112.292 55.1682C112.676 55.1603 113.055 55.0666 113.403 54.8931C113.807 54.6916 114.158 54.3882 114.424 54.0098C114.691 53.6314 114.865 53.1895 114.931 52.7233C114.997 52.2571 114.953 51.7809 114.804 51.3368C114.654 50.8926 114.403 50.4942 114.072 50.1767H114.072Z" fill="#FFB8B8"/>
<path d="M130.591 29.4139L128.888 24.5502L126.133 16.6718C125.935 16.0986 125.616 15.5799 125.201 15.1543C124.787 14.7287 124.286 14.4071 123.737 14.2133C123.694 14.1981 123.649 14.1828 123.605 14.1701C123.074 13.9999 122.513 13.9531 121.963 14.0329C121.413 14.1127 120.885 14.3172 120.417 14.6324L111.139 20.8396C110.29 21.4068 109.682 22.3001 109.445 23.3309C109.209 24.3617 109.361 25.4492 109.87 26.3636C111.031 28.4797 112.295 30.5304 113.658 32.5074C114.739 34.0592 116.752 34.2243 117.101 36.7641H123.942L130.867 30.2063L130.591 29.4139Z" fill="#CCCCCC"/>
<path d="M24.3598 88.8554C27.4414 88.8554 29.9394 86.2206 29.9394 82.9703C29.9394 79.7201 27.4414 77.0852 24.3598 77.0852C21.2783 77.0852 18.7803 79.7201 18.7803 82.9703C18.7803 86.2206 21.2783 88.8554 24.3598 88.8554Z" fill="#A0616A"/>
<path d="M38.0575 78.9194C38.1125 78.9656 38.1658 79.0145 38.2174 79.0662C38.4737 79.3209 38.6761 79.6298 38.8113 79.9728C38.9466 80.3157 39.0116 80.6849 39.0021 81.0562C38.9926 81.4275 38.9088 81.7925 38.7563 82.1272C38.6038 82.462 38.3859 82.759 38.1169 82.9987C38.0542 83.0542 37.9888 83.1062 37.921 83.1545L38.2986 96.6014C38.3093 97.0416 38.1853 97.4737 37.9447 97.8337C37.7042 98.1936 37.3601 98.4621 36.9634 98.5995L36.9404 98.6047L26.589 99.7674C26.3076 99.7989 26.023 99.7714 25.7518 99.6863C25.4805 99.6012 25.2279 99.4603 25.0085 99.2717C24.7892 99.0831 24.6074 98.8505 24.4738 98.5874C24.3401 98.3243 24.2572 98.0358 24.2298 97.7387C24.2024 97.4416 24.2311 97.1417 24.3142 96.8564C24.3973 96.571 24.5332 96.3059 24.714 96.0762C24.8948 95.8466 25.1169 95.657 25.3676 95.5184C25.6182 95.3798 25.8924 95.2949 26.1743 95.2687L33.5533 94.5833L34.8294 82.9381C34.7459 82.8602 34.6677 82.7761 34.5954 82.6866C34.1953 82.1872 33.9855 81.5487 34.0066 80.8952C34.0278 80.2417 34.2785 79.6198 34.7099 79.1503C35.1414 78.6808 35.7229 78.3972 36.3415 78.3545C36.9602 78.3118 37.5717 78.5132 38.0575 78.9194H38.0575Z" fill="#A0616A"/>
<path d="M33.5493 164.876H36.3346L37.6594 153.546H33.5488L33.5493 164.876Z" fill="#A0616A"/>
<path d="M32.8389 163.917L38.3237 163.917H38.3239C38.7829 163.917 39.2374 164.012 39.6615 164.198C40.0856 164.383 40.4709 164.654 40.7955 164.997C41.1201 165.339 41.3775 165.746 41.5532 166.193C41.7288 166.64 41.8193 167.12 41.8192 167.604V167.724L32.839 167.724L32.8389 163.917Z" fill="#2F2E41"/>
<path d="M5.86719 160.815L8.26019 162.318L14.8948 153.297L11.3628 151.079L5.86719 160.815Z" fill="#A0616A"/>
<path d="M5.72179 159.607L10.4345 162.567L10.4347 162.567C10.8291 162.815 11.1734 163.142 11.4479 163.53C11.7224 163.918 11.9217 164.359 12.0346 164.829C12.1474 165.298 12.1715 165.786 12.1054 166.265C12.0394 166.744 11.8845 167.205 11.6497 167.621L11.5916 167.724L3.87549 162.878L5.72179 159.607Z" fill="#2F2E41"/>
<path d="M36.9913 160.874H33.8727C33.6201 160.875 33.3764 160.777 33.1887 160.598C33.0009 160.42 32.8824 160.175 32.8562 159.91L29.7121 128.737C29.7041 128.659 29.672 128.585 29.6205 128.528C29.569 128.471 29.5011 128.433 29.4272 128.421C29.3533 128.408 29.2776 128.422 29.2117 128.459C29.1458 128.496 29.0934 128.556 29.0626 128.627L23.3906 141.875L13.3487 159.146C13.2187 159.367 13.0175 159.532 12.7819 159.61C12.5462 159.687 12.2919 159.673 12.0656 159.569L8.05389 157.707C7.92124 157.646 7.80253 157.555 7.70561 157.441C7.6087 157.328 7.53579 157.194 7.49174 157.048C7.44769 156.902 7.43349 156.749 7.45009 156.597C7.46668 156.445 7.51369 156.298 7.58801 156.167L16.8193 139.864L19.6505 126.127C18.76 120.17 22.5773 111.314 22.616 111.225L22.6349 111.181L33.1498 106.847L33.2025 106.915C37.3492 121.268 39.8761 136.715 38.0103 159.887C37.9873 160.155 37.8702 160.405 37.6818 160.588C37.4934 160.771 37.2472 160.873 36.9913 160.874Z" fill="#2F2E41"/>
<path d="M22.2117 112.633L22.1627 112.524C22.1393 112.472 19.8013 107.271 17.9989 101.712C17.6525 100.637 17.5216 99.4979 17.6144 98.3667C17.7072 97.2355 18.0217 96.137 18.538 95.1408C19.061 94.1342 19.7765 93.2531 20.6391 92.5534C21.5018 91.8537 22.4928 91.3506 23.5495 91.076C25.3838 90.6123 27.3151 90.859 28.9914 91.7713C30.6677 92.6836 31.9775 94.2007 32.6822 96.0463C34.1119 99.8171 33.6562 103.842 33.2274 107.007L33.2189 107.071L33.1642 107.098L22.2117 112.633Z" fill="#3F3D56"/>
<path d="M31.1248 79.6461H22.2651V75.5727C24.2097 74.7579 26.1126 74.0649 27.2629 75.5727C28.2872 75.5727 29.2694 76.0019 29.9937 76.7658C30.7179 77.5297 31.1248 78.5658 31.1248 79.6461V79.6461Z" fill="#2F2E41"/>
<path d="M21.7746 74.8538C16.4781 74.8538 14.9956 81.8562 14.9956 85.8067C14.9956 88.0098 15.9402 88.7978 17.4246 89.0644L17.9488 86.1155L19.1766 89.1913C19.5936 89.1935 20.0316 89.185 20.4858 89.1761L20.9021 88.272L21.8304 89.1599C25.5484 89.1657 28.5535 89.7374 28.5535 85.8067C28.5535 81.8562 27.2533 74.8538 21.7746 74.8538Z" fill="#2F2E41"/>
<path d="M46.473 168H0.240793C0.176931 168 0.115684 167.973 0.0705264 167.925C0.025369 167.878 0 167.813 0 167.746C0 167.679 0.025369 167.614 0.0705264 167.566C0.115684 167.519 0.176931 167.492 0.240793 167.492H46.473C46.5369 167.492 46.5981 167.519 46.6433 167.566C46.6885 167.614 46.7138 167.679 46.7138 167.746C46.7138 167.813 46.6885 167.878 46.6433 167.925C46.5981 167.973 46.5369 168 46.473 168Z" fill="#CCCCCC"/>
<path d="M47.3423 84.441H36.9882C36.3817 84.4403 35.8003 84.1858 35.3715 83.7335C34.9426 83.2812 34.7014 82.6679 34.7007 82.0282V71.1071C34.7014 70.4674 34.9426 69.8542 35.3715 69.4018C35.8003 68.9495 36.3817 68.6951 36.9882 68.6943H47.3423C47.9488 68.6951 48.5302 68.9495 48.9591 69.4018C49.3879 69.8542 49.6291 70.4674 49.6298 71.1071V82.0282C49.6291 82.6679 49.3879 83.2812 48.9591 83.7335C48.5302 84.1858 47.9488 84.4403 47.3423 84.441Z" fill="white"/>
<path d="M47.3423 84.441H36.9882C36.3817 84.4403 35.8003 84.1858 35.3715 83.7335C34.9426 83.2812 34.7014 82.6679 34.7007 82.0282V71.1071C34.7014 70.4674 34.9426 69.8542 35.3715 69.4018C35.8003 68.9495 36.3817 68.6951 36.9882 68.6943H47.3423C47.9488 68.6951 48.5302 68.9495 48.9591 69.4018C49.3879 69.8542 49.6291 70.4674 49.6298 71.1071V82.0282C49.6291 82.6679 49.3879 83.2812 48.9591 83.7335C48.5302 84.1858 47.9488 84.4403 47.3423 84.441ZM36.9882 69.2023C36.5094 69.2029 36.0504 69.4037 35.7118 69.7608C35.3732 70.1179 35.1828 70.6021 35.1823 71.1071V82.0282C35.1828 82.5332 35.3732 83.0174 35.7118 83.3745C36.0504 83.7316 36.5094 83.9325 36.9882 83.9331H47.3423C47.8211 83.9325 48.2801 83.7316 48.6187 83.3745C48.9573 83.0174 49.1477 82.5332 49.1482 82.0282V71.1071C49.1477 70.6021 48.9573 70.1179 48.6187 69.7608C48.2801 69.4037 47.8211 69.2029 47.3423 69.2023H36.9882Z" fill="#3F3D56"/>
<path d="M45.5364 79.9963H38.7942C38.6026 79.9961 38.419 79.9158 38.2836 79.7729C38.1482 79.6301 38.072 79.4364 38.0718 79.2344V73.9009C38.072 73.6988 38.1482 73.5052 38.2836 73.3623C38.419 73.2195 38.6026 73.1391 38.7942 73.1389H40.6922C40.8156 73.1384 40.9371 73.1715 41.0449 73.235C41.1527 73.2985 41.2431 73.3903 41.3074 73.5014L41.8368 74.4088H45.5364C45.7279 74.409 45.9115 74.4894 46.0469 74.6322C46.1823 74.7751 46.2585 74.9687 46.2587 75.1707V79.2344C46.2585 79.4364 46.1823 79.6301 46.0469 79.7729C45.9115 79.9158 45.7279 79.9961 45.5364 79.9963Z" fill="#6C63FF"/>
<path d="M45.3169 82.6909C45.3506 82.756 45.3817 82.8229 45.4103 82.8916C45.5528 83.2313 45.6257 83.5988 45.6242 83.9702C45.6226 84.3417 45.5467 84.7085 45.4014 85.0469C45.256 85.3852 45.0446 85.6873 44.7808 85.9334C44.5171 86.1795 44.207 86.364 43.8709 86.4749C43.7927 86.5004 43.7133 86.5215 43.633 86.5383L39.034 99.0861C38.882 99.4962 38.6086 99.8436 38.2545 100.077C37.9004 100.31 37.4845 100.417 37.0684 100.381L37.0452 100.376L27.0772 97.2113C26.8062 97.1253 26.554 96.9834 26.3353 96.794C26.1165 96.6046 25.9355 96.3713 25.8027 96.1077C25.6699 95.844 25.588 95.5553 25.5616 95.258C25.5352 94.9608 25.5649 94.661 25.649 94.376C25.733 94.0909 25.8698 93.8262 26.0514 93.5972C26.233 93.3683 26.4558 93.1795 26.7069 93.0418C26.9581 92.9042 27.2326 92.8204 27.5146 92.7952C27.7966 92.7701 28.0806 92.8042 28.3501 92.8954L35.403 95.2838L40.8633 85.0734C40.815 84.9674 40.7739 84.858 40.7402 84.7459C40.5552 84.1219 40.5967 83.4475 40.8567 82.8539C41.1166 82.2603 41.5764 81.7898 42.1468 81.5336C42.7172 81.2775 43.3574 81.2541 43.9433 81.468C44.5291 81.6818 45.0187 82.1177 45.3169 82.6909H45.3169Z" fill="#A0616A"/>
</g>
<defs>
<clipPath id="clip0">
<rect width="211" height="168" fill="white"/>
</clipPath>
</defs>
</svg>
