<svg width="728" height="493" viewBox="0 0 728 493" fill="none" xmlns="http://www.w3.org/2000/svg">
<g clip-path="url(#clip0)">
<path opacity="0.1" d="M41.0074 253.053C43.0551 272.052 56.1188 289.25 64.0908 307.343C75.3675 333.04 76.4313 361.028 67.1281 387.256C65.2307 392.647 62.8896 398.056 62.8896 403.576C62.8896 422.609 89.1877 435.243 113.083 443.645C173.821 464.906 237.169 480.688 302.023 490.715C323.229 494.019 349.719 495.442 363.137 483.022C369.58 477.057 371.137 469.268 375.867 462.577C387.927 445.508 417.276 438.879 443.622 435.08C475.383 430.504 507.442 427.461 539.634 425.969C572.041 424.466 608.837 423.155 630.316 405.614C643.967 394.46 647.939 379.068 648.485 364.532C650.267 316.843 622.631 265.237 658.102 223.936C672.975 206.614 697.259 193.963 712.022 176.59C733.393 151.418 731.55 119.447 717.08 92.62C702.61 65.793 676.981 42.9841 651.72 20.631C643.366 13.2419 634.452 5.55449 621.907 2.12725C608.85 -1.44069 594.046 0.19696 580.047 1.88526C516.367 9.55013 450.27 17.9016 396.861 44.2278C370.338 57.3008 348.183 74.257 324.513 89.8512C273.397 123.544 214.181 154.665 146.685 167.969C91.8496 178.78 36.0795 207.936 41.0074 253.053Z" fill="#6C63FF"/>
<path d="M503.343 435.3C504.442 422.795 504.107 413.205 502.66 412.226C502.046 411.804 501.48 410.285 501.029 408.681C502.578 407.724 503.411 406.604 503.036 405.304C501.22 399.057 472.499 353.068 467.878 352.23C463.258 351.391 464.213 283.24 464.213 283.24L470.957 231.252H470.861C471.409 228.436 472.341 225.679 473.639 223.035C473.898 222.512 474.171 222.006 474.444 221.505C480.027 221.668 485.365 219.625 489.979 214.251C495.002 208.398 499.671 203.192 503.903 198.628C513.895 192.213 526.194 182.308 529.764 170.822C536.077 150.517 507.24 129.74 507.24 129.74L498.265 124.76C498.149 124.478 498.046 124.197 497.951 123.915C497.855 123.634 497.773 123.353 497.698 123.094C499.771 122.892 501.81 122.504 503.78 121.935C504.671 122.439 505.705 122.744 506.782 122.82C507.858 122.896 508.941 122.74 509.922 122.368L510.045 122.312C510.38 122.242 510.707 122.148 511.021 122.03C512.003 121.589 512.932 121.071 513.792 120.483C517.301 118.355 521.491 117.179 525.32 115.48C531.839 112.593 537.531 107.837 539.19 101.878C539.654 99.9456 539.903 97.9828 539.934 96.0135C540.115 94.5935 539.972 93.1579 539.51 91.7815C539.06 90.701 538.22 89.7612 537.695 88.7032C536.555 86.4071 537.012 83.8184 536.951 81.3366C536.869 76.66 534.903 71.9328 530.931 68.5843C526.959 65.2359 521.014 63.4406 515.485 64.4142C514.005 64.6973 512.554 65.0736 511.144 65.5398C510.509 65.7311 509.882 65.9337 509.254 66.1025C506.776 66.851 504.305 67.4194 501.746 66.9298C498.681 66.3389 496.012 64.2173 492.873 64.5211C492.218 64.5934 491.582 64.7531 490.989 64.9939C489.862 65.2921 488.807 65.7491 487.87 66.3445C486.45 67.178 485.107 68.0959 483.85 69.0908C482.252 70.357 480.724 71.8765 480.498 73.6942C480.443 74.4464 480.569 75.2002 480.869 75.912C481.169 76.6238 481.637 77.2797 482.246 77.8418C478.6 79.24 475.348 81.2508 472.7 83.7454C470.052 86.24 468.064 89.1633 466.866 92.3279C465.667 95.4926 465.284 98.8288 465.741 102.123C466.197 105.417 467.483 108.596 469.516 111.456C469.462 111.715 469.405 111.977 469.346 112.244C468.902 114.233 468.332 116.201 467.639 118.141C467.659 117.78 467.726 117.422 467.837 117.072C467.38 116.988 466.909 116.915 466.424 116.847H466.206C465.778 116.787 465.346 116.735 464.909 116.69H464.8C458.241 116.009 450.235 116.611 445.689 118.755C438.231 122.296 432.403 127.771 429.11 134.327C424.319 138.314 420.641 143.115 418.333 148.396C414.975 147.088 411.288 146.459 407.576 146.561C402.048 137.557 391.591 126.335 377.886 138.328C363.464 150.951 381.176 154.648 393.318 155.734C393.72 156.891 394.347 157.985 395.175 158.976C396.053 160.073 397.018 161.122 398.062 162.116C397.673 162.218 397.259 162.235 396.86 162.167C394.069 161.525 394.274 185.037 406.757 191.898C404.684 196.186 401.993 200.254 398.744 204.014C394.147 209.422 390.53 215.354 388.008 221.623C386.718 224.893 385.796 228.005 386.056 229.783C386.082 229.987 386.132 230.189 386.206 230.385C386.238 230.468 386.277 230.549 386.322 230.627C386.365 230.7 386.415 230.77 386.472 230.835C386.525 230.894 386.584 230.949 386.65 230.999C386.71 231.045 386.777 231.087 386.848 231.122C386.919 231.157 386.995 231.185 387.073 231.207C387.153 231.226 387.235 231.239 387.319 231.246H387.359C387.45 231.252 387.542 231.252 387.633 231.246H387.687C387.788 231.24 387.888 231.228 387.987 231.212H388.056L388.363 231.145H388.465L388.779 231.044L388.916 230.999L389.257 230.864L389.407 230.802L389.796 230.616L389.939 230.548L390.424 230.295L390.52 230.244L391.141 229.879C390.54 230.847 389.844 231.899 389.045 232.985C385.1 238.298 378.616 244.454 369.061 246.188C351.315 249.401 305.646 297.529 305.646 297.529C305.646 297.529 291.566 296.724 297.272 333.732C302.978 370.739 304.056 390.824 304.056 390.824L304.308 390.954C298.957 395.973 288.044 404.989 278.556 405.096C265.397 405.242 257.643 412.378 263.896 416.841C270.148 421.304 338.292 414.275 338.292 414.275C338.292 414.275 338.742 399.592 335.5 392.844C336.045 392.448 336.556 392.021 337.029 391.567L333.664 317.344C333.664 317.344 376.207 287.275 396.949 284.36C396.813 284.298 396.676 284.242 396.546 284.186C397.859 284.016 399.193 283.995 400.512 284.124C418.64 286.155 432.4 354.295 432.4 354.295C432.4 354.295 435.738 365.021 445.703 373.288C455.668 381.555 477.782 413.492 477.782 413.492L478.703 413.408L478.826 413.582C478.826 418.422 477.932 425.687 473.366 431.355C465.858 440.685 486.928 444.298 486.928 444.298C486.928 444.298 502.251 447.804 503.343 435.3Z" fill="url(#paint0_linear)"/>
<path d="M310.67 387.87C310.67 387.87 294.814 405.051 281.696 405.203C268.578 405.355 260.844 412.44 267.083 416.875C273.321 421.309 341.302 414.342 341.302 414.342C341.302 414.342 341.943 393.227 336.06 390.143C330.176 387.059 310.67 387.87 310.67 387.87Z" fill="#444176"/>
<path d="M480.929 408.495C480.929 408.495 483.359 422.103 475.865 431.383C468.371 440.663 489.393 444.242 489.393 444.242C489.393 444.242 504.661 447.748 505.774 435.316C506.886 422.885 506.524 413.369 505.091 412.356C503.658 411.343 502.463 404.347 502.463 404.347L480.929 408.495Z" fill="#444176"/>
<path d="M480.26 413.644C480.26 413.644 458.173 381.882 448.236 373.688C438.298 365.494 434.96 354.802 434.96 354.802C434.96 354.802 421.214 287.05 403.134 285.019C385.053 282.987 335.453 317.94 335.453 317.94L338.989 391.708C328.225 401.995 307.108 391.055 307.108 391.055C307.108 391.055 306.022 371.043 300.33 334.244C294.638 297.444 308.664 298.227 308.664 298.227C308.664 298.227 354.169 250.392 371.873 247.195C381.429 245.479 387.858 239.356 391.797 234.077C393.792 231.417 395.431 228.587 396.684 225.635L472.329 232.304L465.627 283.994C465.627 283.994 464.698 351.751 469.312 352.59C473.926 353.428 502.579 399.164 504.395 405.372C506.21 411.579 480.26 413.644 480.26 413.644Z" fill="#565387"/>
<g opacity="0.1">
<path opacity="0.1" d="M399.591 285.21C398.771 284.811 397.865 284.545 396.923 284.428C378.842 282.402 329.242 317.349 329.242 317.349L332.785 391.134C329.556 394.218 325.393 395.394 321.182 395.529C327.577 396.756 334.983 396.654 340.067 391.775L336.498 317.974C336.498 317.974 378.911 288.108 399.591 285.21Z" fill="black"/>
<path opacity="0.1" d="M505.426 405.473C503.61 399.283 474.958 353.53 470.344 352.691C465.73 351.853 466.658 284.096 466.658 284.096L473.36 232.406L466.105 231.764L459.403 283.454C459.403 283.454 458.474 351.211 463.088 352.05C467.702 352.888 496.355 398.624 498.171 404.831C499.399 409.035 487.933 411.326 480.35 412.367L481.298 413.717C481.298 413.717 507.242 411.68 505.426 405.473Z" fill="black"/>
</g>
<path d="M517.177 145.098C517.177 145.098 445.641 143.111 458.718 135.193C466.786 130.303 470.273 120.741 471.768 114.129C472.309 111.792 472.669 109.429 472.847 107.055C472.847 107.055 510.98 103.937 501.602 115.637C499.145 118.71 499.042 122.193 500.237 125.66C503.602 135.43 517.177 145.098 517.177 145.098Z" fill="#FFBEC7"/>
<path d="M439.362 130.894C439.362 130.894 422.053 138.874 418.64 157.152C415.227 175.431 412.422 156.59 412.422 156.59C412.422 156.59 402.505 164.356 399.454 163.658C396.403 162.96 396.942 191.087 413.248 194.689C429.554 198.291 442.433 139.363 442.433 139.363L439.362 130.894Z" fill="#DFE5EE"/>
<path opacity="0.05" d="M439.362 130.894C439.362 130.894 422.053 138.874 418.64 157.152C415.227 175.431 412.422 156.59 412.422 156.59C412.422 156.59 402.505 164.356 399.454 163.658C396.403 162.96 396.942 191.087 413.248 194.689C429.554 198.291 442.433 139.363 442.433 139.363L439.362 130.894Z" fill="black"/>
<path d="M414.544 156.787C414.544 156.787 401.249 121.895 380.568 139.966C359.887 158.036 405.515 157.721 405.515 157.721L414.544 156.787Z" fill="#FFBEC7"/>
<path opacity="0.1" d="M501.61 115.643C499.153 118.716 499.05 122.199 500.245 125.666C494.648 126.268 488.961 125.494 483.895 123.442C478.829 121.389 474.611 118.15 471.77 114.129C472.311 111.792 472.671 109.429 472.848 107.055C472.848 107.055 510.988 103.937 501.61 115.643Z" fill="black"/>
<path d="M524.978 104.738C527.242 91.8208 516.377 79.8371 500.711 77.9711C485.045 76.1052 470.511 85.0637 468.248 97.9804C465.985 110.897 476.85 122.881 492.516 124.747C508.181 126.613 522.715 117.654 524.978 104.738Z" fill="#FFBEC7"/>
<path opacity="0.1" d="M472.329 232.315L471.346 239.873C462.999 238.033 405.734 225.804 393.612 233.154C393.038 233.509 392.431 233.827 391.797 234.105C393.792 231.446 395.431 228.615 396.684 225.664L472.329 232.315Z" fill="black"/>
<path d="M531.989 172.33C528.173 184.582 514.366 194.993 504.1 201.29C500.325 203.629 496.379 205.775 492.285 207.717C492.285 207.717 481.658 212.821 476.034 224.229C473.893 228.596 472.736 233.25 472.622 237.96C472.622 237.96 406.948 223.097 393.871 231.016C386.997 235.18 388.083 229.293 390.663 222.777C393.175 216.544 396.778 210.648 401.358 205.275C404.969 200.992 409.501 194.717 410.866 188.87C412.674 181.104 424.953 151.564 430.659 138.058C433.717 130.665 439.932 124.442 448.146 120.55C453.442 118.08 463.353 117.669 470.26 118.924C470.26 118.924 468.035 125.03 478.259 126.122C479.365 126.24 480.464 126.403 481.549 126.611C485.644 127.405 495.739 128.986 500.217 126.318L509.506 131.457C509.506 131.457 538.275 152.144 531.989 172.33Z" fill="#DFE5EE"/>
<path opacity="0.1" d="M501.767 90.7742C502.416 89.7724 501.945 88.4781 501.017 87.6339C500.019 86.8435 498.837 86.2288 497.543 85.8275L491.311 83.4976C489.214 82.8138 487.259 81.8644 485.516 80.6838C483.851 79.4344 482.65 77.6279 482.875 75.7877C483.1 73.9475 484.622 72.4674 486.219 71.2124C487.472 70.2234 488.811 69.3112 490.226 68.483C491.356 67.7316 492.695 67.2248 494.123 67.0086C497.242 66.7047 499.904 68.815 502.962 69.4059C507.569 70.2951 511.999 67.667 516.613 66.8566C522.127 65.8886 528.086 67.6782 532.017 71.0042C535.949 74.3301 537.942 79.0349 538.024 83.6833C538.072 86.1539 537.635 88.7482 538.768 90.9993C539.286 92.0516 540.133 92.9858 540.576 94.0607C541.037 95.4295 541.181 96.8576 541 98.2702C540.979 100.235 540.739 102.194 540.283 104.123C538.631 110.049 532.953 114.771 526.455 117.629C522.633 119.318 518.455 120.488 514.961 122.599C514.113 123.182 513.198 123.696 512.231 124.135C511.254 124.501 510.18 124.653 509.111 124.577C508.042 124.501 507.015 124.2 506.129 123.702C505.509 123.374 504.998 122.925 504.641 122.395C504.283 121.864 504.091 121.269 504.081 120.663C504.149 119.458 505.132 118.44 505.89 117.41C507.869 114.725 508.333 110.921 505.699 108.642C504.545 107.646 502.969 107.061 501.829 106.042C500 104.354 499.781 101.923 499.72 99.6715C499.542 95.4676 499.413 91.0893 501.542 87.2906" fill="black"/>
<path d="M502.114 87.2963C501.117 86.5058 499.935 85.8912 498.64 85.4898L492.409 83.16C490.311 82.4761 488.356 81.5268 486.614 80.3461C484.949 79.0968 483.747 77.2903 483.972 75.4501C484.198 73.6098 485.72 72.1297 487.317 70.8748C488.57 69.8858 489.909 68.9736 491.323 68.1454C492.453 67.394 493.793 66.8871 495.221 66.6709C498.34 66.367 501.002 68.4774 504.06 69.0683C508.667 69.9575 513.096 67.3293 517.71 66.519C523.225 65.551 529.184 67.3406 533.115 70.6666C537.047 73.9925 539.04 78.6972 539.121 83.3457C539.169 85.8162 538.732 88.4106 539.865 90.6616C540.384 91.714 541.23 92.6482 541.674 93.7231C542.135 95.0918 542.278 96.5199 542.097 97.9326C542.068 99.8905 541.821 101.842 541.36 103.763C539.708 109.689 534.03 114.41 527.532 117.269C523.71 118.958 519.533 120.128 516.038 122.238C515.19 122.821 514.276 123.336 513.308 123.775C512.331 124.141 511.257 124.293 510.188 124.217C509.119 124.141 508.092 123.84 507.206 123.341C506.587 123.014 506.075 122.565 505.718 122.035C505.361 121.504 505.168 120.909 505.158 120.303C505.227 119.098 506.21 118.08 506.967 117.05C508.946 114.365 509.411 110.561 506.776 108.282C505.623 107.286 504.046 106.7 502.906 105.682C501.077 103.994 500.858 101.562 500.797 99.3113C500.62 95.1075 499.753 91.1456 501.882 87.3244" fill="#88455E"/>
<path opacity="0.1" d="M521.704 183.394C517.507 187.395 511.466 193.361 504.122 201.29C500.347 203.629 496.401 205.775 492.307 207.717C492.307 207.717 481.68 212.821 476.056 224.229C453.69 225.196 426.654 188.538 426.654 188.538L444.359 173.248L474.541 191.031L484.37 173.67C486.976 169.059 490.996 165.089 496.031 162.15C501.066 159.211 506.944 157.405 513.084 156.91L513.555 156.877C519.841 156.404 523.472 159.499 525.561 163.416C527.269 166.707 527.813 170.329 527.13 173.864C526.448 177.399 524.567 180.703 521.704 183.394Z" fill="black"/>
<g opacity="0.05">
<path opacity="0.05" d="M465.599 118.513C465.599 118.513 463.374 124.619 473.599 125.711C474.704 125.829 475.803 125.992 476.889 126.2C479.933 126.802 483.034 127.188 486.157 127.354C484.321 127.118 482.697 126.836 481.55 126.611C480.404 126.386 479.366 126.24 478.26 126.122C468.022 125.03 470.261 118.924 470.261 118.924C468.25 118.572 466.207 118.357 464.152 118.282C464.651 118.355 465.135 118.429 465.599 118.513Z" fill="black"/>
<path opacity="0.05" d="M509.514 131.462L500.224 126.324C499.528 126.724 498.758 127.03 497.945 127.23L504.852 131.051C504.852 131.051 533.614 151.733 527.328 171.919C523.513 184.171 509.705 194.582 499.44 200.879C495.664 203.218 491.718 205.365 487.625 207.306C487.625 207.306 476.998 212.41 471.374 223.818C469.335 227.995 468.198 232.435 468.016 236.936C470.93 237.549 472.643 237.938 472.643 237.938C472.758 233.227 473.914 228.574 476.056 224.206C481.68 212.799 492.307 207.694 492.307 207.694C496.401 205.753 500.346 203.607 504.122 201.268C514.36 194.976 528.195 184.559 532.01 172.308C538.276 152.144 509.514 131.462 509.514 131.462Z" fill="black"/>
<path opacity="0.05" d="M389.23 230.605L388.738 230.886C388.998 232.664 390.445 233.103 393.891 231.016C397.987 228.551 407.126 228.292 417.78 229.108C405.181 227.853 393.878 227.791 389.23 230.605Z" fill="black"/>
</g>
<path opacity="0.05" d="M407.604 196.614C407.604 196.614 412.879 207.869 420.203 211.949C427.527 216.029 437.116 222.945 437.116 222.945" fill="black"/>
<path d="M507.37 399.401L496.367 360.221C491.671 353.789 486.846 350.333 482.798 348.493C477.584 345.848 473.434 345.865 472.124 345.96L470.649 344.677C465.039 338.144 462.063 321.041 462.063 321.041C461.77 313.022 455.606 307.591 447.675 303.922C434.311 297.321 415.145 296.043 411.071 295.846L407.822 290.517L406.948 290.342L406.743 290.005C406.061 289.853 405.29 289.723 404.546 289.599L410.293 192.359L410.347 191.419L433.042 192.331C434.818 192.347 436.533 191.795 437.827 190.791C439.121 189.787 439.893 188.409 439.981 186.946C440.07 185.483 439.467 184.048 438.301 182.943C437.134 181.838 435.494 181.149 433.724 181.019L407.153 179.95V179.477L409.637 137.461V136.989C410.821 136.225 411.79 135.259 412.479 134.158C413.167 133.056 413.557 131.845 413.623 130.607C413.714 129.515 413.539 128.42 413.109 127.385C412.68 126.35 412.005 125.396 411.123 124.579C410.241 123.762 409.17 123.098 407.973 122.626C406.777 122.154 405.478 121.883 404.152 121.83C402.827 121.777 401.503 121.942 400.256 122.316C399.009 122.69 397.865 123.265 396.892 124.008C395.918 124.751 395.133 125.647 394.584 126.642C394.035 127.638 393.732 128.714 393.693 129.808C393.614 131.045 393.86 132.281 394.415 133.432C394.97 134.584 395.82 135.622 396.908 136.476V136.949L394.41 178.971V179.444L367.812 178.408C366.035 178.392 364.32 178.944 363.026 179.948C361.732 180.952 360.96 182.33 360.872 183.793C360.783 185.256 361.386 186.691 362.552 187.796C363.719 188.901 365.359 189.59 367.129 189.72L388.718 190.586L388.663 191.526L382.841 290.01C374.495 290.875 366.247 292.288 358.174 294.237L348.782 321.728L321.351 325.825L307.059 351.712L293.736 370.975C292.323 371.403 290.951 371.859 289.641 372.326C239.986 389.603 237.973 432.508 237.973 432.508C251.808 451.957 321.672 443.432 321.672 443.432C361.546 472.904 440.802 455.779 440.802 455.779C459.913 459.662 475.038 461.344 486.969 461.721C520.236 462.768 528.603 453.634 528.603 453.634C540.575 428.603 507.37 399.401 507.37 399.401Z" fill="url(#paint1_linear)"/>
<path d="M397.297 136.239L390.916 185.471L403.634 186.591L410.015 137.36L397.297 136.239Z" fill="#6C63FF"/>
<path d="M385.582 187.768L371.283 298.083L392.845 299.983L407.143 189.668L385.582 187.768Z" fill="#F0F5FA"/>
<path opacity="0.05" d="M407.174 189.666L396.668 188.741L382.37 299.056L392.875 299.982L407.174 189.666Z" fill="black"/>
<path opacity="0.1" d="M385.585 187.772L384.994 192.332L406.555 194.232L407.147 189.672L385.585 187.772Z" fill="black"/>
<path opacity="0.1" d="M391.566 180.46L390.916 185.474L403.634 186.594L404.284 181.58L391.566 180.46Z" fill="black"/>
<path d="M430.78 184.364L364.997 178.568C361.331 178.245 358.042 180.432 357.65 183.453C357.259 186.474 359.913 189.184 363.579 189.507L429.363 195.304C433.028 195.627 436.317 193.44 436.709 190.419C437.1 187.398 434.446 184.687 430.78 184.364Z" fill="#6C63FF"/>
<path d="M241.223 434.197C241.223 434.197 240.67 390.188 293.485 372.292L305.716 353.04L318.506 327.367L345.753 322.302L353.534 295.255C353.534 295.255 383.566 286.544 403.018 289.751L406.909 295.255C406.909 295.255 456.952 294.799 459.17 317.259C459.17 317.259 464.173 337.89 471.401 341.56C471.401 341.56 483.632 339.269 495.863 353.94L509.207 391.533C509.207 391.533 544.235 418.58 533.669 443.336C533.669 443.336 519.213 460.298 445.82 448.84C445.82 448.84 367.424 468.537 325.694 441.524C325.741 441.529 256.239 452.531 241.223 434.197Z" fill="#A8A8A8"/>
<path opacity="0.1" d="M276.25 427.32C276.25 427.32 287.369 414.483 286.816 405.315C286.263 396.148 289.437 373.772 289.437 373.772" stroke="black" stroke-miterlimit="10"/>
<path opacity="0.1" d="M316.84 392.935C316.84 392.935 327.958 375.973 326.846 366.805C326.846 366.805 338.524 349.36 347.417 350.761" stroke="black" stroke-miterlimit="10"/>
<path opacity="0.1" d="M378.002 344.801C378.002 344.801 408.58 335.634 410.252 328.295" stroke="black" stroke-miterlimit="10"/>
<path opacity="0.1" d="M389.121 365.888C389.121 365.888 421.371 353.991 421.371 350.761H437.492C437.492 350.761 460.842 375.973 458.064 386.98" stroke="black" stroke-miterlimit="10"/>
<path opacity="0.1" d="M426.933 384.223C426.933 384.223 395.796 382.388 384.677 389.727C373.559 397.065 353.54 400.729 353.54 400.729C353.54 400.729 341.862 421.36 337.418 425.029C332.975 428.698 325.74 441.535 325.74 441.535" stroke="black" stroke-miterlimit="10"/>
<path opacity="0.1" d="M426.934 408.523C426.934 408.523 430.244 418.146 434.714 423.65C439.185 429.154 445.833 448.862 445.833 448.862" stroke="black" stroke-miterlimit="10"/>
<path opacity="0.1" d="M479.195 436.487C479.195 436.487 486.253 452.678 492.457 452.807" stroke="black" stroke-miterlimit="10"/>
<path opacity="0.1" d="M432.975 366.991C432.975 366.991 451.308 371.077 458.972 380.976C466.637 390.875 490.076 399.857 490.076 399.857" stroke="black" stroke-miterlimit="10"/>
<path opacity="0.1" d="M440.83 318.21C440.83 318.21 440.83 339.297 448.058 339.297C455.286 339.297 471.414 341.61 471.414 341.61" stroke="black" stroke-miterlimit="10"/>
<path opacity="0.1" d="M405.427 293.184C405.427 293.184 403.577 329.612 394.131 339.038" stroke="black" stroke-miterlimit="10"/>
<g opacity="0.05">
<path opacity="0.05" d="M508.107 391.1L494.764 353.507C482.533 338.836 470.302 341.126 470.302 341.126C463.074 337.463 458.071 316.849 458.071 316.849C455.846 294.383 405.809 294.844 405.809 294.844L401.918 289.341C396.99 288.53 391.387 288.48 385.77 288.862C387.135 288.975 388.425 289.132 389.687 289.341L393.578 294.844C393.578 294.844 443.621 294.389 445.84 316.849C445.84 316.849 450.843 337.48 458.071 341.149C458.071 341.149 470.302 338.858 482.533 353.53L495.876 391.122C495.876 391.122 530.904 418.146 520.338 442.908C520.338 442.908 513.206 451.276 483.529 452.284C523.533 453.494 532.569 442.908 532.569 442.908C543.135 418.146 508.107 391.1 508.107 391.1Z" fill="black"/>
<path opacity="0.05" d="M312.389 441.074C300.618 442.808 288.716 443.87 276.768 444.253C290.691 444.692 305.182 443.454 314.519 442.39C313.804 441.963 313.094 441.524 312.389 441.074Z" fill="black"/>
<path opacity="0.05" d="M432.488 448.406C415.368 452.364 397.746 454.661 379.98 455.25C405.61 456.015 429.888 451.614 439.9 449.498C437.498 449.166 435.02 448.806 432.488 448.406Z" fill="black"/>
</g>
<path opacity="0.05" d="M409.803 137.107L403.166 136.522L397.376 181.194L404.013 181.778L409.803 137.107Z" fill="black"/>
<path opacity="0.1" d="M410.033 137.377L409.569 140.956C407.623 142.021 405.287 142.491 402.965 142.285C400.643 142.08 398.481 141.211 396.854 139.831L397.318 136.251L410.033 137.377Z" fill="black"/>
<path d="M414.019 134.491C414.606 129.96 410.627 125.895 405.133 125.411C399.638 124.926 394.707 128.207 394.12 132.737C393.533 137.268 397.511 141.333 403.006 141.818C408.501 142.302 413.431 139.021 414.019 134.491Z" fill="#6C63FF"/>
<path opacity="0.05" d="M414.04 134.512C413.754 136.687 412.434 138.679 410.368 140.05C408.302 141.422 405.661 142.062 403.023 141.828L405.153 125.418C406.461 125.533 407.729 125.86 408.884 126.379C410.039 126.899 411.058 127.601 411.884 128.446C412.709 129.29 413.324 130.261 413.694 131.302C414.064 132.343 414.182 133.434 414.04 134.512Z" fill="black"/>
<path d="M448.332 174.891L441.356 184.216L434.681 179.438L425.535 172.887C425.535 172.887 408.622 174.013 397.797 160.507C393.155 154.727 396.766 151.418 402.397 149.533C407.056 148.009 412.186 147.761 417.03 148.825C421.873 149.889 426.174 152.208 429.296 155.442L448.332 174.891Z" fill="#FFBEC7"/>
<path opacity="0.1" d="M448.331 174.891L441.363 184.216L434.688 179.432L444.496 170.968L448.331 174.891Z" fill="black"/>
<path d="M486.663 172.145L476.834 189.5L446.625 171.717L428.947 187.007C428.947 187.007 469.504 242.001 492.355 215.494C506.217 199.394 517.384 188.183 524.011 181.863C526.877 179.174 528.762 175.871 529.447 172.335C530.132 168.8 529.589 165.177 527.881 161.885C525.792 157.946 522.161 154.879 515.875 155.346L515.404 155.385C509.259 155.876 503.376 157.681 498.336 160.62C493.295 163.559 489.272 167.531 486.663 172.145Z" fill="#DFE5EE"/>
<path d="M627.381 371.634C627.381 371.634 618.33 346.309 629.08 327.659C633.648 319.863 635.025 311.056 633.005 302.56C632.009 298.534 630.567 294.591 628.698 290.781" stroke="#535461" stroke-width="2" stroke-miterlimit="10"/>
<path d="M635.373 278.997C635.373 282.103 628.548 291.102 628.548 291.102C628.548 291.102 621.723 282.098 621.723 278.997C621.723 277.504 622.442 276.073 623.722 275.018C625.002 273.962 626.738 273.369 628.548 273.369C630.358 273.369 632.094 273.962 633.374 275.018C634.654 276.073 635.373 277.504 635.373 278.997Z" fill="#6C63FF"/>
<path d="M646.649 296.189C644.601 298.795 632.943 303.297 632.943 303.297C632.943 303.297 633.155 292.683 635.203 290.078C636.223 288.899 637.756 288.091 639.481 287.82C641.207 287.549 642.993 287.838 644.467 288.625C645.941 289.412 646.991 290.637 647.397 292.046C647.803 293.455 647.535 294.939 646.649 296.189Z" fill="#6C63FF"/>
<path d="M646.15 325.577C642.785 326.973 629.967 326.01 629.967 326.01C629.967 326.01 636.649 316.939 640.007 315.543C640.811 315.172 641.697 314.939 642.613 314.859C643.528 314.778 644.455 314.851 645.335 315.073C646.216 315.295 647.033 315.661 647.737 316.151C648.442 316.64 649.018 317.242 649.433 317.919C649.848 318.597 650.092 319.338 650.151 320.095C650.21 320.853 650.082 321.613 649.775 322.329C649.468 323.045 648.989 323.702 648.366 324.261C647.743 324.821 646.989 325.27 646.15 325.583V325.577Z" fill="#6C63FF"/>
<path d="M639.708 347.744C636.677 349.59 623.846 350.423 623.846 350.423C623.846 350.423 628.569 340.552 631.599 338.706C632.315 338.224 633.142 337.866 634.03 337.655C634.918 337.444 635.849 337.384 636.766 337.479C637.683 337.573 638.567 337.82 639.365 338.205C640.163 338.589 640.858 339.104 641.407 339.716C641.957 340.329 642.35 341.027 642.562 341.769C642.775 342.51 642.803 343.28 642.644 344.031C642.485 344.781 642.143 345.497 641.638 346.136C641.133 346.774 640.477 347.322 639.708 347.744Z" fill="#6C63FF"/>
<path d="M618.623 303.905C621.353 306.066 633.905 308.311 633.905 308.311C633.905 308.311 630.827 298.007 628.124 295.846C627.495 295.284 626.733 294.834 625.886 294.523C625.039 294.212 624.124 294.046 623.197 294.036C622.269 294.026 621.349 294.172 620.493 294.465C619.636 294.758 618.861 295.192 618.214 295.741C617.568 296.289 617.064 296.94 616.733 297.654C616.402 298.369 616.251 299.131 616.289 299.895C616.327 300.659 616.554 301.409 616.955 302.098C617.356 302.788 617.924 303.402 618.623 303.905Z" fill="#6C63FF"/>
<path d="M611.492 329.899C614.856 331.295 627.674 330.332 627.674 330.332C627.674 330.332 620.992 321.261 617.634 319.865C616.831 319.494 615.944 319.261 615.029 319.181C614.113 319.1 613.187 319.173 612.306 319.395C611.425 319.617 610.608 319.983 609.904 320.473C609.2 320.962 608.623 321.564 608.208 322.242C607.793 322.919 607.549 323.66 607.49 324.417C607.432 325.175 607.56 325.935 607.866 326.651C608.173 327.367 608.652 328.024 609.275 328.583C609.899 329.143 610.652 329.592 611.492 329.905V329.899Z" fill="#6C63FF"/>
<path d="M608.755 355.955C611.785 357.801 624.617 358.634 624.617 358.634C624.617 358.634 619.894 348.763 616.863 346.917C615.405 346.115 613.629 345.806 611.902 346.055C610.175 346.303 608.631 347.09 607.588 348.252C606.546 349.414 606.085 350.862 606.303 352.296C606.52 353.73 607.398 355.04 608.755 355.955Z" fill="#6C63FF"/>
<path d="M50.93 284.698C50.93 284.698 79.4873 308.244 63.3658 343.18C47.2443 378.117 91.0222 436.217 91.0222 436.217C91.0222 436.217 90.5512 436.161 89.6571 436.037C31.0068 427.5 1.86931 372.197 34.4809 331.109C46.6096 315.83 56.5609 297.911 50.93 284.698Z" fill="#6C63FF"/>
<path opacity="0.1" d="M50.9312 285.086C50.9312 285.086 79.4885 308.632 63.367 343.569C47.2455 378.505 91.0233 436.605 91.0233 436.605C91.0233 436.605 90.5524 436.549 89.6583 436.425C31.0148 427.888 1.87728 372.562 34.4889 331.48C46.6107 316.224 56.5621 298.277 50.9312 285.086Z" fill="black"/>
<path d="M50.9311 284.698C50.9311 284.698 67.0526 313.556 50.9311 337.103C34.8096 360.649 48.201 426.723 91.0028 436.217" stroke="#535461" stroke-miterlimit="10"/>
<path d="M0.0742188 379.923C0.0742188 379.923 32.6585 375.646 35.6275 399.722C38.5966 423.797 98.2844 427.151 98.2844 427.151L97.165 427.753C47.8859 454.428 0.770406 444.743 7.87561 409.322C10.4829 396.159 10.2986 382.934 0.0742188 379.923Z" fill="#6C63FF"/>
<path d="M0.0742188 379.923C0.0742188 379.923 25.369 384.499 23.2805 403.464C21.1919 422.429 60.8472 445.159 98.2844 427.151" stroke="#535461" stroke-miterlimit="10"/>
<path d="M599.594 366.259C599.594 366.259 614.889 365.871 619.497 363.164C624.104 360.457 643.023 357.227 644.163 361.566C645.303 365.905 667.144 383.148 649.883 383.266C632.622 383.384 609.764 381.049 605.163 378.764C600.563 376.479 599.594 366.259 599.594 366.259Z" fill="#A8A8A8"/>
<path opacity="0.2" d="M650.19 381.758C632.922 381.871 610.071 379.541 605.47 377.256C601.969 375.494 600.57 369.186 600.106 366.271H599.594C599.594 366.271 600.563 376.44 605.163 378.753C609.764 381.066 632.615 383.396 649.883 383.255C654.865 383.221 656.585 381.758 656.497 379.597C655.801 380.914 653.896 381.73 650.19 381.758Z" fill="black"/>
<path d="M123.552 429.143C123.552 429.143 97.8816 424.9 91.0221 419.272C84.1626 413.644 53.3802 403.757 49.9607 410.831C46.5412 417.904 3.78029 441.839 32.87 446.071C61.9597 450.303 101.308 451.699 109.86 448.885C118.412 446.071 123.552 429.143 123.552 429.143Z" fill="#A8A8A8"/>
<path opacity="0.2" d="M32.871 443.471C61.9607 447.703 101.309 449.099 109.861 446.285C116.379 444.135 120.905 433.814 122.693 429.008L123.546 429.154C123.546 429.154 118.413 446.082 109.861 448.902C101.309 451.721 61.9539 450.314 32.871 446.088C24.4758 444.867 22.0733 441.996 22.9811 438.367C23.6909 440.719 26.619 442.542 32.871 443.471Z" fill="black"/>
</g>
<defs>
<linearGradient id="paint0_linear" x1="381.188" y1="435.088" x2="414.69" y2="54.8781" gradientUnits="userSpaceOnUse">
<stop stop-color="#808080" stop-opacity="0.25"/>
<stop offset="0.54" stop-color="#808080" stop-opacity="0.12"/>
<stop offset="1" stop-color="#808080" stop-opacity="0.1"/>
</linearGradient>
<linearGradient id="paint1_linear" x1="164134" y1="289878" x2="172853" y2="84736.5" gradientUnits="userSpaceOnUse">
<stop stop-color="#808080" stop-opacity="0.25"/>
<stop offset="0.54" stop-color="#808080" stop-opacity="0.12"/>
<stop offset="1" stop-color="#808080" stop-opacity="0.1"/>
</linearGradient>
<clipPath id="clip0">
<rect width="728" height="493" fill="white"/>
</clipPath>
</defs>
</svg>
